<?xml version="1.0" encoding="utf-8" standalone="no"?>
<!DOCTYPE svg PUBLIC "-//W3C//DTD SVG 1.1//EN"
  "http://www.w3.org/Graphics/SVG/1.1/DTD/svg11.dtd">
<!-- Created with matplotlib (http://matplotlib.org/) -->
<svg height="1728pt" version="1.1" viewBox="0 0 1728 1728" width="1728pt" xmlns="http://www.w3.org/2000/svg" xmlns:xlink="http://www.w3.org/1999/xlink">
 <defs>
  <style type="text/css">
*{stroke-linecap:butt;stroke-linejoin:round;stroke-miterlimit:100000;}
  </style>
 </defs>
 <g id="figure_1">
  <g id="patch_1">
   <path d="M 0 1728 
L 1728 1728 
L 1728 0 
L 0 0 
z
" style="fill:#ffffff;"/>
  </g>
  <g id="axes_1">
   <g id="patch_2">
    <path d="M 216 1555.2 
L 1555.2 1555.2 
L 1555.2 172.8 
L 216 172.8 
z
" style="fill:#ffffff;"/>
   </g>
   <g id="line2d_1">
    <path clip-path="url(#p4d4d9a6792)" d="M 1299.94848 386.101555 
L 1285.093818 248.186248 
L 1527.323174 335.108557 
L 1137.968472 679.896964 
L 1431.068064 899.287142 
L 1403.737224 1067.981207 
L 1028.236704 1086.84288 
L 1026.376704 1102.231757 
L 929.900736 1117.059379 
L 915.68736 1432.962662 
L 930.115008 1011.717734 
L 848.037324 909.151249 
L 521.232211 1106.177652 
L 276.655609 616.727596 
L 682.526777 705.416212 
L 1299.94848 386.101555 
" style="fill:none;stroke:#000000;stroke-linecap:square;"/>
    <defs>
     <path d="M 0 2.5 
C 0.663008 2.5 1.29895 2.236584 1.767767 1.767767 
C 2.236584 1.29895 2.5 0.663008 2.5 0 
C 2.5 -0.663008 2.236584 -1.29895 1.767767 -1.767767 
C 1.29895 -2.236584 0.663008 -2.5 0 -2.5 
C -0.663008 -2.5 -1.29895 -2.236584 -1.767767 -1.767767 
C -2.236584 -1.29895 -2.5 -0.663008 -2.5 0 
C -2.5 0.663008 -2.236584 1.29895 -1.767767 1.767767 
C -1.29895 2.236584 -0.663008 2.5 0 2.5 
z
" id="m6d129a0f67" style="stroke:#000000;stroke-width:0.5;"/>
    </defs>
    <g clip-path="url(#p4d4d9a6792)">
     <use style="fill:#00ff00;stroke:#000000;stroke-width:0.5;" x="1299.94848" xlink:href="#m6d129a0f67" y="386.1015552"/>
     <use style="fill:#00ff00;stroke:#000000;stroke-width:0.5;" x="1285.09381766" xlink:href="#m6d129a0f67" y="248.186247783"/>
     <use style="fill:#00ff00;stroke:#000000;stroke-width:0.5;" x="1527.32317411" xlink:href="#m6d129a0f67" y="335.10855721"/>
     <use style="fill:#00ff00;stroke:#000000;stroke-width:0.5;" x="1137.96847238" xlink:href="#m6d129a0f67" y="679.896963994"/>
     <use style="fill:#00ff00;stroke:#000000;stroke-width:0.5;" x="1431.068064" xlink:href="#m6d129a0f67" y="899.2871424"/>
     <use style="fill:#00ff00;stroke:#000000;stroke-width:0.5;" x="1403.737224" xlink:href="#m6d129a0f67" y="1067.98120704"/>
     <use style="fill:#00ff00;stroke:#000000;stroke-width:0.5;" x="1028.236704" xlink:href="#m6d129a0f67" y="1086.84288"/>
     <use style="fill:#00ff00;stroke:#000000;stroke-width:0.5;" x="1026.376704" xlink:href="#m6d129a0f67" y="1102.2317568"/>
     <use style="fill:#00ff00;stroke:#000000;stroke-width:0.5;" x="929.900736" xlink:href="#m6d129a0f67" y="1117.0593792"/>
     <use style="fill:#00ff00;stroke:#000000;stroke-width:0.5;" x="915.68736" xlink:href="#m6d129a0f67" y="1432.9626624"/>
     <use style="fill:#00ff00;stroke:#000000;stroke-width:0.5;" x="930.115008" xlink:href="#m6d129a0f67" y="1011.7177344"/>
     <use style="fill:#00ff00;stroke:#000000;stroke-width:0.5;" x="848.037323808" xlink:href="#m6d129a0f67" y="909.151249306"/>
     <use style="fill:#00ff00;stroke:#000000;stroke-width:0.5;" x="521.232210912" xlink:href="#m6d129a0f67" y="1106.17765171"/>
     <use style="fill:#00ff00;stroke:#000000;stroke-width:0.5;" x="276.655608864" xlink:href="#m6d129a0f67" y="616.727596032"/>
     <use style="fill:#00ff00;stroke:#000000;stroke-width:0.5;" x="682.52677728" xlink:href="#m6d129a0f67" y="705.416211763"/>
     <use style="fill:#00ff00;stroke:#000000;stroke-width:0.5;" x="1299.94848" xlink:href="#m6d129a0f67" y="386.1015552"/>
    </g>
   </g>
   <g id="patch_3">
    <path d="M 216 172.8 
L 1555.2 172.8 
" style="fill:none;stroke:#000000;stroke-linecap:square;stroke-linejoin:miter;"/>
   </g>
   <g id="patch_4">
    <path d="M 1555.2 1555.2 
L 1555.2 172.8 
" style="fill:none;stroke:#000000;stroke-linecap:square;stroke-linejoin:miter;"/>
   </g>
   <g id="patch_5">
    <path d="M 216 1555.2 
L 1555.2 1555.2 
" style="fill:none;stroke:#000000;stroke-linecap:square;stroke-linejoin:miter;"/>
   </g>
   <g id="patch_6">
    <path d="M 216 1555.2 
L 216 172.8 
" style="fill:none;stroke:#000000;stroke-linecap:square;stroke-linejoin:miter;"/>
   </g>
   <g id="matplotlib.axis_1">
    <g id="xtick_1">
     <g id="line2d_2">
      <defs>
       <path d="M 0 0 
L 0 -4 
" id="m3a4a245274" style="stroke:#000000;stroke-width:0.5;"/>
      </defs>
      <g>
       <use style="stroke:#000000;stroke-width:0.5;" x="364.8" xlink:href="#m3a4a245274" y="1555.2"/>
      </g>
     </g>
     <g id="line2d_3">
      <defs>
       <path d="M 0 0 
L 0 4 
" id="m4d2dbc7c62" style="stroke:#000000;stroke-width:0.5;"/>
      </defs>
      <g>
       <use style="stroke:#000000;stroke-width:0.5;" x="364.8" xlink:href="#m4d2dbc7c62" y="172.8"/>
      </g>
     </g>
     <g id="text_1">
      <!-- 77.11 -->
      <defs>
       <path d="M 12.40625 8.296875 
L 28.515625 8.296875 
L 28.515625 63.921875 
L 10.984375 60.40625 
L 10.984375 69.390625 
L 28.421875 72.90625 
L 38.28125 72.90625 
L 38.28125 8.296875 
L 54.390625 8.296875 
L 54.390625 0 
L 12.40625 0 
z
" id="BitstreamVeraSans-Roman-31"/>
       <path d="M 10.6875 12.40625 
L 21 12.40625 
L 21 0 
L 10.6875 0 
z
" id="BitstreamVeraSans-Roman-2e"/>
       <path d="M 8.203125 72.90625 
L 55.078125 72.90625 
L 55.078125 68.703125 
L 28.609375 0 
L 18.3125 0 
L 43.21875 64.59375 
L 8.203125 64.59375 
z
" id="BitstreamVeraSans-Roman-37"/>
      </defs>
      <g transform="translate(347.623125 1568.318125)scale(0.12 -0.12)">
       <use xlink:href="#BitstreamVeraSans-Roman-37"/>
       <use x="63.623046875" xlink:href="#BitstreamVeraSans-Roman-37"/>
       <use x="127.24609375" xlink:href="#BitstreamVeraSans-Roman-2e"/>
       <use x="159.033203125" xlink:href="#BitstreamVeraSans-Roman-31"/>
       <use x="222.65625" xlink:href="#BitstreamVeraSans-Roman-31"/>
      </g>
     </g>
    </g>
    <g id="xtick_2">
     <g id="line2d_4">
      <g>
       <use style="stroke:#000000;stroke-width:0.5;" x="662.399999999" xlink:href="#m3a4a245274" y="1555.2"/>
      </g>
     </g>
     <g id="line2d_5">
      <g>
       <use style="stroke:#000000;stroke-width:0.5;" x="662.399999999" xlink:href="#m4d2dbc7c62" y="172.8"/>
      </g>
     </g>
     <g id="text_2">
      <!-- 77.12 -->
      <defs>
       <path d="M 19.1875 8.296875 
L 53.609375 8.296875 
L 53.609375 0 
L 7.328125 0 
L 7.328125 8.296875 
Q 12.9375 14.109375 22.625 23.890625 
Q 32.328125 33.6875 34.8125 36.53125 
Q 39.546875 41.84375 41.421875 45.53125 
Q 43.3125 49.21875 43.3125 52.78125 
Q 43.3125 58.59375 39.234375 62.25 
Q 35.15625 65.921875 28.609375 65.921875 
Q 23.96875 65.921875 18.8125 64.3125 
Q 13.671875 62.703125 7.8125 59.421875 
L 7.8125 69.390625 
Q 13.765625 71.78125 18.9375 73 
Q 24.125 74.21875 28.421875 74.21875 
Q 39.75 74.21875 46.484375 68.546875 
Q 53.21875 62.890625 53.21875 53.421875 
Q 53.21875 48.921875 51.53125 44.890625 
Q 49.859375 40.875 45.40625 35.40625 
Q 44.1875 33.984375 37.640625 27.21875 
Q 31.109375 20.453125 19.1875 8.296875 
" id="BitstreamVeraSans-Roman-32"/>
      </defs>
      <g transform="translate(645.223124999 1568.318125)scale(0.12 -0.12)">
       <use xlink:href="#BitstreamVeraSans-Roman-37"/>
       <use x="63.623046875" xlink:href="#BitstreamVeraSans-Roman-37"/>
       <use x="127.24609375" xlink:href="#BitstreamVeraSans-Roman-2e"/>
       <use x="159.033203125" xlink:href="#BitstreamVeraSans-Roman-31"/>
       <use x="222.65625" xlink:href="#BitstreamVeraSans-Roman-32"/>
      </g>
     </g>
    </g>
    <g id="xtick_3">
     <g id="line2d_6">
      <g>
       <use style="stroke:#000000;stroke-width:0.5;" x="960.0" xlink:href="#m3a4a245274" y="1555.2"/>
      </g>
     </g>
     <g id="line2d_7">
      <g>
       <use style="stroke:#000000;stroke-width:0.5;" x="960.0" xlink:href="#m4d2dbc7c62" y="172.8"/>
      </g>
     </g>
     <g id="text_3">
      <!-- 77.13 -->
      <defs>
       <path d="M 40.578125 39.3125 
Q 47.65625 37.796875 51.625 33 
Q 55.609375 28.21875 55.609375 21.1875 
Q 55.609375 10.40625 48.1875 4.484375 
Q 40.765625 -1.421875 27.09375 -1.421875 
Q 22.515625 -1.421875 17.65625 -0.515625 
Q 12.796875 0.390625 7.625 2.203125 
L 7.625 11.71875 
Q 11.71875 9.328125 16.59375 8.109375 
Q 21.484375 6.890625 26.8125 6.890625 
Q 36.078125 6.890625 40.9375 10.546875 
Q 45.796875 14.203125 45.796875 21.1875 
Q 45.796875 27.640625 41.28125 31.265625 
Q 36.765625 34.90625 28.71875 34.90625 
L 20.21875 34.90625 
L 20.21875 43.015625 
L 29.109375 43.015625 
Q 36.375 43.015625 40.234375 45.921875 
Q 44.09375 48.828125 44.09375 54.296875 
Q 44.09375 59.90625 40.109375 62.90625 
Q 36.140625 65.921875 28.71875 65.921875 
Q 24.65625 65.921875 20.015625 65.03125 
Q 15.375 64.15625 9.8125 62.3125 
L 9.8125 71.09375 
Q 15.4375 72.65625 20.34375 73.4375 
Q 25.25 74.21875 29.59375 74.21875 
Q 40.828125 74.21875 47.359375 69.109375 
Q 53.90625 64.015625 53.90625 55.328125 
Q 53.90625 49.265625 50.4375 45.09375 
Q 46.96875 40.921875 40.578125 39.3125 
" id="BitstreamVeraSans-Roman-33"/>
      </defs>
      <g transform="translate(942.823125 1568.318125)scale(0.12 -0.12)">
       <use xlink:href="#BitstreamVeraSans-Roman-37"/>
       <use x="63.623046875" xlink:href="#BitstreamVeraSans-Roman-37"/>
       <use x="127.24609375" xlink:href="#BitstreamVeraSans-Roman-2e"/>
       <use x="159.033203125" xlink:href="#BitstreamVeraSans-Roman-31"/>
       <use x="222.65625" xlink:href="#BitstreamVeraSans-Roman-33"/>
      </g>
     </g>
    </g>
    <g id="xtick_4">
     <g id="line2d_8">
      <g>
       <use style="stroke:#000000;stroke-width:0.5;" x="1257.6" xlink:href="#m3a4a245274" y="1555.2"/>
      </g>
     </g>
     <g id="line2d_9">
      <g>
       <use style="stroke:#000000;stroke-width:0.5;" x="1257.6" xlink:href="#m4d2dbc7c62" y="172.8"/>
      </g>
     </g>
     <g id="text_4">
      <!-- 77.14 -->
      <defs>
       <path d="M 37.796875 64.3125 
L 12.890625 25.390625 
L 37.796875 25.390625 
z
M 35.203125 72.90625 
L 47.609375 72.90625 
L 47.609375 25.390625 
L 58.015625 25.390625 
L 58.015625 17.1875 
L 47.609375 17.1875 
L 47.609375 0 
L 37.796875 0 
L 37.796875 17.1875 
L 4.890625 17.1875 
L 4.890625 26.703125 
z
" id="BitstreamVeraSans-Roman-34"/>
      </defs>
      <g transform="translate(1240.423125 1568.318125)scale(0.12 -0.12)">
       <use xlink:href="#BitstreamVeraSans-Roman-37"/>
       <use x="63.623046875" xlink:href="#BitstreamVeraSans-Roman-37"/>
       <use x="127.24609375" xlink:href="#BitstreamVeraSans-Roman-2e"/>
       <use x="159.033203125" xlink:href="#BitstreamVeraSans-Roman-31"/>
       <use x="222.65625" xlink:href="#BitstreamVeraSans-Roman-34"/>
      </g>
     </g>
    </g>
    <g id="xtick_5">
     <g id="line2d_10">
      <g>
       <use style="stroke:#000000;stroke-width:0.5;" x="1555.2" xlink:href="#m3a4a245274" y="1555.2"/>
      </g>
     </g>
     <g id="line2d_11">
      <g>
       <use style="stroke:#000000;stroke-width:0.5;" x="1555.2" xlink:href="#m4d2dbc7c62" y="172.8"/>
      </g>
     </g>
     <g id="text_5">
      <!-- 77.15 -->
      <defs>
       <path d="M 10.796875 72.90625 
L 49.515625 72.90625 
L 49.515625 64.59375 
L 19.828125 64.59375 
L 19.828125 46.734375 
Q 21.96875 47.46875 24.109375 47.828125 
Q 26.265625 48.1875 28.421875 48.1875 
Q 40.625 48.1875 47.75 41.5 
Q 54.890625 34.8125 54.890625 23.390625 
Q 54.890625 11.625 47.5625 5.09375 
Q 40.234375 -1.421875 26.90625 -1.421875 
Q 22.3125 -1.421875 17.546875 -0.640625 
Q 12.796875 0.140625 7.71875 1.703125 
L 7.71875 11.625 
Q 12.109375 9.234375 16.796875 8.0625 
Q 21.484375 6.890625 26.703125 6.890625 
Q 35.15625 6.890625 40.078125 11.328125 
Q 45.015625 15.765625 45.015625 23.390625 
Q 45.015625 31 40.078125 35.4375 
Q 35.15625 39.890625 26.703125 39.890625 
Q 22.75 39.890625 18.8125 39.015625 
Q 14.890625 38.140625 10.796875 36.28125 
z
" id="BitstreamVeraSans-Roman-35"/>
      </defs>
      <g transform="translate(1538.023125 1568.318125)scale(0.12 -0.12)">
       <use xlink:href="#BitstreamVeraSans-Roman-37"/>
       <use x="63.623046875" xlink:href="#BitstreamVeraSans-Roman-37"/>
       <use x="127.24609375" xlink:href="#BitstreamVeraSans-Roman-2e"/>
       <use x="159.033203125" xlink:href="#BitstreamVeraSans-Roman-31"/>
       <use x="222.65625" xlink:href="#BitstreamVeraSans-Roman-35"/>
      </g>
     </g>
    </g>
   </g>
   <g id="matplotlib.axis_2">
    <g id="ytick_1">
     <g id="line2d_12">
      <defs>
       <path d="M 0 0 
L 4 0 
" id="m5c550bc7d0" style="stroke:#000000;stroke-width:0.5;"/>
      </defs>
      <g>
       <use style="stroke:#000000;stroke-width:0.5;" x="216.0" xlink:href="#m5c550bc7d0" y="1555.2"/>
      </g>
     </g>
     <g id="line2d_13">
      <defs>
       <path d="M 0 0 
L -4 0 
" id="mf0182f77a1" style="stroke:#000000;stroke-width:0.5;"/>
      </defs>
      <g>
       <use style="stroke:#000000;stroke-width:0.5;" x="1555.2" xlink:href="#mf0182f77a1" y="1555.2"/>
      </g>
     </g>
     <g id="text_6">
      <!-- 28.74 -->
      <defs>
       <path d="M 31.78125 34.625 
Q 24.75 34.625 20.71875 30.859375 
Q 16.703125 27.09375 16.703125 20.515625 
Q 16.703125 13.921875 20.71875 10.15625 
Q 24.75 6.390625 31.78125 6.390625 
Q 38.8125 6.390625 42.859375 10.171875 
Q 46.921875 13.96875 46.921875 20.515625 
Q 46.921875 27.09375 42.890625 30.859375 
Q 38.875 34.625 31.78125 34.625 
M 21.921875 38.8125 
Q 15.578125 40.375 12.03125 44.71875 
Q 8.5 49.078125 8.5 55.328125 
Q 8.5 64.0625 14.71875 69.140625 
Q 20.953125 74.21875 31.78125 74.21875 
Q 42.671875 74.21875 48.875 69.140625 
Q 55.078125 64.0625 55.078125 55.328125 
Q 55.078125 49.078125 51.53125 44.71875 
Q 48 40.375 41.703125 38.8125 
Q 48.828125 37.15625 52.796875 32.3125 
Q 56.78125 27.484375 56.78125 20.515625 
Q 56.78125 9.90625 50.3125 4.234375 
Q 43.84375 -1.421875 31.78125 -1.421875 
Q 19.734375 -1.421875 13.25 4.234375 
Q 6.78125 9.90625 6.78125 20.515625 
Q 6.78125 27.484375 10.78125 32.3125 
Q 14.796875 37.15625 21.921875 38.8125 
M 18.3125 54.390625 
Q 18.3125 48.734375 21.84375 45.5625 
Q 25.390625 42.390625 31.78125 42.390625 
Q 38.140625 42.390625 41.71875 45.5625 
Q 45.3125 48.734375 45.3125 54.390625 
Q 45.3125 60.0625 41.71875 63.234375 
Q 38.140625 66.40625 31.78125 66.40625 
Q 25.390625 66.40625 21.84375 63.234375 
Q 18.3125 60.0625 18.3125 54.390625 
" id="BitstreamVeraSans-Roman-38"/>
      </defs>
      <g transform="translate(177.64625 1558.51125)scale(0.12 -0.12)">
       <use xlink:href="#BitstreamVeraSans-Roman-32"/>
       <use x="63.623046875" xlink:href="#BitstreamVeraSans-Roman-38"/>
       <use x="127.24609375" xlink:href="#BitstreamVeraSans-Roman-2e"/>
       <use x="159.033203125" xlink:href="#BitstreamVeraSans-Roman-37"/>
       <use x="222.65625" xlink:href="#BitstreamVeraSans-Roman-34"/>
      </g>
     </g>
    </g>
    <g id="ytick_2">
     <g id="line2d_14">
      <g>
       <use style="stroke:#000000;stroke-width:0.5;" x="216.0" xlink:href="#m5c550bc7d0" y="1278.72"/>
      </g>
     </g>
     <g id="line2d_15">
      <g>
       <use style="stroke:#000000;stroke-width:0.5;" x="1555.2" xlink:href="#mf0182f77a1" y="1278.72"/>
      </g>
     </g>
     <g id="text_7">
      <!-- 28.75 -->
      <g transform="translate(177.64625 1282.03125)scale(0.12 -0.12)">
       <use xlink:href="#BitstreamVeraSans-Roman-32"/>
       <use x="63.623046875" xlink:href="#BitstreamVeraSans-Roman-38"/>
       <use x="127.24609375" xlink:href="#BitstreamVeraSans-Roman-2e"/>
       <use x="159.033203125" xlink:href="#BitstreamVeraSans-Roman-37"/>
       <use x="222.65625" xlink:href="#BitstreamVeraSans-Roman-35"/>
      </g>
     </g>
    </g>
    <g id="ytick_3">
     <g id="line2d_16">
      <g>
       <use style="stroke:#000000;stroke-width:0.5;" x="216.0" xlink:href="#m5c550bc7d0" y="1002.24"/>
      </g>
     </g>
     <g id="line2d_17">
      <g>
       <use style="stroke:#000000;stroke-width:0.5;" x="1555.2" xlink:href="#mf0182f77a1" y="1002.24"/>
      </g>
     </g>
     <g id="text_8">
      <!-- 28.76 -->
      <defs>
       <path d="M 33.015625 40.375 
Q 26.375 40.375 22.484375 35.828125 
Q 18.609375 31.296875 18.609375 23.390625 
Q 18.609375 15.53125 22.484375 10.953125 
Q 26.375 6.390625 33.015625 6.390625 
Q 39.65625 6.390625 43.53125 10.953125 
Q 47.40625 15.53125 47.40625 23.390625 
Q 47.40625 31.296875 43.53125 35.828125 
Q 39.65625 40.375 33.015625 40.375 
M 52.59375 71.296875 
L 52.59375 62.3125 
Q 48.875 64.0625 45.09375 64.984375 
Q 41.3125 65.921875 37.59375 65.921875 
Q 27.828125 65.921875 22.671875 59.328125 
Q 17.53125 52.734375 16.796875 39.40625 
Q 19.671875 43.65625 24.015625 45.921875 
Q 28.375 48.1875 33.59375 48.1875 
Q 44.578125 48.1875 50.953125 41.515625 
Q 57.328125 34.859375 57.328125 23.390625 
Q 57.328125 12.15625 50.6875 5.359375 
Q 44.046875 -1.421875 33.015625 -1.421875 
Q 20.359375 -1.421875 13.671875 8.265625 
Q 6.984375 17.96875 6.984375 36.375 
Q 6.984375 53.65625 15.1875 63.9375 
Q 23.390625 74.21875 37.203125 74.21875 
Q 40.921875 74.21875 44.703125 73.484375 
Q 48.484375 72.75 52.59375 71.296875 
" id="BitstreamVeraSans-Roman-36"/>
      </defs>
      <g transform="translate(177.64625 1005.55125)scale(0.12 -0.12)">
       <use xlink:href="#BitstreamVeraSans-Roman-32"/>
       <use x="63.623046875" xlink:href="#BitstreamVeraSans-Roman-38"/>
       <use x="127.24609375" xlink:href="#BitstreamVeraSans-Roman-2e"/>
       <use x="159.033203125" xlink:href="#BitstreamVeraSans-Roman-37"/>
       <use x="222.65625" xlink:href="#BitstreamVeraSans-Roman-36"/>
      </g>
     </g>
    </g>
    <g id="ytick_4">
     <g id="line2d_18">
      <g>
       <use style="stroke:#000000;stroke-width:0.5;" x="216.0" xlink:href="#m5c550bc7d0" y="725.76"/>
      </g>
     </g>
     <g id="line2d_19">
      <g>
       <use style="stroke:#000000;stroke-width:0.5;" x="1555.2" xlink:href="#mf0182f77a1" y="725.76"/>
      </g>
     </g>
     <g id="text_9">
      <!-- 28.77 -->
      <g transform="translate(177.64625 729.07125)scale(0.12 -0.12)">
       <use xlink:href="#BitstreamVeraSans-Roman-32"/>
       <use x="63.623046875" xlink:href="#BitstreamVeraSans-Roman-38"/>
       <use x="127.24609375" xlink:href="#BitstreamVeraSans-Roman-2e"/>
       <use x="159.033203125" xlink:href="#BitstreamVeraSans-Roman-37"/>
       <use x="222.65625" xlink:href="#BitstreamVeraSans-Roman-37"/>
      </g>
     </g>
    </g>
    <g id="ytick_5">
     <g id="line2d_20">
      <g>
       <use style="stroke:#000000;stroke-width:0.5;" x="216.0" xlink:href="#m5c550bc7d0" y="449.28"/>
      </g>
     </g>
     <g id="line2d_21">
      <g>
       <use style="stroke:#000000;stroke-width:0.5;" x="1555.2" xlink:href="#mf0182f77a1" y="449.28"/>
      </g>
     </g>
     <g id="text_10">
      <!-- 28.78 -->
      <g transform="translate(177.64625 452.59125)scale(0.12 -0.12)">
       <use xlink:href="#BitstreamVeraSans-Roman-32"/>
       <use x="63.623046875" xlink:href="#BitstreamVeraSans-Roman-38"/>
       <use x="127.24609375" xlink:href="#BitstreamVeraSans-Roman-2e"/>
       <use x="159.033203125" xlink:href="#BitstreamVeraSans-Roman-37"/>
       <use x="222.65625" xlink:href="#BitstreamVeraSans-Roman-38"/>
      </g>
     </g>
    </g>
    <g id="ytick_6">
     <g id="line2d_22">
      <g>
       <use style="stroke:#000000;stroke-width:0.5;" x="216.0" xlink:href="#m5c550bc7d0" y="172.8"/>
      </g>
     </g>
     <g id="line2d_23">
      <g>
       <use style="stroke:#000000;stroke-width:0.5;" x="1555.2" xlink:href="#mf0182f77a1" y="172.8"/>
      </g>
     </g>
     <g id="text_11">
      <!-- 28.79 -->
      <defs>
       <path d="M 10.984375 1.515625 
L 10.984375 10.5 
Q 14.703125 8.734375 18.5 7.8125 
Q 22.3125 6.890625 25.984375 6.890625 
Q 35.75 6.890625 40.890625 13.453125 
Q 46.046875 20.015625 46.78125 33.40625 
Q 43.953125 29.203125 39.59375 26.953125 
Q 35.25 24.703125 29.984375 24.703125 
Q 19.046875 24.703125 12.671875 31.3125 
Q 6.296875 37.9375 6.296875 49.421875 
Q 6.296875 60.640625 12.9375 67.421875 
Q 19.578125 74.21875 30.609375 74.21875 
Q 43.265625 74.21875 49.921875 64.515625 
Q 56.59375 54.828125 56.59375 36.375 
Q 56.59375 19.140625 48.40625 8.859375 
Q 40.234375 -1.421875 26.421875 -1.421875 
Q 22.703125 -1.421875 18.890625 -0.6875 
Q 15.09375 0.046875 10.984375 1.515625 
M 30.609375 32.421875 
Q 37.25 32.421875 41.125 36.953125 
Q 45.015625 41.5 45.015625 49.421875 
Q 45.015625 57.28125 41.125 61.84375 
Q 37.25 66.40625 30.609375 66.40625 
Q 23.96875 66.40625 20.09375 61.84375 
Q 16.21875 57.28125 16.21875 49.421875 
Q 16.21875 41.5 20.09375 36.953125 
Q 23.96875 32.421875 30.609375 32.421875 
" id="BitstreamVeraSans-Roman-39"/>
      </defs>
      <g transform="translate(177.64625 176.11125)scale(0.12 -0.12)">
       <use xlink:href="#BitstreamVeraSans-Roman-32"/>
       <use x="63.623046875" xlink:href="#BitstreamVeraSans-Roman-38"/>
       <use x="127.24609375" xlink:href="#BitstreamVeraSans-Roman-2e"/>
       <use x="159.033203125" xlink:href="#BitstreamVeraSans-Roman-37"/>
       <use x="222.65625" xlink:href="#BitstreamVeraSans-Roman-39"/>
      </g>
     </g>
    </g>
   </g>
   <g id="patch_7">
    <path d="M 1288.658487 369.504222 
Q 1293.739811 376.974238 1298.192308 383.51982 
" style="fill:none;stroke:#ff0000;stroke-linecap:round;"/>
    <path d="M 1297.834659 380.86048 
L 1298.192308 383.51982 
L 1295.850247 382.210335 
" style="fill:none;stroke:#ff0000;stroke-linecap:round;"/>
   </g>
   <g id="text_12">
    <!-- 0 -->
    <defs>
     <path d="M 31.78125 66.40625 
Q 24.171875 66.40625 20.328125 58.90625 
Q 16.5 51.421875 16.5 36.375 
Q 16.5 21.390625 20.328125 13.890625 
Q 24.171875 6.390625 31.78125 6.390625 
Q 39.453125 6.390625 43.28125 13.890625 
Q 47.125 21.390625 47.125 36.375 
Q 47.125 51.421875 43.28125 58.90625 
Q 39.453125 66.40625 31.78125 66.40625 
M 31.78125 74.21875 
Q 44.046875 74.21875 50.515625 64.515625 
Q 56.984375 54.828125 56.984375 36.375 
Q 56.984375 17.96875 50.515625 8.265625 
Q 44.046875 -1.421875 31.78125 -1.421875 
Q 19.53125 -1.421875 13.0625 8.265625 
Q 6.59375 17.96875 6.59375 36.375 
Q 6.59375 54.828125 13.0625 64.515625 
Q 19.53125 74.21875 31.78125 74.21875 
" id="BitstreamVeraSans-Roman-30"/>
    </defs>
    <g style="fill:#ff0000;" transform="translate(1281.94848 364.1015552)scale(0.06 -0.06)">
     <use xlink:href="#BitstreamVeraSans-Roman-30"/>
    </g>
   </g>
   <g id="patch_8">
    <path d="M 1303.047873 233.426037 
Q 1294.843405 240.171014 1287.502581 246.205979 
" style="fill:none;stroke:#ff0000;stroke-linecap:round;"/>
    <path d="M 1290.118569 245.608811 
L 1287.502581 246.205979 
L 1288.59444 243.754888 
" style="fill:none;stroke:#ff0000;stroke-linecap:round;"/>
   </g>
   <g id="text_13">
    <!-- 1 -->
    <g style="fill:#ff0000;" transform="translate(1307.09381766 230.186247783)scale(0.06 -0.06)">
     <use xlink:href="#BitstreamVeraSans-Roman-31"/>
    </g>
   </g>
   <g id="patch_9">
    <path d="M 1547.075494 346.044426 
Q 1538.073384 341.060409 1530.049402 336.617933 
" style="fill:none;stroke:#ff0000;stroke-linecap:round;"/>
    <path d="M 1531.567833 338.830254 
L 1530.049402 336.617933 
L 1532.730318 336.73058 
" style="fill:none;stroke:#ff0000;stroke-linecap:round;"/>
   </g>
   <g id="text_14">
    <!-- 2 -->
    <g style="fill:#ff0000;" transform="translate(1551.32317411 351.10855721)scale(0.06 -0.06)">
     <use xlink:href="#BitstreamVeraSans-Roman-32"/>
    </g>
   </g>
   <g id="patch_10">
    <path d="M 1154.068001 696.316609 
Q 1146.718857 688.821338 1140.152462 682.124379 
" style="fill:none;stroke:#ff0000;stroke-linecap:round;"/>
    <path d="M 1140.975892 684.678193 
L 1140.152462 682.124379 
L 1142.689571 682.997924 
" style="fill:none;stroke:#ff0000;stroke-linecap:round;"/>
   </g>
   <g id="text_15">
    <!-- 3 -->
    <g style="fill:#ff0000;" transform="translate(1157.96847238 703.896963994)scale(0.06 -0.06)">
     <use xlink:href="#BitstreamVeraSans-Roman-33"/>
    </g>
   </g>
   <g id="patch_11">
    <path d="M 1449.991694 913.983415 
Q 1441.318748 907.247923 1433.528825 901.198193 
" style="fill:none;stroke:#ff0000;stroke-linecap:round;"/>
    <path d="M 1434.688305 903.61803 
L 1433.528825 901.198193 
L 1436.160382 901.722512 
" style="fill:none;stroke:#ff0000;stroke-linecap:round;"/>
   </g>
   <g id="text_16">
    <!-- 4 -->
    <g style="fill:#ff0000;" transform="translate(1454.068064 920.2871424)scale(0.06 -0.06)">
     <use xlink:href="#BitstreamVeraSans-Roman-34"/>
    </g>
   </g>
   <g id="patch_12">
    <path d="M 1387.451584 1051.279511 
Q 1394.895624 1058.913727 1401.559129 1065.747467 
" style="fill:none;stroke:#ff0000;stroke-linecap:round;"/>
    <path d="M 1400.742772 1063.191384 
L 1401.559129 1065.747467 
L 1399.024448 1064.866902 
" style="fill:none;stroke:#ff0000;stroke-linecap:round;"/>
   </g>
   <g id="text_17">
    <!-- 5 -->
    <g style="fill:#ff0000;" transform="translate(1379.737224 1046.98120704)scale(0.06 -0.06)">
     <use xlink:href="#BitstreamVeraSans-Roman-35"/>
    </g>
   </g>
   <g id="patch_13">
    <path d="M 1045.215678 1072.274982 
Q 1037.485809 1078.907181 1030.604458 1084.811356 
" style="fill:none;stroke:#ff0000;stroke-linecap:round;"/>
    <path d="M 1033.207303 1084.159284 
L 1030.604458 1084.811356 
L 1031.644507 1082.337837 
" style="fill:none;stroke:#ff0000;stroke-linecap:round;"/>
   </g>
   <g id="text_18">
    <!-- 6 -->
    <g style="fill:#ff0000;" transform="translate(1049.236704 1068.84288)scale(0.06 -0.06)">
     <use xlink:href="#BitstreamVeraSans-Roman-36"/>
    </g>
   </g>
   <g id="patch_14">
    <path d="M 1043.391808 1086.890125 
Q 1035.626798 1093.89143 1028.692134 1100.144054 
" style="fill:none;stroke:#ff0000;stroke-linecap:round;"/>
    <path d="M 1031.278148 1099.428139 
L 1028.692134 1100.144054 
L 1029.67101 1097.645694 
" style="fill:none;stroke:#ff0000;stroke-linecap:round;"/>
   </g>
   <g id="text_19">
    <!-- 7 -->
    <g style="fill:#ff0000;" transform="translate(1047.376704 1083.2317568)scale(0.06 -0.06)">
     <use xlink:href="#BitstreamVeraSans-Roman-37"/>
    </g>
   </g>
   <g id="patch_15">
    <path d="M 946.902291 1132.157803 
Q 939.14969 1125.273018 932.233061 1119.130627 
" style="fill:none;stroke:#ff0000;stroke-linecap:round;"/>
    <path d="M 933.230759 1121.62153 
L 932.233061 1119.130627 
L 934.824402 1119.827011 
" style="fill:none;stroke:#ff0000;stroke-linecap:round;"/>
   </g>
   <g id="text_20">
    <!-- 8 -->
    <g style="fill:#ff0000;" transform="translate(950.900736 1139.0593792)scale(0.06 -0.06)">
     <use xlink:href="#BitstreamVeraSans-Roman-38"/>
    </g>
   </g>
   <g id="patch_16">
    <path d="M 935.471179 1444.679566 
Q 926.440223 1439.331011 918.371248 1434.552187 
" style="fill:none;stroke:#ff0000;stroke-linecap:round;"/>
    <path d="M 919.824762 1436.80769 
L 918.371248 1434.552187 
L 921.04776 1434.742678 
" style="fill:none;stroke:#ff0000;stroke-linecap:round;"/>
   </g>
   <g id="text_21">
    <!-- 9 -->
    <g style="fill:#ff0000;" transform="translate(939.68736 1449.9626624)scale(0.06 -0.06)">
     <use xlink:href="#BitstreamVeraSans-Roman-39"/>
    </g>
   </g>
   <g id="patch_17">
    <path d="M 916.872585 1027.142922 
Q 922.842344 1020.18916 928.083836 1014.083706 
" style="fill:none;stroke:#ff0000;stroke-linecap:round;"/>
    <path d="M 925.61002 1015.123048 
L 928.083836 1014.083706 
L 927.43102 1016.686365 
" style="fill:none;stroke:#ff0000;stroke-linecap:round;"/>
   </g>
   <g id="text_22">
    <!-- 10 -->
    <g style="fill:#ff0000;" transform="translate(907.115008 1035.7177344)scale(0.06 -0.06)">
     <use xlink:href="#BitstreamVeraSans-Roman-31"/>
     <use x="63.623046875" xlink:href="#BitstreamVeraSans-Roman-30"/>
    </g>
   </g>
   <g id="patch_18">
    <path d="M 867.984492 892.90552 
Q 858.786442 900.396761 850.455291 907.181966 
" style="fill:none;stroke:#ff0000;stroke-linecap:round;"/>
    <path d="M 853.073995 906.596826 
L 850.455291 907.181966 
L 851.558401 904.735918 
" style="fill:none;stroke:#ff0000;stroke-linecap:round;"/>
   </g>
   <g id="text_23">
    <!-- 11 -->
    <g style="fill:#ff0000;" transform="translate(872.037323808 888.151249306)scale(0.06 -0.06)">
     <use xlink:href="#BitstreamVeraSans-Roman-31"/>
     <use x="63.623046875" xlink:href="#BitstreamVeraSans-Roman-31"/>
    </g>
   </g>
   <g id="patch_19">
    <path d="M 508.720804 1093.357659 
Q 514.278545 1099.052477 519.055404 1103.947155 
" style="fill:none;stroke:#ff0000;stroke-linecap:round;"/>
    <path d="M 518.237947 1101.391424 
L 519.055404 1103.947155 
L 516.520345 1103.067682 
" style="fill:none;stroke:#ff0000;stroke-linecap:round;"/>
   </g>
   <g id="text_24">
    <!-- 12 -->
    <g style="fill:#ff0000;" transform="translate(498.232210912 1088.17765171)scale(0.06 -0.06)">
     <use xlink:href="#BitstreamVeraSans-Roman-31"/>
     <use x="63.623046875" xlink:href="#BitstreamVeraSans-Roman-32"/>
    </g>
   </g>
   <g id="patch_20">
    <path d="M 292.61084 603.560386 
Q 285.405471 609.506686 279.062415 614.741356 
" style="fill:none;stroke:#ff0000;stroke-linecap:round;"/>
    <path d="M 281.677277 614.139281 
L 279.062415 614.741356 
L 280.149672 612.288221 
" style="fill:none;stroke:#ff0000;stroke-linecap:round;"/>
   </g>
   <g id="text_25">
    <!-- 13 -->
    <g style="fill:#ff0000;" transform="translate(296.655608864 598.727596032)scale(0.06 -0.06)">
     <use xlink:href="#BitstreamVeraSans-Roman-31"/>
     <use x="63.623046875" xlink:href="#BitstreamVeraSans-Roman-33"/>
    </g>
   </g>
   <g id="patch_21">
    <path d="M 667.829146 686.732851 
Q 674.559879 695.288836 680.599347 702.966098 
" style="fill:none;stroke:#ff0000;stroke-linecap:round;"/>
    <path d="M 680.058606 700.337867 
L 680.599347 702.966098 
L 678.172318 701.821753 
" style="fill:none;stroke:#ff0000;stroke-linecap:round;"/>
   </g>
   <g id="text_26">
    <!-- 14 -->
    <g style="fill:#ff0000;" transform="translate(658.52677728 681.416211763)scale(0.06 -0.06)">
     <use xlink:href="#BitstreamVeraSans-Roman-31"/>
     <use x="63.623046875" xlink:href="#BitstreamVeraSans-Roman-34"/>
    </g>
   </g>
   <g id="patch_22">
    <path d="M 1317.878566 400.230592 
Q 1309.698183 393.784391 1302.395952 388.030181 
" style="fill:none;stroke:#ff0000;stroke-linecap:round;"/>
    <path d="M 1303.538293 390.458154 
L 1302.395952 388.030181 
L 1305.023736 388.573092 
" style="fill:none;stroke:#ff0000;stroke-linecap:round;"/>
   </g>
   <g id="text_27">
    <!-- 15 -->
    <g style="fill:#ff0000;" transform="translate(1321.94848 408.1015552)scale(0.06 -0.06)">
     <use xlink:href="#BitstreamVeraSans-Roman-31"/>
     <use x="63.623046875" xlink:href="#BitstreamVeraSans-Roman-35"/>
    </g>
   </g>
   <g id="text_28">
    <!-- TSP: 50, Cost: 17, N: 15 -->
    <defs>
     <path id="BitstreamVeraSans-Roman-20"/>
     <path d="M 9.8125 72.90625 
L 23.09375 72.90625 
L 55.421875 11.921875 
L 55.421875 72.90625 
L 64.984375 72.90625 
L 64.984375 0 
L 51.703125 0 
L 19.390625 60.984375 
L 19.390625 0 
L 9.8125 0 
z
" id="BitstreamVeraSans-Roman-4e"/>
     <path d="M 30.609375 48.390625 
Q 23.390625 48.390625 19.1875 42.75 
Q 14.984375 37.109375 14.984375 27.296875 
Q 14.984375 17.484375 19.15625 11.84375 
Q 23.34375 6.203125 30.609375 6.203125 
Q 37.796875 6.203125 41.984375 11.859375 
Q 46.1875 17.53125 46.1875 27.296875 
Q 46.1875 37.015625 41.984375 42.703125 
Q 37.796875 48.390625 30.609375 48.390625 
M 30.609375 56 
Q 42.328125 56 49.015625 48.375 
Q 55.71875 40.765625 55.71875 27.296875 
Q 55.71875 13.875 49.015625 6.21875 
Q 42.328125 -1.421875 30.609375 -1.421875 
Q 18.84375 -1.421875 12.171875 6.21875 
Q 5.515625 13.875 5.515625 27.296875 
Q 5.515625 40.765625 12.171875 48.375 
Q 18.84375 56 30.609375 56 
" id="BitstreamVeraSans-Roman-6f"/>
     <path d="M 19.671875 64.796875 
L 19.671875 37.40625 
L 32.078125 37.40625 
Q 38.96875 37.40625 42.71875 40.96875 
Q 46.484375 44.53125 46.484375 51.125 
Q 46.484375 57.671875 42.71875 61.234375 
Q 38.96875 64.796875 32.078125 64.796875 
z
M 9.8125 72.90625 
L 32.078125 72.90625 
Q 44.34375 72.90625 50.609375 67.359375 
Q 56.890625 61.8125 56.890625 51.125 
Q 56.890625 40.328125 50.609375 34.8125 
Q 44.34375 29.296875 32.078125 29.296875 
L 19.671875 29.296875 
L 19.671875 0 
L 9.8125 0 
z
" id="BitstreamVeraSans-Roman-50"/>
     <path d="M 11.71875 12.40625 
L 22.015625 12.40625 
L 22.015625 4 
L 14.015625 -11.625 
L 7.71875 -11.625 
L 11.71875 4 
z
" id="BitstreamVeraSans-Roman-2c"/>
     <path d="M 53.515625 70.515625 
L 53.515625 60.890625 
Q 47.90625 63.578125 42.921875 64.890625 
Q 37.9375 66.21875 33.296875 66.21875 
Q 25.25 66.21875 20.875 63.09375 
Q 16.5 59.96875 16.5 54.203125 
Q 16.5 49.359375 19.40625 46.890625 
Q 22.3125 44.4375 30.421875 42.921875 
L 36.375 41.703125 
Q 47.40625 39.59375 52.65625 34.296875 
Q 57.90625 29 57.90625 20.125 
Q 57.90625 9.515625 50.796875 4.046875 
Q 43.703125 -1.421875 29.984375 -1.421875 
Q 24.8125 -1.421875 18.96875 -0.25 
Q 13.140625 0.921875 6.890625 3.21875 
L 6.890625 13.375 
Q 12.890625 10.015625 18.65625 8.296875 
Q 24.421875 6.59375 29.984375 6.59375 
Q 38.421875 6.59375 43.015625 9.90625 
Q 47.609375 13.234375 47.609375 19.390625 
Q 47.609375 24.75 44.3125 27.78125 
Q 41.015625 30.8125 33.5 32.328125 
L 27.484375 33.5 
Q 16.453125 35.6875 11.515625 40.375 
Q 6.59375 45.0625 6.59375 53.421875 
Q 6.59375 63.09375 13.40625 68.65625 
Q 20.21875 74.21875 32.171875 74.21875 
Q 37.3125 74.21875 42.625 73.28125 
Q 47.953125 72.359375 53.515625 70.515625 
" id="BitstreamVeraSans-Roman-53"/>
     <path d="M -0.296875 72.90625 
L 61.375 72.90625 
L 61.375 64.59375 
L 35.5 64.59375 
L 35.5 0 
L 25.59375 0 
L 25.59375 64.59375 
L -0.296875 64.59375 
z
" id="BitstreamVeraSans-Roman-54"/>
     <path d="M 64.40625 67.28125 
L 64.40625 56.890625 
Q 59.421875 61.53125 53.78125 63.8125 
Q 48.140625 66.109375 41.796875 66.109375 
Q 29.296875 66.109375 22.65625 58.46875 
Q 16.015625 50.828125 16.015625 36.375 
Q 16.015625 21.96875 22.65625 14.328125 
Q 29.296875 6.6875 41.796875 6.6875 
Q 48.140625 6.6875 53.78125 8.984375 
Q 59.421875 11.28125 64.40625 15.921875 
L 64.40625 5.609375 
Q 59.234375 2.09375 53.4375 0.328125 
Q 47.65625 -1.421875 41.21875 -1.421875 
Q 24.65625 -1.421875 15.125 8.703125 
Q 5.609375 18.84375 5.609375 36.375 
Q 5.609375 53.953125 15.125 64.078125 
Q 24.65625 74.21875 41.21875 74.21875 
Q 47.75 74.21875 53.53125 72.484375 
Q 59.328125 70.75 64.40625 67.28125 
" id="BitstreamVeraSans-Roman-43"/>
     <path d="M 18.3125 70.21875 
L 18.3125 54.6875 
L 36.8125 54.6875 
L 36.8125 47.703125 
L 18.3125 47.703125 
L 18.3125 18.015625 
Q 18.3125 11.328125 20.140625 9.421875 
Q 21.96875 7.515625 27.59375 7.515625 
L 36.8125 7.515625 
L 36.8125 0 
L 27.59375 0 
Q 17.1875 0 13.234375 3.875 
Q 9.28125 7.765625 9.28125 18.015625 
L 9.28125 47.703125 
L 2.6875 47.703125 
L 2.6875 54.6875 
L 9.28125 54.6875 
L 9.28125 70.21875 
z
" id="BitstreamVeraSans-Roman-74"/>
     <path d="M 11.71875 12.40625 
L 22.015625 12.40625 
L 22.015625 0 
L 11.71875 0 
z
M 11.71875 51.703125 
L 22.015625 51.703125 
L 22.015625 39.3125 
L 11.71875 39.3125 
z
" id="BitstreamVeraSans-Roman-3a"/>
     <path d="M 44.28125 53.078125 
L 44.28125 44.578125 
Q 40.484375 46.53125 36.375 47.5 
Q 32.28125 48.484375 27.875 48.484375 
Q 21.1875 48.484375 17.84375 46.4375 
Q 14.5 44.390625 14.5 40.28125 
Q 14.5 37.15625 16.890625 35.375 
Q 19.28125 33.59375 26.515625 31.984375 
L 29.59375 31.296875 
Q 39.15625 29.25 43.1875 25.515625 
Q 47.21875 21.78125 47.21875 15.09375 
Q 47.21875 7.46875 41.1875 3.015625 
Q 35.15625 -1.421875 24.609375 -1.421875 
Q 20.21875 -1.421875 15.453125 -0.5625 
Q 10.6875 0.296875 5.421875 2 
L 5.421875 11.28125 
Q 10.40625 8.6875 15.234375 7.390625 
Q 20.0625 6.109375 24.8125 6.109375 
Q 31.15625 6.109375 34.5625 8.28125 
Q 37.984375 10.453125 37.984375 14.40625 
Q 37.984375 18.0625 35.515625 20.015625 
Q 33.0625 21.96875 24.703125 23.78125 
L 21.578125 24.515625 
Q 13.234375 26.265625 9.515625 29.90625 
Q 5.8125 33.546875 5.8125 39.890625 
Q 5.8125 47.609375 11.28125 51.796875 
Q 16.75 56 26.8125 56 
Q 31.78125 56 36.171875 55.265625 
Q 40.578125 54.546875 44.28125 53.078125 
" id="BitstreamVeraSans-Roman-73"/>
    </defs>
    <g transform="translate(800.116875 167.8)scale(0.144 -0.144)">
     <use xlink:href="#BitstreamVeraSans-Roman-54"/>
     <use x="61.083984375" xlink:href="#BitstreamVeraSans-Roman-53"/>
     <use x="124.560546875" xlink:href="#BitstreamVeraSans-Roman-50"/>
     <use x="184.86328125" xlink:href="#BitstreamVeraSans-Roman-3a"/>
     <use x="218.5546875" xlink:href="#BitstreamVeraSans-Roman-20"/>
     <use x="250.341796875" xlink:href="#BitstreamVeraSans-Roman-35"/>
     <use x="313.96484375" xlink:href="#BitstreamVeraSans-Roman-30"/>
     <use x="377.587890625" xlink:href="#BitstreamVeraSans-Roman-2c"/>
     <use x="409.375" xlink:href="#BitstreamVeraSans-Roman-20"/>
     <use x="441.162109375" xlink:href="#BitstreamVeraSans-Roman-43"/>
     <use x="510.986328125" xlink:href="#BitstreamVeraSans-Roman-6f"/>
     <use x="572.16796875" xlink:href="#BitstreamVeraSans-Roman-73"/>
     <use x="624.267578125" xlink:href="#BitstreamVeraSans-Roman-74"/>
     <use x="663.4765625" xlink:href="#BitstreamVeraSans-Roman-3a"/>
     <use x="697.16796875" xlink:href="#BitstreamVeraSans-Roman-20"/>
     <use x="728.955078125" xlink:href="#BitstreamVeraSans-Roman-31"/>
     <use x="792.578125" xlink:href="#BitstreamVeraSans-Roman-37"/>
     <use x="856.201171875" xlink:href="#BitstreamVeraSans-Roman-2c"/>
     <use x="887.98828125" xlink:href="#BitstreamVeraSans-Roman-20"/>
     <use x="919.775390625" xlink:href="#BitstreamVeraSans-Roman-4e"/>
     <use x="994.580078125" xlink:href="#BitstreamVeraSans-Roman-3a"/>
     <use x="1028.27148438" xlink:href="#BitstreamVeraSans-Roman-20"/>
     <use x="1060.05859375" xlink:href="#BitstreamVeraSans-Roman-31"/>
     <use x="1123.68164062" xlink:href="#BitstreamVeraSans-Roman-35"/>
    </g>
   </g>
  </g>
 </g>
 <defs>
  <clipPath id="p4d4d9a6792">
   <rect height="1382.4" width="1339.2" x="216.0" y="172.8"/>
  </clipPath>
 </defs>
</svg>
