<?xml version="1.0" encoding="utf-8" standalone="no"?>
<!DOCTYPE svg PUBLIC "-//W3C//DTD SVG 1.1//EN"
  "http://www.w3.org/Graphics/SVG/1.1/DTD/svg11.dtd">
<!-- Created with matplotlib (http://matplotlib.org/) -->
<svg height="1728pt" version="1.1" viewBox="0 0 1728 1728" width="1728pt" xmlns="http://www.w3.org/2000/svg" xmlns:xlink="http://www.w3.org/1999/xlink">
 <defs>
  <style type="text/css">
*{stroke-linecap:butt;stroke-linejoin:round;stroke-miterlimit:100000;}
  </style>
 </defs>
 <g id="figure_1">
  <g id="patch_1">
   <path d="M 0 1728 
L 1728 1728 
L 1728 0 
L 0 0 
z
" style="fill:#ffffff;"/>
  </g>
  <g id="axes_1">
   <g id="patch_2">
    <path d="M 216 1555.2 
L 1555.2 1555.2 
L 1555.2 172.8 
L 216 172.8 
z
" style="fill:#ffffff;"/>
   </g>
   <g id="line2d_1">
    <path clip-path="url(#pe57dd1b84f)" d="M 1420.449819 991.63635 
L 1390.808729 857.809367 
L 1311.935824 485.376166 
L 1166.882637 279.71735 
L 1263.571869 183.270116 
L 854.133362 263.881144 
L 846.617649 198.259394 
L 829.149823 323.834902 
L 814.061034 320.931594 
L 749.128895 481.617503 
L 597.654814 410.508027 
L 410.287563 579.249423 
L 356.633041 675.079161 
L 475.807032 767.232 
L 573.876648 1030.293504 
L 483.561721 1259.307832 
L 806.741822 867.246867 
L 857.11968 1023.737856 
L 954.883512 808.51968 
L 1057.872659 731.664479 
L 1033.990002 766.620786 
L 1013.685552 890.118144 
L 1043.512647 1061.015031 
L 978.05854 1369.534175 
L 919.604214 1433.774961 
L 1310.174464 1265.998492 
L 1464.584623 1152.721662 
L 1420.449819 991.63635 
" style="fill:none;stroke:#000000;stroke-linecap:square;"/>
    <defs>
     <path d="M 0 2.5 
C 0.663008 2.5 1.29895 2.236584 1.767767 1.767767 
C 2.236584 1.29895 2.5 0.663008 2.5 0 
C 2.5 -0.663008 2.236584 -1.29895 1.767767 -1.767767 
C 1.29895 -2.236584 0.663008 -2.5 0 -2.5 
C -0.663008 -2.5 -1.29895 -2.236584 -1.767767 -1.767767 
C -2.236584 -1.29895 -2.5 -0.663008 -2.5 0 
C -2.5 0.663008 -2.236584 1.29895 -1.767767 1.767767 
C -1.29895 2.236584 -0.663008 2.5 0 2.5 
z
" id="m92b9698584" style="stroke:#000000;stroke-width:0.5;"/>
    </defs>
    <g clip-path="url(#pe57dd1b84f)">
     <use style="fill:#00ff00;stroke:#000000;stroke-width:0.5;" x="1420.44981876" xlink:href="#m92b9698584" y="991.636349952"/>
     <use style="fill:#00ff00;stroke:#000000;stroke-width:0.5;" x="1390.8087293" xlink:href="#m92b9698584" y="857.80936704"/>
     <use style="fill:#00ff00;stroke:#000000;stroke-width:0.5;" x="1311.93582437" xlink:href="#m92b9698584" y="485.376165888"/>
     <use style="fill:#00ff00;stroke:#000000;stroke-width:0.5;" x="1166.88263738" xlink:href="#m92b9698584" y="279.7173504"/>
     <use style="fill:#00ff00;stroke:#000000;stroke-width:0.5;" x="1263.57186852" xlink:href="#m92b9698584" y="183.270116352"/>
     <use style="fill:#00ff00;stroke:#000000;stroke-width:0.5;" x="854.133362208" xlink:href="#m92b9698584" y="263.88114432"/>
     <use style="fill:#00ff00;stroke:#000000;stroke-width:0.5;" x="846.617649048" xlink:href="#m92b9698584" y="198.259393536"/>
     <use style="fill:#00ff00;stroke:#000000;stroke-width:0.5;" x="829.149822864" xlink:href="#m92b9698584" y="323.834901504"/>
     <use style="fill:#00ff00;stroke:#000000;stroke-width:0.5;" x="814.061034144" xlink:href="#m92b9698584" y="320.93159424"/>
     <use style="fill:#00ff00;stroke:#000000;stroke-width:0.5;" x="749.128895424" xlink:href="#m92b9698584" y="481.617503232"/>
     <use style="fill:#00ff00;stroke:#000000;stroke-width:0.5;" x="597.6548136" xlink:href="#m92b9698584" y="410.50802688"/>
     <use style="fill:#00ff00;stroke:#000000;stroke-width:0.5;" x="410.287562568" xlink:href="#m92b9698584" y="579.24942336"/>
     <use style="fill:#00ff00;stroke:#000000;stroke-width:0.5;" x="356.63304132" xlink:href="#m92b9698584" y="675.079160832"/>
     <use style="fill:#00ff00;stroke:#000000;stroke-width:0.5;" x="475.807032" xlink:href="#m92b9698584" y="767.232"/>
     <use style="fill:#00ff00;stroke:#000000;stroke-width:0.5;" x="573.876648" xlink:href="#m92b9698584" y="1030.293504"/>
     <use style="fill:#00ff00;stroke:#000000;stroke-width:0.5;" x="483.561720936" xlink:href="#m92b9698584" y="1259.30783232"/>
     <use style="fill:#00ff00;stroke:#000000;stroke-width:0.5;" x="806.7418218" xlink:href="#m92b9698584" y="867.246867456"/>
     <use style="fill:#00ff00;stroke:#000000;stroke-width:0.5;" x="857.11968" xlink:href="#m92b9698584" y="1023.737856"/>
     <use style="fill:#00ff00;stroke:#000000;stroke-width:0.5;" x="954.883512" xlink:href="#m92b9698584" y="808.51968"/>
     <use style="fill:#00ff00;stroke:#000000;stroke-width:0.5;" x="1057.87265911" xlink:href="#m92b9698584" y="731.664479232"/>
     <use style="fill:#00ff00;stroke:#000000;stroke-width:0.5;" x="1033.99000243" xlink:href="#m92b9698584" y="766.620785664"/>
     <use style="fill:#00ff00;stroke:#000000;stroke-width:0.5;" x="1013.685552" xlink:href="#m92b9698584" y="890.118144"/>
     <use style="fill:#00ff00;stroke:#000000;stroke-width:0.5;" x="1043.51264741" xlink:href="#m92b9698584" y="1061.01503078"/>
     <use style="fill:#00ff00;stroke:#000000;stroke-width:0.5;" x="978.058539864" xlink:href="#m92b9698584" y="1369.53417523"/>
     <use style="fill:#00ff00;stroke:#000000;stroke-width:0.5;" x="919.604214216" xlink:href="#m92b9698584" y="1433.77496064"/>
     <use style="fill:#00ff00;stroke:#000000;stroke-width:0.5;" x="1310.17446389" xlink:href="#m92b9698584" y="1265.99849165"/>
     <use style="fill:#00ff00;stroke:#000000;stroke-width:0.5;" x="1464.58462342" xlink:href="#m92b9698584" y="1152.72166195"/>
     <use style="fill:#00ff00;stroke:#000000;stroke-width:0.5;" x="1420.44981876" xlink:href="#m92b9698584" y="991.636349952"/>
    </g>
   </g>
   <g id="patch_3">
    <path d="M 216 172.8 
L 1555.2 172.8 
" style="fill:none;stroke:#000000;stroke-linecap:square;stroke-linejoin:miter;"/>
   </g>
   <g id="patch_4">
    <path d="M 1555.2 1555.2 
L 1555.2 172.8 
" style="fill:none;stroke:#000000;stroke-linecap:square;stroke-linejoin:miter;"/>
   </g>
   <g id="patch_5">
    <path d="M 216 1555.2 
L 1555.2 1555.2 
" style="fill:none;stroke:#000000;stroke-linecap:square;stroke-linejoin:miter;"/>
   </g>
   <g id="patch_6">
    <path d="M 216 1555.2 
L 216 172.8 
" style="fill:none;stroke:#000000;stroke-linecap:square;stroke-linejoin:miter;"/>
   </g>
   <g id="matplotlib.axis_1">
    <g id="xtick_1">
     <g id="line2d_2">
      <defs>
       <path d="M 0 0 
L 0 -4 
" id="meb0c5d9b4a" style="stroke:#000000;stroke-width:0.5;"/>
      </defs>
      <g>
       <use style="stroke:#000000;stroke-width:0.5;" x="216.0" xlink:href="#meb0c5d9b4a" y="1555.2"/>
      </g>
     </g>
     <g id="line2d_3">
      <defs>
       <path d="M 0 0 
L 0 4 
" id="m6698321e2a" style="stroke:#000000;stroke-width:0.5;"/>
      </defs>
      <g>
       <use style="stroke:#000000;stroke-width:0.5;" x="216.0" xlink:href="#m6698321e2a" y="172.8"/>
      </g>
     </g>
     <g id="text_1">
      <!-- 77.08 -->
      <defs>
       <path d="M 31.78125 34.625 
Q 24.75 34.625 20.71875 30.859375 
Q 16.703125 27.09375 16.703125 20.515625 
Q 16.703125 13.921875 20.71875 10.15625 
Q 24.75 6.390625 31.78125 6.390625 
Q 38.8125 6.390625 42.859375 10.171875 
Q 46.921875 13.96875 46.921875 20.515625 
Q 46.921875 27.09375 42.890625 30.859375 
Q 38.875 34.625 31.78125 34.625 
M 21.921875 38.8125 
Q 15.578125 40.375 12.03125 44.71875 
Q 8.5 49.078125 8.5 55.328125 
Q 8.5 64.0625 14.71875 69.140625 
Q 20.953125 74.21875 31.78125 74.21875 
Q 42.671875 74.21875 48.875 69.140625 
Q 55.078125 64.0625 55.078125 55.328125 
Q 55.078125 49.078125 51.53125 44.71875 
Q 48 40.375 41.703125 38.8125 
Q 48.828125 37.15625 52.796875 32.3125 
Q 56.78125 27.484375 56.78125 20.515625 
Q 56.78125 9.90625 50.3125 4.234375 
Q 43.84375 -1.421875 31.78125 -1.421875 
Q 19.734375 -1.421875 13.25 4.234375 
Q 6.78125 9.90625 6.78125 20.515625 
Q 6.78125 27.484375 10.78125 32.3125 
Q 14.796875 37.15625 21.921875 38.8125 
M 18.3125 54.390625 
Q 18.3125 48.734375 21.84375 45.5625 
Q 25.390625 42.390625 31.78125 42.390625 
Q 38.140625 42.390625 41.71875 45.5625 
Q 45.3125 48.734375 45.3125 54.390625 
Q 45.3125 60.0625 41.71875 63.234375 
Q 38.140625 66.40625 31.78125 66.40625 
Q 25.390625 66.40625 21.84375 63.234375 
Q 18.3125 60.0625 18.3125 54.390625 
" id="BitstreamVeraSans-Roman-38"/>
       <path d="M 31.78125 66.40625 
Q 24.171875 66.40625 20.328125 58.90625 
Q 16.5 51.421875 16.5 36.375 
Q 16.5 21.390625 20.328125 13.890625 
Q 24.171875 6.390625 31.78125 6.390625 
Q 39.453125 6.390625 43.28125 13.890625 
Q 47.125 21.390625 47.125 36.375 
Q 47.125 51.421875 43.28125 58.90625 
Q 39.453125 66.40625 31.78125 66.40625 
M 31.78125 74.21875 
Q 44.046875 74.21875 50.515625 64.515625 
Q 56.984375 54.828125 56.984375 36.375 
Q 56.984375 17.96875 50.515625 8.265625 
Q 44.046875 -1.421875 31.78125 -1.421875 
Q 19.53125 -1.421875 13.0625 8.265625 
Q 6.59375 17.96875 6.59375 36.375 
Q 6.59375 54.828125 13.0625 64.515625 
Q 19.53125 74.21875 31.78125 74.21875 
" id="BitstreamVeraSans-Roman-30"/>
       <path d="M 10.6875 12.40625 
L 21 12.40625 
L 21 0 
L 10.6875 0 
z
" id="BitstreamVeraSans-Roman-2e"/>
       <path d="M 8.203125 72.90625 
L 55.078125 72.90625 
L 55.078125 68.703125 
L 28.609375 0 
L 18.3125 0 
L 43.21875 64.59375 
L 8.203125 64.59375 
z
" id="BitstreamVeraSans-Roman-37"/>
      </defs>
      <g transform="translate(198.823125 1568.318125)scale(0.12 -0.12)">
       <use xlink:href="#BitstreamVeraSans-Roman-37"/>
       <use x="63.623046875" xlink:href="#BitstreamVeraSans-Roman-37"/>
       <use x="127.24609375" xlink:href="#BitstreamVeraSans-Roman-2e"/>
       <use x="159.033203125" xlink:href="#BitstreamVeraSans-Roman-30"/>
       <use x="222.65625" xlink:href="#BitstreamVeraSans-Roman-38"/>
      </g>
     </g>
    </g>
    <g id="xtick_2">
     <g id="line2d_4">
      <g>
       <use style="stroke:#000000;stroke-width:0.5;" x="439.2" xlink:href="#meb0c5d9b4a" y="1555.2"/>
      </g>
     </g>
     <g id="line2d_5">
      <g>
       <use style="stroke:#000000;stroke-width:0.5;" x="439.2" xlink:href="#m6698321e2a" y="172.8"/>
      </g>
     </g>
     <g id="text_2">
      <!-- 77.09 -->
      <defs>
       <path d="M 10.984375 1.515625 
L 10.984375 10.5 
Q 14.703125 8.734375 18.5 7.8125 
Q 22.3125 6.890625 25.984375 6.890625 
Q 35.75 6.890625 40.890625 13.453125 
Q 46.046875 20.015625 46.78125 33.40625 
Q 43.953125 29.203125 39.59375 26.953125 
Q 35.25 24.703125 29.984375 24.703125 
Q 19.046875 24.703125 12.671875 31.3125 
Q 6.296875 37.9375 6.296875 49.421875 
Q 6.296875 60.640625 12.9375 67.421875 
Q 19.578125 74.21875 30.609375 74.21875 
Q 43.265625 74.21875 49.921875 64.515625 
Q 56.59375 54.828125 56.59375 36.375 
Q 56.59375 19.140625 48.40625 8.859375 
Q 40.234375 -1.421875 26.421875 -1.421875 
Q 22.703125 -1.421875 18.890625 -0.6875 
Q 15.09375 0.046875 10.984375 1.515625 
M 30.609375 32.421875 
Q 37.25 32.421875 41.125 36.953125 
Q 45.015625 41.5 45.015625 49.421875 
Q 45.015625 57.28125 41.125 61.84375 
Q 37.25 66.40625 30.609375 66.40625 
Q 23.96875 66.40625 20.09375 61.84375 
Q 16.21875 57.28125 16.21875 49.421875 
Q 16.21875 41.5 20.09375 36.953125 
Q 23.96875 32.421875 30.609375 32.421875 
" id="BitstreamVeraSans-Roman-39"/>
      </defs>
      <g transform="translate(422.023125 1568.318125)scale(0.12 -0.12)">
       <use xlink:href="#BitstreamVeraSans-Roman-37"/>
       <use x="63.623046875" xlink:href="#BitstreamVeraSans-Roman-37"/>
       <use x="127.24609375" xlink:href="#BitstreamVeraSans-Roman-2e"/>
       <use x="159.033203125" xlink:href="#BitstreamVeraSans-Roman-30"/>
       <use x="222.65625" xlink:href="#BitstreamVeraSans-Roman-39"/>
      </g>
     </g>
    </g>
    <g id="xtick_3">
     <g id="line2d_6">
      <g>
       <use style="stroke:#000000;stroke-width:0.5;" x="662.4" xlink:href="#meb0c5d9b4a" y="1555.2"/>
      </g>
     </g>
     <g id="line2d_7">
      <g>
       <use style="stroke:#000000;stroke-width:0.5;" x="662.4" xlink:href="#m6698321e2a" y="172.8"/>
      </g>
     </g>
     <g id="text_3">
      <!-- 77.10 -->
      <defs>
       <path d="M 12.40625 8.296875 
L 28.515625 8.296875 
L 28.515625 63.921875 
L 10.984375 60.40625 
L 10.984375 69.390625 
L 28.421875 72.90625 
L 38.28125 72.90625 
L 38.28125 8.296875 
L 54.390625 8.296875 
L 54.390625 0 
L 12.40625 0 
z
" id="BitstreamVeraSans-Roman-31"/>
      </defs>
      <g transform="translate(645.223125 1568.318125)scale(0.12 -0.12)">
       <use xlink:href="#BitstreamVeraSans-Roman-37"/>
       <use x="63.623046875" xlink:href="#BitstreamVeraSans-Roman-37"/>
       <use x="127.24609375" xlink:href="#BitstreamVeraSans-Roman-2e"/>
       <use x="159.033203125" xlink:href="#BitstreamVeraSans-Roman-31"/>
       <use x="222.65625" xlink:href="#BitstreamVeraSans-Roman-30"/>
      </g>
     </g>
    </g>
    <g id="xtick_4">
     <g id="line2d_8">
      <g>
       <use style="stroke:#000000;stroke-width:0.5;" x="885.6" xlink:href="#meb0c5d9b4a" y="1555.2"/>
      </g>
     </g>
     <g id="line2d_9">
      <g>
       <use style="stroke:#000000;stroke-width:0.5;" x="885.6" xlink:href="#m6698321e2a" y="172.8"/>
      </g>
     </g>
     <g id="text_4">
      <!-- 77.11 -->
      <g transform="translate(868.423125 1568.318125)scale(0.12 -0.12)">
       <use xlink:href="#BitstreamVeraSans-Roman-37"/>
       <use x="63.623046875" xlink:href="#BitstreamVeraSans-Roman-37"/>
       <use x="127.24609375" xlink:href="#BitstreamVeraSans-Roman-2e"/>
       <use x="159.033203125" xlink:href="#BitstreamVeraSans-Roman-31"/>
       <use x="222.65625" xlink:href="#BitstreamVeraSans-Roman-31"/>
      </g>
     </g>
    </g>
    <g id="xtick_5">
     <g id="line2d_10">
      <g>
       <use style="stroke:#000000;stroke-width:0.5;" x="1108.8" xlink:href="#meb0c5d9b4a" y="1555.2"/>
      </g>
     </g>
     <g id="line2d_11">
      <g>
       <use style="stroke:#000000;stroke-width:0.5;" x="1108.8" xlink:href="#m6698321e2a" y="172.8"/>
      </g>
     </g>
     <g id="text_5">
      <!-- 77.12 -->
      <defs>
       <path d="M 19.1875 8.296875 
L 53.609375 8.296875 
L 53.609375 0 
L 7.328125 0 
L 7.328125 8.296875 
Q 12.9375 14.109375 22.625 23.890625 
Q 32.328125 33.6875 34.8125 36.53125 
Q 39.546875 41.84375 41.421875 45.53125 
Q 43.3125 49.21875 43.3125 52.78125 
Q 43.3125 58.59375 39.234375 62.25 
Q 35.15625 65.921875 28.609375 65.921875 
Q 23.96875 65.921875 18.8125 64.3125 
Q 13.671875 62.703125 7.8125 59.421875 
L 7.8125 69.390625 
Q 13.765625 71.78125 18.9375 73 
Q 24.125 74.21875 28.421875 74.21875 
Q 39.75 74.21875 46.484375 68.546875 
Q 53.21875 62.890625 53.21875 53.421875 
Q 53.21875 48.921875 51.53125 44.890625 
Q 49.859375 40.875 45.40625 35.40625 
Q 44.1875 33.984375 37.640625 27.21875 
Q 31.109375 20.453125 19.1875 8.296875 
" id="BitstreamVeraSans-Roman-32"/>
      </defs>
      <g transform="translate(1091.623125 1568.318125)scale(0.12 -0.12)">
       <use xlink:href="#BitstreamVeraSans-Roman-37"/>
       <use x="63.623046875" xlink:href="#BitstreamVeraSans-Roman-37"/>
       <use x="127.24609375" xlink:href="#BitstreamVeraSans-Roman-2e"/>
       <use x="159.033203125" xlink:href="#BitstreamVeraSans-Roman-31"/>
       <use x="222.65625" xlink:href="#BitstreamVeraSans-Roman-32"/>
      </g>
     </g>
    </g>
    <g id="xtick_6">
     <g id="line2d_12">
      <g>
       <use style="stroke:#000000;stroke-width:0.5;" x="1332.0" xlink:href="#meb0c5d9b4a" y="1555.2"/>
      </g>
     </g>
     <g id="line2d_13">
      <g>
       <use style="stroke:#000000;stroke-width:0.5;" x="1332.0" xlink:href="#m6698321e2a" y="172.8"/>
      </g>
     </g>
     <g id="text_6">
      <!-- 77.13 -->
      <defs>
       <path d="M 40.578125 39.3125 
Q 47.65625 37.796875 51.625 33 
Q 55.609375 28.21875 55.609375 21.1875 
Q 55.609375 10.40625 48.1875 4.484375 
Q 40.765625 -1.421875 27.09375 -1.421875 
Q 22.515625 -1.421875 17.65625 -0.515625 
Q 12.796875 0.390625 7.625 2.203125 
L 7.625 11.71875 
Q 11.71875 9.328125 16.59375 8.109375 
Q 21.484375 6.890625 26.8125 6.890625 
Q 36.078125 6.890625 40.9375 10.546875 
Q 45.796875 14.203125 45.796875 21.1875 
Q 45.796875 27.640625 41.28125 31.265625 
Q 36.765625 34.90625 28.71875 34.90625 
L 20.21875 34.90625 
L 20.21875 43.015625 
L 29.109375 43.015625 
Q 36.375 43.015625 40.234375 45.921875 
Q 44.09375 48.828125 44.09375 54.296875 
Q 44.09375 59.90625 40.109375 62.90625 
Q 36.140625 65.921875 28.71875 65.921875 
Q 24.65625 65.921875 20.015625 65.03125 
Q 15.375 64.15625 9.8125 62.3125 
L 9.8125 71.09375 
Q 15.4375 72.65625 20.34375 73.4375 
Q 25.25 74.21875 29.59375 74.21875 
Q 40.828125 74.21875 47.359375 69.109375 
Q 53.90625 64.015625 53.90625 55.328125 
Q 53.90625 49.265625 50.4375 45.09375 
Q 46.96875 40.921875 40.578125 39.3125 
" id="BitstreamVeraSans-Roman-33"/>
      </defs>
      <g transform="translate(1314.823125 1568.318125)scale(0.12 -0.12)">
       <use xlink:href="#BitstreamVeraSans-Roman-37"/>
       <use x="63.623046875" xlink:href="#BitstreamVeraSans-Roman-37"/>
       <use x="127.24609375" xlink:href="#BitstreamVeraSans-Roman-2e"/>
       <use x="159.033203125" xlink:href="#BitstreamVeraSans-Roman-31"/>
       <use x="222.65625" xlink:href="#BitstreamVeraSans-Roman-33"/>
      </g>
     </g>
    </g>
    <g id="xtick_7">
     <g id="line2d_14">
      <g>
       <use style="stroke:#000000;stroke-width:0.5;" x="1555.2" xlink:href="#meb0c5d9b4a" y="1555.2"/>
      </g>
     </g>
     <g id="line2d_15">
      <g>
       <use style="stroke:#000000;stroke-width:0.5;" x="1555.2" xlink:href="#m6698321e2a" y="172.8"/>
      </g>
     </g>
     <g id="text_7">
      <!-- 77.14 -->
      <defs>
       <path d="M 37.796875 64.3125 
L 12.890625 25.390625 
L 37.796875 25.390625 
z
M 35.203125 72.90625 
L 47.609375 72.90625 
L 47.609375 25.390625 
L 58.015625 25.390625 
L 58.015625 17.1875 
L 47.609375 17.1875 
L 47.609375 0 
L 37.796875 0 
L 37.796875 17.1875 
L 4.890625 17.1875 
L 4.890625 26.703125 
z
" id="BitstreamVeraSans-Roman-34"/>
      </defs>
      <g transform="translate(1538.023125 1568.318125)scale(0.12 -0.12)">
       <use xlink:href="#BitstreamVeraSans-Roman-37"/>
       <use x="63.623046875" xlink:href="#BitstreamVeraSans-Roman-37"/>
       <use x="127.24609375" xlink:href="#BitstreamVeraSans-Roman-2e"/>
       <use x="159.033203125" xlink:href="#BitstreamVeraSans-Roman-31"/>
       <use x="222.65625" xlink:href="#BitstreamVeraSans-Roman-34"/>
      </g>
     </g>
    </g>
   </g>
   <g id="matplotlib.axis_2">
    <g id="ytick_1">
     <g id="line2d_16">
      <defs>
       <path d="M 0 0 
L 4 0 
" id="mc54e745284" style="stroke:#000000;stroke-width:0.5;"/>
      </defs>
      <g>
       <use style="stroke:#000000;stroke-width:0.5;" x="216.0" xlink:href="#mc54e745284" y="1555.2"/>
      </g>
     </g>
     <g id="line2d_17">
      <defs>
       <path d="M 0 0 
L -4 0 
" id="m87a49ed651" style="stroke:#000000;stroke-width:0.5;"/>
      </defs>
      <g>
       <use style="stroke:#000000;stroke-width:0.5;" x="1555.2" xlink:href="#m87a49ed651" y="1555.2"/>
      </g>
     </g>
     <g id="text_8">
      <!-- 28.80 -->
      <g transform="translate(177.64625 1558.51125)scale(0.12 -0.12)">
       <use xlink:href="#BitstreamVeraSans-Roman-32"/>
       <use x="63.623046875" xlink:href="#BitstreamVeraSans-Roman-38"/>
       <use x="127.24609375" xlink:href="#BitstreamVeraSans-Roman-2e"/>
       <use x="159.033203125" xlink:href="#BitstreamVeraSans-Roman-38"/>
       <use x="222.65625" xlink:href="#BitstreamVeraSans-Roman-30"/>
      </g>
     </g>
    </g>
    <g id="ytick_2">
     <g id="line2d_18">
      <g>
       <use style="stroke:#000000;stroke-width:0.5;" x="216.0" xlink:href="#mc54e745284" y="1248.0"/>
      </g>
     </g>
     <g id="line2d_19">
      <g>
       <use style="stroke:#000000;stroke-width:0.5;" x="1555.2" xlink:href="#m87a49ed651" y="1248.0"/>
      </g>
     </g>
     <g id="text_9">
      <!-- 28.81 -->
      <g transform="translate(177.64625 1251.31125)scale(0.12 -0.12)">
       <use xlink:href="#BitstreamVeraSans-Roman-32"/>
       <use x="63.623046875" xlink:href="#BitstreamVeraSans-Roman-38"/>
       <use x="127.24609375" xlink:href="#BitstreamVeraSans-Roman-2e"/>
       <use x="159.033203125" xlink:href="#BitstreamVeraSans-Roman-38"/>
       <use x="222.65625" xlink:href="#BitstreamVeraSans-Roman-31"/>
      </g>
     </g>
    </g>
    <g id="ytick_3">
     <g id="line2d_20">
      <g>
       <use style="stroke:#000000;stroke-width:0.5;" x="216.0" xlink:href="#mc54e745284" y="940.8"/>
      </g>
     </g>
     <g id="line2d_21">
      <g>
       <use style="stroke:#000000;stroke-width:0.5;" x="1555.2" xlink:href="#m87a49ed651" y="940.8"/>
      </g>
     </g>
     <g id="text_10">
      <!-- 28.82 -->
      <g transform="translate(177.64625 944.11125)scale(0.12 -0.12)">
       <use xlink:href="#BitstreamVeraSans-Roman-32"/>
       <use x="63.623046875" xlink:href="#BitstreamVeraSans-Roman-38"/>
       <use x="127.24609375" xlink:href="#BitstreamVeraSans-Roman-2e"/>
       <use x="159.033203125" xlink:href="#BitstreamVeraSans-Roman-38"/>
       <use x="222.65625" xlink:href="#BitstreamVeraSans-Roman-32"/>
      </g>
     </g>
    </g>
    <g id="ytick_4">
     <g id="line2d_22">
      <g>
       <use style="stroke:#000000;stroke-width:0.5;" x="216.0" xlink:href="#mc54e745284" y="633.6"/>
      </g>
     </g>
     <g id="line2d_23">
      <g>
       <use style="stroke:#000000;stroke-width:0.5;" x="1555.2" xlink:href="#m87a49ed651" y="633.6"/>
      </g>
     </g>
     <g id="text_11">
      <!-- 28.83 -->
      <g transform="translate(177.64625 636.91125)scale(0.12 -0.12)">
       <use xlink:href="#BitstreamVeraSans-Roman-32"/>
       <use x="63.623046875" xlink:href="#BitstreamVeraSans-Roman-38"/>
       <use x="127.24609375" xlink:href="#BitstreamVeraSans-Roman-2e"/>
       <use x="159.033203125" xlink:href="#BitstreamVeraSans-Roman-38"/>
       <use x="222.65625" xlink:href="#BitstreamVeraSans-Roman-33"/>
      </g>
     </g>
    </g>
    <g id="ytick_5">
     <g id="line2d_24">
      <g>
       <use style="stroke:#000000;stroke-width:0.5;" x="216.0" xlink:href="#mc54e745284" y="326.4"/>
      </g>
     </g>
     <g id="line2d_25">
      <g>
       <use style="stroke:#000000;stroke-width:0.5;" x="1555.2" xlink:href="#m87a49ed651" y="326.4"/>
      </g>
     </g>
     <g id="text_12">
      <!-- 28.84 -->
      <g transform="translate(177.64625 329.71125)scale(0.12 -0.12)">
       <use xlink:href="#BitstreamVeraSans-Roman-32"/>
       <use x="63.623046875" xlink:href="#BitstreamVeraSans-Roman-38"/>
       <use x="127.24609375" xlink:href="#BitstreamVeraSans-Roman-2e"/>
       <use x="159.033203125" xlink:href="#BitstreamVeraSans-Roman-38"/>
       <use x="222.65625" xlink:href="#BitstreamVeraSans-Roman-34"/>
      </g>
     </g>
    </g>
   </g>
   <g id="patch_7">
    <path d="M 1411.170141 978.033757 
Q 1415.246992 984.009798 1418.693772 989.062254 
" style="fill:none;stroke:#ff0000;stroke-linecap:round;"/>
    <path d="M 1418.332545 986.403398 
L 1418.693772 989.062254 
L 1416.349951 987.755922 
" style="fill:none;stroke:#ff0000;stroke-linecap:round;"/>
   </g>
   <g id="text_13">
    <!-- 0 -->
    <g style="fill:#ff0000;" transform="translate(1404.44981876 972.636349952)scale(0.06 -0.06)">
     <use xlink:href="#BitstreamVeraSans-Roman-30"/>
    </g>
   </g>
   <g id="patch_8">
    <path d="M 1379.448063 870.6677 
Q 1384.466893 864.987243 1388.745454 860.144642 
" style="fill:none;stroke:#ff0000;stroke-linecap:round;"/>
    <path d="M 1386.257095 861.148667 
L 1388.745454 860.144642 
L 1388.055659 862.737745 
" style="fill:none;stroke:#ff0000;stroke-linecap:round;"/>
   </g>
   <g id="text_14">
    <!-- 1 -->
    <g style="fill:#ff0000;" transform="translate(1371.8087293 878.80936704)scale(0.06 -0.06)">
     <use xlink:href="#BitstreamVeraSans-Roman-31"/>
    </g>
   </g>
   <g id="patch_9">
    <path d="M 1331.903386 468.686437 
Q 1322.686182 476.390564 1314.326816 483.377674 
" style="fill:none;stroke:#ff0000;stroke-linecap:round;"/>
    <path d="M 1316.937857 482.759235 
L 1314.326816 483.377674 
L 1315.39869 480.917778 
" style="fill:none;stroke:#ff0000;stroke-linecap:round;"/>
   </g>
   <g id="text_15">
    <!-- 2 -->
    <g style="fill:#ff0000;" transform="translate(1335.93582437 465.376165888)scale(0.06 -0.06)">
     <use xlink:href="#BitstreamVeraSans-Roman-32"/>
    </g>
   </g>
   <g id="patch_10">
    <path d="M 1186.634958 290.653219 
Q 1177.632847 285.669202 1169.608865 281.226726 
" style="fill:none;stroke:#ff0000;stroke-linecap:round;"/>
    <path d="M 1171.127297 283.439047 
L 1169.608865 281.226726 
L 1172.289781 281.339373 
" style="fill:none;stroke:#ff0000;stroke-linecap:round;"/>
   </g>
   <g id="text_16">
    <!-- 3 -->
    <g style="fill:#ff0000;" transform="translate(1190.88263738 295.7173504)scale(0.06 -0.06)">
     <use xlink:href="#BitstreamVeraSans-Roman-33"/>
    </g>
   </g>
   <g id="patch_11">
    <path d="M 1252.281876 166.672783 
Q 1257.363199 174.142799 1261.815696 180.688381 
" style="fill:none;stroke:#ff0000;stroke-linecap:round;"/>
    <path d="M 1261.458047 178.029041 
L 1261.815696 180.688381 
L 1259.473635 179.378897 
" style="fill:none;stroke:#ff0000;stroke-linecap:round;"/>
   </g>
   <g id="text_17">
    <!-- 4 -->
    <g style="fill:#ff0000;" transform="translate(1245.57186852 161.270116352)scale(0.06 -0.06)">
     <use xlink:href="#BitstreamVeraSans-Roman-34"/>
    </g>
   </g>
   <g id="patch_12">
    <path d="M 871.982688 276.083207 
Q 863.882728 270.545955 856.705747 265.639664 
" style="fill:none;stroke:#ff0000;stroke-linecap:round;"/>
    <path d="M 858.009815 267.984745 
L 856.705747 265.639664 
L 859.364253 266.003458 
" style="fill:none;stroke:#ff0000;stroke-linecap:round;"/>
   </g>
   <g id="text_18">
    <!-- 5 -->
    <defs>
     <path d="M 10.796875 72.90625 
L 49.515625 72.90625 
L 49.515625 64.59375 
L 19.828125 64.59375 
L 19.828125 46.734375 
Q 21.96875 47.46875 24.109375 47.828125 
Q 26.265625 48.1875 28.421875 48.1875 
Q 40.625 48.1875 47.75 41.5 
Q 54.890625 34.8125 54.890625 23.390625 
Q 54.890625 11.625 47.5625 5.09375 
Q 40.234375 -1.421875 26.90625 -1.421875 
Q 22.3125 -1.421875 17.546875 -0.640625 
Q 12.796875 0.140625 7.71875 1.703125 
L 7.71875 11.625 
Q 12.109375 9.234375 16.796875 8.0625 
Q 21.484375 6.890625 26.703125 6.890625 
Q 35.15625 6.890625 40.078125 11.328125 
Q 45.015625 15.765625 45.015625 23.390625 
Q 45.015625 31 40.078125 35.4375 
Q 35.15625 39.890625 26.703125 39.890625 
Q 22.75 39.890625 18.8125 39.015625 
Q 14.890625 38.140625 10.796875 36.28125 
z
" id="BitstreamVeraSans-Roman-35"/>
    </defs>
    <g style="fill:#ff0000;" transform="translate(876.133362208 281.88114432)scale(0.06 -0.06)">
     <use xlink:href="#BitstreamVeraSans-Roman-35"/>
    </g>
   </g>
   <g id="patch_13">
    <path d="M 865.491223 184.881575 
Q 856.87117 190.991573 849.163253 196.455038 
" style="fill:none;stroke:#ff0000;stroke-linecap:round;"/>
    <path d="M 851.815203 196.046181 
L 849.163253 196.455038 
L 850.427337 194.088164 
" style="fill:none;stroke:#ff0000;stroke-linecap:round;"/>
   </g>
   <g id="text_19">
    <!-- 6 -->
    <defs>
     <path d="M 33.015625 40.375 
Q 26.375 40.375 22.484375 35.828125 
Q 18.609375 31.296875 18.609375 23.390625 
Q 18.609375 15.53125 22.484375 10.953125 
Q 26.375 6.390625 33.015625 6.390625 
Q 39.65625 6.390625 43.53125 10.953125 
Q 47.40625 15.53125 47.40625 23.390625 
Q 47.40625 31.296875 43.53125 35.828125 
Q 39.65625 40.375 33.015625 40.375 
M 52.59375 71.296875 
L 52.59375 62.3125 
Q 48.875 64.0625 45.09375 64.984375 
Q 41.3125 65.921875 37.59375 65.921875 
Q 27.828125 65.921875 22.671875 59.328125 
Q 17.53125 52.734375 16.796875 39.40625 
Q 19.671875 43.65625 24.015625 45.921875 
Q 28.375 48.1875 33.59375 48.1875 
Q 44.578125 48.1875 50.953125 41.515625 
Q 57.328125 34.859375 57.328125 23.390625 
Q 57.328125 12.15625 50.6875 5.359375 
Q 44.046875 -1.421875 33.015625 -1.421875 
Q 20.359375 -1.421875 13.671875 8.265625 
Q 6.984375 17.96875 6.984375 36.375 
Q 6.984375 53.65625 15.1875 63.9375 
Q 23.390625 74.21875 37.203125 74.21875 
Q 40.921875 74.21875 44.703125 73.484375 
Q 48.484375 72.75 52.59375 71.296875 
" id="BitstreamVeraSans-Roman-36"/>
    </defs>
    <g style="fill:#ff0000;" transform="translate(869.617649048 182.259393536)scale(0.06 -0.06)">
     <use xlink:href="#BitstreamVeraSans-Roman-36"/>
    </g>
   </g>
   <g id="patch_14">
    <path d="M 818.91427 333.595371 
Q 823.308611 329.404994 826.893827 325.986185 
" style="fill:none;stroke:#ff0000;stroke-linecap:round;"/>
    <path d="M 824.328807 326.774011 
L 826.893827 325.986185 
L 825.985076 328.510897 
" style="fill:none;stroke:#ff0000;stroke-linecap:round;"/>
   </g>
   <g id="text_20">
    <!-- 7 -->
    <g style="fill:#ff0000;" transform="translate(811.149822864 340.834901504)scale(0.06 -0.06)">
     <use xlink:href="#BitstreamVeraSans-Roman-37"/>
    </g>
   </g>
   <g id="patch_15">
    <path d="M 828.051066 333.11962 
Q 821.809176 327.681725 816.41028 322.978242 
" style="fill:none;stroke:#ff0000;stroke-linecap:round;"/>
    <path d="M 817.43162 325.459545 
L 816.41028 322.978242 
L 819.008126 323.649951 
" style="fill:none;stroke:#ff0000;stroke-linecap:round;"/>
   </g>
   <g id="text_21">
    <!-- 8 -->
    <g style="fill:#ff0000;" transform="translate(832.061034144 339.93159424)scale(0.06 -0.06)">
     <use xlink:href="#BitstreamVeraSans-Roman-38"/>
    </g>
   </g>
   <g id="patch_16">
    <path d="M 768.082559 497.098025 
Q 759.379653 489.989873 751.542662 483.588962 
" style="fill:none;stroke:#ff0000;stroke-linecap:round;"/>
    <path d="M 752.642367 486.036543 
L 751.542662 483.588962 
L 754.160549 484.177747 
" style="fill:none;stroke:#ff0000;stroke-linecap:round;"/>
   </g>
   <g id="text_22">
    <!-- 9 -->
    <g style="fill:#ff0000;" transform="translate(772.128895424 503.617503232)scale(0.06 -0.06)">
     <use xlink:href="#BitstreamVeraSans-Roman-39"/>
    </g>
   </g>
   <g id="patch_17">
    <path d="M 590.792323 417.975362 
Q 593.548377 414.976395 595.547904 412.800635 
" style="fill:none;stroke:#ff0000;stroke-linecap:round;"/>
    <path d="M 593.040368 413.755758 
L 595.547904 412.800635 
L 594.807481 415.379738 
" style="fill:none;stroke:#ff0000;stroke-linecap:round;"/>
   </g>
   <g id="text_23">
    <!-- 10 -->
    <g style="fill:#ff0000;" transform="translate(580.6548136 426.50802688)scale(0.06 -0.06)">
     <use xlink:href="#BitstreamVeraSans-Roman-31"/>
     <use x="63.623046875" xlink:href="#BitstreamVeraSans-Roman-30"/>
    </g>
   </g>
   <g id="patch_18">
    <path d="M 398.206029 562.61644 
Q 403.659089 570.12382 408.455094 576.726613 
" style="fill:none;stroke:#ff0000;stroke-linecap:round;"/>
    <path d="M 408.015546 574.079577 
L 408.455094 576.726613 
L 406.073737 575.49003 
" style="fill:none;stroke:#ff0000;stroke-linecap:round;"/>
   </g>
   <g id="text_24">
    <!-- 11 -->
    <g style="fill:#ff0000;" transform="translate(389.287562568 557.24942336)scale(0.06 -0.06)">
     <use xlink:href="#BitstreamVeraSans-Roman-31"/>
     <use x="63.623046875" xlink:href="#BitstreamVeraSans-Roman-31"/>
    </g>
   </g>
   <g id="patch_19">
    <path d="M 375.426336 686.533049 
Q 366.884242 681.326927 359.296844 676.70266 
" style="fill:none;stroke:#ff0000;stroke-linecap:round;"/>
    <path d="M 360.721706 678.976373 
L 359.296844 676.70266 
L 361.970731 676.926999 
" style="fill:none;stroke:#ff0000;stroke-linecap:round;"/>
   </g>
   <g id="text_25">
    <!-- 12 -->
    <g style="fill:#ff0000;" transform="translate(379.63304132 693.079160832)scale(0.06 -0.06)">
     <use xlink:href="#BitstreamVeraSans-Roman-31"/>
     <use x="63.623046875" xlink:href="#BitstreamVeraSans-Roman-32"/>
    </g>
   </g>
   <g id="patch_20">
    <path d="M 464.088807 777.827349 
Q 469.205517 773.200938 473.492924 769.324363 
" style="fill:none;stroke:#ff0000;stroke-linecap:round;"/>
    <path d="M 470.907911 770.04388 
L 473.492924 769.324363 
L 472.51753 771.824084 
" style="fill:none;stroke:#ff0000;stroke-linecap:round;"/>
   </g>
   <g id="text_26">
    <!-- 13 -->
    <g style="fill:#ff0000;" transform="translate(452.807032 786.232)scale(0.06 -0.06)">
     <use xlink:href="#BitstreamVeraSans-Roman-31"/>
     <use x="63.623046875" xlink:href="#BitstreamVeraSans-Roman-33"/>
    </g>
   </g>
   <g id="patch_21">
    <path d="M 592.78507 1044.63787 
Q 584.128327 1038.070665 576.362311 1032.179186 
" style="fill:none;stroke:#ff0000;stroke-linecap:round;"/>
    <path d="M 577.549103 1034.585745 
L 576.362311 1032.179186 
L 578.999633 1032.673688 
" style="fill:none;stroke:#ff0000;stroke-linecap:round;"/>
   </g>
   <g id="text_27">
    <!-- 14 -->
    <g style="fill:#ff0000;" transform="translate(596.876648 1052.293504)scale(0.06 -0.06)">
     <use xlink:href="#BitstreamVeraSans-Roman-31"/>
     <use x="63.623046875" xlink:href="#BitstreamVeraSans-Roman-34"/>
    </g>
   </g>
   <g id="patch_22">
    <path d="M 472.681209 1273.658997 
Q 477.51714 1267.280507 481.677605 1261.792941 
" style="fill:none;stroke:#ff0000;stroke-linecap:round;"/>
    <path d="M 479.271393 1262.980437 
L 481.677605 1261.792941 
L 481.183875 1264.430408 
" style="fill:none;stroke:#ff0000;stroke-linecap:round;"/>
   </g>
   <g id="text_28">
    <!-- 15 -->
    <g style="fill:#ff0000;" transform="translate(463.561720936 1282.30783232)scale(0.06 -0.06)">
     <use xlink:href="#BitstreamVeraSans-Roman-31"/>
     <use x="63.623046875" xlink:href="#BitstreamVeraSans-Roman-35"/>
    </g>
   </g>
   <g id="patch_23">
    <path d="M 826.65225 882.524144 
Q 817.490585 875.494396 809.215928 869.145249 
" style="fill:none;stroke:#ff0000;stroke-linecap:round;"/>
    <path d="M 810.389503 871.558281 
L 809.215928 869.145249 
L 811.850498 869.654209 
" style="fill:none;stroke:#ff0000;stroke-linecap:round;"/>
   </g>
   <g id="text_29">
    <!-- 16 -->
    <g style="fill:#ff0000;" transform="translate(830.7418218 890.246867456)scale(0.06 -0.06)">
     <use xlink:href="#BitstreamVeraSans-Roman-31"/>
     <use x="63.623046875" xlink:href="#BitstreamVeraSans-Roman-36"/>
    </g>
   </g>
   <g id="patch_24">
    <path d="M 845.934051 1012.876353 
Q 850.810013 1017.611024 854.88387 1021.566833 
" style="fill:none;stroke:#ff0000;stroke-linecap:round;"/>
    <path d="M 853.998013 1019.033997 
L 854.88387 1021.566833 
L 852.326087 1020.755816 
" style="fill:none;stroke:#ff0000;stroke-linecap:round;"/>
   </g>
   <g id="text_30">
    <!-- 17 -->
    <g style="fill:#ff0000;" transform="translate(835.11968 1007.737856)scale(0.06 -0.06)">
     <use xlink:href="#BitstreamVeraSans-Roman-31"/>
     <use x="63.623046875" xlink:href="#BitstreamVeraSans-Roman-37"/>
    </g>
   </g>
   <g id="patch_25">
    <path d="M 946.400247 792.047122 
Q 950.183129 799.392612 953.454123 805.744135 
" style="fill:none;stroke:#ff0000;stroke-linecap:round;"/>
    <path d="M 953.422131 803.061044 
L 953.454123 805.744135 
L 951.288455 804.159874 
" style="fill:none;stroke:#ff0000;stroke-linecap:round;"/>
   </g>
   <g id="text_31">
    <!-- 18 -->
    <g style="fill:#ff0000;" transform="translate(938.883512 786.51968)scale(0.06 -0.06)">
     <use xlink:href="#BitstreamVeraSans-Roman-31"/>
     <use x="63.623046875" xlink:href="#BitstreamVeraSans-Roman-38"/>
    </g>
   </g>
   <g id="patch_26">
    <path d="M 1074.745367 719.660925 
Q 1067.123608 725.083185 1060.412863 729.857331 
" style="fill:none;stroke:#ff0000;stroke-linecap:round;"/>
    <path d="M 1063.0641 729.44388 
L 1060.412863 729.857331 
L 1061.672844 727.488271 
" style="fill:none;stroke:#ff0000;stroke-linecap:round;"/>
   </g>
   <g id="text_32">
    <!-- 19 -->
    <g style="fill:#ff0000;" transform="translate(1078.87265911 715.664479232)scale(0.06 -0.06)">
     <use xlink:href="#BitstreamVeraSans-Roman-31"/>
     <use x="63.623046875" xlink:href="#BitstreamVeraSans-Roman-39"/>
    </g>
   </g>
   <g id="patch_27">
    <path d="M 1022.828412 750.994473 
Q 1027.82742 757.993123 1032.176587 764.08199 
" style="fill:none;stroke:#ff0000;stroke-linecap:round;"/>
    <path d="M 1031.758102 761.431542 
L 1032.176587 764.08199 
L 1029.805138 762.826509 
" style="fill:none;stroke:#ff0000;stroke-linecap:round;"/>
   </g>
   <g id="text_33">
    <!-- 20 -->
    <g style="fill:#ff0000;" transform="translate(1013.99000243 745.620785664)scale(0.06 -0.06)">
     <use xlink:href="#BitstreamVeraSans-Roman-32"/>
     <use x="63.623046875" xlink:href="#BitstreamVeraSans-Roman-30"/>
    </g>
   </g>
   <g id="patch_28">
    <path d="M 1033.512003 903.192786 
Q 1024.432544 897.205296 1016.28644 891.833311 
" style="fill:none;stroke:#ff0000;stroke-linecap:round;"/>
    <path d="M 1017.629375 894.156354 
L 1016.28644 891.833311 
L 1018.950635 892.152789 
" style="fill:none;stroke:#ff0000;stroke-linecap:round;"/>
   </g>
   <g id="text_34">
    <!-- 21 -->
    <g style="fill:#ff0000;" transform="translate(1037.685552 910.118144)scale(0.06 -0.06)">
     <use xlink:href="#BitstreamVeraSans-Roman-32"/>
     <use x="63.623046875" xlink:href="#BitstreamVeraSans-Roman-31"/>
    </g>
   </g>
   <g id="patch_29">
    <path d="M 1034.919296 1068.632287 
Q 1038.46804 1065.486635 1041.180126 1063.082607 
" style="fill:none;stroke:#ff0000;stroke-linecap:round;"/>
    <path d="M 1038.588144 1063.7766 
L 1041.180126 1063.082607 
L 1040.180131 1065.572589 
" style="fill:none;stroke:#ff0000;stroke-linecap:round;"/>
   </g>
   <g id="text_35">
    <!-- 22 -->
    <g style="fill:#ff0000;" transform="translate(1023.51264741 1077.01503078)scale(0.06 -0.06)">
     <use xlink:href="#BitstreamVeraSans-Roman-32"/>
     <use x="63.623046875" xlink:href="#BitstreamVeraSans-Roman-32"/>
    </g>
   </g>
   <g id="patch_30">
    <path d="M 965.068239 1383.988487 
Q 970.895797 1377.504162 975.976021 1371.851395 
" style="fill:none;stroke:#ff0000;stroke-linecap:round;"/>
    <path d="M 973.47925 1372.834318 
L 975.976021 1371.851395 
L 975.264297 1374.438565 
" style="fill:none;stroke:#ff0000;stroke-linecap:round;"/>
   </g>
   <g id="text_36">
    <!-- 23 -->
    <g style="fill:#ff0000;" transform="translate(955.058539864 1392.53417523)scale(0.06 -0.06)">
     <use xlink:href="#BitstreamVeraSans-Roman-32"/>
     <use x="63.623046875" xlink:href="#BitstreamVeraSans-Roman-33"/>
    </g>
   </g>
   <g id="patch_31">
    <path d="M 908.464175 1421.031505 
Q 913.377379 1426.651879 917.554743 1431.430504 
" style="fill:none;stroke:#ff0000;stroke-linecap:round;"/>
    <path d="M 916.878635 1428.833799 
L 917.554743 1431.430504 
L 915.071714 1430.413368 
" style="fill:none;stroke:#ff0000;stroke-linecap:round;"/>
   </g>
   <g id="text_37">
    <!-- 24 -->
    <g style="fill:#ff0000;" transform="translate(898.604214216 1415.77496064)scale(0.06 -0.06)">
     <use xlink:href="#BitstreamVeraSans-Roman-32"/>
     <use x="63.623046875" xlink:href="#BitstreamVeraSans-Roman-34"/>
    </g>
   </g>
   <g id="patch_32">
    <path d="M 1298.988835 1255.136989 
Q 1303.864797 1259.87166 1307.938654 1263.827469 
" style="fill:none;stroke:#ff0000;stroke-linecap:round;"/>
    <path d="M 1307.052797 1261.294633 
L 1307.938654 1263.827469 
L 1305.380871 1263.016452 
" style="fill:none;stroke:#ff0000;stroke-linecap:round;"/>
   </g>
   <g id="text_38">
    <!-- 25 -->
    <g style="fill:#ff0000;" transform="translate(1288.17446389 1249.99849165)scale(0.06 -0.06)">
     <use xlink:href="#BitstreamVeraSans-Roman-32"/>
     <use x="63.623046875" xlink:href="#BitstreamVeraSans-Roman-35"/>
    </g>
   </g>
   <g id="patch_33">
    <path d="M 1456.477984 1166.924916 
Q 1460.035524 1160.691921 1463.038854 1155.42993 
" style="fill:none;stroke:#ff0000;stroke-linecap:round;"/>
    <path d="M 1460.80698 1156.919474 
L 1463.038854 1155.42993 
L 1462.891365 1158.109155 
" style="fill:none;stroke:#ff0000;stroke-linecap:round;"/>
   </g>
   <g id="text_39">
    <!-- 26 -->
    <g style="fill:#ff0000;" transform="translate(1448.58462342 1175.72166195)scale(0.06 -0.06)">
     <use xlink:href="#BitstreamVeraSans-Roman-32"/>
     <use x="63.623046875" xlink:href="#BitstreamVeraSans-Roman-36"/>
    </g>
   </g>
   <g id="patch_34">
    <path d="M 1409.920132 980.816726 
Q 1414.487024 985.509368 1418.274154 989.400778 
" style="fill:none;stroke:#ff0000;stroke-linecap:round;"/>
    <path d="M 1417.460272 986.843906 
L 1418.274154 989.400778 
L 1415.740327 988.517761 
" style="fill:none;stroke:#ff0000;stroke-linecap:round;"/>
   </g>
   <g id="text_40">
    <!-- 27 -->
    <g style="fill:#ff0000;" transform="translate(1399.44981876 975.636349952)scale(0.06 -0.06)">
     <use xlink:href="#BitstreamVeraSans-Roman-32"/>
     <use x="63.623046875" xlink:href="#BitstreamVeraSans-Roman-37"/>
    </g>
   </g>
   <g id="text_41">
    <!-- TSP: 1, Cost: 21, N: 27 -->
    <defs>
     <path id="BitstreamVeraSans-Roman-20"/>
     <path d="M 9.8125 72.90625 
L 23.09375 72.90625 
L 55.421875 11.921875 
L 55.421875 72.90625 
L 64.984375 72.90625 
L 64.984375 0 
L 51.703125 0 
L 19.390625 60.984375 
L 19.390625 0 
L 9.8125 0 
z
" id="BitstreamVeraSans-Roman-4e"/>
     <path d="M 30.609375 48.390625 
Q 23.390625 48.390625 19.1875 42.75 
Q 14.984375 37.109375 14.984375 27.296875 
Q 14.984375 17.484375 19.15625 11.84375 
Q 23.34375 6.203125 30.609375 6.203125 
Q 37.796875 6.203125 41.984375 11.859375 
Q 46.1875 17.53125 46.1875 27.296875 
Q 46.1875 37.015625 41.984375 42.703125 
Q 37.796875 48.390625 30.609375 48.390625 
M 30.609375 56 
Q 42.328125 56 49.015625 48.375 
Q 55.71875 40.765625 55.71875 27.296875 
Q 55.71875 13.875 49.015625 6.21875 
Q 42.328125 -1.421875 30.609375 -1.421875 
Q 18.84375 -1.421875 12.171875 6.21875 
Q 5.515625 13.875 5.515625 27.296875 
Q 5.515625 40.765625 12.171875 48.375 
Q 18.84375 56 30.609375 56 
" id="BitstreamVeraSans-Roman-6f"/>
     <path d="M 19.671875 64.796875 
L 19.671875 37.40625 
L 32.078125 37.40625 
Q 38.96875 37.40625 42.71875 40.96875 
Q 46.484375 44.53125 46.484375 51.125 
Q 46.484375 57.671875 42.71875 61.234375 
Q 38.96875 64.796875 32.078125 64.796875 
z
M 9.8125 72.90625 
L 32.078125 72.90625 
Q 44.34375 72.90625 50.609375 67.359375 
Q 56.890625 61.8125 56.890625 51.125 
Q 56.890625 40.328125 50.609375 34.8125 
Q 44.34375 29.296875 32.078125 29.296875 
L 19.671875 29.296875 
L 19.671875 0 
L 9.8125 0 
z
" id="BitstreamVeraSans-Roman-50"/>
     <path d="M 11.71875 12.40625 
L 22.015625 12.40625 
L 22.015625 4 
L 14.015625 -11.625 
L 7.71875 -11.625 
L 11.71875 4 
z
" id="BitstreamVeraSans-Roman-2c"/>
     <path d="M 53.515625 70.515625 
L 53.515625 60.890625 
Q 47.90625 63.578125 42.921875 64.890625 
Q 37.9375 66.21875 33.296875 66.21875 
Q 25.25 66.21875 20.875 63.09375 
Q 16.5 59.96875 16.5 54.203125 
Q 16.5 49.359375 19.40625 46.890625 
Q 22.3125 44.4375 30.421875 42.921875 
L 36.375 41.703125 
Q 47.40625 39.59375 52.65625 34.296875 
Q 57.90625 29 57.90625 20.125 
Q 57.90625 9.515625 50.796875 4.046875 
Q 43.703125 -1.421875 29.984375 -1.421875 
Q 24.8125 -1.421875 18.96875 -0.25 
Q 13.140625 0.921875 6.890625 3.21875 
L 6.890625 13.375 
Q 12.890625 10.015625 18.65625 8.296875 
Q 24.421875 6.59375 29.984375 6.59375 
Q 38.421875 6.59375 43.015625 9.90625 
Q 47.609375 13.234375 47.609375 19.390625 
Q 47.609375 24.75 44.3125 27.78125 
Q 41.015625 30.8125 33.5 32.328125 
L 27.484375 33.5 
Q 16.453125 35.6875 11.515625 40.375 
Q 6.59375 45.0625 6.59375 53.421875 
Q 6.59375 63.09375 13.40625 68.65625 
Q 20.21875 74.21875 32.171875 74.21875 
Q 37.3125 74.21875 42.625 73.28125 
Q 47.953125 72.359375 53.515625 70.515625 
" id="BitstreamVeraSans-Roman-53"/>
     <path d="M -0.296875 72.90625 
L 61.375 72.90625 
L 61.375 64.59375 
L 35.5 64.59375 
L 35.5 0 
L 25.59375 0 
L 25.59375 64.59375 
L -0.296875 64.59375 
z
" id="BitstreamVeraSans-Roman-54"/>
     <path d="M 64.40625 67.28125 
L 64.40625 56.890625 
Q 59.421875 61.53125 53.78125 63.8125 
Q 48.140625 66.109375 41.796875 66.109375 
Q 29.296875 66.109375 22.65625 58.46875 
Q 16.015625 50.828125 16.015625 36.375 
Q 16.015625 21.96875 22.65625 14.328125 
Q 29.296875 6.6875 41.796875 6.6875 
Q 48.140625 6.6875 53.78125 8.984375 
Q 59.421875 11.28125 64.40625 15.921875 
L 64.40625 5.609375 
Q 59.234375 2.09375 53.4375 0.328125 
Q 47.65625 -1.421875 41.21875 -1.421875 
Q 24.65625 -1.421875 15.125 8.703125 
Q 5.609375 18.84375 5.609375 36.375 
Q 5.609375 53.953125 15.125 64.078125 
Q 24.65625 74.21875 41.21875 74.21875 
Q 47.75 74.21875 53.53125 72.484375 
Q 59.328125 70.75 64.40625 67.28125 
" id="BitstreamVeraSans-Roman-43"/>
     <path d="M 18.3125 70.21875 
L 18.3125 54.6875 
L 36.8125 54.6875 
L 36.8125 47.703125 
L 18.3125 47.703125 
L 18.3125 18.015625 
Q 18.3125 11.328125 20.140625 9.421875 
Q 21.96875 7.515625 27.59375 7.515625 
L 36.8125 7.515625 
L 36.8125 0 
L 27.59375 0 
Q 17.1875 0 13.234375 3.875 
Q 9.28125 7.765625 9.28125 18.015625 
L 9.28125 47.703125 
L 2.6875 47.703125 
L 2.6875 54.6875 
L 9.28125 54.6875 
L 9.28125 70.21875 
z
" id="BitstreamVeraSans-Roman-74"/>
     <path d="M 11.71875 12.40625 
L 22.015625 12.40625 
L 22.015625 0 
L 11.71875 0 
z
M 11.71875 51.703125 
L 22.015625 51.703125 
L 22.015625 39.3125 
L 11.71875 39.3125 
z
" id="BitstreamVeraSans-Roman-3a"/>
     <path d="M 44.28125 53.078125 
L 44.28125 44.578125 
Q 40.484375 46.53125 36.375 47.5 
Q 32.28125 48.484375 27.875 48.484375 
Q 21.1875 48.484375 17.84375 46.4375 
Q 14.5 44.390625 14.5 40.28125 
Q 14.5 37.15625 16.890625 35.375 
Q 19.28125 33.59375 26.515625 31.984375 
L 29.59375 31.296875 
Q 39.15625 29.25 43.1875 25.515625 
Q 47.21875 21.78125 47.21875 15.09375 
Q 47.21875 7.46875 41.1875 3.015625 
Q 35.15625 -1.421875 24.609375 -1.421875 
Q 20.21875 -1.421875 15.453125 -0.5625 
Q 10.6875 0.296875 5.421875 2 
L 5.421875 11.28125 
Q 10.40625 8.6875 15.234375 7.390625 
Q 20.0625 6.109375 24.8125 6.109375 
Q 31.15625 6.109375 34.5625 8.28125 
Q 37.984375 10.453125 37.984375 14.40625 
Q 37.984375 18.0625 35.515625 20.015625 
Q 33.0625 21.96875 24.703125 23.78125 
L 21.578125 24.515625 
Q 13.234375 26.265625 9.515625 29.90625 
Q 5.8125 33.546875 5.8125 39.890625 
Q 5.8125 47.609375 11.28125 51.796875 
Q 16.75 56 26.8125 56 
Q 31.78125 56 36.171875 55.265625 
Q 40.578125 54.546875 44.28125 53.078125 
" id="BitstreamVeraSans-Roman-73"/>
    </defs>
    <g transform="translate(804.697875 167.8)scale(0.144 -0.144)">
     <use xlink:href="#BitstreamVeraSans-Roman-54"/>
     <use x="61.083984375" xlink:href="#BitstreamVeraSans-Roman-53"/>
     <use x="124.560546875" xlink:href="#BitstreamVeraSans-Roman-50"/>
     <use x="184.86328125" xlink:href="#BitstreamVeraSans-Roman-3a"/>
     <use x="218.5546875" xlink:href="#BitstreamVeraSans-Roman-20"/>
     <use x="250.341796875" xlink:href="#BitstreamVeraSans-Roman-31"/>
     <use x="313.96484375" xlink:href="#BitstreamVeraSans-Roman-2c"/>
     <use x="345.751953125" xlink:href="#BitstreamVeraSans-Roman-20"/>
     <use x="377.5390625" xlink:href="#BitstreamVeraSans-Roman-43"/>
     <use x="447.36328125" xlink:href="#BitstreamVeraSans-Roman-6f"/>
     <use x="508.544921875" xlink:href="#BitstreamVeraSans-Roman-73"/>
     <use x="560.64453125" xlink:href="#BitstreamVeraSans-Roman-74"/>
     <use x="599.853515625" xlink:href="#BitstreamVeraSans-Roman-3a"/>
     <use x="633.544921875" xlink:href="#BitstreamVeraSans-Roman-20"/>
     <use x="665.33203125" xlink:href="#BitstreamVeraSans-Roman-32"/>
     <use x="728.955078125" xlink:href="#BitstreamVeraSans-Roman-31"/>
     <use x="792.578125" xlink:href="#BitstreamVeraSans-Roman-2c"/>
     <use x="824.365234375" xlink:href="#BitstreamVeraSans-Roman-20"/>
     <use x="856.15234375" xlink:href="#BitstreamVeraSans-Roman-4e"/>
     <use x="930.95703125" xlink:href="#BitstreamVeraSans-Roman-3a"/>
     <use x="964.6484375" xlink:href="#BitstreamVeraSans-Roman-20"/>
     <use x="996.435546875" xlink:href="#BitstreamVeraSans-Roman-32"/>
     <use x="1060.05859375" xlink:href="#BitstreamVeraSans-Roman-37"/>
    </g>
   </g>
  </g>
 </g>
 <defs>
  <clipPath id="pe57dd1b84f">
   <rect height="1382.4" width="1339.2" x="216.0" y="172.8"/>
  </clipPath>
 </defs>
</svg>
