<?xml version="1.0" encoding="utf-8" standalone="no"?>
<!DOCTYPE svg PUBLIC "-//W3C//DTD SVG 1.1//EN"
  "http://www.w3.org/Graphics/SVG/1.1/DTD/svg11.dtd">
<!-- Created with matplotlib (http://matplotlib.org/) -->
<svg height="1728pt" version="1.1" viewBox="0 0 1728 1728" width="1728pt" xmlns="http://www.w3.org/2000/svg" xmlns:xlink="http://www.w3.org/1999/xlink">
 <defs>
  <style type="text/css">
*{stroke-linecap:butt;stroke-linejoin:round;stroke-miterlimit:100000;}
  </style>
 </defs>
 <g id="figure_1">
  <g id="patch_1">
   <path d="M 0 1728 
L 1728 1728 
L 1728 0 
L 0 0 
z
" style="fill:#ffffff;"/>
  </g>
  <g id="axes_1">
   <g id="patch_2">
    <path d="M 216 1555.2 
L 1555.2 1555.2 
L 1555.2 172.8 
L 216 172.8 
z
" style="fill:#ffffff;"/>
   </g>
   <g id="line2d_1">
    <path clip-path="url(#pe68f9b566d)" d="M 289.152636 1225.490682 
L 504.009203 1432.216357 
L 706.453728 1374.787584 
L 735.056064 1376.971776 
L 886.641808 1385.402594 
L 913.469059 1470.161305 
L 997.518432 1347.08736 
L 1188.58656 1306.586112 
L 1535.81136 1301.885952 
L 1289.87472 1302.985728 
L 1165.23984 1224.784896 
L 993.756768 1086.962688 
L 939.069792 924.923904 
L 967.107637 698.722271 
L 929.668608 640.951296 
L 929.668608 640.951296 
L 893.175226 579.531488 
L 866.256 449.906688 
L 869.169504 326.436864 
L 908.747328 258.978816 
L 930.725088 261.866496 
L 963.470016 283.026432 
L 1109.127143 421.264595 
L 1207.897824 385.711104 
L 1280.711616 532.196352 
L 1217.506646 595.820231 
L 1363.182528 581.031936 
L 1326.247392 628.675584 
L 1339.24656 635.544576 
L 1168.852534 875.775096 
L 865.96198 939.39667 
L 736.088736 882.134016 
L 702.302208 945.451008 
L 694.240224 1046.765568 
L 736.088736 882.134016 
L 604.031712 831.14496 
L 471.245568 783.09888 
L 419.29056 791.473152 
L 300.104736 808.12032 
L 320.567712 882.61632 
L 294.32832 633.808896 
L 535.521216 910.851072 
L 460.005216 1015.563264 
L 289.152636 1225.490682 
" style="fill:none;stroke:#000000;stroke-linecap:square;"/>
    <defs>
     <path d="M 0 2.5 
C 0.663008 2.5 1.29895 2.236584 1.767767 1.767767 
C 2.236584 1.29895 2.5 0.663008 2.5 0 
C 2.5 -0.663008 2.236584 -1.29895 1.767767 -1.767767 
C 1.29895 -2.236584 0.663008 -2.5 0 -2.5 
C -0.663008 -2.5 -1.29895 -2.236584 -1.767767 -1.767767 
C -2.236584 -1.29895 -2.5 -0.663008 -2.5 0 
C -2.5 0.663008 -2.236584 1.29895 -1.767767 1.767767 
C -1.29895 2.236584 -0.663008 2.5 0 2.5 
z
" id="me983620f76" style="stroke:#000000;stroke-width:0.5;"/>
    </defs>
    <g clip-path="url(#pe68f9b566d)">
     <use style="fill:#00ff00;stroke:#000000;stroke-width:0.5;" x="289.152636384" xlink:href="#me983620f76" y="1225.49068186"/>
     <use style="fill:#00ff00;stroke:#000000;stroke-width:0.5;" x="504.009203136" xlink:href="#me983620f76" y="1432.21635686"/>
     <use style="fill:#00ff00;stroke:#000000;stroke-width:0.5;" x="706.453728" xlink:href="#me983620f76" y="1374.787584"/>
     <use style="fill:#00ff00;stroke:#000000;stroke-width:0.5;" x="735.056064" xlink:href="#me983620f76" y="1376.971776"/>
     <use style="fill:#00ff00;stroke:#000000;stroke-width:0.5;" x="886.64180832" xlink:href="#me983620f76" y="1385.4025943"/>
     <use style="fill:#00ff00;stroke:#000000;stroke-width:0.5;" x="913.469058528" xlink:href="#me983620f76" y="1470.16130458"/>
     <use style="fill:#00ff00;stroke:#000000;stroke-width:0.5;" x="997.518432001" xlink:href="#me983620f76" y="1347.08736"/>
     <use style="fill:#00ff00;stroke:#000000;stroke-width:0.5;" x="1188.58656" xlink:href="#me983620f76" y="1306.586112"/>
     <use style="fill:#00ff00;stroke:#000000;stroke-width:0.5;" x="1535.81136" xlink:href="#me983620f76" y="1301.885952"/>
     <use style="fill:#00ff00;stroke:#000000;stroke-width:0.5;" x="1289.87472" xlink:href="#me983620f76" y="1302.985728"/>
     <use style="fill:#00ff00;stroke:#000000;stroke-width:0.5;" x="1165.23984" xlink:href="#me983620f76" y="1224.784896"/>
     <use style="fill:#00ff00;stroke:#000000;stroke-width:0.5;" x="993.756768" xlink:href="#me983620f76" y="1086.962688"/>
     <use style="fill:#00ff00;stroke:#000000;stroke-width:0.5;" x="939.069792001" xlink:href="#me983620f76" y="924.923904"/>
     <use style="fill:#00ff00;stroke:#000000;stroke-width:0.5;" x="967.107637344" xlink:href="#me983620f76" y="698.722271232"/>
     <use style="fill:#00ff00;stroke:#000000;stroke-width:0.5;" x="929.668608" xlink:href="#me983620f76" y="640.951296"/>
     <use style="fill:#00ff00;stroke:#000000;stroke-width:0.5;" x="929.668608" xlink:href="#me983620f76" y="640.951296"/>
     <use style="fill:#00ff00;stroke:#000000;stroke-width:0.5;" x="893.175226464" xlink:href="#me983620f76" y="579.531488256"/>
     <use style="fill:#00ff00;stroke:#000000;stroke-width:0.5;" x="866.256" xlink:href="#me983620f76" y="449.906688"/>
     <use style="fill:#00ff00;stroke:#000000;stroke-width:0.5;" x="869.169504" xlink:href="#me983620f76" y="326.436864"/>
     <use style="fill:#00ff00;stroke:#000000;stroke-width:0.5;" x="908.747328" xlink:href="#me983620f76" y="258.978816"/>
     <use style="fill:#00ff00;stroke:#000000;stroke-width:0.5;" x="930.725088" xlink:href="#me983620f76" y="261.866496"/>
     <use style="fill:#00ff00;stroke:#000000;stroke-width:0.5;" x="963.470016" xlink:href="#me983620f76" y="283.026432"/>
     <use style="fill:#00ff00;stroke:#000000;stroke-width:0.5;" x="1109.12714275" xlink:href="#me983620f76" y="421.264594944"/>
     <use style="fill:#00ff00;stroke:#000000;stroke-width:0.5;" x="1207.897824" xlink:href="#me983620f76" y="385.711104"/>
     <use style="fill:#00ff00;stroke:#000000;stroke-width:0.5;" x="1280.711616" xlink:href="#me983620f76" y="532.196352"/>
     <use style="fill:#00ff00;stroke:#000000;stroke-width:0.5;" x="1217.5066465" xlink:href="#me983620f76" y="595.820230656"/>
     <use style="fill:#00ff00;stroke:#000000;stroke-width:0.5;" x="1363.182528" xlink:href="#me983620f76" y="581.031936"/>
     <use style="fill:#00ff00;stroke:#000000;stroke-width:0.5;" x="1326.247392" xlink:href="#me983620f76" y="628.675584"/>
     <use style="fill:#00ff00;stroke:#000000;stroke-width:0.5;" x="1339.24656" xlink:href="#me983620f76" y="635.544576"/>
     <use style="fill:#00ff00;stroke:#000000;stroke-width:0.5;" x="1168.85253437" xlink:href="#me983620f76" y="875.775095808"/>
     <use style="fill:#00ff00;stroke:#000000;stroke-width:0.5;" x="865.961980128" xlink:href="#me983620f76" y="939.396670464"/>
     <use style="fill:#00ff00;stroke:#000000;stroke-width:0.5;" x="736.088736" xlink:href="#me983620f76" y="882.134016"/>
     <use style="fill:#00ff00;stroke:#000000;stroke-width:0.5;" x="702.302208" xlink:href="#me983620f76" y="945.451008"/>
     <use style="fill:#00ff00;stroke:#000000;stroke-width:0.5;" x="694.240224001" xlink:href="#me983620f76" y="1046.765568"/>
     <use style="fill:#00ff00;stroke:#000000;stroke-width:0.5;" x="736.088736" xlink:href="#me983620f76" y="882.134016"/>
     <use style="fill:#00ff00;stroke:#000000;stroke-width:0.5;" x="604.031712" xlink:href="#me983620f76" y="831.14496"/>
     <use style="fill:#00ff00;stroke:#000000;stroke-width:0.5;" x="471.245568" xlink:href="#me983620f76" y="783.09888"/>
     <use style="fill:#00ff00;stroke:#000000;stroke-width:0.5;" x="419.290560001" xlink:href="#me983620f76" y="791.473152"/>
     <use style="fill:#00ff00;stroke:#000000;stroke-width:0.5;" x="300.104736" xlink:href="#me983620f76" y="808.12032"/>
     <use style="fill:#00ff00;stroke:#000000;stroke-width:0.5;" x="320.567712" xlink:href="#me983620f76" y="882.61632"/>
     <use style="fill:#00ff00;stroke:#000000;stroke-width:0.5;" x="294.32832" xlink:href="#me983620f76" y="633.808896"/>
     <use style="fill:#00ff00;stroke:#000000;stroke-width:0.5;" x="535.521216" xlink:href="#me983620f76" y="910.851072"/>
     <use style="fill:#00ff00;stroke:#000000;stroke-width:0.5;" x="460.005216" xlink:href="#me983620f76" y="1015.563264"/>
     <use style="fill:#00ff00;stroke:#000000;stroke-width:0.5;" x="289.152636384" xlink:href="#me983620f76" y="1225.49068186"/>
    </g>
   </g>
   <g id="patch_3">
    <path d="M 216 172.8 
L 1555.2 172.8 
" style="fill:none;stroke:#000000;stroke-linecap:square;stroke-linejoin:miter;"/>
   </g>
   <g id="patch_4">
    <path d="M 1555.2 1555.2 
L 1555.2 172.8 
" style="fill:none;stroke:#000000;stroke-linecap:square;stroke-linejoin:miter;"/>
   </g>
   <g id="patch_5">
    <path d="M 216 1555.2 
L 1555.2 1555.2 
" style="fill:none;stroke:#000000;stroke-linecap:square;stroke-linejoin:miter;"/>
   </g>
   <g id="patch_6">
    <path d="M 216 1555.2 
L 216 172.8 
" style="fill:none;stroke:#000000;stroke-linecap:square;stroke-linejoin:miter;"/>
   </g>
   <g id="matplotlib.axis_1">
    <g id="xtick_1">
     <g id="line2d_2">
      <defs>
       <path d="M 0 0 
L 0 -4 
" id="m2f4a07f2a8" style="stroke:#000000;stroke-width:0.5;"/>
      </defs>
      <g>
       <use style="stroke:#000000;stroke-width:0.5;" x="364.8" xlink:href="#m2f4a07f2a8" y="1555.2"/>
      </g>
     </g>
     <g id="line2d_3">
      <defs>
       <path d="M 0 0 
L 0 4 
" id="m596b4f465a" style="stroke:#000000;stroke-width:0.5;"/>
      </defs>
      <g>
       <use style="stroke:#000000;stroke-width:0.5;" x="364.8" xlink:href="#m596b4f465a" y="172.8"/>
      </g>
     </g>
     <g id="text_1">
      <!-- 77.22 -->
      <defs>
       <path d="M 19.1875 8.296875 
L 53.609375 8.296875 
L 53.609375 0 
L 7.328125 0 
L 7.328125 8.296875 
Q 12.9375 14.109375 22.625 23.890625 
Q 32.328125 33.6875 34.8125 36.53125 
Q 39.546875 41.84375 41.421875 45.53125 
Q 43.3125 49.21875 43.3125 52.78125 
Q 43.3125 58.59375 39.234375 62.25 
Q 35.15625 65.921875 28.609375 65.921875 
Q 23.96875 65.921875 18.8125 64.3125 
Q 13.671875 62.703125 7.8125 59.421875 
L 7.8125 69.390625 
Q 13.765625 71.78125 18.9375 73 
Q 24.125 74.21875 28.421875 74.21875 
Q 39.75 74.21875 46.484375 68.546875 
Q 53.21875 62.890625 53.21875 53.421875 
Q 53.21875 48.921875 51.53125 44.890625 
Q 49.859375 40.875 45.40625 35.40625 
Q 44.1875 33.984375 37.640625 27.21875 
Q 31.109375 20.453125 19.1875 8.296875 
" id="BitstreamVeraSans-Roman-32"/>
       <path d="M 10.6875 12.40625 
L 21 12.40625 
L 21 0 
L 10.6875 0 
z
" id="BitstreamVeraSans-Roman-2e"/>
       <path d="M 8.203125 72.90625 
L 55.078125 72.90625 
L 55.078125 68.703125 
L 28.609375 0 
L 18.3125 0 
L 43.21875 64.59375 
L 8.203125 64.59375 
z
" id="BitstreamVeraSans-Roman-37"/>
      </defs>
      <g transform="translate(347.623125 1568.318125)scale(0.12 -0.12)">
       <use xlink:href="#BitstreamVeraSans-Roman-37"/>
       <use x="63.623046875" xlink:href="#BitstreamVeraSans-Roman-37"/>
       <use x="127.24609375" xlink:href="#BitstreamVeraSans-Roman-2e"/>
       <use x="159.033203125" xlink:href="#BitstreamVeraSans-Roman-32"/>
       <use x="222.65625" xlink:href="#BitstreamVeraSans-Roman-32"/>
      </g>
     </g>
    </g>
    <g id="xtick_2">
     <g id="line2d_4">
      <g>
       <use style="stroke:#000000;stroke-width:0.5;" x="662.4" xlink:href="#m2f4a07f2a8" y="1555.2"/>
      </g>
     </g>
     <g id="line2d_5">
      <g>
       <use style="stroke:#000000;stroke-width:0.5;" x="662.4" xlink:href="#m596b4f465a" y="172.8"/>
      </g>
     </g>
     <g id="text_2">
      <!-- 77.23 -->
      <defs>
       <path d="M 40.578125 39.3125 
Q 47.65625 37.796875 51.625 33 
Q 55.609375 28.21875 55.609375 21.1875 
Q 55.609375 10.40625 48.1875 4.484375 
Q 40.765625 -1.421875 27.09375 -1.421875 
Q 22.515625 -1.421875 17.65625 -0.515625 
Q 12.796875 0.390625 7.625 2.203125 
L 7.625 11.71875 
Q 11.71875 9.328125 16.59375 8.109375 
Q 21.484375 6.890625 26.8125 6.890625 
Q 36.078125 6.890625 40.9375 10.546875 
Q 45.796875 14.203125 45.796875 21.1875 
Q 45.796875 27.640625 41.28125 31.265625 
Q 36.765625 34.90625 28.71875 34.90625 
L 20.21875 34.90625 
L 20.21875 43.015625 
L 29.109375 43.015625 
Q 36.375 43.015625 40.234375 45.921875 
Q 44.09375 48.828125 44.09375 54.296875 
Q 44.09375 59.90625 40.109375 62.90625 
Q 36.140625 65.921875 28.71875 65.921875 
Q 24.65625 65.921875 20.015625 65.03125 
Q 15.375 64.15625 9.8125 62.3125 
L 9.8125 71.09375 
Q 15.4375 72.65625 20.34375 73.4375 
Q 25.25 74.21875 29.59375 74.21875 
Q 40.828125 74.21875 47.359375 69.109375 
Q 53.90625 64.015625 53.90625 55.328125 
Q 53.90625 49.265625 50.4375 45.09375 
Q 46.96875 40.921875 40.578125 39.3125 
" id="BitstreamVeraSans-Roman-33"/>
      </defs>
      <g transform="translate(645.223125 1568.318125)scale(0.12 -0.12)">
       <use xlink:href="#BitstreamVeraSans-Roman-37"/>
       <use x="63.623046875" xlink:href="#BitstreamVeraSans-Roman-37"/>
       <use x="127.24609375" xlink:href="#BitstreamVeraSans-Roman-2e"/>
       <use x="159.033203125" xlink:href="#BitstreamVeraSans-Roman-32"/>
       <use x="222.65625" xlink:href="#BitstreamVeraSans-Roman-33"/>
      </g>
     </g>
    </g>
    <g id="xtick_3">
     <g id="line2d_6">
      <g>
       <use style="stroke:#000000;stroke-width:0.5;" x="960.0" xlink:href="#m2f4a07f2a8" y="1555.2"/>
      </g>
     </g>
     <g id="line2d_7">
      <g>
       <use style="stroke:#000000;stroke-width:0.5;" x="960.0" xlink:href="#m596b4f465a" y="172.8"/>
      </g>
     </g>
     <g id="text_3">
      <!-- 77.24 -->
      <defs>
       <path d="M 37.796875 64.3125 
L 12.890625 25.390625 
L 37.796875 25.390625 
z
M 35.203125 72.90625 
L 47.609375 72.90625 
L 47.609375 25.390625 
L 58.015625 25.390625 
L 58.015625 17.1875 
L 47.609375 17.1875 
L 47.609375 0 
L 37.796875 0 
L 37.796875 17.1875 
L 4.890625 17.1875 
L 4.890625 26.703125 
z
" id="BitstreamVeraSans-Roman-34"/>
      </defs>
      <g transform="translate(942.823125 1568.318125)scale(0.12 -0.12)">
       <use xlink:href="#BitstreamVeraSans-Roman-37"/>
       <use x="63.623046875" xlink:href="#BitstreamVeraSans-Roman-37"/>
       <use x="127.24609375" xlink:href="#BitstreamVeraSans-Roman-2e"/>
       <use x="159.033203125" xlink:href="#BitstreamVeraSans-Roman-32"/>
       <use x="222.65625" xlink:href="#BitstreamVeraSans-Roman-34"/>
      </g>
     </g>
    </g>
    <g id="xtick_4">
     <g id="line2d_8">
      <g>
       <use style="stroke:#000000;stroke-width:0.5;" x="1257.6" xlink:href="#m2f4a07f2a8" y="1555.2"/>
      </g>
     </g>
     <g id="line2d_9">
      <g>
       <use style="stroke:#000000;stroke-width:0.5;" x="1257.6" xlink:href="#m596b4f465a" y="172.8"/>
      </g>
     </g>
     <g id="text_4">
      <!-- 77.25 -->
      <defs>
       <path d="M 10.796875 72.90625 
L 49.515625 72.90625 
L 49.515625 64.59375 
L 19.828125 64.59375 
L 19.828125 46.734375 
Q 21.96875 47.46875 24.109375 47.828125 
Q 26.265625 48.1875 28.421875 48.1875 
Q 40.625 48.1875 47.75 41.5 
Q 54.890625 34.8125 54.890625 23.390625 
Q 54.890625 11.625 47.5625 5.09375 
Q 40.234375 -1.421875 26.90625 -1.421875 
Q 22.3125 -1.421875 17.546875 -0.640625 
Q 12.796875 0.140625 7.71875 1.703125 
L 7.71875 11.625 
Q 12.109375 9.234375 16.796875 8.0625 
Q 21.484375 6.890625 26.703125 6.890625 
Q 35.15625 6.890625 40.078125 11.328125 
Q 45.015625 15.765625 45.015625 23.390625 
Q 45.015625 31 40.078125 35.4375 
Q 35.15625 39.890625 26.703125 39.890625 
Q 22.75 39.890625 18.8125 39.015625 
Q 14.890625 38.140625 10.796875 36.28125 
z
" id="BitstreamVeraSans-Roman-35"/>
      </defs>
      <g transform="translate(1240.423125 1568.318125)scale(0.12 -0.12)">
       <use xlink:href="#BitstreamVeraSans-Roman-37"/>
       <use x="63.623046875" xlink:href="#BitstreamVeraSans-Roman-37"/>
       <use x="127.24609375" xlink:href="#BitstreamVeraSans-Roman-2e"/>
       <use x="159.033203125" xlink:href="#BitstreamVeraSans-Roman-32"/>
       <use x="222.65625" xlink:href="#BitstreamVeraSans-Roman-35"/>
      </g>
     </g>
    </g>
    <g id="xtick_5">
     <g id="line2d_10">
      <g>
       <use style="stroke:#000000;stroke-width:0.5;" x="1555.2" xlink:href="#m2f4a07f2a8" y="1555.2"/>
      </g>
     </g>
     <g id="line2d_11">
      <g>
       <use style="stroke:#000000;stroke-width:0.5;" x="1555.2" xlink:href="#m596b4f465a" y="172.8"/>
      </g>
     </g>
     <g id="text_5">
      <!-- 77.26 -->
      <defs>
       <path d="M 33.015625 40.375 
Q 26.375 40.375 22.484375 35.828125 
Q 18.609375 31.296875 18.609375 23.390625 
Q 18.609375 15.53125 22.484375 10.953125 
Q 26.375 6.390625 33.015625 6.390625 
Q 39.65625 6.390625 43.53125 10.953125 
Q 47.40625 15.53125 47.40625 23.390625 
Q 47.40625 31.296875 43.53125 35.828125 
Q 39.65625 40.375 33.015625 40.375 
M 52.59375 71.296875 
L 52.59375 62.3125 
Q 48.875 64.0625 45.09375 64.984375 
Q 41.3125 65.921875 37.59375 65.921875 
Q 27.828125 65.921875 22.671875 59.328125 
Q 17.53125 52.734375 16.796875 39.40625 
Q 19.671875 43.65625 24.015625 45.921875 
Q 28.375 48.1875 33.59375 48.1875 
Q 44.578125 48.1875 50.953125 41.515625 
Q 57.328125 34.859375 57.328125 23.390625 
Q 57.328125 12.15625 50.6875 5.359375 
Q 44.046875 -1.421875 33.015625 -1.421875 
Q 20.359375 -1.421875 13.671875 8.265625 
Q 6.984375 17.96875 6.984375 36.375 
Q 6.984375 53.65625 15.1875 63.9375 
Q 23.390625 74.21875 37.203125 74.21875 
Q 40.921875 74.21875 44.703125 73.484375 
Q 48.484375 72.75 52.59375 71.296875 
" id="BitstreamVeraSans-Roman-36"/>
      </defs>
      <g transform="translate(1538.023125 1568.318125)scale(0.12 -0.12)">
       <use xlink:href="#BitstreamVeraSans-Roman-37"/>
       <use x="63.623046875" xlink:href="#BitstreamVeraSans-Roman-37"/>
       <use x="127.24609375" xlink:href="#BitstreamVeraSans-Roman-2e"/>
       <use x="159.033203125" xlink:href="#BitstreamVeraSans-Roman-32"/>
       <use x="222.65625" xlink:href="#BitstreamVeraSans-Roman-36"/>
      </g>
     </g>
    </g>
   </g>
   <g id="matplotlib.axis_2">
    <g id="ytick_1">
     <g id="line2d_12">
      <defs>
       <path d="M 0 0 
L 4 0 
" id="m3bc9eeee29" style="stroke:#000000;stroke-width:0.5;"/>
      </defs>
      <g>
       <use style="stroke:#000000;stroke-width:0.5;" x="216.0" xlink:href="#m3bc9eeee29" y="1555.2"/>
      </g>
     </g>
     <g id="line2d_13">
      <defs>
       <path d="M 0 0 
L -4 0 
" id="m4c01d57470" style="stroke:#000000;stroke-width:0.5;"/>
      </defs>
      <g>
       <use style="stroke:#000000;stroke-width:0.5;" x="1555.2" xlink:href="#m4c01d57470" y="1555.2"/>
      </g>
     </g>
     <g id="text_6">
      <!-- 28.62 -->
      <defs>
       <path d="M 31.78125 34.625 
Q 24.75 34.625 20.71875 30.859375 
Q 16.703125 27.09375 16.703125 20.515625 
Q 16.703125 13.921875 20.71875 10.15625 
Q 24.75 6.390625 31.78125 6.390625 
Q 38.8125 6.390625 42.859375 10.171875 
Q 46.921875 13.96875 46.921875 20.515625 
Q 46.921875 27.09375 42.890625 30.859375 
Q 38.875 34.625 31.78125 34.625 
M 21.921875 38.8125 
Q 15.578125 40.375 12.03125 44.71875 
Q 8.5 49.078125 8.5 55.328125 
Q 8.5 64.0625 14.71875 69.140625 
Q 20.953125 74.21875 31.78125 74.21875 
Q 42.671875 74.21875 48.875 69.140625 
Q 55.078125 64.0625 55.078125 55.328125 
Q 55.078125 49.078125 51.53125 44.71875 
Q 48 40.375 41.703125 38.8125 
Q 48.828125 37.15625 52.796875 32.3125 
Q 56.78125 27.484375 56.78125 20.515625 
Q 56.78125 9.90625 50.3125 4.234375 
Q 43.84375 -1.421875 31.78125 -1.421875 
Q 19.734375 -1.421875 13.25 4.234375 
Q 6.78125 9.90625 6.78125 20.515625 
Q 6.78125 27.484375 10.78125 32.3125 
Q 14.796875 37.15625 21.921875 38.8125 
M 18.3125 54.390625 
Q 18.3125 48.734375 21.84375 45.5625 
Q 25.390625 42.390625 31.78125 42.390625 
Q 38.140625 42.390625 41.71875 45.5625 
Q 45.3125 48.734375 45.3125 54.390625 
Q 45.3125 60.0625 41.71875 63.234375 
Q 38.140625 66.40625 31.78125 66.40625 
Q 25.390625 66.40625 21.84375 63.234375 
Q 18.3125 60.0625 18.3125 54.390625 
" id="BitstreamVeraSans-Roman-38"/>
      </defs>
      <g transform="translate(177.64625 1558.51125)scale(0.12 -0.12)">
       <use xlink:href="#BitstreamVeraSans-Roman-32"/>
       <use x="63.623046875" xlink:href="#BitstreamVeraSans-Roman-38"/>
       <use x="127.24609375" xlink:href="#BitstreamVeraSans-Roman-2e"/>
       <use x="159.033203125" xlink:href="#BitstreamVeraSans-Roman-36"/>
       <use x="222.65625" xlink:href="#BitstreamVeraSans-Roman-32"/>
      </g>
     </g>
    </g>
    <g id="ytick_2">
     <g id="line2d_14">
      <g>
       <use style="stroke:#000000;stroke-width:0.5;" x="216.0" xlink:href="#m3bc9eeee29" y="1248.0"/>
      </g>
     </g>
     <g id="line2d_15">
      <g>
       <use style="stroke:#000000;stroke-width:0.5;" x="1555.2" xlink:href="#m4c01d57470" y="1248.0"/>
      </g>
     </g>
     <g id="text_7">
      <!-- 28.63 -->
      <g transform="translate(177.64625 1251.31125)scale(0.12 -0.12)">
       <use xlink:href="#BitstreamVeraSans-Roman-32"/>
       <use x="63.623046875" xlink:href="#BitstreamVeraSans-Roman-38"/>
       <use x="127.24609375" xlink:href="#BitstreamVeraSans-Roman-2e"/>
       <use x="159.033203125" xlink:href="#BitstreamVeraSans-Roman-36"/>
       <use x="222.65625" xlink:href="#BitstreamVeraSans-Roman-33"/>
      </g>
     </g>
    </g>
    <g id="ytick_3">
     <g id="line2d_16">
      <g>
       <use style="stroke:#000000;stroke-width:0.5;" x="216.0" xlink:href="#m3bc9eeee29" y="940.8"/>
      </g>
     </g>
     <g id="line2d_17">
      <g>
       <use style="stroke:#000000;stroke-width:0.5;" x="1555.2" xlink:href="#m4c01d57470" y="940.8"/>
      </g>
     </g>
     <g id="text_8">
      <!-- 28.64 -->
      <g transform="translate(177.64625 944.11125)scale(0.12 -0.12)">
       <use xlink:href="#BitstreamVeraSans-Roman-32"/>
       <use x="63.623046875" xlink:href="#BitstreamVeraSans-Roman-38"/>
       <use x="127.24609375" xlink:href="#BitstreamVeraSans-Roman-2e"/>
       <use x="159.033203125" xlink:href="#BitstreamVeraSans-Roman-36"/>
       <use x="222.65625" xlink:href="#BitstreamVeraSans-Roman-34"/>
      </g>
     </g>
    </g>
    <g id="ytick_4">
     <g id="line2d_18">
      <g>
       <use style="stroke:#000000;stroke-width:0.5;" x="216.0" xlink:href="#m3bc9eeee29" y="633.6"/>
      </g>
     </g>
     <g id="line2d_19">
      <g>
       <use style="stroke:#000000;stroke-width:0.5;" x="1555.2" xlink:href="#m4c01d57470" y="633.6"/>
      </g>
     </g>
     <g id="text_9">
      <!-- 28.65 -->
      <g transform="translate(177.64625 636.91125)scale(0.12 -0.12)">
       <use xlink:href="#BitstreamVeraSans-Roman-32"/>
       <use x="63.623046875" xlink:href="#BitstreamVeraSans-Roman-38"/>
       <use x="127.24609375" xlink:href="#BitstreamVeraSans-Roman-2e"/>
       <use x="159.033203125" xlink:href="#BitstreamVeraSans-Roman-36"/>
       <use x="222.65625" xlink:href="#BitstreamVeraSans-Roman-35"/>
      </g>
     </g>
    </g>
    <g id="ytick_5">
     <g id="line2d_20">
      <g>
       <use style="stroke:#000000;stroke-width:0.5;" x="216.0" xlink:href="#m3bc9eeee29" y="326.4"/>
      </g>
     </g>
     <g id="line2d_21">
      <g>
       <use style="stroke:#000000;stroke-width:0.5;" x="1555.2" xlink:href="#m4c01d57470" y="326.4"/>
      </g>
     </g>
     <g id="text_10">
      <!-- 28.66 -->
      <g transform="translate(177.64625 329.71125)scale(0.12 -0.12)">
       <use xlink:href="#BitstreamVeraSans-Roman-32"/>
       <use x="63.623046875" xlink:href="#BitstreamVeraSans-Roman-38"/>
       <use x="127.24609375" xlink:href="#BitstreamVeraSans-Roman-2e"/>
       <use x="159.033203125" xlink:href="#BitstreamVeraSans-Roman-36"/>
       <use x="222.65625" xlink:href="#BitstreamVeraSans-Roman-36"/>
      </g>
     </g>
    </g>
   </g>
   <g id="patch_7">
    <path d="M 305.094096 1212.643923 
Q 297.903704 1218.438451 291.583851 1223.531437 
" style="fill:none;stroke:#ff0000;stroke-linecap:round;"/>
    <path d="M 294.205546 1222.959849 
L 291.583851 1223.531437 
L 292.699598 1221.091128 
" style="fill:none;stroke:#ff0000;stroke-linecap:round;"/>
   </g>
   <g id="text_11">
    <!-- 0 -->
    <defs>
     <path d="M 31.78125 66.40625 
Q 24.171875 66.40625 20.328125 58.90625 
Q 16.5 51.421875 16.5 36.375 
Q 16.5 21.390625 20.328125 13.890625 
Q 24.171875 6.390625 31.78125 6.390625 
Q 39.453125 6.390625 43.28125 13.890625 
Q 47.125 21.390625 47.125 36.375 
Q 47.125 51.421875 43.28125 58.90625 
Q 39.453125 66.40625 31.78125 66.40625 
M 31.78125 74.21875 
Q 44.046875 74.21875 50.515625 64.515625 
Q 56.984375 54.828125 56.984375 36.375 
Q 56.984375 17.96875 50.515625 8.265625 
Q 44.046875 -1.421875 31.78125 -1.421875 
Q 19.53125 -1.421875 13.0625 8.265625 
Q 6.59375 17.96875 6.59375 36.375 
Q 6.59375 54.828125 13.0625 64.515625 
Q 19.53125 74.21875 31.78125 74.21875 
" id="BitstreamVeraSans-Roman-30"/>
    </defs>
    <g style="fill:#ff0000;" transform="translate(309.152636384 1209.49068186)scale(0.06 -0.06)">
     <use xlink:href="#BitstreamVeraSans-Roman-30"/>
    </g>
   </g>
   <g id="patch_8">
    <path d="M 520.979144 1446.545943 
Q 513.257531 1440.025736 506.390144 1434.226847 
" style="fill:none;stroke:#ff0000;stroke-linecap:round;"/>
    <path d="M 507.449648 1436.692095 
L 506.390144 1434.226847 
L 508.998045 1434.858392 
" style="fill:none;stroke:#ff0000;stroke-linecap:round;"/>
   </g>
   <g id="text_12">
    <!-- 1 -->
    <defs>
     <path d="M 12.40625 8.296875 
L 28.515625 8.296875 
L 28.515625 63.921875 
L 10.984375 60.40625 
L 10.984375 69.390625 
L 28.421875 72.90625 
L 38.28125 72.90625 
L 38.28125 8.296875 
L 54.390625 8.296875 
L 54.390625 0 
L 12.40625 0 
z
" id="BitstreamVeraSans-Roman-31"/>
    </defs>
    <g style="fill:#ff0000;" transform="translate(525.009203136 1453.21635686)scale(0.06 -0.06)">
     <use xlink:href="#BitstreamVeraSans-Roman-31"/>
    </g>
   </g>
   <g id="patch_9">
    <path d="M 691.135043 1358.332686 
Q 698.112787 1365.82798 704.328718 1372.504958 
" style="fill:none;stroke:#ff0000;stroke-linecap:round;"/>
    <path d="M 703.571703 1369.930676 
L 704.328718 1372.504958 
L 701.815083 1371.566001 
" style="fill:none;stroke:#ff0000;stroke-linecap:round;"/>
   </g>
   <g id="text_13">
    <!-- 2 -->
    <g style="fill:#ff0000;" transform="translate(683.453728 1353.787584)scale(0.06 -0.06)">
     <use xlink:href="#BitstreamVeraSans-Roman-32"/>
    </g>
   </g>
   <g id="patch_10">
    <path d="M 755.044625 1394.210427 
Q 745.807967 1386.244495 737.417971 1379.008745 
" style="fill:none;stroke:#ff0000;stroke-linecap:round;"/>
    <path d="M 738.45172 1381.484904 
L 737.417971 1379.008745 
L 740.019147 1379.667441 
" style="fill:none;stroke:#ff0000;stroke-linecap:round;"/>
   </g>
   <g id="text_14">
    <!-- 3 -->
    <g style="fill:#ff0000;" transform="translate(759.056064 1400.971776)scale(0.06 -0.06)">
     <use xlink:href="#BitstreamVeraSans-Roman-33"/>
    </g>
   </g>
   <g id="patch_11">
    <path d="M 898.819551 1399.236534 
Q 893.39219 1393.071041 888.703567 1387.744756 
" style="fill:none;stroke:#ff0000;stroke-linecap:round;"/>
    <path d="M 889.388627 1390.339114 
L 888.703567 1387.744756 
L 891.190089 1388.753322 
" style="fill:none;stroke:#ff0000;stroke-linecap:round;"/>
   </g>
   <g id="text_15">
    <!-- 4 -->
    <g style="fill:#ff0000;" transform="translate(902.64180832 1407.4025943)scale(0.06 -0.06)">
     <use xlink:href="#BitstreamVeraSans-Roman-34"/>
    </g>
   </g>
   <g id="patch_12">
    <path d="M 928.513607 1456.018421 
Q 921.719502 1462.405335 915.740001 1468.026467 
" style="fill:none;stroke:#ff0000;stroke-linecap:round;"/>
    <path d="M 918.310572 1467.256945 
L 915.740001 1468.026467 
L 916.666725 1465.508297 
" style="fill:none;stroke:#ff0000;stroke-linecap:round;"/>
   </g>
   <g id="text_16">
    <!-- 5 -->
    <g style="fill:#ff0000;" transform="translate(932.469058528 1452.16130458)scale(0.06 -0.06)">
     <use xlink:href="#BitstreamVeraSans-Roman-35"/>
    </g>
   </g>
   <g id="patch_13">
    <path d="M 985.363793 1357.396506 
Q 990.679964 1352.887513 995.143489 1349.101705 
" style="fill:none;stroke:#ff0000;stroke-linecap:round;"/>
    <path d="M 992.536976 1349.738956 
L 995.143489 1349.101705 
L 994.089382 1351.569266 
" style="fill:none;stroke:#ff0000;stroke-linecap:round;"/>
   </g>
   <g id="text_17">
    <!-- 6 -->
    <g style="fill:#ff0000;" transform="translate(977.518432001 1364.08736)scale(0.06 -0.06)">
     <use xlink:href="#BitstreamVeraSans-Roman-36"/>
    </g>
   </g>
   <g id="patch_14">
    <path d="M 1206.635825 1289.48286 
Q 1198.337173 1297.346556 1190.850072 1304.441237 
" style="fill:none;stroke:#ff0000;stroke-linecap:round;"/>
    <path d="M 1193.417562 1303.661497 
L 1190.850072 1304.441237 
L 1191.766774 1301.919401 
" style="fill:none;stroke:#ff0000;stroke-linecap:round;"/>
   </g>
   <g id="text_18">
    <!-- 7 -->
    <g style="fill:#ff0000;" transform="translate(1210.58656 1285.586112)scale(0.06 -0.06)">
     <use xlink:href="#BitstreamVeraSans-Roman-37"/>
    </g>
   </g>
   <g id="patch_15">
    <path d="M 1525.489659 1317.168448 
Q 1530.089821 1310.357365 1534.064224 1304.472794 
" style="fill:none;stroke:#ff0000;stroke-linecap:round;"/>
    <path d="M 1531.726514 1305.790031 
L 1534.064224 1304.472794 
L 1533.715388 1307.133304 
" style="fill:none;stroke:#ff0000;stroke-linecap:round;"/>
   </g>
   <g id="text_19">
    <!-- 8 -->
    <g style="fill:#ff0000;" transform="translate(1518.81136 1325.885952)scale(0.06 -0.06)">
     <use xlink:href="#BitstreamVeraSans-Roman-38"/>
    </g>
   </g>
   <g id="patch_16">
    <path d="M 1306.82208 1289.184731 
Q 1299.123154 1295.454312 1292.291167 1301.017907 
" style="fill:none;stroke:#ff0000;stroke-linecap:round;"/>
    <path d="M 1294.909904 1300.432913 
L 1292.291167 1301.017907 
L 1293.394414 1298.571921 
" style="fill:none;stroke:#ff0000;stroke-linecap:round;"/>
   </g>
   <g id="text_20">
    <!-- 9 -->
    <defs>
     <path d="M 10.984375 1.515625 
L 10.984375 10.5 
Q 14.703125 8.734375 18.5 7.8125 
Q 22.3125 6.890625 25.984375 6.890625 
Q 35.75 6.890625 40.890625 13.453125 
Q 46.046875 20.015625 46.78125 33.40625 
Q 43.953125 29.203125 39.59375 26.953125 
Q 35.25 24.703125 29.984375 24.703125 
Q 19.046875 24.703125 12.671875 31.3125 
Q 6.296875 37.9375 6.296875 49.421875 
Q 6.296875 60.640625 12.9375 67.421875 
Q 19.578125 74.21875 30.609375 74.21875 
Q 43.265625 74.21875 49.921875 64.515625 
Q 56.59375 54.828125 56.59375 36.375 
Q 56.59375 19.140625 48.40625 8.859375 
Q 40.234375 -1.421875 26.421875 -1.421875 
Q 22.703125 -1.421875 18.890625 -0.6875 
Q 15.09375 0.046875 10.984375 1.515625 
M 30.609375 32.421875 
Q 37.25 32.421875 41.125 36.953125 
Q 45.015625 41.5 45.015625 49.421875 
Q 45.015625 57.28125 41.125 61.84375 
Q 37.25 66.40625 30.609375 66.40625 
Q 23.96875 66.40625 20.09375 61.84375 
Q 16.21875 57.28125 16.21875 49.421875 
Q 16.21875 41.5 20.09375 36.953125 
Q 23.96875 32.421875 30.609375 32.421875 
" id="BitstreamVeraSans-Roman-39"/>
    </defs>
    <g style="fill:#ff0000;" transform="translate(1310.87472 1285.985728)scale(0.06 -0.06)">
     <use xlink:href="#BitstreamVeraSans-Roman-39"/>
    </g>
   </g>
   <g id="patch_17">
    <path d="M 1154.099801 1212.04144 
Q 1159.013004 1217.661815 1163.190369 1222.440439 
" style="fill:none;stroke:#ff0000;stroke-linecap:round;"/>
    <path d="M 1162.514261 1219.843734 
L 1163.190369 1222.440439 
L 1160.70734 1221.423303 
" style="fill:none;stroke:#ff0000;stroke-linecap:round;"/>
   </g>
   <g id="text_21">
    <!-- 10 -->
    <g style="fill:#ff0000;" transform="translate(1144.23984 1206.784896)scale(0.06 -0.06)">
     <use xlink:href="#BitstreamVeraSans-Roman-31"/>
     <use x="63.623046875" xlink:href="#BitstreamVeraSans-Roman-30"/>
    </g>
   </g>
   <g id="patch_18">
    <path d="M 1008.987549 1071.146812 
Q 1002.06658 1078.333653 995.921143 1084.715168 
" style="fill:none;stroke:#ff0000;stroke-linecap:round;"/>
    <path d="M 998.450287 1083.818826 
L 995.921143 1084.715168 
L 996.721556 1082.154047 
" style="fill:none;stroke:#ff0000;stroke-linecap:round;"/>
   </g>
   <g id="text_22">
    <!-- 11 -->
    <g style="fill:#ff0000;" transform="translate(1011.756768 1065.962688)scale(0.06 -0.06)">
     <use xlink:href="#BitstreamVeraSans-Roman-31"/>
     <use x="63.623046875" xlink:href="#BitstreamVeraSans-Roman-31"/>
    </g>
   </g>
   <g id="patch_19">
    <path d="M 952.027675 935.719935 
Q 946.315893 930.961089 941.463081 926.917904 
" style="fill:none;stroke:#ff0000;stroke-linecap:round;"/>
    <path d="M 942.538838 929.376104 
L 941.463081 926.917904 
L 944.075095 927.532219 
" style="fill:none;stroke:#ff0000;stroke-linecap:round;"/>
   </g>
   <g id="text_23">
    <!-- 12 -->
    <g style="fill:#ff0000;" transform="translate(956.069792001 943.923904)scale(0.06 -0.06)">
     <use xlink:href="#BitstreamVeraSans-Roman-31"/>
     <use x="63.623046875" xlink:href="#BitstreamVeraSans-Roman-32"/>
    </g>
   </g>
   <g id="patch_20">
    <path d="M 955.230756 683.062258 
Q 960.564624 690.095118 965.22288 696.237164 
" style="fill:none;stroke:#ff0000;stroke-linecap:round;"/>
    <path d="M 964.728717 693.599779 
L 965.22288 696.237164 
L 962.816474 695.050064 
" style="fill:none;stroke:#ff0000;stroke-linecap:round;"/>
   </g>
   <g id="text_24">
    <!-- 13 -->
    <g style="fill:#ff0000;" transform="translate(946.107637344 677.722271232)scale(0.06 -0.06)">
     <use xlink:href="#BitstreamVeraSans-Roman-31"/>
     <use x="63.623046875" xlink:href="#BitstreamVeraSans-Roman-33"/>
    </g>
   </g>
   <g id="patch_21">
    <path d="M 944.573207 652.2808 
Q 937.915989 647.220417 932.14885 642.836614 
" style="fill:none;stroke:#ff0000;stroke-linecap:round;"/>
    <path d="M 933.333334 645.24431 
L 932.14885 642.836614 
L 934.785697 643.333645 
" style="fill:none;stroke:#ff0000;stroke-linecap:round;"/>
   </g>
   <g id="text_25">
    <!-- 14 -->
    <g style="fill:#ff0000;" transform="translate(948.668608 659.951296)scale(0.06 -0.06)">
     <use xlink:href="#BitstreamVeraSans-Roman-31"/>
     <use x="63.623046875" xlink:href="#BitstreamVeraSans-Roman-34"/>
    </g>
   </g>
   <g id="patch_22">
    <path d="M 947.598694 655.080333 
Q 939.418311 648.634132 932.11608 642.879921 
" style="fill:none;stroke:#ff0000;stroke-linecap:round;"/>
    <path d="M 933.258421 645.307895 
L 932.11608 642.879921 
L 934.743864 643.422833 
" style="fill:none;stroke:#ff0000;stroke-linecap:round;"/>
   </g>
   <g id="text_26">
    <!-- 15 -->
    <g style="fill:#ff0000;" transform="translate(951.668608 662.951296)scale(0.06 -0.06)">
     <use xlink:href="#BitstreamVeraSans-Roman-31"/>
     <use x="63.623046875" xlink:href="#BitstreamVeraSans-Roman-35"/>
    </g>
   </g>
   <g id="patch_23">
    <path d="M 880.906203 588.859396 
Q 886.245445 584.800071 890.694671 581.417408 
" style="fill:none;stroke:#ff0000;stroke-linecap:round;"/>
    <path d="M 888.05787 581.914683 
L 890.694671 581.417408 
L 889.51041 583.825214 
" style="fill:none;stroke:#ff0000;stroke-linecap:round;"/>
   </g>
   <g id="text_27">
    <!-- 16 -->
    <g style="fill:#ff0000;" transform="translate(869.175226464 596.531488256)scale(0.06 -0.06)">
     <use xlink:href="#BitstreamVeraSans-Roman-31"/>
     <use x="63.623046875" xlink:href="#BitstreamVeraSans-Roman-36"/>
    </g>
   </g>
   <g id="patch_24">
    <path d="M 879.228041 438.904911 
Q 873.503684 443.759821 868.631995 447.891572 
" style="fill:none;stroke:#ff0000;stroke-linecap:round;"/>
    <path d="M 871.238527 447.254398 
L 868.631995 447.891572 
L 869.686175 445.424042 
" style="fill:none;stroke:#ff0000;stroke-linecap:round;"/>
   </g>
   <g id="text_28">
    <!-- 17 -->
    <g style="fill:#ff0000;" transform="translate(883.256 433.906688)scale(0.06 -0.06)">
     <use xlink:href="#BitstreamVeraSans-Roman-31"/>
     <use x="63.623046875" xlink:href="#BitstreamVeraSans-Roman-37"/>
    </g>
   </g>
   <g id="patch_25">
    <path d="M 888.129975 307.595275 
Q 879.359137 316.31112 871.381351 324.238885 
" style="fill:none;stroke:#ff0000;stroke-linecap:round;"/>
    <path d="M 873.929591 323.398367 
L 871.381351 324.238885 
L 872.23788 321.695982 
" style="fill:none;stroke:#ff0000;stroke-linecap:round;"/>
   </g>
   <g id="text_29">
    <!-- 18 -->
    <g style="fill:#ff0000;" transform="translate(891.169504 302.436864)scale(0.06 -0.06)">
     <use xlink:href="#BitstreamVeraSans-Roman-31"/>
     <use x="63.623046875" xlink:href="#BitstreamVeraSans-Roman-38"/>
    </g>
   </g>
   <g id="patch_26">
    <path d="M 926.188497 240.191618 
Q 918.148144 248.852489 910.868462 256.693983 
" style="fill:none;stroke:#ff0000;stroke-linecap:round;"/>
    <path d="M 913.380787 255.751526 
L 910.868462 256.693983 
L 911.621892 254.118649 
" style="fill:none;stroke:#ff0000;stroke-linecap:round;"/>
   </g>
   <g id="text_30">
    <!-- 19 -->
    <g style="fill:#ff0000;" transform="translate(928.747328 234.978816)scale(0.06 -0.06)">
     <use xlink:href="#BitstreamVeraSans-Roman-31"/>
     <use x="63.623046875" xlink:href="#BitstreamVeraSans-Roman-39"/>
    </g>
   </g>
   <g id="patch_27">
    <path d="M 919.628567 277.188284 
Q 924.590305 270.337245 928.896249 264.391709 
" style="fill:none;stroke:#ff0000;stroke-linecap:round;"/>
    <path d="M 926.516619 265.631612 
L 928.896249 264.391709 
L 928.460394 267.039355 
" style="fill:none;stroke:#ff0000;stroke-linecap:round;"/>
   </g>
   <g id="text_31">
    <!-- 20 -->
    <g style="fill:#ff0000;" transform="translate(910.725088 285.866496)scale(0.06 -0.06)">
     <use xlink:href="#BitstreamVeraSans-Roman-32"/>
     <use x="63.623046875" xlink:href="#BitstreamVeraSans-Roman-30"/>
    </g>
   </g>
   <g id="patch_28">
    <path d="M 952.504277 264.496356 
Q 957.477813 272.900713 961.88195 280.342893 
" style="fill:none;stroke:#ff0000;stroke-linecap:round;"/>
    <path d="M 961.692383 277.666316 
L 961.88195 280.342893 
L 959.626948 278.888601 
" style="fill:none;stroke:#ff0000;stroke-linecap:round;"/>
   </g>
   <g id="text_32">
    <!-- 21 -->
    <g style="fill:#ff0000;" transform="translate(944.470016 259.026432)scale(0.06 -0.06)">
     <use xlink:href="#BitstreamVeraSans-Roman-32"/>
     <use x="63.623046875" xlink:href="#BitstreamVeraSans-Roman-31"/>
    </g>
   </g>
   <g id="patch_29">
    <path d="M 1096.817505 431.233298 
Q 1102.195458 426.878075 1106.704555 423.226477 
" style="fill:none;stroke:#ff0000;stroke-linecap:round;"/>
    <path d="M 1104.084236 423.804342 
L 1106.704555 423.226477 
L 1105.594656 425.669451 
" style="fill:none;stroke:#ff0000;stroke-linecap:round;"/>
   </g>
   <g id="text_33">
    <!-- 22 -->
    <g style="fill:#ff0000;" transform="translate(1085.12714275 439.264594944)scale(0.06 -0.06)">
     <use xlink:href="#BitstreamVeraSans-Roman-32"/>
     <use x="63.623046875" xlink:href="#BitstreamVeraSans-Roman-32"/>
    </g>
   </g>
   <g id="patch_30">
    <path d="M 1225.012893 370.776581 
Q 1217.20853 377.586629 1210.246577 383.661594 
" style="fill:none;stroke:#ff0000;stroke-linecap:round;"/>
    <path d="M 1212.843888 382.987817 
L 1210.246577 383.661594 
L 1211.265941 381.179479 
" style="fill:none;stroke:#ff0000;stroke-linecap:round;"/>
   </g>
   <g id="text_34">
    <!-- 23 -->
    <g style="fill:#ff0000;" transform="translate(1228.897824 365.711104)scale(0.06 -0.06)">
     <use xlink:href="#BitstreamVeraSans-Roman-32"/>
     <use x="63.623046875" xlink:href="#BitstreamVeraSans-Roman-33"/>
    </g>
   </g>
   <g id="patch_31">
    <path d="M 1300.183085 514.294563 
Q 1291.182997 522.569114 1283.005958 530.086967 
" style="fill:none;stroke:#ff0000;stroke-linecap:round;"/>
    <path d="M 1285.584907 529.346007 
L 1283.005958 530.086967 
L 1283.960559 527.579232 
" style="fill:none;stroke:#ff0000;stroke-linecap:round;"/>
   </g>
   <g id="text_35">
    <!-- 24 -->
    <g style="fill:#ff0000;" transform="translate(1303.711616 509.196352)scale(0.06 -0.06)">
     <use xlink:href="#BitstreamVeraSans-Roman-32"/>
     <use x="63.623046875" xlink:href="#BitstreamVeraSans-Roman-34"/>
    </g>
   </g>
   <g id="patch_32">
    <path d="M 1208.30965 579.316479 
Q 1212.422028 586.696025 1215.990163 593.098944 
" style="fill:none;stroke:#ff0000;stroke-linecap:round;"/>
    <path d="M 1215.870106 590.41835 
L 1215.990163 593.098944 
L 1213.773653 591.586634 
" style="fill:none;stroke:#ff0000;stroke-linecap:round;"/>
   </g>
   <g id="text_36">
    <!-- 25 -->
    <g style="fill:#ff0000;" transform="translate(1200.5066465 573.820230656)scale(0.06 -0.06)">
     <use xlink:href="#BitstreamVeraSans-Roman-32"/>
     <use x="63.623046875" xlink:href="#BitstreamVeraSans-Roman-35"/>
    </g>
   </g>
   <g id="patch_33">
    <path d="M 1351.825464 564.430147 
Q 1356.939747 571.906221 1361.422773 578.459521 
" style="fill:none;stroke:#ff0000;stroke-linecap:round;"/>
    <path d="M 1361.058124 575.801132 
L 1361.422773 578.459521 
L 1359.077272 577.156206 
" style="fill:none;stroke:#ff0000;stroke-linecap:round;"/>
   </g>
   <g id="text_37">
    <!-- 26 -->
    <g style="fill:#ff0000;" transform="translate(1343.182528 559.031936)scale(0.06 -0.06)">
     <use xlink:href="#BitstreamVeraSans-Roman-32"/>
     <use x="63.623046875" xlink:href="#BitstreamVeraSans-Roman-36"/>
    </g>
   </g>
   <g id="patch_34">
    <path d="M 1317.215131 637.240045 
Q 1321.004667 633.646777 1323.982904 630.82279 
" style="fill:none;stroke:#ff0000;stroke-linecap:round;"/>
    <path d="M 1321.415669 631.603369 
L 1323.982904 630.82279 
L 1323.067026 633.344925 
" style="fill:none;stroke:#ff0000;stroke-linecap:round;"/>
   </g>
   <g id="text_38">
    <!-- 27 -->
    <g style="fill:#ff0000;" transform="translate(1306.247392 645.675584)scale(0.06 -0.06)">
     <use xlink:href="#BitstreamVeraSans-Roman-32"/>
     <use x="63.623046875" xlink:href="#BitstreamVeraSans-Roman-37"/>
    </g>
   </g>
   <g id="patch_35">
    <path d="M 1359.073011 648.619218 
Q 1349.993552 642.631728 1341.847448 637.259743 
" style="fill:none;stroke:#ff0000;stroke-linecap:round;"/>
    <path d="M 1343.190383 639.582786 
L 1341.847448 637.259743 
L 1344.511643 637.579221 
" style="fill:none;stroke:#ff0000;stroke-linecap:round;"/>
   </g>
   <g id="text_39">
    <!-- 28 -->
    <g style="fill:#ff0000;" transform="translate(1363.24656 655.544576)scale(0.06 -0.06)">
     <use xlink:href="#BitstreamVeraSans-Roman-32"/>
     <use x="63.623046875" xlink:href="#BitstreamVeraSans-Roman-38"/>
    </g>
   </g>
   <g id="patch_36">
    <path d="M 1184.833399 889.425593 
Q 1177.602799 883.249376 1171.222318 877.799312 
" style="fill:none;stroke:#ff0000;stroke-linecap:round;"/>
    <path d="M 1172.267816 880.270533 
L 1171.222318 877.799312 
L 1173.826594 878.445646 
" style="fill:none;stroke:#ff0000;stroke-linecap:round;"/>
   </g>
   <g id="text_40">
    <!-- 29 -->
    <g style="fill:#ff0000;" transform="translate(1188.85253437 897.775095808)scale(0.06 -0.06)">
     <use xlink:href="#BitstreamVeraSans-Roman-32"/>
     <use x="63.623046875" xlink:href="#BitstreamVeraSans-Roman-39"/>
    </g>
   </g>
   <g id="patch_37">
    <path d="M 855.28076 948.998093 
Q 859.876866 944.866621 863.641492 941.482573 
" style="fill:none;stroke:#ff0000;stroke-linecap:round;"/>
    <path d="M 861.054398 942.194572 
L 863.641492 941.482573 
L 862.658835 943.979448 
" style="fill:none;stroke:#ff0000;stroke-linecap:round;"/>
   </g>
   <g id="text_41">
    <!-- 30 -->
    <g style="fill:#ff0000;" transform="translate(843.961980128 957.396670464)scale(0.06 -0.06)">
     <use xlink:href="#BitstreamVeraSans-Roman-33"/>
     <use x="63.623046875" xlink:href="#BitstreamVeraSans-Roman-30"/>
    </g>
   </g>
   <g id="patch_38">
    <path d="M 724.281059 897.488892 
Q 729.5752 890.604314 734.187799 884.606022 
" style="fill:none;stroke:#ff0000;stroke-linecap:round;"/>
    <path d="M 731.773525 885.777039 
L 734.187799 884.606022 
L 733.676048 887.240052 
" style="fill:none;stroke:#ff0000;stroke-linecap:round;"/>
   </g>
   <g id="text_42">
    <!-- 31 -->
    <g style="fill:#ff0000;" transform="translate(715.088736 906.134016)scale(0.06 -0.06)">
     <use xlink:href="#BitstreamVeraSans-Roman-33"/>
     <use x="63.623046875" xlink:href="#BitstreamVeraSans-Roman-31"/>
    </g>
   </g>
   <g id="patch_39">
    <path d="M 719.321214 960.088262 
Q 711.568965 953.420914 704.664371 947.482594 
" style="fill:none;stroke:#ff0000;stroke-linecap:round;"/>
    <path d="M 705.701493 949.957343 
L 704.664371 947.482594 
L 707.266443 948.137746 
" style="fill:none;stroke:#ff0000;stroke-linecap:round;"/>
   </g>
   <g id="text_43">
    <!-- 32 -->
    <g style="fill:#ff0000;" transform="translate(723.302208 968.451008)scale(0.06 -0.06)">
     <use xlink:href="#BitstreamVeraSans-Roman-33"/>
     <use x="63.623046875" xlink:href="#BitstreamVeraSans-Roman-32"/>
    </g>
   </g>
   <g id="patch_40">
    <path d="M 687.0029 1057.069436 
Q 690.046428 1052.736327 692.447339 1049.31812 
" style="fill:none;stroke:#ff0000;stroke-linecap:round;"/>
    <path d="M 690.085908 1050.592341 
L 692.447339 1049.31812 
L 692.049857 1051.971798 
" style="fill:none;stroke:#ff0000;stroke-linecap:round;"/>
   </g>
   <g id="text_44">
    <!-- 33 -->
    <g style="fill:#ff0000;" transform="translate(678.240224001 1065.765568)scale(0.06 -0.06)">
     <use xlink:href="#BitstreamVeraSans-Roman-33"/>
     <use x="63.623046875" xlink:href="#BitstreamVeraSans-Roman-33"/>
    </g>
   </g>
   <g id="patch_41">
    <path d="M 750.093949 865.416364 
Q 743.733305 873.008896 738.090641 879.744396 
" style="fill:none;stroke:#ff0000;stroke-linecap:round;"/>
    <path d="M 740.551738 878.675283 
L 738.090641 879.744396 
L 738.712009 877.13405 
" style="fill:none;stroke:#ff0000;stroke-linecap:round;"/>
   </g>
   <g id="text_45">
    <!-- 34 -->
    <g style="fill:#ff0000;" transform="translate(752.088736 860.134016)scale(0.06 -0.06)">
     <use xlink:href="#BitstreamVeraSans-Roman-33"/>
     <use x="63.623046875" xlink:href="#BitstreamVeraSans-Roman-34"/>
    </g>
   </g>
   <g id="patch_42">
    <path d="M 596.714709 820.540711 
Q 599.806036 825.020851 602.262398 828.580762 
" style="fill:none;stroke:#ff0000;stroke-linecap:round;"/>
    <path d="M 601.887062 825.923861 
L 602.262398 828.580762 
L 599.911675 827.286891 
" style="fill:none;stroke:#ff0000;stroke-linecap:round;"/>
   </g>
   <g id="text_46">
    <!-- 35 -->
    <g style="fill:#ff0000;" transform="translate(588.031712 815.14496)scale(0.06 -0.06)">
     <use xlink:href="#BitstreamVeraSans-Roman-33"/>
     <use x="63.623046875" xlink:href="#BitstreamVeraSans-Roman-35"/>
    </g>
   </g>
   <g id="patch_43">
    <path d="M 463.083979 768.590831 
Q 466.673604 774.971752 469.715058 780.378244 
" style="fill:none;stroke:#ff0000;stroke-linecap:round;"/>
    <path d="M 469.584208 777.698155 
L 469.715058 780.378244 
L 467.492477 778.874871 
" style="fill:none;stroke:#ff0000;stroke-linecap:round;"/>
   </g>
   <g id="text_47">
    <!-- 36 -->
    <g style="fill:#ff0000;" transform="translate(455.245568 763.09888)scale(0.06 -0.06)">
     <use xlink:href="#BitstreamVeraSans-Roman-33"/>
     <use x="63.623046875" xlink:href="#BitstreamVeraSans-Roman-36"/>
    </g>
   </g>
   <g id="patch_44">
    <path d="M 411.577243 803.72099 
Q 414.901916 798.441801 417.630791 794.108669 
" style="fill:none;stroke:#ff0000;stroke-linecap:round;"/>
    <path d="M 415.33642 795.500022 
L 417.630791 794.108669 
L 417.367251 796.778978 
" style="fill:none;stroke:#ff0000;stroke-linecap:round;"/>
   </g>
   <g id="text_48">
    <!-- 37 -->
    <g style="fill:#ff0000;" transform="translate(403.290560001 812.473152)scale(0.06 -0.06)">
     <use xlink:href="#BitstreamVeraSans-Roman-33"/>
     <use x="63.623046875" xlink:href="#BitstreamVeraSans-Roman-37"/>
    </g>
   </g>
   <g id="patch_45">
    <path d="M 287.509588 792.426607 
Q 293.181402 799.493759 298.153426 805.688963 
" style="fill:none;stroke:#ff0000;stroke-linecap:round;"/>
    <path d="M 297.58711 803.066123 
L 298.153426 805.688963 
L 295.715365 804.568311 
" style="fill:none;stroke:#ff0000;stroke-linecap:round;"/>
   </g>
   <g id="text_49">
    <!-- 38 -->
    <g style="fill:#ff0000;" transform="translate(278.104736 787.12032)scale(0.06 -0.06)">
     <use xlink:href="#BitstreamVeraSans-Roman-33"/>
     <use x="63.623046875" xlink:href="#BitstreamVeraSans-Roman-38"/>
    </g>
   </g>
   <g id="patch_46">
    <path d="M 339.431084 869.493993 
Q 330.820295 875.484098 323.127307 880.835735 
" style="fill:none;stroke:#ff0000;stroke-linecap:round;"/>
    <path d="M 325.782757 880.450268 
L 323.127307 880.835735 
L 324.412204 878.480094 
" style="fill:none;stroke:#ff0000;stroke-linecap:round;"/>
   </g>
   <g id="text_50">
    <!-- 39 -->
    <g style="fill:#ff0000;" transform="translate(343.567712 865.61632)scale(0.06 -0.06)">
     <use xlink:href="#BitstreamVeraSans-Roman-33"/>
     <use x="63.623046875" xlink:href="#BitstreamVeraSans-Roman-39"/>
    </g>
   </g>
   <g id="patch_47">
    <path d="M 313.236742 648.153262 
Q 304.579999 641.586057 296.813983 635.694578 
" style="fill:none;stroke:#ff0000;stroke-linecap:round;"/>
    <path d="M 298.000775 638.101137 
L 296.813983 635.694578 
L 299.451305 636.18908 
" style="fill:none;stroke:#ff0000;stroke-linecap:round;"/>
   </g>
   <g id="text_51">
    <!-- 40 -->
    <g style="fill:#ff0000;" transform="translate(317.32832 655.808896)scale(0.06 -0.06)">
     <use xlink:href="#BitstreamVeraSans-Roman-34"/>
     <use x="63.623046875" xlink:href="#BitstreamVeraSans-Roman-30"/>
    </g>
   </g>
   <g id="patch_48">
    <path d="M 523.644334 895.191059 
Q 528.978203 902.223919 533.636459 908.365965 
" style="fill:none;stroke:#ff0000;stroke-linecap:round;"/>
    <path d="M 533.142295 905.72858 
L 533.636459 908.365965 
L 531.230052 907.178865 
" style="fill:none;stroke:#ff0000;stroke-linecap:round;"/>
   </g>
   <g id="text_52">
    <!-- 41 -->
    <g style="fill:#ff0000;" transform="translate(514.521216 889.851072)scale(0.06 -0.06)">
     <use xlink:href="#BitstreamVeraSans-Roman-34"/>
     <use x="63.623046875" xlink:href="#BitstreamVeraSans-Roman-31"/>
    </g>
   </g>
   <g id="patch_49">
    <path d="M 472.263827 1004.641935 
Q 466.881232 1009.437347 462.333426 1013.489036 
" style="fill:none;stroke:#ff0000;stroke-linecap:round;"/>
    <path d="M 464.923656 1012.788531 
L 462.333426 1013.489036 
L 463.32716 1010.996549 
" style="fill:none;stroke:#ff0000;stroke-linecap:round;"/>
   </g>
   <g id="text_53">
    <!-- 42 -->
    <g style="fill:#ff0000;" transform="translate(476.005216 999.563264)scale(0.06 -0.06)">
     <use xlink:href="#BitstreamVeraSans-Roman-34"/>
     <use x="63.623046875" xlink:href="#BitstreamVeraSans-Roman-32"/>
    </g>
   </g>
   <g id="patch_50">
    <path d="M 281.290221 1235.835357 
Q 284.615815 1231.459832 287.264881 1227.974425 
" style="fill:none;stroke:#ff0000;stroke-linecap:round;"/>
    <path d="M 284.857253 1229.159046 
L 287.264881 1227.974425 
L 286.768001 1230.6113 
" style="fill:none;stroke:#ff0000;stroke-linecap:round;"/>
   </g>
   <g id="text_54">
    <!-- 43 -->
    <g style="fill:#ff0000;" transform="translate(272.152636384 1244.49068186)scale(0.06 -0.06)">
     <use xlink:href="#BitstreamVeraSans-Roman-34"/>
     <use x="63.623046875" xlink:href="#BitstreamVeraSans-Roman-33"/>
    </g>
   </g>
   <g id="text_55">
    <!-- TSP: 2, Cost: 22, N: 43 -->
    <defs>
     <path id="BitstreamVeraSans-Roman-20"/>
     <path d="M 9.8125 72.90625 
L 23.09375 72.90625 
L 55.421875 11.921875 
L 55.421875 72.90625 
L 64.984375 72.90625 
L 64.984375 0 
L 51.703125 0 
L 19.390625 60.984375 
L 19.390625 0 
L 9.8125 0 
z
" id="BitstreamVeraSans-Roman-4e"/>
     <path d="M 30.609375 48.390625 
Q 23.390625 48.390625 19.1875 42.75 
Q 14.984375 37.109375 14.984375 27.296875 
Q 14.984375 17.484375 19.15625 11.84375 
Q 23.34375 6.203125 30.609375 6.203125 
Q 37.796875 6.203125 41.984375 11.859375 
Q 46.1875 17.53125 46.1875 27.296875 
Q 46.1875 37.015625 41.984375 42.703125 
Q 37.796875 48.390625 30.609375 48.390625 
M 30.609375 56 
Q 42.328125 56 49.015625 48.375 
Q 55.71875 40.765625 55.71875 27.296875 
Q 55.71875 13.875 49.015625 6.21875 
Q 42.328125 -1.421875 30.609375 -1.421875 
Q 18.84375 -1.421875 12.171875 6.21875 
Q 5.515625 13.875 5.515625 27.296875 
Q 5.515625 40.765625 12.171875 48.375 
Q 18.84375 56 30.609375 56 
" id="BitstreamVeraSans-Roman-6f"/>
     <path d="M 19.671875 64.796875 
L 19.671875 37.40625 
L 32.078125 37.40625 
Q 38.96875 37.40625 42.71875 40.96875 
Q 46.484375 44.53125 46.484375 51.125 
Q 46.484375 57.671875 42.71875 61.234375 
Q 38.96875 64.796875 32.078125 64.796875 
z
M 9.8125 72.90625 
L 32.078125 72.90625 
Q 44.34375 72.90625 50.609375 67.359375 
Q 56.890625 61.8125 56.890625 51.125 
Q 56.890625 40.328125 50.609375 34.8125 
Q 44.34375 29.296875 32.078125 29.296875 
L 19.671875 29.296875 
L 19.671875 0 
L 9.8125 0 
z
" id="BitstreamVeraSans-Roman-50"/>
     <path d="M 11.71875 12.40625 
L 22.015625 12.40625 
L 22.015625 4 
L 14.015625 -11.625 
L 7.71875 -11.625 
L 11.71875 4 
z
" id="BitstreamVeraSans-Roman-2c"/>
     <path d="M 53.515625 70.515625 
L 53.515625 60.890625 
Q 47.90625 63.578125 42.921875 64.890625 
Q 37.9375 66.21875 33.296875 66.21875 
Q 25.25 66.21875 20.875 63.09375 
Q 16.5 59.96875 16.5 54.203125 
Q 16.5 49.359375 19.40625 46.890625 
Q 22.3125 44.4375 30.421875 42.921875 
L 36.375 41.703125 
Q 47.40625 39.59375 52.65625 34.296875 
Q 57.90625 29 57.90625 20.125 
Q 57.90625 9.515625 50.796875 4.046875 
Q 43.703125 -1.421875 29.984375 -1.421875 
Q 24.8125 -1.421875 18.96875 -0.25 
Q 13.140625 0.921875 6.890625 3.21875 
L 6.890625 13.375 
Q 12.890625 10.015625 18.65625 8.296875 
Q 24.421875 6.59375 29.984375 6.59375 
Q 38.421875 6.59375 43.015625 9.90625 
Q 47.609375 13.234375 47.609375 19.390625 
Q 47.609375 24.75 44.3125 27.78125 
Q 41.015625 30.8125 33.5 32.328125 
L 27.484375 33.5 
Q 16.453125 35.6875 11.515625 40.375 
Q 6.59375 45.0625 6.59375 53.421875 
Q 6.59375 63.09375 13.40625 68.65625 
Q 20.21875 74.21875 32.171875 74.21875 
Q 37.3125 74.21875 42.625 73.28125 
Q 47.953125 72.359375 53.515625 70.515625 
" id="BitstreamVeraSans-Roman-53"/>
     <path d="M -0.296875 72.90625 
L 61.375 72.90625 
L 61.375 64.59375 
L 35.5 64.59375 
L 35.5 0 
L 25.59375 0 
L 25.59375 64.59375 
L -0.296875 64.59375 
z
" id="BitstreamVeraSans-Roman-54"/>
     <path d="M 64.40625 67.28125 
L 64.40625 56.890625 
Q 59.421875 61.53125 53.78125 63.8125 
Q 48.140625 66.109375 41.796875 66.109375 
Q 29.296875 66.109375 22.65625 58.46875 
Q 16.015625 50.828125 16.015625 36.375 
Q 16.015625 21.96875 22.65625 14.328125 
Q 29.296875 6.6875 41.796875 6.6875 
Q 48.140625 6.6875 53.78125 8.984375 
Q 59.421875 11.28125 64.40625 15.921875 
L 64.40625 5.609375 
Q 59.234375 2.09375 53.4375 0.328125 
Q 47.65625 -1.421875 41.21875 -1.421875 
Q 24.65625 -1.421875 15.125 8.703125 
Q 5.609375 18.84375 5.609375 36.375 
Q 5.609375 53.953125 15.125 64.078125 
Q 24.65625 74.21875 41.21875 74.21875 
Q 47.75 74.21875 53.53125 72.484375 
Q 59.328125 70.75 64.40625 67.28125 
" id="BitstreamVeraSans-Roman-43"/>
     <path d="M 18.3125 70.21875 
L 18.3125 54.6875 
L 36.8125 54.6875 
L 36.8125 47.703125 
L 18.3125 47.703125 
L 18.3125 18.015625 
Q 18.3125 11.328125 20.140625 9.421875 
Q 21.96875 7.515625 27.59375 7.515625 
L 36.8125 7.515625 
L 36.8125 0 
L 27.59375 0 
Q 17.1875 0 13.234375 3.875 
Q 9.28125 7.765625 9.28125 18.015625 
L 9.28125 47.703125 
L 2.6875 47.703125 
L 2.6875 54.6875 
L 9.28125 54.6875 
L 9.28125 70.21875 
z
" id="BitstreamVeraSans-Roman-74"/>
     <path d="M 11.71875 12.40625 
L 22.015625 12.40625 
L 22.015625 0 
L 11.71875 0 
z
M 11.71875 51.703125 
L 22.015625 51.703125 
L 22.015625 39.3125 
L 11.71875 39.3125 
z
" id="BitstreamVeraSans-Roman-3a"/>
     <path d="M 44.28125 53.078125 
L 44.28125 44.578125 
Q 40.484375 46.53125 36.375 47.5 
Q 32.28125 48.484375 27.875 48.484375 
Q 21.1875 48.484375 17.84375 46.4375 
Q 14.5 44.390625 14.5 40.28125 
Q 14.5 37.15625 16.890625 35.375 
Q 19.28125 33.59375 26.515625 31.984375 
L 29.59375 31.296875 
Q 39.15625 29.25 43.1875 25.515625 
Q 47.21875 21.78125 47.21875 15.09375 
Q 47.21875 7.46875 41.1875 3.015625 
Q 35.15625 -1.421875 24.609375 -1.421875 
Q 20.21875 -1.421875 15.453125 -0.5625 
Q 10.6875 0.296875 5.421875 2 
L 5.421875 11.28125 
Q 10.40625 8.6875 15.234375 7.390625 
Q 20.0625 6.109375 24.8125 6.109375 
Q 31.15625 6.109375 34.5625 8.28125 
Q 37.984375 10.453125 37.984375 14.40625 
Q 37.984375 18.0625 35.515625 20.015625 
Q 33.0625 21.96875 24.703125 23.78125 
L 21.578125 24.515625 
Q 13.234375 26.265625 9.515625 29.90625 
Q 5.8125 33.546875 5.8125 39.890625 
Q 5.8125 47.609375 11.28125 51.796875 
Q 16.75 56 26.8125 56 
Q 31.78125 56 36.171875 55.265625 
Q 40.578125 54.546875 44.28125 53.078125 
" id="BitstreamVeraSans-Roman-73"/>
    </defs>
    <g transform="translate(804.697875 167.8)scale(0.144 -0.144)">
     <use xlink:href="#BitstreamVeraSans-Roman-54"/>
     <use x="61.083984375" xlink:href="#BitstreamVeraSans-Roman-53"/>
     <use x="124.560546875" xlink:href="#BitstreamVeraSans-Roman-50"/>
     <use x="184.86328125" xlink:href="#BitstreamVeraSans-Roman-3a"/>
     <use x="218.5546875" xlink:href="#BitstreamVeraSans-Roman-20"/>
     <use x="250.341796875" xlink:href="#BitstreamVeraSans-Roman-32"/>
     <use x="313.96484375" xlink:href="#BitstreamVeraSans-Roman-2c"/>
     <use x="345.751953125" xlink:href="#BitstreamVeraSans-Roman-20"/>
     <use x="377.5390625" xlink:href="#BitstreamVeraSans-Roman-43"/>
     <use x="447.36328125" xlink:href="#BitstreamVeraSans-Roman-6f"/>
     <use x="508.544921875" xlink:href="#BitstreamVeraSans-Roman-73"/>
     <use x="560.64453125" xlink:href="#BitstreamVeraSans-Roman-74"/>
     <use x="599.853515625" xlink:href="#BitstreamVeraSans-Roman-3a"/>
     <use x="633.544921875" xlink:href="#BitstreamVeraSans-Roman-20"/>
     <use x="665.33203125" xlink:href="#BitstreamVeraSans-Roman-32"/>
     <use x="728.955078125" xlink:href="#BitstreamVeraSans-Roman-32"/>
     <use x="792.578125" xlink:href="#BitstreamVeraSans-Roman-2c"/>
     <use x="824.365234375" xlink:href="#BitstreamVeraSans-Roman-20"/>
     <use x="856.15234375" xlink:href="#BitstreamVeraSans-Roman-4e"/>
     <use x="930.95703125" xlink:href="#BitstreamVeraSans-Roman-3a"/>
     <use x="964.6484375" xlink:href="#BitstreamVeraSans-Roman-20"/>
     <use x="996.435546875" xlink:href="#BitstreamVeraSans-Roman-34"/>
     <use x="1060.05859375" xlink:href="#BitstreamVeraSans-Roman-33"/>
    </g>
   </g>
  </g>
 </g>
 <defs>
  <clipPath id="pe68f9b566d">
   <rect height="1382.4" width="1339.2" x="216.0" y="172.8"/>
  </clipPath>
 </defs>
</svg>
