<?xml version="1.0" encoding="utf-8" standalone="no"?>
<!DOCTYPE svg PUBLIC "-//W3C//DTD SVG 1.1//EN"
  "http://www.w3.org/Graphics/SVG/1.1/DTD/svg11.dtd">
<!-- Created with matplotlib (http://matplotlib.org/) -->
<svg height="1728pt" version="1.1" viewBox="0 0 1728 1728" width="1728pt" xmlns="http://www.w3.org/2000/svg" xmlns:xlink="http://www.w3.org/1999/xlink">
 <defs>
  <style type="text/css">
*{stroke-linecap:butt;stroke-linejoin:round;stroke-miterlimit:100000;}
  </style>
 </defs>
 <g id="figure_1">
  <g id="patch_1">
   <path d="M 0 1728 
L 1728 1728 
L 1728 0 
L 0 0 
z
" style="fill:#ffffff;"/>
  </g>
  <g id="axes_1">
   <g id="patch_2">
    <path d="M 216 1555.2 
L 1555.2 1555.2 
L 1555.2 172.8 
L 216 172.8 
z
" style="fill:#ffffff;"/>
   </g>
   <g id="line2d_1">
    <path clip-path="url(#p7ba2f6ba78)" d="M 1116.906624 459.207936 
L 1150.46192 519.952182 
L 1277.17114 519.903948 
L 1542.698476 636.921638 
L 1407.254112 973.092096 
L 1408.539744 971.659008 
L 1393.397856 965.968128 
L 1242.47104 804.51246 
L 1059.071254 783.148472 
L 1046.48256 767.441664 
L 854.212128 830.953728 
L 705.682944 928.104192 
L 550.655084 940.940423 
L 374.89117 949.573631 
L 221.648448 1020.900096 
L 345.658466 1228.690428 
L 436.881696 1243.68768 
L 533.756448 1261.251072 
L 909.384192 1495.830528 
L 558.839375 1131.064123 
L 562.556986 730.988354 
L 595.000772 600.182434 
L 623.331072 356.235264 
L 745.6536 592.137216 
L 779.49072 592.839936 
L 894.760128 586.983168 
L 976.567853 676.902291 
L 766.496317 680.575374 
L 1096.993785 422.650748 
L 1116.906624 459.207936 
" style="fill:none;stroke:#000000;stroke-linecap:square;"/>
    <defs>
     <path d="M 0 2.5 
C 0.663008 2.5 1.29895 2.236584 1.767767 1.767767 
C 2.236584 1.29895 2.5 0.663008 2.5 0 
C 2.5 -0.663008 2.236584 -1.29895 1.767767 -1.767767 
C 1.29895 -2.236584 0.663008 -2.5 0 -2.5 
C -0.663008 -2.5 -1.29895 -2.236584 -1.767767 -1.767767 
C -2.236584 -1.29895 -2.5 -0.663008 -2.5 0 
C -2.5 0.663008 -2.236584 1.29895 -1.767767 1.767767 
C -1.29895 2.236584 -0.663008 2.5 0 2.5 
z
" id="m122d7a0e18" style="stroke:#000000;stroke-width:0.5;"/>
    </defs>
    <g clip-path="url(#p7ba2f6ba78)">
     <use style="fill:#00ff00;stroke:#000000;stroke-width:0.5;" x="1116.906624" xlink:href="#m122d7a0e18" y="459.207936"/>
     <use style="fill:#00ff00;stroke:#000000;stroke-width:0.5;" x="1150.46191978" xlink:href="#m122d7a0e18" y="519.95218176"/>
     <use style="fill:#00ff00;stroke:#000000;stroke-width:0.5;" x="1277.17114022" xlink:href="#m122d7a0e18" y="519.90394752"/>
     <use style="fill:#00ff00;stroke:#000000;stroke-width:0.5;" x="1542.69847574" xlink:href="#m122d7a0e18" y="636.921637632"/>
     <use style="fill:#00ff00;stroke:#000000;stroke-width:0.5;" x="1407.254112" xlink:href="#m122d7a0e18" y="973.092096"/>
     <use style="fill:#00ff00;stroke:#000000;stroke-width:0.5;" x="1408.539744" xlink:href="#m122d7a0e18" y="971.659008"/>
     <use style="fill:#00ff00;stroke:#000000;stroke-width:0.5;" x="1393.397856" xlink:href="#m122d7a0e18" y="965.968128"/>
     <use style="fill:#00ff00;stroke:#000000;stroke-width:0.5;" x="1242.47103974" xlink:href="#m122d7a0e18" y="804.51245952"/>
     <use style="fill:#00ff00;stroke:#000000;stroke-width:0.5;" x="1059.07125427" xlink:href="#m122d7a0e18" y="783.148472064"/>
     <use style="fill:#00ff00;stroke:#000000;stroke-width:0.5;" x="1046.48256" xlink:href="#m122d7a0e18" y="767.441664"/>
     <use style="fill:#00ff00;stroke:#000000;stroke-width:0.5;" x="854.212127999" xlink:href="#m122d7a0e18" y="830.953728"/>
     <use style="fill:#00ff00;stroke:#000000;stroke-width:0.5;" x="705.682944" xlink:href="#m122d7a0e18" y="928.104192"/>
     <use style="fill:#00ff00;stroke:#000000;stroke-width:0.5;" x="550.65508368" xlink:href="#m122d7a0e18" y="940.940423424"/>
     <use style="fill:#00ff00;stroke:#000000;stroke-width:0.5;" x="374.891169599" xlink:href="#m122d7a0e18" y="949.573631232"/>
     <use style="fill:#00ff00;stroke:#000000;stroke-width:0.5;" x="221.648447999" xlink:href="#m122d7a0e18" y="1020.900096"/>
     <use style="fill:#00ff00;stroke:#000000;stroke-width:0.5;" x="345.658466208" xlink:href="#m122d7a0e18" y="1228.6904279"/>
     <use style="fill:#00ff00;stroke:#000000;stroke-width:0.5;" x="436.881695999" xlink:href="#m122d7a0e18" y="1243.68768"/>
     <use style="fill:#00ff00;stroke:#000000;stroke-width:0.5;" x="533.756447999" xlink:href="#m122d7a0e18" y="1261.251072"/>
     <use style="fill:#00ff00;stroke:#000000;stroke-width:0.5;" x="909.384192" xlink:href="#m122d7a0e18" y="1495.830528"/>
     <use style="fill:#00ff00;stroke:#000000;stroke-width:0.5;" x="558.839375327" xlink:href="#m122d7a0e18" y="1131.06412339"/>
     <use style="fill:#00ff00;stroke:#000000;stroke-width:0.5;" x="562.556985599" xlink:href="#m122d7a0e18" y="730.988354304"/>
     <use style="fill:#00ff00;stroke:#000000;stroke-width:0.5;" x="595.00077216" xlink:href="#m122d7a0e18" y="600.182433792"/>
     <use style="fill:#00ff00;stroke:#000000;stroke-width:0.5;" x="623.331071999" xlink:href="#m122d7a0e18" y="356.235264"/>
     <use style="fill:#00ff00;stroke:#000000;stroke-width:0.5;" x="745.653599999" xlink:href="#m122d7a0e18" y="592.137216"/>
     <use style="fill:#00ff00;stroke:#000000;stroke-width:0.5;" x="779.490719999" xlink:href="#m122d7a0e18" y="592.839936"/>
     <use style="fill:#00ff00;stroke:#000000;stroke-width:0.5;" x="894.760127999" xlink:href="#m122d7a0e18" y="586.983168"/>
     <use style="fill:#00ff00;stroke:#000000;stroke-width:0.5;" x="976.567853279" xlink:href="#m122d7a0e18" y="676.902290688"/>
     <use style="fill:#00ff00;stroke:#000000;stroke-width:0.5;" x="766.496316575" xlink:href="#m122d7a0e18" y="680.575373568"/>
     <use style="fill:#00ff00;stroke:#000000;stroke-width:0.5;" x="1096.99378541" xlink:href="#m122d7a0e18" y="422.65074816"/>
     <use style="fill:#00ff00;stroke:#000000;stroke-width:0.5;" x="1116.906624" xlink:href="#m122d7a0e18" y="459.207936"/>
    </g>
   </g>
   <g id="patch_3">
    <path d="M 216 172.8 
L 1555.2 172.8 
" style="fill:none;stroke:#000000;stroke-linecap:square;stroke-linejoin:miter;"/>
   </g>
   <g id="patch_4">
    <path d="M 1555.2 1555.2 
L 1555.2 172.8 
" style="fill:none;stroke:#000000;stroke-linecap:square;stroke-linejoin:miter;"/>
   </g>
   <g id="patch_5">
    <path d="M 216 1555.2 
L 1555.2 1555.2 
" style="fill:none;stroke:#000000;stroke-linecap:square;stroke-linejoin:miter;"/>
   </g>
   <g id="patch_6">
    <path d="M 216 1555.2 
L 216 172.8 
" style="fill:none;stroke:#000000;stroke-linecap:square;stroke-linejoin:miter;"/>
   </g>
   <g id="matplotlib.axis_1">
    <g id="xtick_1">
     <g id="line2d_2">
      <defs>
       <path d="M 0 0 
L 0 -4 
" id="m4ca6c072c4" style="stroke:#000000;stroke-width:0.5;"/>
      </defs>
      <g>
       <use style="stroke:#000000;stroke-width:0.5;" x="216.0" xlink:href="#m4ca6c072c4" y="1555.2"/>
      </g>
     </g>
     <g id="line2d_3">
      <defs>
       <path d="M 0 0 
L 0 4 
" id="m688bf1e8e9" style="stroke:#000000;stroke-width:0.5;"/>
      </defs>
      <g>
       <use style="stroke:#000000;stroke-width:0.5;" x="216.0" xlink:href="#m688bf1e8e9" y="172.8"/>
      </g>
     </g>
     <g id="text_1">
      <!-- 77.07 -->
      <defs>
       <path d="M 31.78125 66.40625 
Q 24.171875 66.40625 20.328125 58.90625 
Q 16.5 51.421875 16.5 36.375 
Q 16.5 21.390625 20.328125 13.890625 
Q 24.171875 6.390625 31.78125 6.390625 
Q 39.453125 6.390625 43.28125 13.890625 
Q 47.125 21.390625 47.125 36.375 
Q 47.125 51.421875 43.28125 58.90625 
Q 39.453125 66.40625 31.78125 66.40625 
M 31.78125 74.21875 
Q 44.046875 74.21875 50.515625 64.515625 
Q 56.984375 54.828125 56.984375 36.375 
Q 56.984375 17.96875 50.515625 8.265625 
Q 44.046875 -1.421875 31.78125 -1.421875 
Q 19.53125 -1.421875 13.0625 8.265625 
Q 6.59375 17.96875 6.59375 36.375 
Q 6.59375 54.828125 13.0625 64.515625 
Q 19.53125 74.21875 31.78125 74.21875 
" id="BitstreamVeraSans-Roman-30"/>
       <path d="M 10.6875 12.40625 
L 21 12.40625 
L 21 0 
L 10.6875 0 
z
" id="BitstreamVeraSans-Roman-2e"/>
       <path d="M 8.203125 72.90625 
L 55.078125 72.90625 
L 55.078125 68.703125 
L 28.609375 0 
L 18.3125 0 
L 43.21875 64.59375 
L 8.203125 64.59375 
z
" id="BitstreamVeraSans-Roman-37"/>
      </defs>
      <g transform="translate(198.823125 1568.318125)scale(0.12 -0.12)">
       <use xlink:href="#BitstreamVeraSans-Roman-37"/>
       <use x="63.623046875" xlink:href="#BitstreamVeraSans-Roman-37"/>
       <use x="127.24609375" xlink:href="#BitstreamVeraSans-Roman-2e"/>
       <use x="159.033203125" xlink:href="#BitstreamVeraSans-Roman-30"/>
       <use x="222.65625" xlink:href="#BitstreamVeraSans-Roman-37"/>
      </g>
     </g>
    </g>
    <g id="xtick_2">
     <g id="line2d_4">
      <g>
       <use style="stroke:#000000;stroke-width:0.5;" x="513.6" xlink:href="#m4ca6c072c4" y="1555.2"/>
      </g>
     </g>
     <g id="line2d_5">
      <g>
       <use style="stroke:#000000;stroke-width:0.5;" x="513.6" xlink:href="#m688bf1e8e9" y="172.8"/>
      </g>
     </g>
     <g id="text_2">
      <!-- 77.08 -->
      <defs>
       <path d="M 31.78125 34.625 
Q 24.75 34.625 20.71875 30.859375 
Q 16.703125 27.09375 16.703125 20.515625 
Q 16.703125 13.921875 20.71875 10.15625 
Q 24.75 6.390625 31.78125 6.390625 
Q 38.8125 6.390625 42.859375 10.171875 
Q 46.921875 13.96875 46.921875 20.515625 
Q 46.921875 27.09375 42.890625 30.859375 
Q 38.875 34.625 31.78125 34.625 
M 21.921875 38.8125 
Q 15.578125 40.375 12.03125 44.71875 
Q 8.5 49.078125 8.5 55.328125 
Q 8.5 64.0625 14.71875 69.140625 
Q 20.953125 74.21875 31.78125 74.21875 
Q 42.671875 74.21875 48.875 69.140625 
Q 55.078125 64.0625 55.078125 55.328125 
Q 55.078125 49.078125 51.53125 44.71875 
Q 48 40.375 41.703125 38.8125 
Q 48.828125 37.15625 52.796875 32.3125 
Q 56.78125 27.484375 56.78125 20.515625 
Q 56.78125 9.90625 50.3125 4.234375 
Q 43.84375 -1.421875 31.78125 -1.421875 
Q 19.734375 -1.421875 13.25 4.234375 
Q 6.78125 9.90625 6.78125 20.515625 
Q 6.78125 27.484375 10.78125 32.3125 
Q 14.796875 37.15625 21.921875 38.8125 
M 18.3125 54.390625 
Q 18.3125 48.734375 21.84375 45.5625 
Q 25.390625 42.390625 31.78125 42.390625 
Q 38.140625 42.390625 41.71875 45.5625 
Q 45.3125 48.734375 45.3125 54.390625 
Q 45.3125 60.0625 41.71875 63.234375 
Q 38.140625 66.40625 31.78125 66.40625 
Q 25.390625 66.40625 21.84375 63.234375 
Q 18.3125 60.0625 18.3125 54.390625 
" id="BitstreamVeraSans-Roman-38"/>
      </defs>
      <g transform="translate(496.423125 1568.318125)scale(0.12 -0.12)">
       <use xlink:href="#BitstreamVeraSans-Roman-37"/>
       <use x="63.623046875" xlink:href="#BitstreamVeraSans-Roman-37"/>
       <use x="127.24609375" xlink:href="#BitstreamVeraSans-Roman-2e"/>
       <use x="159.033203125" xlink:href="#BitstreamVeraSans-Roman-30"/>
       <use x="222.65625" xlink:href="#BitstreamVeraSans-Roman-38"/>
      </g>
     </g>
    </g>
    <g id="xtick_3">
     <g id="line2d_6">
      <g>
       <use style="stroke:#000000;stroke-width:0.5;" x="811.2" xlink:href="#m4ca6c072c4" y="1555.2"/>
      </g>
     </g>
     <g id="line2d_7">
      <g>
       <use style="stroke:#000000;stroke-width:0.5;" x="811.2" xlink:href="#m688bf1e8e9" y="172.8"/>
      </g>
     </g>
     <g id="text_3">
      <!-- 77.09 -->
      <defs>
       <path d="M 10.984375 1.515625 
L 10.984375 10.5 
Q 14.703125 8.734375 18.5 7.8125 
Q 22.3125 6.890625 25.984375 6.890625 
Q 35.75 6.890625 40.890625 13.453125 
Q 46.046875 20.015625 46.78125 33.40625 
Q 43.953125 29.203125 39.59375 26.953125 
Q 35.25 24.703125 29.984375 24.703125 
Q 19.046875 24.703125 12.671875 31.3125 
Q 6.296875 37.9375 6.296875 49.421875 
Q 6.296875 60.640625 12.9375 67.421875 
Q 19.578125 74.21875 30.609375 74.21875 
Q 43.265625 74.21875 49.921875 64.515625 
Q 56.59375 54.828125 56.59375 36.375 
Q 56.59375 19.140625 48.40625 8.859375 
Q 40.234375 -1.421875 26.421875 -1.421875 
Q 22.703125 -1.421875 18.890625 -0.6875 
Q 15.09375 0.046875 10.984375 1.515625 
M 30.609375 32.421875 
Q 37.25 32.421875 41.125 36.953125 
Q 45.015625 41.5 45.015625 49.421875 
Q 45.015625 57.28125 41.125 61.84375 
Q 37.25 66.40625 30.609375 66.40625 
Q 23.96875 66.40625 20.09375 61.84375 
Q 16.21875 57.28125 16.21875 49.421875 
Q 16.21875 41.5 20.09375 36.953125 
Q 23.96875 32.421875 30.609375 32.421875 
" id="BitstreamVeraSans-Roman-39"/>
      </defs>
      <g transform="translate(794.023125 1568.318125)scale(0.12 -0.12)">
       <use xlink:href="#BitstreamVeraSans-Roman-37"/>
       <use x="63.623046875" xlink:href="#BitstreamVeraSans-Roman-37"/>
       <use x="127.24609375" xlink:href="#BitstreamVeraSans-Roman-2e"/>
       <use x="159.033203125" xlink:href="#BitstreamVeraSans-Roman-30"/>
       <use x="222.65625" xlink:href="#BitstreamVeraSans-Roman-39"/>
      </g>
     </g>
    </g>
    <g id="xtick_4">
     <g id="line2d_8">
      <g>
       <use style="stroke:#000000;stroke-width:0.5;" x="1108.8" xlink:href="#m4ca6c072c4" y="1555.2"/>
      </g>
     </g>
     <g id="line2d_9">
      <g>
       <use style="stroke:#000000;stroke-width:0.5;" x="1108.8" xlink:href="#m688bf1e8e9" y="172.8"/>
      </g>
     </g>
     <g id="text_4">
      <!-- 77.10 -->
      <defs>
       <path d="M 12.40625 8.296875 
L 28.515625 8.296875 
L 28.515625 63.921875 
L 10.984375 60.40625 
L 10.984375 69.390625 
L 28.421875 72.90625 
L 38.28125 72.90625 
L 38.28125 8.296875 
L 54.390625 8.296875 
L 54.390625 0 
L 12.40625 0 
z
" id="BitstreamVeraSans-Roman-31"/>
      </defs>
      <g transform="translate(1091.623125 1568.318125)scale(0.12 -0.12)">
       <use xlink:href="#BitstreamVeraSans-Roman-37"/>
       <use x="63.623046875" xlink:href="#BitstreamVeraSans-Roman-37"/>
       <use x="127.24609375" xlink:href="#BitstreamVeraSans-Roman-2e"/>
       <use x="159.033203125" xlink:href="#BitstreamVeraSans-Roman-31"/>
       <use x="222.65625" xlink:href="#BitstreamVeraSans-Roman-30"/>
      </g>
     </g>
    </g>
    <g id="xtick_5">
     <g id="line2d_10">
      <g>
       <use style="stroke:#000000;stroke-width:0.5;" x="1406.4" xlink:href="#m4ca6c072c4" y="1555.2"/>
      </g>
     </g>
     <g id="line2d_11">
      <g>
       <use style="stroke:#000000;stroke-width:0.5;" x="1406.4" xlink:href="#m688bf1e8e9" y="172.8"/>
      </g>
     </g>
     <g id="text_5">
      <!-- 77.11 -->
      <g transform="translate(1389.223125 1568.318125)scale(0.12 -0.12)">
       <use xlink:href="#BitstreamVeraSans-Roman-37"/>
       <use x="63.623046875" xlink:href="#BitstreamVeraSans-Roman-37"/>
       <use x="127.24609375" xlink:href="#BitstreamVeraSans-Roman-2e"/>
       <use x="159.033203125" xlink:href="#BitstreamVeraSans-Roman-31"/>
       <use x="222.65625" xlink:href="#BitstreamVeraSans-Roman-31"/>
      </g>
     </g>
    </g>
   </g>
   <g id="matplotlib.axis_2">
    <g id="ytick_1">
     <g id="line2d_12">
      <defs>
       <path d="M 0 0 
L 4 0 
" id="m037376c33a" style="stroke:#000000;stroke-width:0.5;"/>
      </defs>
      <g>
       <use style="stroke:#000000;stroke-width:0.5;" x="216.0" xlink:href="#m037376c33a" y="1555.2"/>
      </g>
     </g>
     <g id="line2d_13">
      <defs>
       <path d="M 0 0 
L -4 0 
" id="m3590a4578e" style="stroke:#000000;stroke-width:0.5;"/>
      </defs>
      <g>
       <use style="stroke:#000000;stroke-width:0.5;" x="1555.2" xlink:href="#m3590a4578e" y="1555.2"/>
      </g>
     </g>
     <g id="text_6">
      <!-- 28.58 -->
      <defs>
       <path d="M 19.1875 8.296875 
L 53.609375 8.296875 
L 53.609375 0 
L 7.328125 0 
L 7.328125 8.296875 
Q 12.9375 14.109375 22.625 23.890625 
Q 32.328125 33.6875 34.8125 36.53125 
Q 39.546875 41.84375 41.421875 45.53125 
Q 43.3125 49.21875 43.3125 52.78125 
Q 43.3125 58.59375 39.234375 62.25 
Q 35.15625 65.921875 28.609375 65.921875 
Q 23.96875 65.921875 18.8125 64.3125 
Q 13.671875 62.703125 7.8125 59.421875 
L 7.8125 69.390625 
Q 13.765625 71.78125 18.9375 73 
Q 24.125 74.21875 28.421875 74.21875 
Q 39.75 74.21875 46.484375 68.546875 
Q 53.21875 62.890625 53.21875 53.421875 
Q 53.21875 48.921875 51.53125 44.890625 
Q 49.859375 40.875 45.40625 35.40625 
Q 44.1875 33.984375 37.640625 27.21875 
Q 31.109375 20.453125 19.1875 8.296875 
" id="BitstreamVeraSans-Roman-32"/>
       <path d="M 10.796875 72.90625 
L 49.515625 72.90625 
L 49.515625 64.59375 
L 19.828125 64.59375 
L 19.828125 46.734375 
Q 21.96875 47.46875 24.109375 47.828125 
Q 26.265625 48.1875 28.421875 48.1875 
Q 40.625 48.1875 47.75 41.5 
Q 54.890625 34.8125 54.890625 23.390625 
Q 54.890625 11.625 47.5625 5.09375 
Q 40.234375 -1.421875 26.90625 -1.421875 
Q 22.3125 -1.421875 17.546875 -0.640625 
Q 12.796875 0.140625 7.71875 1.703125 
L 7.71875 11.625 
Q 12.109375 9.234375 16.796875 8.0625 
Q 21.484375 6.890625 26.703125 6.890625 
Q 35.15625 6.890625 40.078125 11.328125 
Q 45.015625 15.765625 45.015625 23.390625 
Q 45.015625 31 40.078125 35.4375 
Q 35.15625 39.890625 26.703125 39.890625 
Q 22.75 39.890625 18.8125 39.015625 
Q 14.890625 38.140625 10.796875 36.28125 
z
" id="BitstreamVeraSans-Roman-35"/>
      </defs>
      <g transform="translate(177.64625 1558.51125)scale(0.12 -0.12)">
       <use xlink:href="#BitstreamVeraSans-Roman-32"/>
       <use x="63.623046875" xlink:href="#BitstreamVeraSans-Roman-38"/>
       <use x="127.24609375" xlink:href="#BitstreamVeraSans-Roman-2e"/>
       <use x="159.033203125" xlink:href="#BitstreamVeraSans-Roman-35"/>
       <use x="222.65625" xlink:href="#BitstreamVeraSans-Roman-38"/>
      </g>
     </g>
    </g>
    <g id="ytick_2">
     <g id="line2d_14">
      <g>
       <use style="stroke:#000000;stroke-width:0.5;" x="216.0" xlink:href="#m037376c33a" y="1324.8"/>
      </g>
     </g>
     <g id="line2d_15">
      <g>
       <use style="stroke:#000000;stroke-width:0.5;" x="1555.2" xlink:href="#m3590a4578e" y="1324.8"/>
      </g>
     </g>
     <g id="text_7">
      <!-- 28.59 -->
      <g transform="translate(177.64625 1328.11125)scale(0.12 -0.12)">
       <use xlink:href="#BitstreamVeraSans-Roman-32"/>
       <use x="63.623046875" xlink:href="#BitstreamVeraSans-Roman-38"/>
       <use x="127.24609375" xlink:href="#BitstreamVeraSans-Roman-2e"/>
       <use x="159.033203125" xlink:href="#BitstreamVeraSans-Roman-35"/>
       <use x="222.65625" xlink:href="#BitstreamVeraSans-Roman-39"/>
      </g>
     </g>
    </g>
    <g id="ytick_3">
     <g id="line2d_16">
      <g>
       <use style="stroke:#000000;stroke-width:0.5;" x="216.0" xlink:href="#m037376c33a" y="1094.4"/>
      </g>
     </g>
     <g id="line2d_17">
      <g>
       <use style="stroke:#000000;stroke-width:0.5;" x="1555.2" xlink:href="#m3590a4578e" y="1094.4"/>
      </g>
     </g>
     <g id="text_8">
      <!-- 28.60 -->
      <defs>
       <path d="M 33.015625 40.375 
Q 26.375 40.375 22.484375 35.828125 
Q 18.609375 31.296875 18.609375 23.390625 
Q 18.609375 15.53125 22.484375 10.953125 
Q 26.375 6.390625 33.015625 6.390625 
Q 39.65625 6.390625 43.53125 10.953125 
Q 47.40625 15.53125 47.40625 23.390625 
Q 47.40625 31.296875 43.53125 35.828125 
Q 39.65625 40.375 33.015625 40.375 
M 52.59375 71.296875 
L 52.59375 62.3125 
Q 48.875 64.0625 45.09375 64.984375 
Q 41.3125 65.921875 37.59375 65.921875 
Q 27.828125 65.921875 22.671875 59.328125 
Q 17.53125 52.734375 16.796875 39.40625 
Q 19.671875 43.65625 24.015625 45.921875 
Q 28.375 48.1875 33.59375 48.1875 
Q 44.578125 48.1875 50.953125 41.515625 
Q 57.328125 34.859375 57.328125 23.390625 
Q 57.328125 12.15625 50.6875 5.359375 
Q 44.046875 -1.421875 33.015625 -1.421875 
Q 20.359375 -1.421875 13.671875 8.265625 
Q 6.984375 17.96875 6.984375 36.375 
Q 6.984375 53.65625 15.1875 63.9375 
Q 23.390625 74.21875 37.203125 74.21875 
Q 40.921875 74.21875 44.703125 73.484375 
Q 48.484375 72.75 52.59375 71.296875 
" id="BitstreamVeraSans-Roman-36"/>
      </defs>
      <g transform="translate(177.64625 1097.71125)scale(0.12 -0.12)">
       <use xlink:href="#BitstreamVeraSans-Roman-32"/>
       <use x="63.623046875" xlink:href="#BitstreamVeraSans-Roman-38"/>
       <use x="127.24609375" xlink:href="#BitstreamVeraSans-Roman-2e"/>
       <use x="159.033203125" xlink:href="#BitstreamVeraSans-Roman-36"/>
       <use x="222.65625" xlink:href="#BitstreamVeraSans-Roman-30"/>
      </g>
     </g>
    </g>
    <g id="ytick_4">
     <g id="line2d_18">
      <g>
       <use style="stroke:#000000;stroke-width:0.5;" x="216.0" xlink:href="#m037376c33a" y="864.0"/>
      </g>
     </g>
     <g id="line2d_19">
      <g>
       <use style="stroke:#000000;stroke-width:0.5;" x="1555.2" xlink:href="#m3590a4578e" y="864.0"/>
      </g>
     </g>
     <g id="text_9">
      <!-- 28.61 -->
      <g transform="translate(177.64625 867.31125)scale(0.12 -0.12)">
       <use xlink:href="#BitstreamVeraSans-Roman-32"/>
       <use x="63.623046875" xlink:href="#BitstreamVeraSans-Roman-38"/>
       <use x="127.24609375" xlink:href="#BitstreamVeraSans-Roman-2e"/>
       <use x="159.033203125" xlink:href="#BitstreamVeraSans-Roman-36"/>
       <use x="222.65625" xlink:href="#BitstreamVeraSans-Roman-31"/>
      </g>
     </g>
    </g>
    <g id="ytick_5">
     <g id="line2d_20">
      <g>
       <use style="stroke:#000000;stroke-width:0.5;" x="216.0" xlink:href="#m037376c33a" y="633.6"/>
      </g>
     </g>
     <g id="line2d_21">
      <g>
       <use style="stroke:#000000;stroke-width:0.5;" x="1555.2" xlink:href="#m3590a4578e" y="633.6"/>
      </g>
     </g>
     <g id="text_10">
      <!-- 28.62 -->
      <g transform="translate(177.64625 636.91125)scale(0.12 -0.12)">
       <use xlink:href="#BitstreamVeraSans-Roman-32"/>
       <use x="63.623046875" xlink:href="#BitstreamVeraSans-Roman-38"/>
       <use x="127.24609375" xlink:href="#BitstreamVeraSans-Roman-2e"/>
       <use x="159.033203125" xlink:href="#BitstreamVeraSans-Roman-36"/>
       <use x="222.65625" xlink:href="#BitstreamVeraSans-Roman-32"/>
      </g>
     </g>
    </g>
    <g id="ytick_6">
     <g id="line2d_22">
      <g>
       <use style="stroke:#000000;stroke-width:0.5;" x="216.0" xlink:href="#m037376c33a" y="403.2"/>
      </g>
     </g>
     <g id="line2d_23">
      <g>
       <use style="stroke:#000000;stroke-width:0.5;" x="1555.2" xlink:href="#m3590a4578e" y="403.2"/>
      </g>
     </g>
     <g id="text_11">
      <!-- 28.63 -->
      <defs>
       <path d="M 40.578125 39.3125 
Q 47.65625 37.796875 51.625 33 
Q 55.609375 28.21875 55.609375 21.1875 
Q 55.609375 10.40625 48.1875 4.484375 
Q 40.765625 -1.421875 27.09375 -1.421875 
Q 22.515625 -1.421875 17.65625 -0.515625 
Q 12.796875 0.390625 7.625 2.203125 
L 7.625 11.71875 
Q 11.71875 9.328125 16.59375 8.109375 
Q 21.484375 6.890625 26.8125 6.890625 
Q 36.078125 6.890625 40.9375 10.546875 
Q 45.796875 14.203125 45.796875 21.1875 
Q 45.796875 27.640625 41.28125 31.265625 
Q 36.765625 34.90625 28.71875 34.90625 
L 20.21875 34.90625 
L 20.21875 43.015625 
L 29.109375 43.015625 
Q 36.375 43.015625 40.234375 45.921875 
Q 44.09375 48.828125 44.09375 54.296875 
Q 44.09375 59.90625 40.109375 62.90625 
Q 36.140625 65.921875 28.71875 65.921875 
Q 24.65625 65.921875 20.015625 65.03125 
Q 15.375 64.15625 9.8125 62.3125 
L 9.8125 71.09375 
Q 15.4375 72.65625 20.34375 73.4375 
Q 25.25 74.21875 29.59375 74.21875 
Q 40.828125 74.21875 47.359375 69.109375 
Q 53.90625 64.015625 53.90625 55.328125 
Q 53.90625 49.265625 50.4375 45.09375 
Q 46.96875 40.921875 40.578125 39.3125 
" id="BitstreamVeraSans-Roman-33"/>
      </defs>
      <g transform="translate(177.64625 406.51125)scale(0.12 -0.12)">
       <use xlink:href="#BitstreamVeraSans-Roman-32"/>
       <use x="63.623046875" xlink:href="#BitstreamVeraSans-Roman-38"/>
       <use x="127.24609375" xlink:href="#BitstreamVeraSans-Roman-2e"/>
       <use x="159.033203125" xlink:href="#BitstreamVeraSans-Roman-36"/>
       <use x="222.65625" xlink:href="#BitstreamVeraSans-Roman-33"/>
      </g>
     </g>
    </g>
    <g id="ytick_7">
     <g id="line2d_24">
      <g>
       <use style="stroke:#000000;stroke-width:0.5;" x="216.0" xlink:href="#m037376c33a" y="172.8"/>
      </g>
     </g>
     <g id="line2d_25">
      <g>
       <use style="stroke:#000000;stroke-width:0.5;" x="1555.2" xlink:href="#m3590a4578e" y="172.8"/>
      </g>
     </g>
     <g id="text_12">
      <!-- 28.64 -->
      <defs>
       <path d="M 37.796875 64.3125 
L 12.890625 25.390625 
L 37.796875 25.390625 
z
M 35.203125 72.90625 
L 47.609375 72.90625 
L 47.609375 25.390625 
L 58.015625 25.390625 
L 58.015625 17.1875 
L 47.609375 17.1875 
L 47.609375 0 
L 37.796875 0 
L 37.796875 17.1875 
L 4.890625 17.1875 
L 4.890625 26.703125 
z
" id="BitstreamVeraSans-Roman-34"/>
      </defs>
      <g transform="translate(177.64625 176.11125)scale(0.12 -0.12)">
       <use xlink:href="#BitstreamVeraSans-Roman-32"/>
       <use x="63.623046875" xlink:href="#BitstreamVeraSans-Roman-38"/>
       <use x="127.24609375" xlink:href="#BitstreamVeraSans-Roman-2e"/>
       <use x="159.033203125" xlink:href="#BitstreamVeraSans-Roman-36"/>
       <use x="222.65625" xlink:href="#BitstreamVeraSans-Roman-34"/>
      </g>
     </g>
    </g>
   </g>
   <g id="patch_7">
    <path d="M 1100.694372 474.138197 
Q 1108.065287 467.350141 1114.613784 461.319468 
" style="fill:none;stroke:#ff0000;stroke-linecap:round;"/>
    <path d="M 1112.035454 462.062577 
L 1114.613784 461.319468 
L 1113.661273 463.827998 
" style="fill:none;stroke:#ff0000;stroke-linecap:round;"/>
   </g>
   <g id="text_13">
    <!-- 0 -->
    <g style="fill:#ff0000;" transform="translate(1092.906624 481.207936)scale(0.06 -0.06)">
     <use xlink:href="#BitstreamVeraSans-Roman-30"/>
    </g>
   </g>
   <g id="patch_8">
    <path d="M 1167.431861 534.281768 
Q 1159.710248 527.761561 1152.84286 521.962672 
" style="fill:none;stroke:#ff0000;stroke-linecap:round;"/>
    <path d="M 1153.902365 524.42792 
L 1152.84286 521.962672 
L 1155.450762 522.594217 
" style="fill:none;stroke:#ff0000;stroke-linecap:round;"/>
   </g>
   <g id="text_14">
    <!-- 1 -->
    <g style="fill:#ff0000;" transform="translate(1171.46191978 540.95218176)scale(0.06 -0.06)">
     <use xlink:href="#BitstreamVeraSans-Roman-31"/>
    </g>
   </g>
   <g id="patch_9">
    <path d="M 1262.109023 530.861988 
Q 1268.83292 525.970197 1274.65273 521.73615 
" style="fill:none;stroke:#ff0000;stroke-linecap:round;"/>
    <path d="M 1272.00603 522.177712 
L 1274.65273 521.73615 
L 1273.41796 524.118447 
" style="fill:none;stroke:#ff0000;stroke-linecap:round;"/>
   </g>
   <g id="text_15">
    <!-- 2 -->
    <g style="fill:#ff0000;" transform="translate(1254.17114022 536.90394752)scale(0.06 -0.06)">
     <use xlink:href="#BitstreamVeraSans-Roman-32"/>
    </g>
   </g>
   <g id="patch_10">
    <path d="M 1528.479083 623.718295 
Q 1534.854551 629.638202 1540.410719 634.797353 
" style="fill:none;stroke:#ff0000;stroke-linecap:round;"/>
    <path d="M 1539.46852 632.284932 
L 1540.410719 634.797353 
L 1537.835463 634.04366 
" style="fill:none;stroke:#ff0000;stroke-linecap:round;"/>
   </g>
   <g id="text_16">
    <!-- 3 -->
    <g style="fill:#ff0000;" transform="translate(1520.69847574 619.921637632)scale(0.06 -0.06)">
     <use xlink:href="#BitstreamVeraSans-Roman-33"/>
    </g>
   </g>
   <g id="patch_11">
    <path d="M 1419.46646 987.647268 
Q 1414.002806 981.135463 1409.257779 975.480148 
" style="fill:none;stroke:#ff0000;stroke-linecap:round;"/>
    <path d="M 1409.881122 978.090022 
L 1409.257779 975.480148 
L 1411.719684 976.547398 
" style="fill:none;stroke:#ff0000;stroke-linecap:round;"/>
   </g>
   <g id="text_17">
    <!-- 4 -->
    <g style="fill:#ff0000;" transform="translate(1423.254112 996.092096)scale(0.06 -0.06)">
     <use xlink:href="#BitstreamVeraSans-Roman-34"/>
    </g>
   </g>
   <g id="patch_12">
    <path d="M 1392.193667 953.415461 
Q 1399.699254 961.792305 1406.458761 969.336463 
" style="fill:none;stroke:#ff0000;stroke-linecap:round;"/>
    <path d="M 1405.750939 966.748222 
L 1406.458761 969.336463 
L 1403.963476 968.349776 
" style="fill:none;stroke:#ff0000;stroke-linecap:round;"/>
   </g>
   <g id="text_18">
    <!-- 5 -->
    <g style="fill:#ff0000;" transform="translate(1384.539744 948.659008)scale(0.06 -0.06)">
     <use xlink:href="#BitstreamVeraSans-Roman-35"/>
    </g>
   </g>
   <g id="patch_13">
    <path d="M 1379.075078 950.530128 
Q 1385.55547 957.515107 1391.275452 963.680467 
" style="fill:none;stroke:#ff0000;stroke-linecap:round;"/>
    <path d="M 1390.522843 961.104893 
L 1391.275452 963.680467 
L 1388.763428 962.73721 
" style="fill:none;stroke:#ff0000;stroke-linecap:round;"/>
   </g>
   <g id="text_19">
    <!-- 6 -->
    <g style="fill:#ff0000;" transform="translate(1371.397856 945.968128)scale(0.06 -0.06)">
     <use xlink:href="#BitstreamVeraSans-Roman-36"/>
    </g>
   </g>
   <g id="patch_14">
    <path d="M 1262.428102 820.953662 
Q 1253.220617 813.368271 1244.876049 806.493776 
" style="fill:none;stroke:#ff0000;stroke-linecap:round;"/>
    <path d="M 1245.965396 808.945984 
L 1244.876049 806.493776 
L 1247.491424 807.093624 
" style="fill:none;stroke:#ff0000;stroke-linecap:round;"/>
   </g>
   <g id="text_20">
    <!-- 7 -->
    <g style="fill:#ff0000;" transform="translate(1266.47103974 827.51245952)scale(0.06 -0.06)">
     <use xlink:href="#BitstreamVeraSans-Roman-37"/>
    </g>
   </g>
   <g id="patch_15">
    <path d="M 1045.903404 794.421714 
Q 1051.727027 789.436002 1056.701346 785.177395 
" style="fill:none;stroke:#ff0000;stroke-linecap:round;"/>
    <path d="M 1054.097797 785.826648 
L 1056.701346 785.177395 
L 1055.658619 787.649786 
" style="fill:none;stroke:#ff0000;stroke-linecap:round;"/>
   </g>
   <g id="text_21">
    <!-- 8 -->
    <g style="fill:#ff0000;" transform="translate(1038.07125427 801.148472064)scale(0.06 -0.06)">
     <use xlink:href="#BitstreamVeraSans-Roman-38"/>
    </g>
   </g>
   <g id="patch_16">
    <path d="M 1066.539368 748.354941 
Q 1057.234449 757.209811 1048.739443 765.29394 
" style="fill:none;stroke:#ff0000;stroke-linecap:round;"/>
    <path d="M 1051.305268 764.508739 
L 1048.739443 765.29394 
L 1049.650778 762.770159 
" style="fill:none;stroke:#ff0000;stroke-linecap:round;"/>
   </g>
   <g id="text_22">
    <!-- 9 -->
    <g style="fill:#ff0000;" transform="translate(1070.48256 744.441664)scale(0.06 -0.06)">
     <use xlink:href="#BitstreamVeraSans-Roman-39"/>
    </g>
   </g>
   <g id="patch_17">
    <path d="M 872.180298 815.882093 
Q 863.962799 822.774901 856.601892 828.949202 
" style="fill:none;stroke:#ff0000;stroke-linecap:round;"/>
    <path d="M 859.211855 828.32623 
L 856.601892 828.949202 
L 857.669492 826.487449 
" style="fill:none;stroke:#ff0000;stroke-linecap:round;"/>
   </g>
   <g id="text_23">
    <!-- 10 -->
    <g style="fill:#ff0000;" transform="translate(876.212127999 810.953728)scale(0.06 -0.06)">
     <use xlink:href="#BitstreamVeraSans-Roman-31"/>
     <use x="63.623046875" xlink:href="#BitstreamVeraSans-Roman-30"/>
    </g>
   </g>
   <g id="patch_18">
    <path d="M 693.60141 911.471209 
Q 699.054471 918.978589 703.850475 925.581381 
" style="fill:none;stroke:#ff0000;stroke-linecap:round;"/>
    <path d="M 703.410927 922.934346 
L 703.850475 925.581381 
L 701.469118 924.344798 
" style="fill:none;stroke:#ff0000;stroke-linecap:round;"/>
   </g>
   <g id="text_24">
    <!-- 11 -->
    <g style="fill:#ff0000;" transform="translate(684.682944 906.104192)scale(0.06 -0.06)">
     <use xlink:href="#BitstreamVeraSans-Roman-31"/>
     <use x="63.623046875" xlink:href="#BitstreamVeraSans-Roman-31"/>
    </g>
   </g>
   <g id="patch_19">
    <path d="M 564.176749 926.164589 
Q 558.091009 932.814797 552.760059 938.640206 
" style="fill:none;stroke:#ff0000;stroke-linecap:round;"/>
    <path d="M 555.265576 937.679798 
L 552.760059 938.640206 
L 553.495043 936.059547 
" style="fill:none;stroke:#ff0000;stroke-linecap:round;"/>
   </g>
   <g id="text_25">
    <!-- 12 -->
    <g style="fill:#ff0000;" transform="translate(566.65508368 920.940423424)scale(0.06 -0.06)">
     <use xlink:href="#BitstreamVeraSans-Roman-31"/>
     <use x="63.623046875" xlink:href="#BitstreamVeraSans-Roman-32"/>
    </g>
   </g>
   <g id="patch_20">
    <path d="M 390.121951 933.757755 
Q 383.200981 940.944596 377.055545 947.326111 
" style="fill:none;stroke:#ff0000;stroke-linecap:round;"/>
    <path d="M 379.584689 946.429769 
L 377.055545 947.326111 
L 377.855957 944.764991 
" style="fill:none;stroke:#ff0000;stroke-linecap:round;"/>
   </g>
   <g id="text_26">
    <!-- 13 -->
    <g style="fill:#ff0000;" transform="translate(392.891169599 928.573631232)scale(0.06 -0.06)">
     <use xlink:href="#BitstreamVeraSans-Roman-31"/>
     <use x="63.623046875" xlink:href="#BitstreamVeraSans-Roman-33"/>
    </g>
   </g>
   <g id="patch_21">
    <path d="M 213.319404 1005.41069 
Q 217.011147 1012.276172 220.173393 1018.156956 
" style="fill:none;stroke:#ff0000;stroke-linecap:round;"/>
    <path d="M 220.09365 1015.47486 
L 220.173393 1018.156956 
L 217.97987 1016.611492 
" style="fill:none;stroke:#ff0000;stroke-linecap:round;"/>
   </g>
   <g id="text_27">
    <!-- 14 -->
    <g style="fill:#ff0000;" transform="translate(205.648447999 999.900096)scale(0.06 -0.06)">
     <use xlink:href="#BitstreamVeraSans-Roman-31"/>
     <use x="63.623046875" xlink:href="#BitstreamVeraSans-Roman-34"/>
    </g>
   </g>
   <g id="patch_22">
    <path d="M 365.553149 1213.917817 
Q 356.408443 1220.708133 348.161369 1226.831921 
" style="fill:none;stroke:#ff0000;stroke-linecap:round;"/>
    <path d="M 350.803638 1226.364575 
L 348.161369 1226.831921 
L 349.372854 1224.437698 
" style="fill:none;stroke:#ff0000;stroke-linecap:round;"/>
   </g>
   <g id="text_28">
    <!-- 15 -->
    <g style="fill:#ff0000;" transform="translate(369.658466208 1209.6904279)scale(0.06 -0.06)">
     <use xlink:href="#BitstreamVeraSans-Roman-31"/>
     <use x="63.623046875" xlink:href="#BitstreamVeraSans-Roman-35"/>
    </g>
   </g>
   <g id="patch_23">
    <path d="M 428.603562 1258.870912 
Q 432.264656 1252.155965 435.390557 1246.422633 
" style="fill:none;stroke:#ff0000;stroke-linecap:round;"/>
    <path d="M 433.18812 1247.955365 
L 435.390557 1246.422633 
L 435.295281 1249.104222 
" style="fill:none;stroke:#ff0000;stroke-linecap:round;"/>
   </g>
   <g id="text_29">
    <!-- 16 -->
    <g style="fill:#ff0000;" transform="translate(420.881695999 1267.68768)scale(0.06 -0.06)">
     <use xlink:href="#BitstreamVeraSans-Roman-31"/>
     <use x="63.623046875" xlink:href="#BitstreamVeraSans-Roman-36"/>
    </g>
   </g>
   <g id="patch_24">
    <path d="M 526.519124 1271.55494 
Q 529.562652 1267.221831 531.963563 1263.803624 
" style="fill:none;stroke:#ff0000;stroke-linecap:round;"/>
    <path d="M 529.602132 1265.077845 
L 531.963563 1263.803624 
L 531.566081 1266.457302 
" style="fill:none;stroke:#ff0000;stroke-linecap:round;"/>
   </g>
   <g id="text_30">
    <!-- 17 -->
    <g style="fill:#ff0000;" transform="translate(517.756447999 1280.251072)scale(0.06 -0.06)">
     <use xlink:href="#BitstreamVeraSans-Roman-31"/>
     <use x="63.623046875" xlink:href="#BitstreamVeraSans-Roman-37"/>
    </g>
   </g>
   <g id="patch_25">
    <path d="M 929.320863 1511.844636 
Q 920.132521 1504.464111 911.815833 1497.783741 
" style="fill:none;stroke:#ff0000;stroke-linecap:round;"/>
    <path d="M 912.935463 1500.222271 
L 911.815833 1497.783741 
L 914.438435 1498.351155 
" style="fill:none;stroke:#ff0000;stroke-linecap:round;"/>
   </g>
   <g id="text_31">
    <!-- 18 -->
    <g style="fill:#ff0000;" transform="translate(933.384192 1519.830528)scale(0.06 -0.06)">
     <use xlink:href="#BitstreamVeraSans-Roman-31"/>
     <use x="63.623046875" xlink:href="#BitstreamVeraSans-Roman-38"/>
    </g>
   </g>
   <g id="patch_26">
    <path d="M 549.977706 1119.407506 
Q 553.803844 1124.440399 556.953351 1128.583252 
" style="fill:none;stroke:#ff0000;stroke-linecap:round;"/>
    <path d="M 556.456167 1125.946434 
L 556.953351 1128.583252 
L 554.545587 1127.398908 
" style="fill:none;stroke:#ff0000;stroke-linecap:round;"/>
   </g>
   <g id="text_32">
    <!-- 19 -->
    <g style="fill:#ff0000;" transform="translate(540.839375327 1114.06412339)scale(0.06 -0.06)">
     <use xlink:href="#BitstreamVeraSans-Roman-31"/>
     <use x="63.623046875" xlink:href="#BitstreamVeraSans-Roman-39"/>
    </g>
   </g>
   <g id="patch_27">
    <path d="M 576.711445 745.501052 
Q 570.33399 738.962189 564.737165 733.223712 
" style="fill:none;stroke:#ff0000;stroke-linecap:round;"/>
    <path d="M 565.553818 735.7797 
L 564.737165 733.223712 
L 567.271947 734.103982 
" style="fill:none;stroke:#ff0000;stroke-linecap:round;"/>
   </g>
   <g id="text_33">
    <!-- 20 -->
    <g style="fill:#ff0000;" transform="translate(579.556985599 753.988354304)scale(0.06 -0.06)">
     <use xlink:href="#BitstreamVeraSans-Roman-32"/>
     <use x="63.623046875" xlink:href="#BitstreamVeraSans-Roman-30"/>
    </g>
   </g>
   <g id="patch_28">
    <path d="M 587.763448 610.486302 
Q 590.806976 606.153193 593.207887 602.734986 
" style="fill:none;stroke:#ff0000;stroke-linecap:round;"/>
    <path d="M 590.846456 604.009207 
L 593.207887 602.734986 
L 592.810405 605.388664 
" style="fill:none;stroke:#ff0000;stroke-linecap:round;"/>
   </g>
   <g id="text_34">
    <!-- 21 -->
    <g style="fill:#ff0000;" transform="translate(579.00077216 619.182433792)scale(0.06 -0.06)">
     <use xlink:href="#BitstreamVeraSans-Roman-32"/>
     <use x="63.623046875" xlink:href="#BitstreamVeraSans-Roman-31"/>
    </g>
   </g>
   <g id="patch_29">
    <path d="M 636.969671 343.357868 
Q 630.877919 349.109625 625.599096 354.093824 
" style="fill:none;stroke:#ff0000;stroke-linecap:round;"/>
    <path d="M 628.167981 353.318692 
L 625.599096 354.093824 
L 626.520322 351.573636 
" style="fill:none;stroke:#ff0000;stroke-linecap:round;"/>
   </g>
   <g id="text_35">
    <!-- 22 -->
    <g style="fill:#ff0000;" transform="translate(640.331071999 338.235264)scale(0.06 -0.06)">
     <use xlink:href="#BitstreamVeraSans-Roman-32"/>
     <use x="63.623046875" xlink:href="#BitstreamVeraSans-Roman-32"/>
    </g>
   </g>
   <g id="patch_30">
    <path d="M 737.375466 607.320448 
Q 741.03656 600.605501 744.162461 594.872169 
" style="fill:none;stroke:#ff0000;stroke-linecap:round;"/>
    <path d="M 741.960024 596.404901 
L 744.162461 594.872169 
L 744.067185 597.553758 
" style="fill:none;stroke:#ff0000;stroke-linecap:round;"/>
   </g>
   <g id="text_36">
    <!-- 23 -->
    <g style="fill:#ff0000;" transform="translate(729.653599999 616.137216)scale(0.06 -0.06)">
     <use xlink:href="#BitstreamVeraSans-Roman-32"/>
     <use x="63.623046875" xlink:href="#BitstreamVeraSans-Roman-33"/>
    </g>
   </g>
   <g id="patch_31">
    <path d="M 772.002376 604.115863 
Q 775.193515 599.310656 777.766136 595.43681 
" style="fill:none;stroke:#ff0000;stroke-linecap:round;"/>
    <path d="M 775.438767 596.772233 
L 777.766136 595.43681 
L 777.438053 598.099959 
" style="fill:none;stroke:#ff0000;stroke-linecap:round;"/>
   </g>
   <g id="text_37">
    <!-- 24 -->
    <g style="fill:#ff0000;" transform="translate(763.490719999 612.839936)scale(0.06 -0.06)">
     <use xlink:href="#BitstreamVeraSans-Roman-32"/>
     <use x="63.623046875" xlink:href="#BitstreamVeraSans-Roman-34"/>
    </g>
   </g>
   <g id="patch_32">
    <path d="M 884.310854 571.390555 
Q 888.978077 578.355078 893.022894 584.390833 
" style="fill:none;stroke:#ff0000;stroke-linecap:round;"/>
    <path d="M 892.683678 581.729079 
L 893.022894 584.390833 
L 890.689961 583.065154 
" style="fill:none;stroke:#ff0000;stroke-linecap:round;"/>
   </g>
   <g id="text_38">
    <!-- 25 -->
    <g style="fill:#ff0000;" transform="translate(875.760127999 565.983168)scale(0.06 -0.06)">
     <use xlink:href="#BitstreamVeraSans-Roman-32"/>
     <use x="63.623046875" xlink:href="#BitstreamVeraSans-Roman-35"/>
    </g>
   </g>
   <g id="patch_33">
    <path d="M 991.369746 686.2076 
Q 984.816222 682.087683 979.209231 678.562811 
" style="fill:none;stroke:#ff0000;stroke-linecap:round;"/>
    <path d="M 980.602413 680.856071 
L 979.209231 678.562811 
L 981.879749 678.824222 
" style="fill:none;stroke:#ff0000;stroke-linecap:round;"/>
   </g>
   <g id="text_39">
    <!-- 26 -->
    <g style="fill:#ff0000;" transform="translate(995.567853279 692.902290688)scale(0.06 -0.06)">
     <use xlink:href="#BitstreamVeraSans-Roman-32"/>
     <use x="63.623046875" xlink:href="#BitstreamVeraSans-Roman-36"/>
    </g>
   </g>
   <g id="patch_34">
    <path d="M 786.296525 692.92092 
Q 777.246003 687.277866 769.144207 682.226349 
" style="fill:none;stroke:#ff0000;stroke-linecap:round;"/>
    <path d="M 770.545865 684.514439 
L 769.144207 682.226349 
L 771.815674 682.477877 
" style="fill:none;stroke:#ff0000;stroke-linecap:round;"/>
   </g>
   <g id="text_40">
    <!-- 27 -->
    <g style="fill:#ff0000;" transform="translate(790.496316575 699.575373568)scale(0.06 -0.06)">
     <use xlink:href="#BitstreamVeraSans-Roman-32"/>
     <use x="63.623046875" xlink:href="#BitstreamVeraSans-Roman-37"/>
    </g>
   </g>
   <g id="patch_35">
    <path d="M 1084.233448 434.248935 
Q 1089.873729 429.122344 1094.686663 424.747749 
" style="fill:none;stroke:#ff0000;stroke-linecap:round;"/>
    <path d="M 1092.103534 425.474 
L 1094.686663 424.747749 
L 1093.717787 427.250003 
" style="fill:none;stroke:#ff0000;stroke-linecap:round;"/>
   </g>
   <g id="text_41">
    <!-- 28 -->
    <g style="fill:#ff0000;" transform="translate(1072.99378541 442.65074816)scale(0.06 -0.06)">
     <use xlink:href="#BitstreamVeraSans-Roman-32"/>
     <use x="63.623046875" xlink:href="#BitstreamVeraSans-Roman-38"/>
    </g>
   </g>
   <g id="patch_36">
    <path d="M 1136.853792 442.962207 
Q 1127.655742 450.453447 1119.324591 457.238652 
" style="fill:none;stroke:#ff0000;stroke-linecap:round;"/>
    <path d="M 1121.943295 456.653513 
L 1119.324591 457.238652 
L 1120.427701 454.792605 
" style="fill:none;stroke:#ff0000;stroke-linecap:round;"/>
   </g>
   <g id="text_42">
    <!-- 29 -->
    <g style="fill:#ff0000;" transform="translate(1140.906624 438.207936)scale(0.06 -0.06)">
     <use xlink:href="#BitstreamVeraSans-Roman-32"/>
     <use x="63.623046875" xlink:href="#BitstreamVeraSans-Roman-39"/>
    </g>
   </g>
   <g id="text_43">
    <!-- TSP: 8, Cost: 22, N: 29 -->
    <defs>
     <path id="BitstreamVeraSans-Roman-20"/>
     <path d="M 9.8125 72.90625 
L 23.09375 72.90625 
L 55.421875 11.921875 
L 55.421875 72.90625 
L 64.984375 72.90625 
L 64.984375 0 
L 51.703125 0 
L 19.390625 60.984375 
L 19.390625 0 
L 9.8125 0 
z
" id="BitstreamVeraSans-Roman-4e"/>
     <path d="M 30.609375 48.390625 
Q 23.390625 48.390625 19.1875 42.75 
Q 14.984375 37.109375 14.984375 27.296875 
Q 14.984375 17.484375 19.15625 11.84375 
Q 23.34375 6.203125 30.609375 6.203125 
Q 37.796875 6.203125 41.984375 11.859375 
Q 46.1875 17.53125 46.1875 27.296875 
Q 46.1875 37.015625 41.984375 42.703125 
Q 37.796875 48.390625 30.609375 48.390625 
M 30.609375 56 
Q 42.328125 56 49.015625 48.375 
Q 55.71875 40.765625 55.71875 27.296875 
Q 55.71875 13.875 49.015625 6.21875 
Q 42.328125 -1.421875 30.609375 -1.421875 
Q 18.84375 -1.421875 12.171875 6.21875 
Q 5.515625 13.875 5.515625 27.296875 
Q 5.515625 40.765625 12.171875 48.375 
Q 18.84375 56 30.609375 56 
" id="BitstreamVeraSans-Roman-6f"/>
     <path d="M 19.671875 64.796875 
L 19.671875 37.40625 
L 32.078125 37.40625 
Q 38.96875 37.40625 42.71875 40.96875 
Q 46.484375 44.53125 46.484375 51.125 
Q 46.484375 57.671875 42.71875 61.234375 
Q 38.96875 64.796875 32.078125 64.796875 
z
M 9.8125 72.90625 
L 32.078125 72.90625 
Q 44.34375 72.90625 50.609375 67.359375 
Q 56.890625 61.8125 56.890625 51.125 
Q 56.890625 40.328125 50.609375 34.8125 
Q 44.34375 29.296875 32.078125 29.296875 
L 19.671875 29.296875 
L 19.671875 0 
L 9.8125 0 
z
" id="BitstreamVeraSans-Roman-50"/>
     <path d="M 11.71875 12.40625 
L 22.015625 12.40625 
L 22.015625 4 
L 14.015625 -11.625 
L 7.71875 -11.625 
L 11.71875 4 
z
" id="BitstreamVeraSans-Roman-2c"/>
     <path d="M 53.515625 70.515625 
L 53.515625 60.890625 
Q 47.90625 63.578125 42.921875 64.890625 
Q 37.9375 66.21875 33.296875 66.21875 
Q 25.25 66.21875 20.875 63.09375 
Q 16.5 59.96875 16.5 54.203125 
Q 16.5 49.359375 19.40625 46.890625 
Q 22.3125 44.4375 30.421875 42.921875 
L 36.375 41.703125 
Q 47.40625 39.59375 52.65625 34.296875 
Q 57.90625 29 57.90625 20.125 
Q 57.90625 9.515625 50.796875 4.046875 
Q 43.703125 -1.421875 29.984375 -1.421875 
Q 24.8125 -1.421875 18.96875 -0.25 
Q 13.140625 0.921875 6.890625 3.21875 
L 6.890625 13.375 
Q 12.890625 10.015625 18.65625 8.296875 
Q 24.421875 6.59375 29.984375 6.59375 
Q 38.421875 6.59375 43.015625 9.90625 
Q 47.609375 13.234375 47.609375 19.390625 
Q 47.609375 24.75 44.3125 27.78125 
Q 41.015625 30.8125 33.5 32.328125 
L 27.484375 33.5 
Q 16.453125 35.6875 11.515625 40.375 
Q 6.59375 45.0625 6.59375 53.421875 
Q 6.59375 63.09375 13.40625 68.65625 
Q 20.21875 74.21875 32.171875 74.21875 
Q 37.3125 74.21875 42.625 73.28125 
Q 47.953125 72.359375 53.515625 70.515625 
" id="BitstreamVeraSans-Roman-53"/>
     <path d="M -0.296875 72.90625 
L 61.375 72.90625 
L 61.375 64.59375 
L 35.5 64.59375 
L 35.5 0 
L 25.59375 0 
L 25.59375 64.59375 
L -0.296875 64.59375 
z
" id="BitstreamVeraSans-Roman-54"/>
     <path d="M 64.40625 67.28125 
L 64.40625 56.890625 
Q 59.421875 61.53125 53.78125 63.8125 
Q 48.140625 66.109375 41.796875 66.109375 
Q 29.296875 66.109375 22.65625 58.46875 
Q 16.015625 50.828125 16.015625 36.375 
Q 16.015625 21.96875 22.65625 14.328125 
Q 29.296875 6.6875 41.796875 6.6875 
Q 48.140625 6.6875 53.78125 8.984375 
Q 59.421875 11.28125 64.40625 15.921875 
L 64.40625 5.609375 
Q 59.234375 2.09375 53.4375 0.328125 
Q 47.65625 -1.421875 41.21875 -1.421875 
Q 24.65625 -1.421875 15.125 8.703125 
Q 5.609375 18.84375 5.609375 36.375 
Q 5.609375 53.953125 15.125 64.078125 
Q 24.65625 74.21875 41.21875 74.21875 
Q 47.75 74.21875 53.53125 72.484375 
Q 59.328125 70.75 64.40625 67.28125 
" id="BitstreamVeraSans-Roman-43"/>
     <path d="M 18.3125 70.21875 
L 18.3125 54.6875 
L 36.8125 54.6875 
L 36.8125 47.703125 
L 18.3125 47.703125 
L 18.3125 18.015625 
Q 18.3125 11.328125 20.140625 9.421875 
Q 21.96875 7.515625 27.59375 7.515625 
L 36.8125 7.515625 
L 36.8125 0 
L 27.59375 0 
Q 17.1875 0 13.234375 3.875 
Q 9.28125 7.765625 9.28125 18.015625 
L 9.28125 47.703125 
L 2.6875 47.703125 
L 2.6875 54.6875 
L 9.28125 54.6875 
L 9.28125 70.21875 
z
" id="BitstreamVeraSans-Roman-74"/>
     <path d="M 11.71875 12.40625 
L 22.015625 12.40625 
L 22.015625 0 
L 11.71875 0 
z
M 11.71875 51.703125 
L 22.015625 51.703125 
L 22.015625 39.3125 
L 11.71875 39.3125 
z
" id="BitstreamVeraSans-Roman-3a"/>
     <path d="M 44.28125 53.078125 
L 44.28125 44.578125 
Q 40.484375 46.53125 36.375 47.5 
Q 32.28125 48.484375 27.875 48.484375 
Q 21.1875 48.484375 17.84375 46.4375 
Q 14.5 44.390625 14.5 40.28125 
Q 14.5 37.15625 16.890625 35.375 
Q 19.28125 33.59375 26.515625 31.984375 
L 29.59375 31.296875 
Q 39.15625 29.25 43.1875 25.515625 
Q 47.21875 21.78125 47.21875 15.09375 
Q 47.21875 7.46875 41.1875 3.015625 
Q 35.15625 -1.421875 24.609375 -1.421875 
Q 20.21875 -1.421875 15.453125 -0.5625 
Q 10.6875 0.296875 5.421875 2 
L 5.421875 11.28125 
Q 10.40625 8.6875 15.234375 7.390625 
Q 20.0625 6.109375 24.8125 6.109375 
Q 31.15625 6.109375 34.5625 8.28125 
Q 37.984375 10.453125 37.984375 14.40625 
Q 37.984375 18.0625 35.515625 20.015625 
Q 33.0625 21.96875 24.703125 23.78125 
L 21.578125 24.515625 
Q 13.234375 26.265625 9.515625 29.90625 
Q 5.8125 33.546875 5.8125 39.890625 
Q 5.8125 47.609375 11.28125 51.796875 
Q 16.75 56 26.8125 56 
Q 31.78125 56 36.171875 55.265625 
Q 40.578125 54.546875 44.28125 53.078125 
" id="BitstreamVeraSans-Roman-73"/>
    </defs>
    <g transform="translate(804.697875 167.8)scale(0.144 -0.144)">
     <use xlink:href="#BitstreamVeraSans-Roman-54"/>
     <use x="61.083984375" xlink:href="#BitstreamVeraSans-Roman-53"/>
     <use x="124.560546875" xlink:href="#BitstreamVeraSans-Roman-50"/>
     <use x="184.86328125" xlink:href="#BitstreamVeraSans-Roman-3a"/>
     <use x="218.5546875" xlink:href="#BitstreamVeraSans-Roman-20"/>
     <use x="250.341796875" xlink:href="#BitstreamVeraSans-Roman-38"/>
     <use x="313.96484375" xlink:href="#BitstreamVeraSans-Roman-2c"/>
     <use x="345.751953125" xlink:href="#BitstreamVeraSans-Roman-20"/>
     <use x="377.5390625" xlink:href="#BitstreamVeraSans-Roman-43"/>
     <use x="447.36328125" xlink:href="#BitstreamVeraSans-Roman-6f"/>
     <use x="508.544921875" xlink:href="#BitstreamVeraSans-Roman-73"/>
     <use x="560.64453125" xlink:href="#BitstreamVeraSans-Roman-74"/>
     <use x="599.853515625" xlink:href="#BitstreamVeraSans-Roman-3a"/>
     <use x="633.544921875" xlink:href="#BitstreamVeraSans-Roman-20"/>
     <use x="665.33203125" xlink:href="#BitstreamVeraSans-Roman-32"/>
     <use x="728.955078125" xlink:href="#BitstreamVeraSans-Roman-32"/>
     <use x="792.578125" xlink:href="#BitstreamVeraSans-Roman-2c"/>
     <use x="824.365234375" xlink:href="#BitstreamVeraSans-Roman-20"/>
     <use x="856.15234375" xlink:href="#BitstreamVeraSans-Roman-4e"/>
     <use x="930.95703125" xlink:href="#BitstreamVeraSans-Roman-3a"/>
     <use x="964.6484375" xlink:href="#BitstreamVeraSans-Roman-20"/>
     <use x="996.435546875" xlink:href="#BitstreamVeraSans-Roman-32"/>
     <use x="1060.05859375" xlink:href="#BitstreamVeraSans-Roman-39"/>
    </g>
   </g>
  </g>
 </g>
 <defs>
  <clipPath id="p7ba2f6ba78">
   <rect height="1382.4" width="1339.2" x="216.0" y="172.8"/>
  </clipPath>
 </defs>
</svg>
