<?xml version="1.0" encoding="utf-8" standalone="no"?>
<!DOCTYPE svg PUBLIC "-//W3C//DTD SVG 1.1//EN"
  "http://www.w3.org/Graphics/SVG/1.1/DTD/svg11.dtd">
<!-- Created with matplotlib (http://matplotlib.org/) -->
<svg height="1728pt" version="1.1" viewBox="0 0 1728 1728" width="1728pt" xmlns="http://www.w3.org/2000/svg" xmlns:xlink="http://www.w3.org/1999/xlink">
 <defs>
  <style type="text/css">
*{stroke-linecap:butt;stroke-linejoin:round;stroke-miterlimit:100000;}
  </style>
 </defs>
 <g id="figure_1">
  <g id="patch_1">
   <path d="M 0 1728 
L 1728 1728 
L 1728 0 
L 0 0 
z
" style="fill:#ffffff;"/>
  </g>
  <g id="axes_1">
   <g id="patch_2">
    <path d="M 216 1555.2 
L 1555.2 1555.2 
L 1555.2 172.8 
L 216 172.8 
z
" style="fill:#ffffff;"/>
   </g>
   <g id="line2d_1">
    <path clip-path="url(#pc424a476d3)" d="M 1162.629888 1361.079442 
L 1439.156832 1443.837806 
L 1440.314252 1258.283376 
L 1398.938829 1141.929427 
L 446.44656 570.271598 
L 433.447392 561.440037 
L 470.382528 500.183918 
L 387.911616 437.39531 
L 324.706646 519.197439 
L 216.327143 294.768765 
L 315.097824 249.057134 
L 661.093536 511.950117 
L 799.394208 389.714359 
L 727.863929 265.24392 
L 835.150848 441.866386 
L 888.971329 525.405391 
L 904.845792 642.910793 
L 922.541088 735.57899 
L 937.879392 901.581531 
L 951.988665 1078.959677 
L 1162.629888 1361.079442 
" style="fill:none;stroke:#000000;stroke-linecap:square;"/>
    <defs>
     <path d="M 0 2.5 
C 0.663008 2.5 1.29895 2.236584 1.767767 1.767767 
C 2.236584 1.29895 2.5 0.663008 2.5 0 
C 2.5 -0.663008 2.236584 -1.29895 1.767767 -1.767767 
C 1.29895 -2.236584 0.663008 -2.5 0 -2.5 
C -0.663008 -2.5 -1.29895 -2.236584 -1.767767 -1.767767 
C -2.236584 -1.29895 -2.5 -0.663008 -2.5 0 
C -2.5 0.663008 -2.236584 1.29895 -1.767767 1.767767 
C -1.29895 2.236584 -0.663008 2.5 0 2.5 
z
" id="mc9a7ad9b35" style="stroke:#000000;stroke-width:0.5;"/>
    </defs>
    <g clip-path="url(#pc424a476d3)">
     <use style="fill:#00ff00;stroke:#000000;stroke-width:0.5;" x="1162.629888" xlink:href="#mc9a7ad9b35" y="1361.07944229"/>
     <use style="fill:#00ff00;stroke:#000000;stroke-width:0.5;" x="1439.156832" xlink:href="#mc9a7ad9b35" y="1443.83780571"/>
     <use style="fill:#00ff00;stroke:#000000;stroke-width:0.5;" x="1440.31425197" xlink:href="#mc9a7ad9b35" y="1258.28337649"/>
     <use style="fill:#00ff00;stroke:#000000;stroke-width:0.5;" x="1398.93882874" xlink:href="#mc9a7ad9b35" y="1141.92942665"/>
     <use style="fill:#00ff00;stroke:#000000;stroke-width:0.5;" x="446.44656" xlink:href="#mc9a7ad9b35" y="570.271597714"/>
     <use style="fill:#00ff00;stroke:#000000;stroke-width:0.5;" x="433.447392" xlink:href="#mc9a7ad9b35" y="561.440036571"/>
     <use style="fill:#00ff00;stroke:#000000;stroke-width:0.5;" x="470.382528" xlink:href="#mc9a7ad9b35" y="500.183917714"/>
     <use style="fill:#00ff00;stroke:#000000;stroke-width:0.5;" x="387.911615999" xlink:href="#mc9a7ad9b35" y="437.395309714"/>
     <use style="fill:#00ff00;stroke:#000000;stroke-width:0.5;" x="324.706646496" xlink:href="#mc9a7ad9b35" y="519.197439415"/>
     <use style="fill:#00ff00;stroke:#000000;stroke-width:0.5;" x="216.327142752" xlink:href="#mc9a7ad9b35" y="294.768764928"/>
     <use style="fill:#00ff00;stroke:#000000;stroke-width:0.5;" x="315.097824" xlink:href="#mc9a7ad9b35" y="249.057133714"/>
     <use style="fill:#00ff00;stroke:#000000;stroke-width:0.5;" x="661.093536" xlink:href="#mc9a7ad9b35" y="511.950116571"/>
     <use style="fill:#00ff00;stroke:#000000;stroke-width:0.5;" x="799.394208" xlink:href="#mc9a7ad9b35" y="389.714358857"/>
     <use style="fill:#00ff00;stroke:#000000;stroke-width:0.5;" x="727.863929088" xlink:href="#mc9a7ad9b35" y="265.243919945"/>
     <use style="fill:#00ff00;stroke:#000000;stroke-width:0.5;" x="835.150848" xlink:href="#mc9a7ad9b35" y="441.866386286"/>
     <use style="fill:#00ff00;stroke:#000000;stroke-width:0.5;" x="888.971328864" xlink:href="#mc9a7ad9b35" y="525.405390994"/>
     <use style="fill:#00ff00;stroke:#000000;stroke-width:0.5;" x="904.845792" xlink:href="#mc9a7ad9b35" y="642.910793143"/>
     <use style="fill:#00ff00;stroke:#000000;stroke-width:0.5;" x="922.541087999" xlink:href="#mc9a7ad9b35" y="735.578989714"/>
     <use style="fill:#00ff00;stroke:#000000;stroke-width:0.5;" x="937.879392" xlink:href="#mc9a7ad9b35" y="901.581531428"/>
     <use style="fill:#00ff00;stroke:#000000;stroke-width:0.5;" x="951.988664544" xlink:href="#mc9a7ad9b35" y="1078.95967685"/>
     <use style="fill:#00ff00;stroke:#000000;stroke-width:0.5;" x="1162.629888" xlink:href="#mc9a7ad9b35" y="1361.07944229"/>
    </g>
   </g>
   <g id="patch_3">
    <path d="M 216 172.8 
L 1555.2 172.8 
" style="fill:none;stroke:#000000;stroke-linecap:square;stroke-linejoin:miter;"/>
   </g>
   <g id="patch_4">
    <path d="M 1555.2 1555.2 
L 1555.2 172.8 
" style="fill:none;stroke:#000000;stroke-linecap:square;stroke-linejoin:miter;"/>
   </g>
   <g id="patch_5">
    <path d="M 216 1555.2 
L 1555.2 1555.2 
" style="fill:none;stroke:#000000;stroke-linecap:square;stroke-linejoin:miter;"/>
   </g>
   <g id="patch_6">
    <path d="M 216 1555.2 
L 216 172.8 
" style="fill:none;stroke:#000000;stroke-linecap:square;stroke-linejoin:miter;"/>
   </g>
   <g id="matplotlib.axis_1">
    <g id="xtick_1">
     <g id="line2d_2">
      <defs>
       <path d="M 0 0 
L 0 -4 
" id="mc1fc10ef57" style="stroke:#000000;stroke-width:0.5;"/>
      </defs>
      <g>
       <use style="stroke:#000000;stroke-width:0.5;" x="364.8" xlink:href="#mc1fc10ef57" y="1555.2"/>
      </g>
     </g>
     <g id="line2d_3">
      <defs>
       <path d="M 0 0 
L 0 4 
" id="m4171ff7b4e" style="stroke:#000000;stroke-width:0.5;"/>
      </defs>
      <g>
       <use style="stroke:#000000;stroke-width:0.5;" x="364.8" xlink:href="#m4171ff7b4e" y="172.8"/>
      </g>
     </g>
     <g id="text_1">
      <!-- 77.25 -->
      <defs>
       <path d="M 19.1875 8.296875 
L 53.609375 8.296875 
L 53.609375 0 
L 7.328125 0 
L 7.328125 8.296875 
Q 12.9375 14.109375 22.625 23.890625 
Q 32.328125 33.6875 34.8125 36.53125 
Q 39.546875 41.84375 41.421875 45.53125 
Q 43.3125 49.21875 43.3125 52.78125 
Q 43.3125 58.59375 39.234375 62.25 
Q 35.15625 65.921875 28.609375 65.921875 
Q 23.96875 65.921875 18.8125 64.3125 
Q 13.671875 62.703125 7.8125 59.421875 
L 7.8125 69.390625 
Q 13.765625 71.78125 18.9375 73 
Q 24.125 74.21875 28.421875 74.21875 
Q 39.75 74.21875 46.484375 68.546875 
Q 53.21875 62.890625 53.21875 53.421875 
Q 53.21875 48.921875 51.53125 44.890625 
Q 49.859375 40.875 45.40625 35.40625 
Q 44.1875 33.984375 37.640625 27.21875 
Q 31.109375 20.453125 19.1875 8.296875 
" id="BitstreamVeraSans-Roman-32"/>
       <path d="M 10.6875 12.40625 
L 21 12.40625 
L 21 0 
L 10.6875 0 
z
" id="BitstreamVeraSans-Roman-2e"/>
       <path d="M 8.203125 72.90625 
L 55.078125 72.90625 
L 55.078125 68.703125 
L 28.609375 0 
L 18.3125 0 
L 43.21875 64.59375 
L 8.203125 64.59375 
z
" id="BitstreamVeraSans-Roman-37"/>
       <path d="M 10.796875 72.90625 
L 49.515625 72.90625 
L 49.515625 64.59375 
L 19.828125 64.59375 
L 19.828125 46.734375 
Q 21.96875 47.46875 24.109375 47.828125 
Q 26.265625 48.1875 28.421875 48.1875 
Q 40.625 48.1875 47.75 41.5 
Q 54.890625 34.8125 54.890625 23.390625 
Q 54.890625 11.625 47.5625 5.09375 
Q 40.234375 -1.421875 26.90625 -1.421875 
Q 22.3125 -1.421875 17.546875 -0.640625 
Q 12.796875 0.140625 7.71875 1.703125 
L 7.71875 11.625 
Q 12.109375 9.234375 16.796875 8.0625 
Q 21.484375 6.890625 26.703125 6.890625 
Q 35.15625 6.890625 40.078125 11.328125 
Q 45.015625 15.765625 45.015625 23.390625 
Q 45.015625 31 40.078125 35.4375 
Q 35.15625 39.890625 26.703125 39.890625 
Q 22.75 39.890625 18.8125 39.015625 
Q 14.890625 38.140625 10.796875 36.28125 
z
" id="BitstreamVeraSans-Roman-35"/>
      </defs>
      <g transform="translate(347.623125 1568.318125)scale(0.12 -0.12)">
       <use xlink:href="#BitstreamVeraSans-Roman-37"/>
       <use x="63.623046875" xlink:href="#BitstreamVeraSans-Roman-37"/>
       <use x="127.24609375" xlink:href="#BitstreamVeraSans-Roman-2e"/>
       <use x="159.033203125" xlink:href="#BitstreamVeraSans-Roman-32"/>
       <use x="222.65625" xlink:href="#BitstreamVeraSans-Roman-35"/>
      </g>
     </g>
    </g>
    <g id="xtick_2">
     <g id="line2d_4">
      <g>
       <use style="stroke:#000000;stroke-width:0.5;" x="662.399999999" xlink:href="#mc1fc10ef57" y="1555.2"/>
      </g>
     </g>
     <g id="line2d_5">
      <g>
       <use style="stroke:#000000;stroke-width:0.5;" x="662.399999999" xlink:href="#m4171ff7b4e" y="172.8"/>
      </g>
     </g>
     <g id="text_2">
      <!-- 77.26 -->
      <defs>
       <path d="M 33.015625 40.375 
Q 26.375 40.375 22.484375 35.828125 
Q 18.609375 31.296875 18.609375 23.390625 
Q 18.609375 15.53125 22.484375 10.953125 
Q 26.375 6.390625 33.015625 6.390625 
Q 39.65625 6.390625 43.53125 10.953125 
Q 47.40625 15.53125 47.40625 23.390625 
Q 47.40625 31.296875 43.53125 35.828125 
Q 39.65625 40.375 33.015625 40.375 
M 52.59375 71.296875 
L 52.59375 62.3125 
Q 48.875 64.0625 45.09375 64.984375 
Q 41.3125 65.921875 37.59375 65.921875 
Q 27.828125 65.921875 22.671875 59.328125 
Q 17.53125 52.734375 16.796875 39.40625 
Q 19.671875 43.65625 24.015625 45.921875 
Q 28.375 48.1875 33.59375 48.1875 
Q 44.578125 48.1875 50.953125 41.515625 
Q 57.328125 34.859375 57.328125 23.390625 
Q 57.328125 12.15625 50.6875 5.359375 
Q 44.046875 -1.421875 33.015625 -1.421875 
Q 20.359375 -1.421875 13.671875 8.265625 
Q 6.984375 17.96875 6.984375 36.375 
Q 6.984375 53.65625 15.1875 63.9375 
Q 23.390625 74.21875 37.203125 74.21875 
Q 40.921875 74.21875 44.703125 73.484375 
Q 48.484375 72.75 52.59375 71.296875 
" id="BitstreamVeraSans-Roman-36"/>
      </defs>
      <g transform="translate(645.223124999 1568.318125)scale(0.12 -0.12)">
       <use xlink:href="#BitstreamVeraSans-Roman-37"/>
       <use x="63.623046875" xlink:href="#BitstreamVeraSans-Roman-37"/>
       <use x="127.24609375" xlink:href="#BitstreamVeraSans-Roman-2e"/>
       <use x="159.033203125" xlink:href="#BitstreamVeraSans-Roman-32"/>
       <use x="222.65625" xlink:href="#BitstreamVeraSans-Roman-36"/>
      </g>
     </g>
    </g>
    <g id="xtick_3">
     <g id="line2d_6">
      <g>
       <use style="stroke:#000000;stroke-width:0.5;" x="960.0" xlink:href="#mc1fc10ef57" y="1555.2"/>
      </g>
     </g>
     <g id="line2d_7">
      <g>
       <use style="stroke:#000000;stroke-width:0.5;" x="960.0" xlink:href="#m4171ff7b4e" y="172.8"/>
      </g>
     </g>
     <g id="text_3">
      <!-- 77.27 -->
      <g transform="translate(942.823125 1568.318125)scale(0.12 -0.12)">
       <use xlink:href="#BitstreamVeraSans-Roman-37"/>
       <use x="63.623046875" xlink:href="#BitstreamVeraSans-Roman-37"/>
       <use x="127.24609375" xlink:href="#BitstreamVeraSans-Roman-2e"/>
       <use x="159.033203125" xlink:href="#BitstreamVeraSans-Roman-32"/>
       <use x="222.65625" xlink:href="#BitstreamVeraSans-Roman-37"/>
      </g>
     </g>
    </g>
    <g id="xtick_4">
     <g id="line2d_8">
      <g>
       <use style="stroke:#000000;stroke-width:0.5;" x="1257.6" xlink:href="#mc1fc10ef57" y="1555.2"/>
      </g>
     </g>
     <g id="line2d_9">
      <g>
       <use style="stroke:#000000;stroke-width:0.5;" x="1257.6" xlink:href="#m4171ff7b4e" y="172.8"/>
      </g>
     </g>
     <g id="text_4">
      <!-- 77.28 -->
      <defs>
       <path d="M 31.78125 34.625 
Q 24.75 34.625 20.71875 30.859375 
Q 16.703125 27.09375 16.703125 20.515625 
Q 16.703125 13.921875 20.71875 10.15625 
Q 24.75 6.390625 31.78125 6.390625 
Q 38.8125 6.390625 42.859375 10.171875 
Q 46.921875 13.96875 46.921875 20.515625 
Q 46.921875 27.09375 42.890625 30.859375 
Q 38.875 34.625 31.78125 34.625 
M 21.921875 38.8125 
Q 15.578125 40.375 12.03125 44.71875 
Q 8.5 49.078125 8.5 55.328125 
Q 8.5 64.0625 14.71875 69.140625 
Q 20.953125 74.21875 31.78125 74.21875 
Q 42.671875 74.21875 48.875 69.140625 
Q 55.078125 64.0625 55.078125 55.328125 
Q 55.078125 49.078125 51.53125 44.71875 
Q 48 40.375 41.703125 38.8125 
Q 48.828125 37.15625 52.796875 32.3125 
Q 56.78125 27.484375 56.78125 20.515625 
Q 56.78125 9.90625 50.3125 4.234375 
Q 43.84375 -1.421875 31.78125 -1.421875 
Q 19.734375 -1.421875 13.25 4.234375 
Q 6.78125 9.90625 6.78125 20.515625 
Q 6.78125 27.484375 10.78125 32.3125 
Q 14.796875 37.15625 21.921875 38.8125 
M 18.3125 54.390625 
Q 18.3125 48.734375 21.84375 45.5625 
Q 25.390625 42.390625 31.78125 42.390625 
Q 38.140625 42.390625 41.71875 45.5625 
Q 45.3125 48.734375 45.3125 54.390625 
Q 45.3125 60.0625 41.71875 63.234375 
Q 38.140625 66.40625 31.78125 66.40625 
Q 25.390625 66.40625 21.84375 63.234375 
Q 18.3125 60.0625 18.3125 54.390625 
" id="BitstreamVeraSans-Roman-38"/>
      </defs>
      <g transform="translate(1240.423125 1568.318125)scale(0.12 -0.12)">
       <use xlink:href="#BitstreamVeraSans-Roman-37"/>
       <use x="63.623046875" xlink:href="#BitstreamVeraSans-Roman-37"/>
       <use x="127.24609375" xlink:href="#BitstreamVeraSans-Roman-2e"/>
       <use x="159.033203125" xlink:href="#BitstreamVeraSans-Roman-32"/>
       <use x="222.65625" xlink:href="#BitstreamVeraSans-Roman-38"/>
      </g>
     </g>
    </g>
    <g id="xtick_5">
     <g id="line2d_10">
      <g>
       <use style="stroke:#000000;stroke-width:0.5;" x="1555.2" xlink:href="#mc1fc10ef57" y="1555.2"/>
      </g>
     </g>
     <g id="line2d_11">
      <g>
       <use style="stroke:#000000;stroke-width:0.5;" x="1555.2" xlink:href="#m4171ff7b4e" y="172.8"/>
      </g>
     </g>
     <g id="text_5">
      <!-- 77.29 -->
      <defs>
       <path d="M 10.984375 1.515625 
L 10.984375 10.5 
Q 14.703125 8.734375 18.5 7.8125 
Q 22.3125 6.890625 25.984375 6.890625 
Q 35.75 6.890625 40.890625 13.453125 
Q 46.046875 20.015625 46.78125 33.40625 
Q 43.953125 29.203125 39.59375 26.953125 
Q 35.25 24.703125 29.984375 24.703125 
Q 19.046875 24.703125 12.671875 31.3125 
Q 6.296875 37.9375 6.296875 49.421875 
Q 6.296875 60.640625 12.9375 67.421875 
Q 19.578125 74.21875 30.609375 74.21875 
Q 43.265625 74.21875 49.921875 64.515625 
Q 56.59375 54.828125 56.59375 36.375 
Q 56.59375 19.140625 48.40625 8.859375 
Q 40.234375 -1.421875 26.421875 -1.421875 
Q 22.703125 -1.421875 18.890625 -0.6875 
Q 15.09375 0.046875 10.984375 1.515625 
M 30.609375 32.421875 
Q 37.25 32.421875 41.125 36.953125 
Q 45.015625 41.5 45.015625 49.421875 
Q 45.015625 57.28125 41.125 61.84375 
Q 37.25 66.40625 30.609375 66.40625 
Q 23.96875 66.40625 20.09375 61.84375 
Q 16.21875 57.28125 16.21875 49.421875 
Q 16.21875 41.5 20.09375 36.953125 
Q 23.96875 32.421875 30.609375 32.421875 
" id="BitstreamVeraSans-Roman-39"/>
      </defs>
      <g transform="translate(1538.023125 1568.318125)scale(0.12 -0.12)">
       <use xlink:href="#BitstreamVeraSans-Roman-37"/>
       <use x="63.623046875" xlink:href="#BitstreamVeraSans-Roman-37"/>
       <use x="127.24609375" xlink:href="#BitstreamVeraSans-Roman-2e"/>
       <use x="159.033203125" xlink:href="#BitstreamVeraSans-Roman-32"/>
       <use x="222.65625" xlink:href="#BitstreamVeraSans-Roman-39"/>
      </g>
     </g>
    </g>
   </g>
   <g id="matplotlib.axis_2">
    <g id="ytick_1">
     <g id="line2d_12">
      <defs>
       <path d="M 0 0 
L 4 0 
" id="mfef164f76f" style="stroke:#000000;stroke-width:0.5;"/>
      </defs>
      <g>
       <use style="stroke:#000000;stroke-width:0.5;" x="216.0" xlink:href="#mfef164f76f" y="1555.2"/>
      </g>
     </g>
     <g id="line2d_13">
      <defs>
       <path d="M 0 0 
L -4 0 
" id="m59b1a99592" style="stroke:#000000;stroke-width:0.5;"/>
      </defs>
      <g>
       <use style="stroke:#000000;stroke-width:0.5;" x="1555.2" xlink:href="#m59b1a99592" y="1555.2"/>
      </g>
     </g>
     <g id="text_6">
      <!-- 28.625 -->
      <g transform="translate(170.01125 1558.51125)scale(0.12 -0.12)">
       <use xlink:href="#BitstreamVeraSans-Roman-32"/>
       <use x="63.623046875" xlink:href="#BitstreamVeraSans-Roman-38"/>
       <use x="127.24609375" xlink:href="#BitstreamVeraSans-Roman-2e"/>
       <use x="159.033203125" xlink:href="#BitstreamVeraSans-Roman-36"/>
       <use x="222.65625" xlink:href="#BitstreamVeraSans-Roman-32"/>
       <use x="286.279296875" xlink:href="#BitstreamVeraSans-Roman-35"/>
      </g>
     </g>
    </g>
    <g id="ytick_2">
     <g id="line2d_14">
      <g>
       <use style="stroke:#000000;stroke-width:0.5;" x="216.0" xlink:href="#mfef164f76f" y="1357.71428571"/>
      </g>
     </g>
     <g id="line2d_15">
      <g>
       <use style="stroke:#000000;stroke-width:0.5;" x="1555.2" xlink:href="#m59b1a99592" y="1357.71428571"/>
      </g>
     </g>
     <g id="text_7">
      <!-- 28.630 -->
      <defs>
       <path d="M 40.578125 39.3125 
Q 47.65625 37.796875 51.625 33 
Q 55.609375 28.21875 55.609375 21.1875 
Q 55.609375 10.40625 48.1875 4.484375 
Q 40.765625 -1.421875 27.09375 -1.421875 
Q 22.515625 -1.421875 17.65625 -0.515625 
Q 12.796875 0.390625 7.625 2.203125 
L 7.625 11.71875 
Q 11.71875 9.328125 16.59375 8.109375 
Q 21.484375 6.890625 26.8125 6.890625 
Q 36.078125 6.890625 40.9375 10.546875 
Q 45.796875 14.203125 45.796875 21.1875 
Q 45.796875 27.640625 41.28125 31.265625 
Q 36.765625 34.90625 28.71875 34.90625 
L 20.21875 34.90625 
L 20.21875 43.015625 
L 29.109375 43.015625 
Q 36.375 43.015625 40.234375 45.921875 
Q 44.09375 48.828125 44.09375 54.296875 
Q 44.09375 59.90625 40.109375 62.90625 
Q 36.140625 65.921875 28.71875 65.921875 
Q 24.65625 65.921875 20.015625 65.03125 
Q 15.375 64.15625 9.8125 62.3125 
L 9.8125 71.09375 
Q 15.4375 72.65625 20.34375 73.4375 
Q 25.25 74.21875 29.59375 74.21875 
Q 40.828125 74.21875 47.359375 69.109375 
Q 53.90625 64.015625 53.90625 55.328125 
Q 53.90625 49.265625 50.4375 45.09375 
Q 46.96875 40.921875 40.578125 39.3125 
" id="BitstreamVeraSans-Roman-33"/>
       <path d="M 31.78125 66.40625 
Q 24.171875 66.40625 20.328125 58.90625 
Q 16.5 51.421875 16.5 36.375 
Q 16.5 21.390625 20.328125 13.890625 
Q 24.171875 6.390625 31.78125 6.390625 
Q 39.453125 6.390625 43.28125 13.890625 
Q 47.125 21.390625 47.125 36.375 
Q 47.125 51.421875 43.28125 58.90625 
Q 39.453125 66.40625 31.78125 66.40625 
M 31.78125 74.21875 
Q 44.046875 74.21875 50.515625 64.515625 
Q 56.984375 54.828125 56.984375 36.375 
Q 56.984375 17.96875 50.515625 8.265625 
Q 44.046875 -1.421875 31.78125 -1.421875 
Q 19.53125 -1.421875 13.0625 8.265625 
Q 6.59375 17.96875 6.59375 36.375 
Q 6.59375 54.828125 13.0625 64.515625 
Q 19.53125 74.21875 31.78125 74.21875 
" id="BitstreamVeraSans-Roman-30"/>
      </defs>
      <g transform="translate(170.01125 1361.02553571)scale(0.12 -0.12)">
       <use xlink:href="#BitstreamVeraSans-Roman-32"/>
       <use x="63.623046875" xlink:href="#BitstreamVeraSans-Roman-38"/>
       <use x="127.24609375" xlink:href="#BitstreamVeraSans-Roman-2e"/>
       <use x="159.033203125" xlink:href="#BitstreamVeraSans-Roman-36"/>
       <use x="222.65625" xlink:href="#BitstreamVeraSans-Roman-33"/>
       <use x="286.279296875" xlink:href="#BitstreamVeraSans-Roman-30"/>
      </g>
     </g>
    </g>
    <g id="ytick_3">
     <g id="line2d_16">
      <g>
       <use style="stroke:#000000;stroke-width:0.5;" x="216.0" xlink:href="#mfef164f76f" y="1160.22857143"/>
      </g>
     </g>
     <g id="line2d_17">
      <g>
       <use style="stroke:#000000;stroke-width:0.5;" x="1555.2" xlink:href="#m59b1a99592" y="1160.22857143"/>
      </g>
     </g>
     <g id="text_8">
      <!-- 28.635 -->
      <g transform="translate(170.01125 1163.53982143)scale(0.12 -0.12)">
       <use xlink:href="#BitstreamVeraSans-Roman-32"/>
       <use x="63.623046875" xlink:href="#BitstreamVeraSans-Roman-38"/>
       <use x="127.24609375" xlink:href="#BitstreamVeraSans-Roman-2e"/>
       <use x="159.033203125" xlink:href="#BitstreamVeraSans-Roman-36"/>
       <use x="222.65625" xlink:href="#BitstreamVeraSans-Roman-33"/>
       <use x="286.279296875" xlink:href="#BitstreamVeraSans-Roman-35"/>
      </g>
     </g>
    </g>
    <g id="ytick_4">
     <g id="line2d_18">
      <g>
       <use style="stroke:#000000;stroke-width:0.5;" x="216.0" xlink:href="#mfef164f76f" y="962.742857143"/>
      </g>
     </g>
     <g id="line2d_19">
      <g>
       <use style="stroke:#000000;stroke-width:0.5;" x="1555.2" xlink:href="#m59b1a99592" y="962.742857143"/>
      </g>
     </g>
     <g id="text_9">
      <!-- 28.640 -->
      <defs>
       <path d="M 37.796875 64.3125 
L 12.890625 25.390625 
L 37.796875 25.390625 
z
M 35.203125 72.90625 
L 47.609375 72.90625 
L 47.609375 25.390625 
L 58.015625 25.390625 
L 58.015625 17.1875 
L 47.609375 17.1875 
L 47.609375 0 
L 37.796875 0 
L 37.796875 17.1875 
L 4.890625 17.1875 
L 4.890625 26.703125 
z
" id="BitstreamVeraSans-Roman-34"/>
      </defs>
      <g transform="translate(170.01125 966.054107143)scale(0.12 -0.12)">
       <use xlink:href="#BitstreamVeraSans-Roman-32"/>
       <use x="63.623046875" xlink:href="#BitstreamVeraSans-Roman-38"/>
       <use x="127.24609375" xlink:href="#BitstreamVeraSans-Roman-2e"/>
       <use x="159.033203125" xlink:href="#BitstreamVeraSans-Roman-36"/>
       <use x="222.65625" xlink:href="#BitstreamVeraSans-Roman-34"/>
       <use x="286.279296875" xlink:href="#BitstreamVeraSans-Roman-30"/>
      </g>
     </g>
    </g>
    <g id="ytick_5">
     <g id="line2d_20">
      <g>
       <use style="stroke:#000000;stroke-width:0.5;" x="216.0" xlink:href="#mfef164f76f" y="765.257142857"/>
      </g>
     </g>
     <g id="line2d_21">
      <g>
       <use style="stroke:#000000;stroke-width:0.5;" x="1555.2" xlink:href="#m59b1a99592" y="765.257142857"/>
      </g>
     </g>
     <g id="text_10">
      <!-- 28.645 -->
      <g transform="translate(170.01125 768.568392857)scale(0.12 -0.12)">
       <use xlink:href="#BitstreamVeraSans-Roman-32"/>
       <use x="63.623046875" xlink:href="#BitstreamVeraSans-Roman-38"/>
       <use x="127.24609375" xlink:href="#BitstreamVeraSans-Roman-2e"/>
       <use x="159.033203125" xlink:href="#BitstreamVeraSans-Roman-36"/>
       <use x="222.65625" xlink:href="#BitstreamVeraSans-Roman-34"/>
       <use x="286.279296875" xlink:href="#BitstreamVeraSans-Roman-35"/>
      </g>
     </g>
    </g>
    <g id="ytick_6">
     <g id="line2d_22">
      <g>
       <use style="stroke:#000000;stroke-width:0.5;" x="216.0" xlink:href="#mfef164f76f" y="567.771428571"/>
      </g>
     </g>
     <g id="line2d_23">
      <g>
       <use style="stroke:#000000;stroke-width:0.5;" x="1555.2" xlink:href="#m59b1a99592" y="567.771428571"/>
      </g>
     </g>
     <g id="text_11">
      <!-- 28.650 -->
      <g transform="translate(170.01125 571.082678571)scale(0.12 -0.12)">
       <use xlink:href="#BitstreamVeraSans-Roman-32"/>
       <use x="63.623046875" xlink:href="#BitstreamVeraSans-Roman-38"/>
       <use x="127.24609375" xlink:href="#BitstreamVeraSans-Roman-2e"/>
       <use x="159.033203125" xlink:href="#BitstreamVeraSans-Roman-36"/>
       <use x="222.65625" xlink:href="#BitstreamVeraSans-Roman-35"/>
       <use x="286.279296875" xlink:href="#BitstreamVeraSans-Roman-30"/>
      </g>
     </g>
    </g>
    <g id="ytick_7">
     <g id="line2d_24">
      <g>
       <use style="stroke:#000000;stroke-width:0.5;" x="216.0" xlink:href="#mfef164f76f" y="370.285714286"/>
      </g>
     </g>
     <g id="line2d_25">
      <g>
       <use style="stroke:#000000;stroke-width:0.5;" x="1555.2" xlink:href="#m59b1a99592" y="370.285714286"/>
      </g>
     </g>
     <g id="text_12">
      <!-- 28.655 -->
      <g transform="translate(170.01125 373.596964286)scale(0.12 -0.12)">
       <use xlink:href="#BitstreamVeraSans-Roman-32"/>
       <use x="63.623046875" xlink:href="#BitstreamVeraSans-Roman-38"/>
       <use x="127.24609375" xlink:href="#BitstreamVeraSans-Roman-2e"/>
       <use x="159.033203125" xlink:href="#BitstreamVeraSans-Roman-36"/>
       <use x="222.65625" xlink:href="#BitstreamVeraSans-Roman-35"/>
       <use x="286.279296875" xlink:href="#BitstreamVeraSans-Roman-35"/>
      </g>
     </g>
    </g>
    <g id="ytick_8">
     <g id="line2d_26">
      <g>
       <use style="stroke:#000000;stroke-width:0.5;" x="216.0" xlink:href="#mfef164f76f" y="172.8"/>
      </g>
     </g>
     <g id="line2d_27">
      <g>
       <use style="stroke:#000000;stroke-width:0.5;" x="1555.2" xlink:href="#m59b1a99592" y="172.8"/>
      </g>
     </g>
     <g id="text_13">
      <!-- 28.660 -->
      <g transform="translate(170.01125 176.11125)scale(0.12 -0.12)">
       <use xlink:href="#BitstreamVeraSans-Roman-32"/>
       <use x="63.623046875" xlink:href="#BitstreamVeraSans-Roman-38"/>
       <use x="127.24609375" xlink:href="#BitstreamVeraSans-Roman-2e"/>
       <use x="159.033203125" xlink:href="#BitstreamVeraSans-Roman-36"/>
       <use x="222.65625" xlink:href="#BitstreamVeraSans-Roman-36"/>
       <use x="286.279296875" xlink:href="#BitstreamVeraSans-Roman-30"/>
      </g>
     </g>
    </g>
   </g>
   <g id="patch_7">
    <path d="M 1176.70316 1347.185102 
Q 1170.379464 1353.428396 1164.85138 1358.886195 
" style="fill:none;stroke:#ff0000;stroke-linecap:round;"/>
    <path d="M 1167.402341 1358.05397 
L 1164.85138 1358.886195 
L 1165.716176 1356.346091 
" style="fill:none;stroke:#ff0000;stroke-linecap:round;"/>
   </g>
   <g id="text_14">
    <!-- 0 -->
    <g style="fill:#ff0000;" transform="translate(1180.629888 1343.07944229)scale(0.06 -0.06)">
     <use xlink:href="#BitstreamVeraSans-Roman-30"/>
    </g>
   </g>
   <g id="patch_8">
    <path d="M 1429.832785 1453.93609 
Q 1433.815309 1449.62287 1437.039381 1446.131082 
" style="fill:none;stroke:#ff0000;stroke-linecap:round;"/>
    <path d="M 1434.529615 1447.080331 
L 1437.039381 1446.131082 
L 1436.292921 1448.708444 
" style="fill:none;stroke:#ff0000;stroke-linecap:round;"/>
   </g>
   <g id="text_15">
    <!-- 1 -->
    <defs>
     <path d="M 12.40625 8.296875 
L 28.515625 8.296875 
L 28.515625 63.921875 
L 10.984375 60.40625 
L 10.984375 69.390625 
L 28.421875 72.90625 
L 38.28125 72.90625 
L 38.28125 8.296875 
L 54.390625 8.296875 
L 54.390625 0 
L 12.40625 0 
z
" id="BitstreamVeraSans-Roman-31"/>
    </defs>
    <g style="fill:#ff0000;" transform="translate(1422.156832 1461.83780571)scale(0.06 -0.06)">
     <use xlink:href="#BitstreamVeraSans-Roman-31"/>
    </g>
   </g>
   <g id="patch_9">
    <path d="M 1455.167446 1268.473358 
Q 1448.565825 1263.944339 1442.886136 1260.047809 
" style="fill:none;stroke:#ff0000;stroke-linecap:round;"/>
    <path d="M 1444.186321 1262.395045 
L 1442.886136 1260.047809 
L 1445.544036 1260.416002 
" style="fill:none;stroke:#ff0000;stroke-linecap:round;"/>
   </g>
   <g id="text_16">
    <!-- 2 -->
    <g style="fill:#ff0000;" transform="translate(1459.31425197 1274.28337649)scale(0.06 -0.06)">
     <use xlink:href="#BitstreamVeraSans-Roman-32"/>
    </g>
   </g>
   <g id="patch_10">
    <path d="M 1384.684974 1127.984629 
Q 1391.096773 1134.257405 1396.709385 1139.748323 
" style="fill:none;stroke:#ff0000;stroke-linecap:round;"/>
    <path d="M 1395.83301 1137.212191 
L 1396.709385 1139.748323 
L 1394.154654 1138.927743 
" style="fill:none;stroke:#ff0000;stroke-linecap:round;"/>
   </g>
   <g id="text_17">
    <!-- 3 -->
    <g style="fill:#ff0000;" transform="translate(1376.93882874 1123.92942665)scale(0.06 -0.06)">
     <use xlink:href="#BitstreamVeraSans-Roman-33"/>
    </g>
   </g>
   <g id="patch_11">
    <path d="M 463.348757 583.068369 
Q 455.695107 577.273737 448.932834 572.153974 
" style="fill:none;stroke:#ff0000;stroke-linecap:round;"/>
    <path d="M 450.121943 574.559388 
L 448.932834 572.153974 
L 451.570631 572.645936 
" style="fill:none;stroke:#ff0000;stroke-linecap:round;"/>
   </g>
   <g id="text_18">
    <!-- 4 -->
    <g style="fill:#ff0000;" transform="translate(467.44656 589.271597714)scale(0.06 -0.06)">
     <use xlink:href="#BitstreamVeraSans-Roman-34"/>
    </g>
   </g>
   <g id="patch_12">
    <path d="M 447.615255 577.341188 
Q 441.196307 570.136949 435.521122 563.767466 
" style="fill:none;stroke:#ff0000;stroke-linecap:round;"/>
    <path d="M 436.22175 566.357663 
L 435.521122 563.767466 
L 438.013657 564.761081 
" style="fill:none;stroke:#ff0000;stroke-linecap:round;"/>
   </g>
   <g id="text_19">
    <!-- 5 -->
    <g style="fill:#ff0000;" transform="translate(451.447392 585.440036571)scale(0.06 -0.06)">
     <use xlink:href="#BitstreamVeraSans-Roman-35"/>
    </g>
   </g>
   <g id="patch_13">
    <path d="M 460.921638 488.488478 
Q 465.022666 493.55812 468.420536 497.758527 
" style="fill:none;stroke:#ff0000;stroke-linecap:round;"/>
    <path d="M 467.844082 495.137897 
L 468.420536 497.758527 
L 465.97816 496.647313 
" style="fill:none;stroke:#ff0000;stroke-linecap:round;"/>
   </g>
   <g id="text_20">
    <!-- 6 -->
    <g style="fill:#ff0000;" transform="translate(453.382528 483.183917714)scale(0.06 -0.06)">
     <use xlink:href="#BitstreamVeraSans-Roman-36"/>
    </g>
   </g>
   <g id="patch_14">
    <path d="M 402.199824 419.700342 
Q 395.684492 427.769135 389.871546 434.96807 
" style="fill:none;stroke:#ff0000;stroke-linecap:round;"/>
    <path d="M 392.312937 433.854691 
L 389.871546 434.96807 
L 390.445678 432.34693 
" style="fill:none;stroke:#ff0000;stroke-linecap:round;"/>
   </g>
   <g id="text_21">
    <!-- 7 -->
    <g style="fill:#ff0000;" transform="translate(405.911615999 414.395309714)scale(0.06 -0.06)">
     <use xlink:href="#BitstreamVeraSans-Roman-37"/>
    </g>
   </g>
   <g id="patch_15">
    <path d="M 338.806404 533.605715 
Q 332.457038 527.117418 326.88964 521.428199 
" style="fill:none;stroke:#ff0000;stroke-linecap:round;"/>
    <path d="M 327.710572 523.982817 
L 326.88964 521.428199 
L 329.425893 522.304225 
" style="fill:none;stroke:#ff0000;stroke-linecap:round;"/>
   </g>
   <g id="text_22">
    <!-- 8 -->
    <g style="fill:#ff0000;" transform="translate(342.706646496 541.197439415)scale(0.06 -0.06)">
     <use xlink:href="#BitstreamVeraSans-Roman-38"/>
    </g>
   </g>
   <g id="patch_16">
    <path d="M 230.460953 309.921768 
Q 224.076411 303.076835 218.454465 297.049489 
" style="fill:none;stroke:#ff0000;stroke-linecap:round;"/>
    <path d="M 219.213946 299.623045 
L 218.454465 297.049489 
L 220.968999 297.986038 
" style="fill:none;stroke:#ff0000;stroke-linecap:round;"/>
   </g>
   <g id="text_23">
    <!-- 9 -->
    <g style="fill:#ff0000;" transform="translate(234.327142752 317.768764928)scale(0.06 -0.06)">
     <use xlink:href="#BitstreamVeraSans-Roman-39"/>
    </g>
   </g>
   <g id="patch_17">
    <path d="M 333.06037 231.21175 
Q 324.788433 239.429732 317.309649 246.859736 
" style="fill:none;stroke:#ff0000;stroke-linecap:round;"/>
    <path d="M 319.857996 246.019541 
L 317.309649 246.859736 
L 318.166501 244.316942 
" style="fill:none;stroke:#ff0000;stroke-linecap:round;"/>
   </g>
   <g id="text_24">
    <!-- 10 -->
    <g style="fill:#ff0000;" transform="translate(336.097824 226.057133714)scale(0.06 -0.06)">
     <use xlink:href="#BitstreamVeraSans-Roman-31"/>
     <use x="63.623046875" xlink:href="#BitstreamVeraSans-Roman-30"/>
    </g>
   </g>
   <g id="patch_18">
    <path d="M 679.861803 522.6889 
Q 671.344831 517.815679 663.798272 513.497706 
" style="fill:none;stroke:#ff0000;stroke-linecap:round;"/>
    <path d="M 665.285428 515.731171 
L 663.798272 513.497706 
L 666.477337 513.64806 
" style="fill:none;stroke:#ff0000;stroke-linecap:round;"/>
   </g>
   <g id="text_25">
    <!-- 11 -->
    <g style="fill:#ff0000;" transform="translate(684.093536 528.950116571)scale(0.06 -0.06)">
     <use xlink:href="#BitstreamVeraSans-Roman-31"/>
     <use x="63.623046875" xlink:href="#BitstreamVeraSans-Roman-31"/>
    </g>
   </g>
   <g id="patch_19">
    <path d="M 786.326894 374.962327 
Q 792.198572 381.591017 797.328914 387.382795 
" style="fill:none;stroke:#ff0000;stroke-linecap:round;"/>
    <path d="M 796.635814 384.790573 
L 797.328914 387.382795 
L 794.839277 386.381942 
" style="fill:none;stroke:#ff0000;stroke-linecap:round;"/>
   </g>
   <g id="text_26">
    <!-- 12 -->
    <g style="fill:#ff0000;" transform="translate(776.394208 369.714358857)scale(0.06 -0.06)">
     <use xlink:href="#BitstreamVeraSans-Roman-31"/>
     <use x="63.623046875" xlink:href="#BitstreamVeraSans-Roman-32"/>
    </g>
   </g>
   <g id="patch_20">
    <path d="M 714.163309 279.733264 
Q 720.326247 273.215535 725.721035 267.510177 
" style="fill:none;stroke:#ff0000;stroke-linecap:round;"/>
    <path d="M 723.200178 268.429568 
L 725.721035 267.510177 
L 724.944033 270.078498 
" style="fill:none;stroke:#ff0000;stroke-linecap:round;"/>
   </g>
   <g id="text_27">
    <!-- 13 -->
    <g style="fill:#ff0000;" transform="translate(703.863929088 288.243919945)scale(0.06 -0.06)">
     <use xlink:href="#BitstreamVeraSans-Roman-31"/>
     <use x="63.623046875" xlink:href="#BitstreamVeraSans-Roman-33"/>
    </g>
   </g>
   <g id="patch_21">
    <path d="M 827.915328 450.288501 
Q 830.882139 446.835146 833.120381 444.229841 
" style="fill:none;stroke:#ff0000;stroke-linecap:round;"/>
    <path d="M 830.646196 445.268306 
L 833.120381 444.229841 
L 832.466642 446.832268 
" style="fill:none;stroke:#ff0000;stroke-linecap:round;"/>
   </g>
   <g id="text_28">
    <!-- 14 -->
    <g style="fill:#ff0000;" transform="translate(818.150848 458.866386286)scale(0.06 -0.06)">
     <use xlink:href="#BitstreamVeraSans-Roman-31"/>
     <use x="63.623046875" xlink:href="#BitstreamVeraSans-Roman-34"/>
    </g>
   </g>
   <g id="patch_22">
    <path d="M 879.232714 509.848585 
Q 883.57063 516.778124 887.315305 522.76 
" style="fill:none;stroke:#ff0000;stroke-linecap:round;"/>
    <path d="M 887.058979 520.08899 
L 887.315305 522.76 
L 885.024701 521.362455 
" style="fill:none;stroke:#ff0000;stroke-linecap:round;"/>
   </g>
   <g id="text_29">
    <!-- 15 -->
    <g style="fill:#ff0000;" transform="translate(870.971328864 504.405390994)scale(0.06 -0.06)">
     <use xlink:href="#BitstreamVeraSans-Roman-31"/>
     <use x="63.623046875" xlink:href="#BitstreamVeraSans-Roman-35"/>
    </g>
   </g>
   <g id="patch_23">
    <path d="M 919.000251 657.423491 
Q 912.622797 650.884628 907.025971 645.146151 
" style="fill:none;stroke:#ff0000;stroke-linecap:round;"/>
    <path d="M 907.842624 647.702139 
L 907.025971 645.146151 
L 909.560754 646.026421 
" style="fill:none;stroke:#ff0000;stroke-linecap:round;"/>
   </g>
   <g id="text_30">
    <!-- 16 -->
    <g style="fill:#ff0000;" transform="translate(921.845792 665.910793143)scale(0.06 -0.06)">
     <use xlink:href="#BitstreamVeraSans-Roman-31"/>
     <use x="63.623046875" xlink:href="#BitstreamVeraSans-Roman-36"/>
    </g>
   </g>
   <g id="patch_24">
    <path d="M 910.664206 719.918977 
Q 915.998075 726.951837 920.656331 733.093883 
" style="fill:none;stroke:#ff0000;stroke-linecap:round;"/>
    <path d="M 920.162167 730.456497 
L 920.656331 733.093883 
L 918.249924 731.906782 
" style="fill:none;stroke:#ff0000;stroke-linecap:round;"/>
   </g>
   <g id="text_31">
    <!-- 17 -->
    <g style="fill:#ff0000;" transform="translate(901.541087999 714.578989714)scale(0.06 -0.06)">
     <use xlink:href="#BitstreamVeraSans-Roman-31"/>
     <use x="63.623046875" xlink:href="#BitstreamVeraSans-Roman-37"/>
    </g>
   </g>
   <g id="patch_25">
    <path d="M 925.075737 887.794616 
Q 930.797683 893.955981 935.758813 899.298102 
" style="fill:none;stroke:#ff0000;stroke-linecap:round;"/>
    <path d="M 935.00493 896.722901 
L 935.758813 899.298102 
L 933.246322 898.356088 
" style="fill:none;stroke:#ff0000;stroke-linecap:round;"/>
   </g>
   <g id="text_32">
    <!-- 18 -->
    <g style="fill:#ff0000;" transform="translate(914.879392 882.581531428)scale(0.06 -0.06)">
     <use xlink:href="#BitstreamVeraSans-Roman-31"/>
     <use x="63.623046875" xlink:href="#BitstreamVeraSans-Roman-38"/>
    </g>
   </g>
   <g id="patch_26">
    <path d="M 967.858729 1094.500672 
Q 960.637578 1087.429254 954.215236 1081.14008 
" style="fill:none;stroke:#ff0000;stroke-linecap:round;"/>
    <path d="M 955.090384 1083.676635 
L 954.215236 1081.14008 
L 956.769569 1081.961895 
" style="fill:none;stroke:#ff0000;stroke-linecap:round;"/>
   </g>
   <g id="text_33">
    <!-- 19 -->
    <g style="fill:#ff0000;" transform="translate(970.988664544 1102.95967685)scale(0.06 -0.06)">
     <use xlink:href="#BitstreamVeraSans-Roman-31"/>
     <use x="63.623046875" xlink:href="#BitstreamVeraSans-Roman-39"/>
    </g>
   </g>
   <g id="patch_27">
    <path d="M 1181.345751 1343.205856 
Q 1172.710912 1351.452099 1164.884626 1358.926175 
" style="fill:none;stroke:#ff0000;stroke-linecap:round;"/>
    <path d="M 1167.449064 1358.136455 
L 1164.884626 1358.926175 
L 1165.791513 1356.400792 
" style="fill:none;stroke:#ff0000;stroke-linecap:round;"/>
   </g>
   <g id="text_34">
    <!-- 20 -->
    <g style="fill:#ff0000;" transform="translate(1184.629888 1338.07944229)scale(0.06 -0.06)">
     <use xlink:href="#BitstreamVeraSans-Roman-32"/>
     <use x="63.623046875" xlink:href="#BitstreamVeraSans-Roman-30"/>
    </g>
   </g>
   <g id="text_35">
    <!-- TSP: 31, Cost: 13, N: 20 -->
    <defs>
     <path id="BitstreamVeraSans-Roman-20"/>
     <path d="M 9.8125 72.90625 
L 23.09375 72.90625 
L 55.421875 11.921875 
L 55.421875 72.90625 
L 64.984375 72.90625 
L 64.984375 0 
L 51.703125 0 
L 19.390625 60.984375 
L 19.390625 0 
L 9.8125 0 
z
" id="BitstreamVeraSans-Roman-4e"/>
     <path d="M 30.609375 48.390625 
Q 23.390625 48.390625 19.1875 42.75 
Q 14.984375 37.109375 14.984375 27.296875 
Q 14.984375 17.484375 19.15625 11.84375 
Q 23.34375 6.203125 30.609375 6.203125 
Q 37.796875 6.203125 41.984375 11.859375 
Q 46.1875 17.53125 46.1875 27.296875 
Q 46.1875 37.015625 41.984375 42.703125 
Q 37.796875 48.390625 30.609375 48.390625 
M 30.609375 56 
Q 42.328125 56 49.015625 48.375 
Q 55.71875 40.765625 55.71875 27.296875 
Q 55.71875 13.875 49.015625 6.21875 
Q 42.328125 -1.421875 30.609375 -1.421875 
Q 18.84375 -1.421875 12.171875 6.21875 
Q 5.515625 13.875 5.515625 27.296875 
Q 5.515625 40.765625 12.171875 48.375 
Q 18.84375 56 30.609375 56 
" id="BitstreamVeraSans-Roman-6f"/>
     <path d="M 19.671875 64.796875 
L 19.671875 37.40625 
L 32.078125 37.40625 
Q 38.96875 37.40625 42.71875 40.96875 
Q 46.484375 44.53125 46.484375 51.125 
Q 46.484375 57.671875 42.71875 61.234375 
Q 38.96875 64.796875 32.078125 64.796875 
z
M 9.8125 72.90625 
L 32.078125 72.90625 
Q 44.34375 72.90625 50.609375 67.359375 
Q 56.890625 61.8125 56.890625 51.125 
Q 56.890625 40.328125 50.609375 34.8125 
Q 44.34375 29.296875 32.078125 29.296875 
L 19.671875 29.296875 
L 19.671875 0 
L 9.8125 0 
z
" id="BitstreamVeraSans-Roman-50"/>
     <path d="M 11.71875 12.40625 
L 22.015625 12.40625 
L 22.015625 4 
L 14.015625 -11.625 
L 7.71875 -11.625 
L 11.71875 4 
z
" id="BitstreamVeraSans-Roman-2c"/>
     <path d="M 53.515625 70.515625 
L 53.515625 60.890625 
Q 47.90625 63.578125 42.921875 64.890625 
Q 37.9375 66.21875 33.296875 66.21875 
Q 25.25 66.21875 20.875 63.09375 
Q 16.5 59.96875 16.5 54.203125 
Q 16.5 49.359375 19.40625 46.890625 
Q 22.3125 44.4375 30.421875 42.921875 
L 36.375 41.703125 
Q 47.40625 39.59375 52.65625 34.296875 
Q 57.90625 29 57.90625 20.125 
Q 57.90625 9.515625 50.796875 4.046875 
Q 43.703125 -1.421875 29.984375 -1.421875 
Q 24.8125 -1.421875 18.96875 -0.25 
Q 13.140625 0.921875 6.890625 3.21875 
L 6.890625 13.375 
Q 12.890625 10.015625 18.65625 8.296875 
Q 24.421875 6.59375 29.984375 6.59375 
Q 38.421875 6.59375 43.015625 9.90625 
Q 47.609375 13.234375 47.609375 19.390625 
Q 47.609375 24.75 44.3125 27.78125 
Q 41.015625 30.8125 33.5 32.328125 
L 27.484375 33.5 
Q 16.453125 35.6875 11.515625 40.375 
Q 6.59375 45.0625 6.59375 53.421875 
Q 6.59375 63.09375 13.40625 68.65625 
Q 20.21875 74.21875 32.171875 74.21875 
Q 37.3125 74.21875 42.625 73.28125 
Q 47.953125 72.359375 53.515625 70.515625 
" id="BitstreamVeraSans-Roman-53"/>
     <path d="M -0.296875 72.90625 
L 61.375 72.90625 
L 61.375 64.59375 
L 35.5 64.59375 
L 35.5 0 
L 25.59375 0 
L 25.59375 64.59375 
L -0.296875 64.59375 
z
" id="BitstreamVeraSans-Roman-54"/>
     <path d="M 64.40625 67.28125 
L 64.40625 56.890625 
Q 59.421875 61.53125 53.78125 63.8125 
Q 48.140625 66.109375 41.796875 66.109375 
Q 29.296875 66.109375 22.65625 58.46875 
Q 16.015625 50.828125 16.015625 36.375 
Q 16.015625 21.96875 22.65625 14.328125 
Q 29.296875 6.6875 41.796875 6.6875 
Q 48.140625 6.6875 53.78125 8.984375 
Q 59.421875 11.28125 64.40625 15.921875 
L 64.40625 5.609375 
Q 59.234375 2.09375 53.4375 0.328125 
Q 47.65625 -1.421875 41.21875 -1.421875 
Q 24.65625 -1.421875 15.125 8.703125 
Q 5.609375 18.84375 5.609375 36.375 
Q 5.609375 53.953125 15.125 64.078125 
Q 24.65625 74.21875 41.21875 74.21875 
Q 47.75 74.21875 53.53125 72.484375 
Q 59.328125 70.75 64.40625 67.28125 
" id="BitstreamVeraSans-Roman-43"/>
     <path d="M 18.3125 70.21875 
L 18.3125 54.6875 
L 36.8125 54.6875 
L 36.8125 47.703125 
L 18.3125 47.703125 
L 18.3125 18.015625 
Q 18.3125 11.328125 20.140625 9.421875 
Q 21.96875 7.515625 27.59375 7.515625 
L 36.8125 7.515625 
L 36.8125 0 
L 27.59375 0 
Q 17.1875 0 13.234375 3.875 
Q 9.28125 7.765625 9.28125 18.015625 
L 9.28125 47.703125 
L 2.6875 47.703125 
L 2.6875 54.6875 
L 9.28125 54.6875 
L 9.28125 70.21875 
z
" id="BitstreamVeraSans-Roman-74"/>
     <path d="M 11.71875 12.40625 
L 22.015625 12.40625 
L 22.015625 0 
L 11.71875 0 
z
M 11.71875 51.703125 
L 22.015625 51.703125 
L 22.015625 39.3125 
L 11.71875 39.3125 
z
" id="BitstreamVeraSans-Roman-3a"/>
     <path d="M 44.28125 53.078125 
L 44.28125 44.578125 
Q 40.484375 46.53125 36.375 47.5 
Q 32.28125 48.484375 27.875 48.484375 
Q 21.1875 48.484375 17.84375 46.4375 
Q 14.5 44.390625 14.5 40.28125 
Q 14.5 37.15625 16.890625 35.375 
Q 19.28125 33.59375 26.515625 31.984375 
L 29.59375 31.296875 
Q 39.15625 29.25 43.1875 25.515625 
Q 47.21875 21.78125 47.21875 15.09375 
Q 47.21875 7.46875 41.1875 3.015625 
Q 35.15625 -1.421875 24.609375 -1.421875 
Q 20.21875 -1.421875 15.453125 -0.5625 
Q 10.6875 0.296875 5.421875 2 
L 5.421875 11.28125 
Q 10.40625 8.6875 15.234375 7.390625 
Q 20.0625 6.109375 24.8125 6.109375 
Q 31.15625 6.109375 34.5625 8.28125 
Q 37.984375 10.453125 37.984375 14.40625 
Q 37.984375 18.0625 35.515625 20.015625 
Q 33.0625 21.96875 24.703125 23.78125 
L 21.578125 24.515625 
Q 13.234375 26.265625 9.515625 29.90625 
Q 5.8125 33.546875 5.8125 39.890625 
Q 5.8125 47.609375 11.28125 51.796875 
Q 16.75 56 26.8125 56 
Q 31.78125 56 36.171875 55.265625 
Q 40.578125 54.546875 44.28125 53.078125 
" id="BitstreamVeraSans-Roman-73"/>
    </defs>
    <g transform="translate(800.116875 167.8)scale(0.144 -0.144)">
     <use xlink:href="#BitstreamVeraSans-Roman-54"/>
     <use x="61.083984375" xlink:href="#BitstreamVeraSans-Roman-53"/>
     <use x="124.560546875" xlink:href="#BitstreamVeraSans-Roman-50"/>
     <use x="184.86328125" xlink:href="#BitstreamVeraSans-Roman-3a"/>
     <use x="218.5546875" xlink:href="#BitstreamVeraSans-Roman-20"/>
     <use x="250.341796875" xlink:href="#BitstreamVeraSans-Roman-33"/>
     <use x="313.96484375" xlink:href="#BitstreamVeraSans-Roman-31"/>
     <use x="377.587890625" xlink:href="#BitstreamVeraSans-Roman-2c"/>
     <use x="409.375" xlink:href="#BitstreamVeraSans-Roman-20"/>
     <use x="441.162109375" xlink:href="#BitstreamVeraSans-Roman-43"/>
     <use x="510.986328125" xlink:href="#BitstreamVeraSans-Roman-6f"/>
     <use x="572.16796875" xlink:href="#BitstreamVeraSans-Roman-73"/>
     <use x="624.267578125" xlink:href="#BitstreamVeraSans-Roman-74"/>
     <use x="663.4765625" xlink:href="#BitstreamVeraSans-Roman-3a"/>
     <use x="697.16796875" xlink:href="#BitstreamVeraSans-Roman-20"/>
     <use x="728.955078125" xlink:href="#BitstreamVeraSans-Roman-31"/>
     <use x="792.578125" xlink:href="#BitstreamVeraSans-Roman-33"/>
     <use x="856.201171875" xlink:href="#BitstreamVeraSans-Roman-2c"/>
     <use x="887.98828125" xlink:href="#BitstreamVeraSans-Roman-20"/>
     <use x="919.775390625" xlink:href="#BitstreamVeraSans-Roman-4e"/>
     <use x="994.580078125" xlink:href="#BitstreamVeraSans-Roman-3a"/>
     <use x="1028.27148438" xlink:href="#BitstreamVeraSans-Roman-20"/>
     <use x="1060.05859375" xlink:href="#BitstreamVeraSans-Roman-32"/>
     <use x="1123.68164062" xlink:href="#BitstreamVeraSans-Roman-30"/>
    </g>
   </g>
  </g>
 </g>
 <defs>
  <clipPath id="pc424a476d3">
   <rect height="1382.4" width="1339.2" x="216.0" y="172.8"/>
  </clipPath>
 </defs>
</svg>
