<?xml version="1.0" encoding="utf-8" standalone="no"?>
<!DOCTYPE svg PUBLIC "-//W3C//DTD SVG 1.1//EN"
  "http://www.w3.org/Graphics/SVG/1.1/DTD/svg11.dtd">
<!-- Created with matplotlib (http://matplotlib.org/) -->
<svg height="1728pt" version="1.1" viewBox="0 0 1728 1728" width="1728pt" xmlns="http://www.w3.org/2000/svg" xmlns:xlink="http://www.w3.org/1999/xlink">
 <defs>
  <style type="text/css">
*{stroke-linecap:butt;stroke-linejoin:round;stroke-miterlimit:100000;}
  </style>
 </defs>
 <g id="figure_1">
  <g id="patch_1">
   <path d="M 0 1728 
L 1728 1728 
L 1728 0 
L 0 0 
z
" style="fill:#ffffff;"/>
  </g>
  <g id="axes_1">
   <g id="patch_2">
    <path d="M 216 1555.2 
L 1555.2 1555.2 
L 1555.2 172.8 
L 216 172.8 
z
" style="fill:#ffffff;"/>
   </g>
   <g id="line2d_1">
    <path clip-path="url(#p5170a0e296)" d="M 509.224536 761.935433 
L 575.502133 680.99964 
L 756.109853 545.281789 
L 811.561435 547.923421 
L 868.535713 335.766779 
L 928.860624 703.698871 
L 894.534696 730.059264 
L 1042.081362 927.707252 
L 1106.925839 1000.989639 
L 1242.644112 1213.176466 
L 1251.648 1220.418267 
L 1301.792112 1279.034002 
L 1425.632561 1400.382283 
L 1216.225734 1337.966042 
L 1187.844019 1281.877161 
L 1030.434603 1286.174649 
L 321.22764 869.770533 
L 408.883525 800.764199 
L 341.435208 541.084054 
L 295.209832 704.921467 
L 307.407498 709.675703 
L 509.224536 761.935433 
" style="fill:none;stroke:#000000;stroke-linecap:square;"/>
    <defs>
     <path d="M 0 2.5 
C 0.663008 2.5 1.29895 2.236584 1.767767 1.767767 
C 2.236584 1.29895 2.5 0.663008 2.5 0 
C 2.5 -0.663008 2.236584 -1.29895 1.767767 -1.767767 
C 1.29895 -2.236584 0.663008 -2.5 0 -2.5 
C -0.663008 -2.5 -1.29895 -2.236584 -1.767767 -1.767767 
C -2.236584 -1.29895 -2.5 -0.663008 -2.5 0 
C -2.5 0.663008 -2.236584 1.29895 -1.767767 1.767767 
C -1.29895 2.236584 -0.663008 2.5 0 2.5 
z
" id="m6198b932b3" style="stroke:#000000;stroke-width:0.5;"/>
    </defs>
    <g clip-path="url(#p5170a0e296)">
     <use style="fill:#00ff00;stroke:#000000;stroke-width:0.5;" x="509.224536" xlink:href="#m6198b932b3" y="761.935433143"/>
     <use style="fill:#00ff00;stroke:#000000;stroke-width:0.5;" x="575.502133248" xlink:href="#m6198b932b3" y="680.999639698"/>
     <use style="fill:#00ff00;stroke:#000000;stroke-width:0.5;" x="756.109852632" xlink:href="#m6198b932b3" y="545.281789001"/>
     <use style="fill:#00ff00;stroke:#000000;stroke-width:0.5;" x="811.5614352" xlink:href="#m6198b932b3" y="547.923421111"/>
     <use style="fill:#00ff00;stroke:#000000;stroke-width:0.5;" x="868.53571272" xlink:href="#m6198b932b3" y="335.766779465"/>
     <use style="fill:#00ff00;stroke:#000000;stroke-width:0.5;" x="928.860624" xlink:href="#m6198b932b3" y="703.698870857"/>
     <use style="fill:#00ff00;stroke:#000000;stroke-width:0.5;" x="894.534696" xlink:href="#m6198b932b3" y="730.059264"/>
     <use style="fill:#00ff00;stroke:#000000;stroke-width:0.5;" x="1042.08136178" xlink:href="#m6198b932b3" y="927.707252297"/>
     <use style="fill:#00ff00;stroke:#000000;stroke-width:0.5;" x="1106.9258387" xlink:href="#m6198b932b3" y="1000.98963895"/>
     <use style="fill:#00ff00;stroke:#000000;stroke-width:0.5;" x="1242.644112" xlink:href="#m6198b932b3" y="1213.17646629"/>
     <use style="fill:#00ff00;stroke:#000000;stroke-width:0.5;" x="1251.648" xlink:href="#m6198b932b3" y="1220.41826743"/>
     <use style="fill:#00ff00;stroke:#000000;stroke-width:0.5;" x="1301.792112" xlink:href="#m6198b932b3" y="1279.03400229"/>
     <use style="fill:#00ff00;stroke:#000000;stroke-width:0.5;" x="1425.6325607" xlink:href="#m6198b932b3" y="1400.3822829"/>
     <use style="fill:#00ff00;stroke:#000000;stroke-width:0.5;" x="1216.22573369" xlink:href="#m6198b932b3" y="1337.96604211"/>
     <use style="fill:#00ff00;stroke:#000000;stroke-width:0.5;" x="1187.84401898" xlink:href="#m6198b932b3" y="1281.87716067"/>
     <use style="fill:#00ff00;stroke:#000000;stroke-width:0.5;" x="1030.43460276" xlink:href="#m6198b932b3" y="1286.17464927"/>
     <use style="fill:#00ff00;stroke:#000000;stroke-width:0.5;" x="321.22764" xlink:href="#m6198b932b3" y="869.770532571"/>
     <use style="fill:#00ff00;stroke:#000000;stroke-width:0.5;" x="408.8835252" xlink:href="#m6198b932b3" y="800.764199424"/>
     <use style="fill:#00ff00;stroke:#000000;stroke-width:0.5;" x="341.43520824" xlink:href="#m6198b932b3" y="541.084054382"/>
     <use style="fill:#00ff00;stroke:#000000;stroke-width:0.5;" x="295.209832032" xlink:href="#m6198b932b3" y="704.921467392"/>
     <use style="fill:#00ff00;stroke:#000000;stroke-width:0.5;" x="307.40749776" xlink:href="#m6198b932b3" y="709.67570293"/>
     <use style="fill:#00ff00;stroke:#000000;stroke-width:0.5;" x="509.224536" xlink:href="#m6198b932b3" y="761.935433143"/>
    </g>
   </g>
   <g id="patch_3">
    <path d="M 216 172.8 
L 1555.2 172.8 
" style="fill:none;stroke:#000000;stroke-linecap:square;stroke-linejoin:miter;"/>
   </g>
   <g id="patch_4">
    <path d="M 1555.2 1555.2 
L 1555.2 172.8 
" style="fill:none;stroke:#000000;stroke-linecap:square;stroke-linejoin:miter;"/>
   </g>
   <g id="patch_5">
    <path d="M 216 1555.2 
L 1555.2 1555.2 
" style="fill:none;stroke:#000000;stroke-linecap:square;stroke-linejoin:miter;"/>
   </g>
   <g id="patch_6">
    <path d="M 216 1555.2 
L 216 172.8 
" style="fill:none;stroke:#000000;stroke-linecap:square;stroke-linejoin:miter;"/>
   </g>
   <g id="matplotlib.axis_1">
    <g id="xtick_1">
     <g id="line2d_2">
      <defs>
       <path d="M 0 0 
L 0 -4 
" id="mad4bc1a9ce" style="stroke:#000000;stroke-width:0.5;"/>
      </defs>
      <g>
       <use style="stroke:#000000;stroke-width:0.5;" x="216.0" xlink:href="#mad4bc1a9ce" y="1555.2"/>
      </g>
     </g>
     <g id="line2d_3">
      <defs>
       <path d="M 0 0 
L 0 4 
" id="m07e4eccad9" style="stroke:#000000;stroke-width:0.5;"/>
      </defs>
      <g>
       <use style="stroke:#000000;stroke-width:0.5;" x="216.0" xlink:href="#m07e4eccad9" y="172.8"/>
      </g>
     </g>
     <g id="text_1">
      <!-- 77.25 -->
      <defs>
       <path d="M 19.1875 8.296875 
L 53.609375 8.296875 
L 53.609375 0 
L 7.328125 0 
L 7.328125 8.296875 
Q 12.9375 14.109375 22.625 23.890625 
Q 32.328125 33.6875 34.8125 36.53125 
Q 39.546875 41.84375 41.421875 45.53125 
Q 43.3125 49.21875 43.3125 52.78125 
Q 43.3125 58.59375 39.234375 62.25 
Q 35.15625 65.921875 28.609375 65.921875 
Q 23.96875 65.921875 18.8125 64.3125 
Q 13.671875 62.703125 7.8125 59.421875 
L 7.8125 69.390625 
Q 13.765625 71.78125 18.9375 73 
Q 24.125 74.21875 28.421875 74.21875 
Q 39.75 74.21875 46.484375 68.546875 
Q 53.21875 62.890625 53.21875 53.421875 
Q 53.21875 48.921875 51.53125 44.890625 
Q 49.859375 40.875 45.40625 35.40625 
Q 44.1875 33.984375 37.640625 27.21875 
Q 31.109375 20.453125 19.1875 8.296875 
" id="BitstreamVeraSans-Roman-32"/>
       <path d="M 10.6875 12.40625 
L 21 12.40625 
L 21 0 
L 10.6875 0 
z
" id="BitstreamVeraSans-Roman-2e"/>
       <path d="M 8.203125 72.90625 
L 55.078125 72.90625 
L 55.078125 68.703125 
L 28.609375 0 
L 18.3125 0 
L 43.21875 64.59375 
L 8.203125 64.59375 
z
" id="BitstreamVeraSans-Roman-37"/>
       <path d="M 10.796875 72.90625 
L 49.515625 72.90625 
L 49.515625 64.59375 
L 19.828125 64.59375 
L 19.828125 46.734375 
Q 21.96875 47.46875 24.109375 47.828125 
Q 26.265625 48.1875 28.421875 48.1875 
Q 40.625 48.1875 47.75 41.5 
Q 54.890625 34.8125 54.890625 23.390625 
Q 54.890625 11.625 47.5625 5.09375 
Q 40.234375 -1.421875 26.90625 -1.421875 
Q 22.3125 -1.421875 17.546875 -0.640625 
Q 12.796875 0.140625 7.71875 1.703125 
L 7.71875 11.625 
Q 12.109375 9.234375 16.796875 8.0625 
Q 21.484375 6.890625 26.703125 6.890625 
Q 35.15625 6.890625 40.078125 11.328125 
Q 45.015625 15.765625 45.015625 23.390625 
Q 45.015625 31 40.078125 35.4375 
Q 35.15625 39.890625 26.703125 39.890625 
Q 22.75 39.890625 18.8125 39.015625 
Q 14.890625 38.140625 10.796875 36.28125 
z
" id="BitstreamVeraSans-Roman-35"/>
      </defs>
      <g transform="translate(198.823125 1568.318125)scale(0.12 -0.12)">
       <use xlink:href="#BitstreamVeraSans-Roman-37"/>
       <use x="63.623046875" xlink:href="#BitstreamVeraSans-Roman-37"/>
       <use x="127.24609375" xlink:href="#BitstreamVeraSans-Roman-2e"/>
       <use x="159.033203125" xlink:href="#BitstreamVeraSans-Roman-32"/>
       <use x="222.65625" xlink:href="#BitstreamVeraSans-Roman-35"/>
      </g>
     </g>
    </g>
    <g id="xtick_2">
     <g id="line2d_4">
      <g>
       <use style="stroke:#000000;stroke-width:0.5;" x="439.2" xlink:href="#mad4bc1a9ce" y="1555.2"/>
      </g>
     </g>
     <g id="line2d_5">
      <g>
       <use style="stroke:#000000;stroke-width:0.5;" x="439.2" xlink:href="#m07e4eccad9" y="172.8"/>
      </g>
     </g>
     <g id="text_2">
      <!-- 77.26 -->
      <defs>
       <path d="M 33.015625 40.375 
Q 26.375 40.375 22.484375 35.828125 
Q 18.609375 31.296875 18.609375 23.390625 
Q 18.609375 15.53125 22.484375 10.953125 
Q 26.375 6.390625 33.015625 6.390625 
Q 39.65625 6.390625 43.53125 10.953125 
Q 47.40625 15.53125 47.40625 23.390625 
Q 47.40625 31.296875 43.53125 35.828125 
Q 39.65625 40.375 33.015625 40.375 
M 52.59375 71.296875 
L 52.59375 62.3125 
Q 48.875 64.0625 45.09375 64.984375 
Q 41.3125 65.921875 37.59375 65.921875 
Q 27.828125 65.921875 22.671875 59.328125 
Q 17.53125 52.734375 16.796875 39.40625 
Q 19.671875 43.65625 24.015625 45.921875 
Q 28.375 48.1875 33.59375 48.1875 
Q 44.578125 48.1875 50.953125 41.515625 
Q 57.328125 34.859375 57.328125 23.390625 
Q 57.328125 12.15625 50.6875 5.359375 
Q 44.046875 -1.421875 33.015625 -1.421875 
Q 20.359375 -1.421875 13.671875 8.265625 
Q 6.984375 17.96875 6.984375 36.375 
Q 6.984375 53.65625 15.1875 63.9375 
Q 23.390625 74.21875 37.203125 74.21875 
Q 40.921875 74.21875 44.703125 73.484375 
Q 48.484375 72.75 52.59375 71.296875 
" id="BitstreamVeraSans-Roman-36"/>
      </defs>
      <g transform="translate(422.023125 1568.318125)scale(0.12 -0.12)">
       <use xlink:href="#BitstreamVeraSans-Roman-37"/>
       <use x="63.623046875" xlink:href="#BitstreamVeraSans-Roman-37"/>
       <use x="127.24609375" xlink:href="#BitstreamVeraSans-Roman-2e"/>
       <use x="159.033203125" xlink:href="#BitstreamVeraSans-Roman-32"/>
       <use x="222.65625" xlink:href="#BitstreamVeraSans-Roman-36"/>
      </g>
     </g>
    </g>
    <g id="xtick_3">
     <g id="line2d_6">
      <g>
       <use style="stroke:#000000;stroke-width:0.5;" x="662.4" xlink:href="#mad4bc1a9ce" y="1555.2"/>
      </g>
     </g>
     <g id="line2d_7">
      <g>
       <use style="stroke:#000000;stroke-width:0.5;" x="662.4" xlink:href="#m07e4eccad9" y="172.8"/>
      </g>
     </g>
     <g id="text_3">
      <!-- 77.27 -->
      <g transform="translate(645.223125 1568.318125)scale(0.12 -0.12)">
       <use xlink:href="#BitstreamVeraSans-Roman-37"/>
       <use x="63.623046875" xlink:href="#BitstreamVeraSans-Roman-37"/>
       <use x="127.24609375" xlink:href="#BitstreamVeraSans-Roman-2e"/>
       <use x="159.033203125" xlink:href="#BitstreamVeraSans-Roman-32"/>
       <use x="222.65625" xlink:href="#BitstreamVeraSans-Roman-37"/>
      </g>
     </g>
    </g>
    <g id="xtick_4">
     <g id="line2d_8">
      <g>
       <use style="stroke:#000000;stroke-width:0.5;" x="885.6" xlink:href="#mad4bc1a9ce" y="1555.2"/>
      </g>
     </g>
     <g id="line2d_9">
      <g>
       <use style="stroke:#000000;stroke-width:0.5;" x="885.6" xlink:href="#m07e4eccad9" y="172.8"/>
      </g>
     </g>
     <g id="text_4">
      <!-- 77.28 -->
      <defs>
       <path d="M 31.78125 34.625 
Q 24.75 34.625 20.71875 30.859375 
Q 16.703125 27.09375 16.703125 20.515625 
Q 16.703125 13.921875 20.71875 10.15625 
Q 24.75 6.390625 31.78125 6.390625 
Q 38.8125 6.390625 42.859375 10.171875 
Q 46.921875 13.96875 46.921875 20.515625 
Q 46.921875 27.09375 42.890625 30.859375 
Q 38.875 34.625 31.78125 34.625 
M 21.921875 38.8125 
Q 15.578125 40.375 12.03125 44.71875 
Q 8.5 49.078125 8.5 55.328125 
Q 8.5 64.0625 14.71875 69.140625 
Q 20.953125 74.21875 31.78125 74.21875 
Q 42.671875 74.21875 48.875 69.140625 
Q 55.078125 64.0625 55.078125 55.328125 
Q 55.078125 49.078125 51.53125 44.71875 
Q 48 40.375 41.703125 38.8125 
Q 48.828125 37.15625 52.796875 32.3125 
Q 56.78125 27.484375 56.78125 20.515625 
Q 56.78125 9.90625 50.3125 4.234375 
Q 43.84375 -1.421875 31.78125 -1.421875 
Q 19.734375 -1.421875 13.25 4.234375 
Q 6.78125 9.90625 6.78125 20.515625 
Q 6.78125 27.484375 10.78125 32.3125 
Q 14.796875 37.15625 21.921875 38.8125 
M 18.3125 54.390625 
Q 18.3125 48.734375 21.84375 45.5625 
Q 25.390625 42.390625 31.78125 42.390625 
Q 38.140625 42.390625 41.71875 45.5625 
Q 45.3125 48.734375 45.3125 54.390625 
Q 45.3125 60.0625 41.71875 63.234375 
Q 38.140625 66.40625 31.78125 66.40625 
Q 25.390625 66.40625 21.84375 63.234375 
Q 18.3125 60.0625 18.3125 54.390625 
" id="BitstreamVeraSans-Roman-38"/>
      </defs>
      <g transform="translate(868.423125 1568.318125)scale(0.12 -0.12)">
       <use xlink:href="#BitstreamVeraSans-Roman-37"/>
       <use x="63.623046875" xlink:href="#BitstreamVeraSans-Roman-37"/>
       <use x="127.24609375" xlink:href="#BitstreamVeraSans-Roman-2e"/>
       <use x="159.033203125" xlink:href="#BitstreamVeraSans-Roman-32"/>
       <use x="222.65625" xlink:href="#BitstreamVeraSans-Roman-38"/>
      </g>
     </g>
    </g>
    <g id="xtick_5">
     <g id="line2d_10">
      <g>
       <use style="stroke:#000000;stroke-width:0.5;" x="1108.8" xlink:href="#mad4bc1a9ce" y="1555.2"/>
      </g>
     </g>
     <g id="line2d_11">
      <g>
       <use style="stroke:#000000;stroke-width:0.5;" x="1108.8" xlink:href="#m07e4eccad9" y="172.8"/>
      </g>
     </g>
     <g id="text_5">
      <!-- 77.29 -->
      <defs>
       <path d="M 10.984375 1.515625 
L 10.984375 10.5 
Q 14.703125 8.734375 18.5 7.8125 
Q 22.3125 6.890625 25.984375 6.890625 
Q 35.75 6.890625 40.890625 13.453125 
Q 46.046875 20.015625 46.78125 33.40625 
Q 43.953125 29.203125 39.59375 26.953125 
Q 35.25 24.703125 29.984375 24.703125 
Q 19.046875 24.703125 12.671875 31.3125 
Q 6.296875 37.9375 6.296875 49.421875 
Q 6.296875 60.640625 12.9375 67.421875 
Q 19.578125 74.21875 30.609375 74.21875 
Q 43.265625 74.21875 49.921875 64.515625 
Q 56.59375 54.828125 56.59375 36.375 
Q 56.59375 19.140625 48.40625 8.859375 
Q 40.234375 -1.421875 26.421875 -1.421875 
Q 22.703125 -1.421875 18.890625 -0.6875 
Q 15.09375 0.046875 10.984375 1.515625 
M 30.609375 32.421875 
Q 37.25 32.421875 41.125 36.953125 
Q 45.015625 41.5 45.015625 49.421875 
Q 45.015625 57.28125 41.125 61.84375 
Q 37.25 66.40625 30.609375 66.40625 
Q 23.96875 66.40625 20.09375 61.84375 
Q 16.21875 57.28125 16.21875 49.421875 
Q 16.21875 41.5 20.09375 36.953125 
Q 23.96875 32.421875 30.609375 32.421875 
" id="BitstreamVeraSans-Roman-39"/>
      </defs>
      <g transform="translate(1091.623125 1568.318125)scale(0.12 -0.12)">
       <use xlink:href="#BitstreamVeraSans-Roman-37"/>
       <use x="63.623046875" xlink:href="#BitstreamVeraSans-Roman-37"/>
       <use x="127.24609375" xlink:href="#BitstreamVeraSans-Roman-2e"/>
       <use x="159.033203125" xlink:href="#BitstreamVeraSans-Roman-32"/>
       <use x="222.65625" xlink:href="#BitstreamVeraSans-Roman-39"/>
      </g>
     </g>
    </g>
    <g id="xtick_6">
     <g id="line2d_12">
      <g>
       <use style="stroke:#000000;stroke-width:0.5;" x="1332.0" xlink:href="#mad4bc1a9ce" y="1555.2"/>
      </g>
     </g>
     <g id="line2d_13">
      <g>
       <use style="stroke:#000000;stroke-width:0.5;" x="1332.0" xlink:href="#m07e4eccad9" y="172.8"/>
      </g>
     </g>
     <g id="text_6">
      <!-- 77.30 -->
      <defs>
       <path d="M 40.578125 39.3125 
Q 47.65625 37.796875 51.625 33 
Q 55.609375 28.21875 55.609375 21.1875 
Q 55.609375 10.40625 48.1875 4.484375 
Q 40.765625 -1.421875 27.09375 -1.421875 
Q 22.515625 -1.421875 17.65625 -0.515625 
Q 12.796875 0.390625 7.625 2.203125 
L 7.625 11.71875 
Q 11.71875 9.328125 16.59375 8.109375 
Q 21.484375 6.890625 26.8125 6.890625 
Q 36.078125 6.890625 40.9375 10.546875 
Q 45.796875 14.203125 45.796875 21.1875 
Q 45.796875 27.640625 41.28125 31.265625 
Q 36.765625 34.90625 28.71875 34.90625 
L 20.21875 34.90625 
L 20.21875 43.015625 
L 29.109375 43.015625 
Q 36.375 43.015625 40.234375 45.921875 
Q 44.09375 48.828125 44.09375 54.296875 
Q 44.09375 59.90625 40.109375 62.90625 
Q 36.140625 65.921875 28.71875 65.921875 
Q 24.65625 65.921875 20.015625 65.03125 
Q 15.375 64.15625 9.8125 62.3125 
L 9.8125 71.09375 
Q 15.4375 72.65625 20.34375 73.4375 
Q 25.25 74.21875 29.59375 74.21875 
Q 40.828125 74.21875 47.359375 69.109375 
Q 53.90625 64.015625 53.90625 55.328125 
Q 53.90625 49.265625 50.4375 45.09375 
Q 46.96875 40.921875 40.578125 39.3125 
" id="BitstreamVeraSans-Roman-33"/>
       <path d="M 31.78125 66.40625 
Q 24.171875 66.40625 20.328125 58.90625 
Q 16.5 51.421875 16.5 36.375 
Q 16.5 21.390625 20.328125 13.890625 
Q 24.171875 6.390625 31.78125 6.390625 
Q 39.453125 6.390625 43.28125 13.890625 
Q 47.125 21.390625 47.125 36.375 
Q 47.125 51.421875 43.28125 58.90625 
Q 39.453125 66.40625 31.78125 66.40625 
M 31.78125 74.21875 
Q 44.046875 74.21875 50.515625 64.515625 
Q 56.984375 54.828125 56.984375 36.375 
Q 56.984375 17.96875 50.515625 8.265625 
Q 44.046875 -1.421875 31.78125 -1.421875 
Q 19.53125 -1.421875 13.0625 8.265625 
Q 6.59375 17.96875 6.59375 36.375 
Q 6.59375 54.828125 13.0625 64.515625 
Q 19.53125 74.21875 31.78125 74.21875 
" id="BitstreamVeraSans-Roman-30"/>
      </defs>
      <g transform="translate(1314.823125 1568.318125)scale(0.12 -0.12)">
       <use xlink:href="#BitstreamVeraSans-Roman-37"/>
       <use x="63.623046875" xlink:href="#BitstreamVeraSans-Roman-37"/>
       <use x="127.24609375" xlink:href="#BitstreamVeraSans-Roman-2e"/>
       <use x="159.033203125" xlink:href="#BitstreamVeraSans-Roman-33"/>
       <use x="222.65625" xlink:href="#BitstreamVeraSans-Roman-30"/>
      </g>
     </g>
    </g>
    <g id="xtick_7">
     <g id="line2d_14">
      <g>
       <use style="stroke:#000000;stroke-width:0.5;" x="1555.2" xlink:href="#mad4bc1a9ce" y="1555.2"/>
      </g>
     </g>
     <g id="line2d_15">
      <g>
       <use style="stroke:#000000;stroke-width:0.5;" x="1555.2" xlink:href="#m07e4eccad9" y="172.8"/>
      </g>
     </g>
     <g id="text_7">
      <!-- 77.31 -->
      <defs>
       <path d="M 12.40625 8.296875 
L 28.515625 8.296875 
L 28.515625 63.921875 
L 10.984375 60.40625 
L 10.984375 69.390625 
L 28.421875 72.90625 
L 38.28125 72.90625 
L 38.28125 8.296875 
L 54.390625 8.296875 
L 54.390625 0 
L 12.40625 0 
z
" id="BitstreamVeraSans-Roman-31"/>
      </defs>
      <g transform="translate(1538.023125 1568.318125)scale(0.12 -0.12)">
       <use xlink:href="#BitstreamVeraSans-Roman-37"/>
       <use x="63.623046875" xlink:href="#BitstreamVeraSans-Roman-37"/>
       <use x="127.24609375" xlink:href="#BitstreamVeraSans-Roman-2e"/>
       <use x="159.033203125" xlink:href="#BitstreamVeraSans-Roman-33"/>
       <use x="222.65625" xlink:href="#BitstreamVeraSans-Roman-31"/>
      </g>
     </g>
    </g>
   </g>
   <g id="matplotlib.axis_2">
    <g id="ytick_1">
     <g id="line2d_16">
      <defs>
       <path d="M 0 0 
L 4 0 
" id="md6ccf7fdbf" style="stroke:#000000;stroke-width:0.5;"/>
      </defs>
      <g>
       <use style="stroke:#000000;stroke-width:0.5;" x="216.0" xlink:href="#md6ccf7fdbf" y="1555.2"/>
      </g>
     </g>
     <g id="line2d_17">
      <defs>
       <path d="M 0 0 
L -4 0 
" id="m2b2f377313" style="stroke:#000000;stroke-width:0.5;"/>
      </defs>
      <g>
       <use style="stroke:#000000;stroke-width:0.5;" x="1555.2" xlink:href="#m2b2f377313" y="1555.2"/>
      </g>
     </g>
     <g id="text_8">
      <!-- 28.63 -->
      <g transform="translate(177.64625 1558.51125)scale(0.12 -0.12)">
       <use xlink:href="#BitstreamVeraSans-Roman-32"/>
       <use x="63.623046875" xlink:href="#BitstreamVeraSans-Roman-38"/>
       <use x="127.24609375" xlink:href="#BitstreamVeraSans-Roman-2e"/>
       <use x="159.033203125" xlink:href="#BitstreamVeraSans-Roman-36"/>
       <use x="222.65625" xlink:href="#BitstreamVeraSans-Roman-33"/>
      </g>
     </g>
    </g>
    <g id="ytick_2">
     <g id="line2d_18">
      <g>
       <use style="stroke:#000000;stroke-width:0.5;" x="216.0" xlink:href="#md6ccf7fdbf" y="1357.71428571"/>
      </g>
     </g>
     <g id="line2d_19">
      <g>
       <use style="stroke:#000000;stroke-width:0.5;" x="1555.2" xlink:href="#m2b2f377313" y="1357.71428571"/>
      </g>
     </g>
     <g id="text_9">
      <!-- 28.64 -->
      <defs>
       <path d="M 37.796875 64.3125 
L 12.890625 25.390625 
L 37.796875 25.390625 
z
M 35.203125 72.90625 
L 47.609375 72.90625 
L 47.609375 25.390625 
L 58.015625 25.390625 
L 58.015625 17.1875 
L 47.609375 17.1875 
L 47.609375 0 
L 37.796875 0 
L 37.796875 17.1875 
L 4.890625 17.1875 
L 4.890625 26.703125 
z
" id="BitstreamVeraSans-Roman-34"/>
      </defs>
      <g transform="translate(177.64625 1361.02553571)scale(0.12 -0.12)">
       <use xlink:href="#BitstreamVeraSans-Roman-32"/>
       <use x="63.623046875" xlink:href="#BitstreamVeraSans-Roman-38"/>
       <use x="127.24609375" xlink:href="#BitstreamVeraSans-Roman-2e"/>
       <use x="159.033203125" xlink:href="#BitstreamVeraSans-Roman-36"/>
       <use x="222.65625" xlink:href="#BitstreamVeraSans-Roman-34"/>
      </g>
     </g>
    </g>
    <g id="ytick_3">
     <g id="line2d_20">
      <g>
       <use style="stroke:#000000;stroke-width:0.5;" x="216.0" xlink:href="#md6ccf7fdbf" y="1160.22857143"/>
      </g>
     </g>
     <g id="line2d_21">
      <g>
       <use style="stroke:#000000;stroke-width:0.5;" x="1555.2" xlink:href="#m2b2f377313" y="1160.22857143"/>
      </g>
     </g>
     <g id="text_10">
      <!-- 28.65 -->
      <g transform="translate(177.64625 1163.53982143)scale(0.12 -0.12)">
       <use xlink:href="#BitstreamVeraSans-Roman-32"/>
       <use x="63.623046875" xlink:href="#BitstreamVeraSans-Roman-38"/>
       <use x="127.24609375" xlink:href="#BitstreamVeraSans-Roman-2e"/>
       <use x="159.033203125" xlink:href="#BitstreamVeraSans-Roman-36"/>
       <use x="222.65625" xlink:href="#BitstreamVeraSans-Roman-35"/>
      </g>
     </g>
    </g>
    <g id="ytick_4">
     <g id="line2d_22">
      <g>
       <use style="stroke:#000000;stroke-width:0.5;" x="216.0" xlink:href="#md6ccf7fdbf" y="962.742857143"/>
      </g>
     </g>
     <g id="line2d_23">
      <g>
       <use style="stroke:#000000;stroke-width:0.5;" x="1555.2" xlink:href="#m2b2f377313" y="962.742857143"/>
      </g>
     </g>
     <g id="text_11">
      <!-- 28.66 -->
      <g transform="translate(177.64625 966.054107143)scale(0.12 -0.12)">
       <use xlink:href="#BitstreamVeraSans-Roman-32"/>
       <use x="63.623046875" xlink:href="#BitstreamVeraSans-Roman-38"/>
       <use x="127.24609375" xlink:href="#BitstreamVeraSans-Roman-2e"/>
       <use x="159.033203125" xlink:href="#BitstreamVeraSans-Roman-36"/>
       <use x="222.65625" xlink:href="#BitstreamVeraSans-Roman-36"/>
      </g>
     </g>
    </g>
    <g id="ytick_5">
     <g id="line2d_24">
      <g>
       <use style="stroke:#000000;stroke-width:0.5;" x="216.0" xlink:href="#md6ccf7fdbf" y="765.257142857"/>
      </g>
     </g>
     <g id="line2d_25">
      <g>
       <use style="stroke:#000000;stroke-width:0.5;" x="1555.2" xlink:href="#m2b2f377313" y="765.257142857"/>
      </g>
     </g>
     <g id="text_12">
      <!-- 28.67 -->
      <g transform="translate(177.64625 768.568392857)scale(0.12 -0.12)">
       <use xlink:href="#BitstreamVeraSans-Roman-32"/>
       <use x="63.623046875" xlink:href="#BitstreamVeraSans-Roman-38"/>
       <use x="127.24609375" xlink:href="#BitstreamVeraSans-Roman-2e"/>
       <use x="159.033203125" xlink:href="#BitstreamVeraSans-Roman-36"/>
       <use x="222.65625" xlink:href="#BitstreamVeraSans-Roman-37"/>
      </g>
     </g>
    </g>
    <g id="ytick_6">
     <g id="line2d_26">
      <g>
       <use style="stroke:#000000;stroke-width:0.5;" x="216.0" xlink:href="#md6ccf7fdbf" y="567.771428571"/>
      </g>
     </g>
     <g id="line2d_27">
      <g>
       <use style="stroke:#000000;stroke-width:0.5;" x="1555.2" xlink:href="#m2b2f377313" y="567.771428571"/>
      </g>
     </g>
     <g id="text_13">
      <!-- 28.68 -->
      <g transform="translate(177.64625 571.082678571)scale(0.12 -0.12)">
       <use xlink:href="#BitstreamVeraSans-Roman-32"/>
       <use x="63.623046875" xlink:href="#BitstreamVeraSans-Roman-38"/>
       <use x="127.24609375" xlink:href="#BitstreamVeraSans-Roman-2e"/>
       <use x="159.033203125" xlink:href="#BitstreamVeraSans-Roman-36"/>
       <use x="222.65625" xlink:href="#BitstreamVeraSans-Roman-38"/>
      </g>
     </g>
    </g>
    <g id="ytick_7">
     <g id="line2d_28">
      <g>
       <use style="stroke:#000000;stroke-width:0.5;" x="216.0" xlink:href="#md6ccf7fdbf" y="370.285714286"/>
      </g>
     </g>
     <g id="line2d_29">
      <g>
       <use style="stroke:#000000;stroke-width:0.5;" x="1555.2" xlink:href="#m2b2f377313" y="370.285714286"/>
      </g>
     </g>
     <g id="text_14">
      <!-- 28.69 -->
      <g transform="translate(177.64625 373.596964286)scale(0.12 -0.12)">
       <use xlink:href="#BitstreamVeraSans-Roman-32"/>
       <use x="63.623046875" xlink:href="#BitstreamVeraSans-Roman-38"/>
       <use x="127.24609375" xlink:href="#BitstreamVeraSans-Roman-2e"/>
       <use x="159.033203125" xlink:href="#BitstreamVeraSans-Roman-36"/>
       <use x="222.65625" xlink:href="#BitstreamVeraSans-Roman-39"/>
      </g>
     </g>
    </g>
    <g id="ytick_8">
     <g id="line2d_30">
      <g>
       <use style="stroke:#000000;stroke-width:0.5;" x="216.0" xlink:href="#md6ccf7fdbf" y="172.8"/>
      </g>
     </g>
     <g id="line2d_31">
      <g>
       <use style="stroke:#000000;stroke-width:0.5;" x="1555.2" xlink:href="#m2b2f377313" y="172.8"/>
      </g>
     </g>
     <g id="text_15">
      <!-- 28.70 -->
      <g transform="translate(177.64625 176.11125)scale(0.12 -0.12)">
       <use xlink:href="#BitstreamVeraSans-Roman-32"/>
       <use x="63.623046875" xlink:href="#BitstreamVeraSans-Roman-38"/>
       <use x="127.24609375" xlink:href="#BitstreamVeraSans-Roman-2e"/>
       <use x="159.033203125" xlink:href="#BitstreamVeraSans-Roman-37"/>
       <use x="222.65625" xlink:href="#BitstreamVeraSans-Roman-30"/>
      </g>
     </g>
    </g>
   </g>
   <g id="patch_7">
    <path d="M 494.982169 775.648353 
Q 501.381846 769.486578 506.976125 764.100261 
" style="fill:none;stroke:#ff0000;stroke-linecap:round;"/>
    <path d="M 504.41493 764.900435 
L 506.976125 764.100261 
L 506.079547 766.629322 
" style="fill:none;stroke:#ff0000;stroke-linecap:round;"/>
   </g>
   <g id="text_16">
    <!-- 0 -->
    <g style="fill:#ff0000;" transform="translate(487.224536 782.935433143)scale(0.06 -0.06)">
     <use xlink:href="#BitstreamVeraSans-Roman-30"/>
    </g>
   </g>
   <g id="patch_8">
    <path d="M 563.861431 662.439895 
Q 569.151045 670.873568 573.846602 678.360089 
" style="fill:none;stroke:#ff0000;stroke-linecap:round;"/>
    <path d="M 573.587978 675.6893 
L 573.846602 678.360089 
L 571.554797 676.964514 
" style="fill:none;stroke:#ff0000;stroke-linecap:round;"/>
   </g>
   <g id="text_17">
    <!-- 1 -->
    <g style="fill:#ff0000;" transform="translate(557.502133248 656.999639698)scale(0.06 -0.06)">
     <use xlink:href="#BitstreamVeraSans-Roman-31"/>
    </g>
   </g>
   <g id="patch_9">
    <path d="M 772.24783 527.857064 
Q 764.857495 535.836661 758.226863 542.995981 
" style="fill:none;stroke:#ff0000;stroke-linecap:round;"/>
    <path d="M 760.738071 542.050553 
L 758.226863 542.995981 
L 758.977245 540.419758 
" style="fill:none;stroke:#ff0000;stroke-linecap:round;"/>
   </g>
   <g id="text_18">
    <!-- 2 -->
    <g style="fill:#ff0000;" transform="translate(776.109852632 523.281789001)scale(0.06 -0.06)">
     <use xlink:href="#BitstreamVeraSans-Roman-32"/>
    </g>
   </g>
   <g id="patch_10">
    <path d="M 830.670272 528.241617 
Q 821.812141 537.365354 813.732817 545.686931 
" style="fill:none;stroke:#ff0000;stroke-linecap:round;"/>
    <path d="M 816.265592 544.800899 
L 813.732817 545.686931 
L 814.543657 543.129092 
" style="fill:none;stroke:#ff0000;stroke-linecap:round;"/>
   </g>
   <g id="text_19">
    <!-- 3 -->
    <g style="fill:#ff0000;" transform="translate(834.5614352 523.923421111)scale(0.06 -0.06)">
     <use xlink:href="#BitstreamVeraSans-Roman-33"/>
    </g>
   </g>
   <g id="patch_11">
    <path d="M 855.06173 319.071409 
Q 861.17124 326.641594 866.578587 333.34174 
" style="fill:none;stroke:#ff0000;stroke-linecap:round;"/>
    <path d="M 866.005128 330.720453 
L 866.578587 333.34174 
L 864.137482 332.227735 
" style="fill:none;stroke:#ff0000;stroke-linecap:round;"/>
   </g>
   <g id="text_20">
    <!-- 4 -->
    <g style="fill:#ff0000;" transform="translate(847.53571272 313.766779465)scale(0.06 -0.06)">
     <use xlink:href="#BitstreamVeraSans-Roman-34"/>
    </g>
   </g>
   <g id="patch_12">
    <path d="M 916.460488 688.855634 
Q 922.020266 695.510811 926.863246 701.307966 
" style="fill:none;stroke:#ff0000;stroke-linecap:round;"/>
    <path d="M 926.245477 698.696767 
L 926.863246 701.307966 
L 924.403626 700.235461 
" style="fill:none;stroke:#ff0000;stroke-linecap:round;"/>
   </g>
   <g id="text_21">
    <!-- 5 -->
    <g style="fill:#ff0000;" transform="translate(908.860624 683.698870857)scale(0.06 -0.06)">
     <use xlink:href="#BitstreamVeraSans-Roman-35"/>
    </g>
   </g>
   <g id="patch_13">
    <path d="M 880.326791 743.031834 
Q 886.693639 737.218564 892.234839 732.159155 
" style="fill:none;stroke:#ff0000;stroke-linecap:round;"/>
    <path d="M 889.653354 732.891232 
L 892.234839 732.159155 
L 891.27161 734.663589 
" style="fill:none;stroke:#ff0000;stroke-linecap:round;"/>
   </g>
   <g id="text_22">
    <!-- 6 -->
    <g style="fill:#ff0000;" transform="translate(872.534696 750.059264)scale(0.06 -0.06)">
     <use xlink:href="#BitstreamVeraSans-Roman-36"/>
    </g>
   </g>
   <g id="patch_14">
    <path d="M 1060.035417 912.947042 
Q 1051.830949 919.692018 1044.490126 925.726983 
" style="fill:none;stroke:#ff0000;stroke-linecap:round;"/>
    <path d="M 1047.106113 925.129816 
L 1044.490126 925.726983 
L 1045.581984 923.275893 
" style="fill:none;stroke:#ff0000;stroke-linecap:round;"/>
   </g>
   <g id="text_23">
    <!-- 7 -->
    <g style="fill:#ff0000;" transform="translate(1064.08136178 909.707252297)scale(0.06 -0.06)">
     <use xlink:href="#BitstreamVeraSans-Roman-37"/>
    </g>
   </g>
   <g id="patch_15">
    <path d="M 1096.026006 982.459563 
Q 1100.968319 990.861658 1105.343775 998.300078 
" style="fill:none;stroke:#ff0000;stroke-linecap:round;"/>
    <path d="M 1105.16127 995.62301 
L 1105.343775 998.300078 
L 1103.092618 996.83984 
" style="fill:none;stroke:#ff0000;stroke-linecap:round;"/>
   </g>
   <g id="text_24">
    <!-- 8 -->
    <g style="fill:#ff0000;" transform="translate(1089.9258387 976.989638948)scale(0.06 -0.06)">
     <use xlink:href="#BitstreamVeraSans-Roman-38"/>
    </g>
   </g>
   <g id="patch_16">
    <path d="M 1230.39595 1201.223232 
Q 1235.803861 1206.500924 1240.411627 1210.997738 
" style="fill:none;stroke:#ff0000;stroke-linecap:round;"/>
    <path d="M 1239.532142 1208.462682 
L 1240.411627 1210.997738 
L 1237.855892 1210.180292 
" style="fill:none;stroke:#ff0000;stroke-linecap:round;"/>
   </g>
   <g id="text_25">
    <!-- 9 -->
    <g style="fill:#ff0000;" transform="translate(1222.644112 1197.17646629)scale(0.06 -0.06)">
     <use xlink:href="#BitstreamVeraSans-Roman-39"/>
    </g>
   </g>
   <g id="patch_17">
    <path d="M 1243.020932 1202.958324 
Q 1246.891107 1210.791001 1250.266014 1217.621327 
" style="fill:none;stroke:#ff0000;stroke-linecap:round;"/>
    <path d="M 1250.278695 1214.938075 
L 1250.266014 1217.621327 
L 1248.127021 1216.001231 
" style="fill:none;stroke:#ff0000;stroke-linecap:round;"/>
   </g>
   <g id="text_26">
    <!-- 10 -->
    <g style="fill:#ff0000;" transform="translate(1235.648 1197.41826743)scale(0.06 -0.06)">
     <use xlink:href="#BitstreamVeraSans-Roman-31"/>
     <use x="63.623046875" xlink:href="#BitstreamVeraSans-Roman-30"/>
    </g>
   </g>
   <g id="patch_18">
    <path d="M 1318.746124 1292.93221 
Q 1311.042107 1286.616771 1304.202731 1281.01013 
" style="fill:none;stroke:#ff0000;stroke-linecap:round;"/>
    <path d="M 1305.298031 1283.459684 
L 1304.202731 1281.01013 
L 1306.819555 1281.603622 
" style="fill:none;stroke:#ff0000;stroke-linecap:round;"/>
   </g>
   <g id="text_27">
    <!-- 11 -->
    <g style="fill:#ff0000;" transform="translate(1322.792112 1301.03400229)scale(0.06 -0.06)">
     <use xlink:href="#BitstreamVeraSans-Roman-31"/>
     <use x="63.623046875" xlink:href="#BitstreamVeraSans-Roman-31"/>
    </g>
   </g>
   <g id="patch_19">
    <path d="M 1419.335137 1407.797231 
Q 1421.83658 1404.851889 1423.614282 1402.758721 
" style="fill:none;stroke:#ff0000;stroke-linecap:round;"/>
    <path d="M 1421.146033 1403.811218 
L 1423.614282 1402.758721 
L 1422.975331 1405.364818 
" style="fill:none;stroke:#ff0000;stroke-linecap:round;"/>
   </g>
   <g id="text_28">
    <!-- 12 -->
    <g style="fill:#ff0000;" transform="translate(1409.6325607 1416.3822829)scale(0.06 -0.06)">
     <use xlink:href="#BitstreamVeraSans-Roman-31"/>
     <use x="63.623046875" xlink:href="#BitstreamVeraSans-Roman-32"/>
    </g>
   </g>
   <g id="patch_20">
    <path d="M 1207.466695 1319.520025 
Q 1211.417458 1327.840097 1214.888646 1335.150215 
" style="fill:none;stroke:#ff0000;stroke-linecap:round;"/>
    <path d="M 1214.943178 1332.467488 
L 1214.888646 1335.150215 
L 1212.775183 1333.496954 
" style="fill:none;stroke:#ff0000;stroke-linecap:round;"/>
   </g>
   <g id="text_29">
    <!-- 13 -->
    <g style="fill:#ff0000;" transform="translate(1200.22573369 1313.96604211)scale(0.06 -0.06)">
     <use xlink:href="#BitstreamVeraSans-Roman-31"/>
     <use x="63.623046875" xlink:href="#BitstreamVeraSans-Roman-33"/>
    </g>
   </g>
   <g id="patch_21">
    <path d="M 1178.354787 1296.158262 
Q 1182.546868 1289.849265 1186.120199 1284.471475 
" style="fill:none;stroke:#ff0000;stroke-linecap:round;"/>
    <path d="M 1183.792496 1285.806315 
L 1186.120199 1284.471475 
L 1185.791449 1287.134542 
" style="fill:none;stroke:#ff0000;stroke-linecap:round;"/>
   </g>
   <g id="text_30">
    <!-- 14 -->
    <g style="fill:#ff0000;" transform="translate(1169.84401898 1304.87716067)scale(0.06 -0.06)">
     <use xlink:href="#BitstreamVeraSans-Roman-31"/>
     <use x="63.623046875" xlink:href="#BitstreamVeraSans-Roman-34"/>
    </g>
   </g>
   <g id="patch_22">
    <path d="M 1017.336557 1298.728769 
Q 1023.164484 1293.14286 1028.18526 1288.330583 
" style="fill:none;stroke:#ff0000;stroke-linecap:round;"/>
    <path d="M 1025.622259 1289.124957 
L 1028.18526 1288.330583 
L 1027.282958 1290.857608 
" style="fill:none;stroke:#ff0000;stroke-linecap:round;"/>
   </g>
   <g id="text_31">
    <!-- 15 -->
    <g style="fill:#ff0000;" transform="translate(1006.43460276 1307.17464927)scale(0.06 -0.06)">
     <use xlink:href="#BitstreamVeraSans-Roman-31"/>
     <use x="63.623046875" xlink:href="#BitstreamVeraSans-Roman-35"/>
    </g>
   </g>
   <g id="patch_23">
    <path d="M 312.195379 878.334994 
Q 315.984915 874.741726 318.963152 871.917738 
" style="fill:none;stroke:#ff0000;stroke-linecap:round;"/>
    <path d="M 316.395917 872.698318 
L 318.963152 871.917738 
L 318.047274 874.439874 
" style="fill:none;stroke:#ff0000;stroke-linecap:round;"/>
   </g>
   <g id="text_32">
    <!-- 16 -->
    <g style="fill:#ff0000;" transform="translate(301.22764 886.770532571)scale(0.06 -0.06)">
     <use xlink:href="#BitstreamVeraSans-Roman-31"/>
     <use x="63.623046875" xlink:href="#BitstreamVeraSans-Roman-36"/>
    </g>
   </g>
   <g id="patch_24">
    <path d="M 398.699228 789.023466 
Q 403.13621 794.138539 406.840588 798.409046 
" style="fill:none;stroke:#ff0000;stroke-linecap:round;"/>
    <path d="M 406.174445 795.809767 
L 406.840588 798.409046 
L 404.361479 797.382393 
" style="fill:none;stroke:#ff0000;stroke-linecap:round;"/>
   </g>
   <g id="text_33">
    <!-- 17 -->
    <g style="fill:#ff0000;" transform="translate(388.8835252 783.764199424)scale(0.06 -0.06)">
     <use xlink:href="#BitstreamVeraSans-Roman-31"/>
     <use x="63.623046875" xlink:href="#BitstreamVeraSans-Roman-37"/>
    </g>
   </g>
   <g id="patch_25">
    <path d="M 331.046881 556.372754 
Q 335.679273 549.555174 339.683315 543.66235 
" style="fill:none;stroke:#ff0000;stroke-linecap:round;"/>
    <path d="M 337.341927 544.973038 
L 339.683315 543.66235 
L 339.327033 546.321873 
" style="fill:none;stroke:#ff0000;stroke-linecap:round;"/>
   </g>
   <g id="text_34">
    <!-- 18 -->
    <g style="fill:#ff0000;" transform="translate(322.43520824 565.084054382)scale(0.06 -0.06)">
     <use xlink:href="#BitstreamVeraSans-Roman-31"/>
     <use x="63.623046875" xlink:href="#BitstreamVeraSans-Roman-38"/>
    </g>
   </g>
   <g id="patch_26">
    <path d="M 282.75983 686.332055 
Q 288.427833 694.795094 293.47369 702.32919 
" style="fill:none;stroke:#ff0000;stroke-linecap:round;"/>
    <path d="M 293.135221 699.667341 
L 293.47369 702.32919 
L 291.14113 701.002856 
" style="fill:none;stroke:#ff0000;stroke-linecap:round;"/>
   </g>
   <g id="text_35">
    <!-- 19 -->
    <g style="fill:#ff0000;" transform="translate(274.209832032 680.921467392)scale(0.06 -0.06)">
     <use xlink:href="#BitstreamVeraSans-Roman-31"/>
     <use x="63.623046875" xlink:href="#BitstreamVeraSans-Roman-39"/>
    </g>
   </g>
   <g id="patch_27">
    <path d="M 296.558103 697.896146 
Q 301.306038 703.05114 305.296539 707.383763 
" style="fill:none;stroke:#ff0000;stroke-linecap:round;"/>
    <path d="M 304.553274 704.805477 
L 305.296539 707.383763 
L 302.787951 706.431403 
" style="fill:none;stroke:#ff0000;stroke-linecap:round;"/>
   </g>
   <g id="text_36">
    <!-- 20 -->
    <g style="fill:#ff0000;" transform="translate(286.40749776 692.67570293)scale(0.06 -0.06)">
     <use xlink:href="#BitstreamVeraSans-Roman-32"/>
     <use x="63.623046875" xlink:href="#BitstreamVeraSans-Roman-30"/>
    </g>
   </g>
   <g id="patch_28">
    <path d="M 526.14693 775.125848 
Q 518.473806 769.144916 511.682483 763.851317 
" style="fill:none;stroke:#ff0000;stroke-linecap:round;"/>
    <path d="M 512.837656 766.273212 
L 511.682483 763.851317 
L 514.313103 764.380315 
" style="fill:none;stroke:#ff0000;stroke-linecap:round;"/>
   </g>
   <g id="text_37">
    <!-- 21 -->
    <g style="fill:#ff0000;" transform="translate(530.224536 782.935433143)scale(0.06 -0.06)">
     <use xlink:href="#BitstreamVeraSans-Roman-32"/>
     <use x="63.623046875" xlink:href="#BitstreamVeraSans-Roman-31"/>
    </g>
   </g>
   <g id="text_38">
    <!-- TSP: 11, Cost: 19, N: 21 -->
    <defs>
     <path id="BitstreamVeraSans-Roman-20"/>
     <path d="M 9.8125 72.90625 
L 23.09375 72.90625 
L 55.421875 11.921875 
L 55.421875 72.90625 
L 64.984375 72.90625 
L 64.984375 0 
L 51.703125 0 
L 19.390625 60.984375 
L 19.390625 0 
L 9.8125 0 
z
" id="BitstreamVeraSans-Roman-4e"/>
     <path d="M 30.609375 48.390625 
Q 23.390625 48.390625 19.1875 42.75 
Q 14.984375 37.109375 14.984375 27.296875 
Q 14.984375 17.484375 19.15625 11.84375 
Q 23.34375 6.203125 30.609375 6.203125 
Q 37.796875 6.203125 41.984375 11.859375 
Q 46.1875 17.53125 46.1875 27.296875 
Q 46.1875 37.015625 41.984375 42.703125 
Q 37.796875 48.390625 30.609375 48.390625 
M 30.609375 56 
Q 42.328125 56 49.015625 48.375 
Q 55.71875 40.765625 55.71875 27.296875 
Q 55.71875 13.875 49.015625 6.21875 
Q 42.328125 -1.421875 30.609375 -1.421875 
Q 18.84375 -1.421875 12.171875 6.21875 
Q 5.515625 13.875 5.515625 27.296875 
Q 5.515625 40.765625 12.171875 48.375 
Q 18.84375 56 30.609375 56 
" id="BitstreamVeraSans-Roman-6f"/>
     <path d="M 19.671875 64.796875 
L 19.671875 37.40625 
L 32.078125 37.40625 
Q 38.96875 37.40625 42.71875 40.96875 
Q 46.484375 44.53125 46.484375 51.125 
Q 46.484375 57.671875 42.71875 61.234375 
Q 38.96875 64.796875 32.078125 64.796875 
z
M 9.8125 72.90625 
L 32.078125 72.90625 
Q 44.34375 72.90625 50.609375 67.359375 
Q 56.890625 61.8125 56.890625 51.125 
Q 56.890625 40.328125 50.609375 34.8125 
Q 44.34375 29.296875 32.078125 29.296875 
L 19.671875 29.296875 
L 19.671875 0 
L 9.8125 0 
z
" id="BitstreamVeraSans-Roman-50"/>
     <path d="M 11.71875 12.40625 
L 22.015625 12.40625 
L 22.015625 4 
L 14.015625 -11.625 
L 7.71875 -11.625 
L 11.71875 4 
z
" id="BitstreamVeraSans-Roman-2c"/>
     <path d="M 53.515625 70.515625 
L 53.515625 60.890625 
Q 47.90625 63.578125 42.921875 64.890625 
Q 37.9375 66.21875 33.296875 66.21875 
Q 25.25 66.21875 20.875 63.09375 
Q 16.5 59.96875 16.5 54.203125 
Q 16.5 49.359375 19.40625 46.890625 
Q 22.3125 44.4375 30.421875 42.921875 
L 36.375 41.703125 
Q 47.40625 39.59375 52.65625 34.296875 
Q 57.90625 29 57.90625 20.125 
Q 57.90625 9.515625 50.796875 4.046875 
Q 43.703125 -1.421875 29.984375 -1.421875 
Q 24.8125 -1.421875 18.96875 -0.25 
Q 13.140625 0.921875 6.890625 3.21875 
L 6.890625 13.375 
Q 12.890625 10.015625 18.65625 8.296875 
Q 24.421875 6.59375 29.984375 6.59375 
Q 38.421875 6.59375 43.015625 9.90625 
Q 47.609375 13.234375 47.609375 19.390625 
Q 47.609375 24.75 44.3125 27.78125 
Q 41.015625 30.8125 33.5 32.328125 
L 27.484375 33.5 
Q 16.453125 35.6875 11.515625 40.375 
Q 6.59375 45.0625 6.59375 53.421875 
Q 6.59375 63.09375 13.40625 68.65625 
Q 20.21875 74.21875 32.171875 74.21875 
Q 37.3125 74.21875 42.625 73.28125 
Q 47.953125 72.359375 53.515625 70.515625 
" id="BitstreamVeraSans-Roman-53"/>
     <path d="M -0.296875 72.90625 
L 61.375 72.90625 
L 61.375 64.59375 
L 35.5 64.59375 
L 35.5 0 
L 25.59375 0 
L 25.59375 64.59375 
L -0.296875 64.59375 
z
" id="BitstreamVeraSans-Roman-54"/>
     <path d="M 64.40625 67.28125 
L 64.40625 56.890625 
Q 59.421875 61.53125 53.78125 63.8125 
Q 48.140625 66.109375 41.796875 66.109375 
Q 29.296875 66.109375 22.65625 58.46875 
Q 16.015625 50.828125 16.015625 36.375 
Q 16.015625 21.96875 22.65625 14.328125 
Q 29.296875 6.6875 41.796875 6.6875 
Q 48.140625 6.6875 53.78125 8.984375 
Q 59.421875 11.28125 64.40625 15.921875 
L 64.40625 5.609375 
Q 59.234375 2.09375 53.4375 0.328125 
Q 47.65625 -1.421875 41.21875 -1.421875 
Q 24.65625 -1.421875 15.125 8.703125 
Q 5.609375 18.84375 5.609375 36.375 
Q 5.609375 53.953125 15.125 64.078125 
Q 24.65625 74.21875 41.21875 74.21875 
Q 47.75 74.21875 53.53125 72.484375 
Q 59.328125 70.75 64.40625 67.28125 
" id="BitstreamVeraSans-Roman-43"/>
     <path d="M 18.3125 70.21875 
L 18.3125 54.6875 
L 36.8125 54.6875 
L 36.8125 47.703125 
L 18.3125 47.703125 
L 18.3125 18.015625 
Q 18.3125 11.328125 20.140625 9.421875 
Q 21.96875 7.515625 27.59375 7.515625 
L 36.8125 7.515625 
L 36.8125 0 
L 27.59375 0 
Q 17.1875 0 13.234375 3.875 
Q 9.28125 7.765625 9.28125 18.015625 
L 9.28125 47.703125 
L 2.6875 47.703125 
L 2.6875 54.6875 
L 9.28125 54.6875 
L 9.28125 70.21875 
z
" id="BitstreamVeraSans-Roman-74"/>
     <path d="M 11.71875 12.40625 
L 22.015625 12.40625 
L 22.015625 0 
L 11.71875 0 
z
M 11.71875 51.703125 
L 22.015625 51.703125 
L 22.015625 39.3125 
L 11.71875 39.3125 
z
" id="BitstreamVeraSans-Roman-3a"/>
     <path d="M 44.28125 53.078125 
L 44.28125 44.578125 
Q 40.484375 46.53125 36.375 47.5 
Q 32.28125 48.484375 27.875 48.484375 
Q 21.1875 48.484375 17.84375 46.4375 
Q 14.5 44.390625 14.5 40.28125 
Q 14.5 37.15625 16.890625 35.375 
Q 19.28125 33.59375 26.515625 31.984375 
L 29.59375 31.296875 
Q 39.15625 29.25 43.1875 25.515625 
Q 47.21875 21.78125 47.21875 15.09375 
Q 47.21875 7.46875 41.1875 3.015625 
Q 35.15625 -1.421875 24.609375 -1.421875 
Q 20.21875 -1.421875 15.453125 -0.5625 
Q 10.6875 0.296875 5.421875 2 
L 5.421875 11.28125 
Q 10.40625 8.6875 15.234375 7.390625 
Q 20.0625 6.109375 24.8125 6.109375 
Q 31.15625 6.109375 34.5625 8.28125 
Q 37.984375 10.453125 37.984375 14.40625 
Q 37.984375 18.0625 35.515625 20.015625 
Q 33.0625 21.96875 24.703125 23.78125 
L 21.578125 24.515625 
Q 13.234375 26.265625 9.515625 29.90625 
Q 5.8125 33.546875 5.8125 39.890625 
Q 5.8125 47.609375 11.28125 51.796875 
Q 16.75 56 26.8125 56 
Q 31.78125 56 36.171875 55.265625 
Q 40.578125 54.546875 44.28125 53.078125 
" id="BitstreamVeraSans-Roman-73"/>
    </defs>
    <g transform="translate(800.116875 167.8)scale(0.144 -0.144)">
     <use xlink:href="#BitstreamVeraSans-Roman-54"/>
     <use x="61.083984375" xlink:href="#BitstreamVeraSans-Roman-53"/>
     <use x="124.560546875" xlink:href="#BitstreamVeraSans-Roman-50"/>
     <use x="184.86328125" xlink:href="#BitstreamVeraSans-Roman-3a"/>
     <use x="218.5546875" xlink:href="#BitstreamVeraSans-Roman-20"/>
     <use x="250.341796875" xlink:href="#BitstreamVeraSans-Roman-31"/>
     <use x="313.96484375" xlink:href="#BitstreamVeraSans-Roman-31"/>
     <use x="377.587890625" xlink:href="#BitstreamVeraSans-Roman-2c"/>
     <use x="409.375" xlink:href="#BitstreamVeraSans-Roman-20"/>
     <use x="441.162109375" xlink:href="#BitstreamVeraSans-Roman-43"/>
     <use x="510.986328125" xlink:href="#BitstreamVeraSans-Roman-6f"/>
     <use x="572.16796875" xlink:href="#BitstreamVeraSans-Roman-73"/>
     <use x="624.267578125" xlink:href="#BitstreamVeraSans-Roman-74"/>
     <use x="663.4765625" xlink:href="#BitstreamVeraSans-Roman-3a"/>
     <use x="697.16796875" xlink:href="#BitstreamVeraSans-Roman-20"/>
     <use x="728.955078125" xlink:href="#BitstreamVeraSans-Roman-31"/>
     <use x="792.578125" xlink:href="#BitstreamVeraSans-Roman-39"/>
     <use x="856.201171875" xlink:href="#BitstreamVeraSans-Roman-2c"/>
     <use x="887.98828125" xlink:href="#BitstreamVeraSans-Roman-20"/>
     <use x="919.775390625" xlink:href="#BitstreamVeraSans-Roman-4e"/>
     <use x="994.580078125" xlink:href="#BitstreamVeraSans-Roman-3a"/>
     <use x="1028.27148438" xlink:href="#BitstreamVeraSans-Roman-20"/>
     <use x="1060.05859375" xlink:href="#BitstreamVeraSans-Roman-32"/>
     <use x="1123.68164062" xlink:href="#BitstreamVeraSans-Roman-31"/>
    </g>
   </g>
  </g>
 </g>
 <defs>
  <clipPath id="p5170a0e296">
   <rect height="1382.4" width="1339.2" x="216.0" y="172.8"/>
  </clipPath>
 </defs>
</svg>
