<?xml version="1.0" encoding="utf-8" standalone="no"?>
<!DOCTYPE svg PUBLIC "-//W3C//DTD SVG 1.1//EN"
  "http://www.w3.org/Graphics/SVG/1.1/DTD/svg11.dtd">
<!-- Created with matplotlib (http://matplotlib.org/) -->
<svg height="1728pt" version="1.1" viewBox="0 0 1728 1728" width="1728pt" xmlns="http://www.w3.org/2000/svg" xmlns:xlink="http://www.w3.org/1999/xlink">
 <defs>
  <style type="text/css">
*{stroke-linecap:butt;stroke-linejoin:round;stroke-miterlimit:100000;}
  </style>
 </defs>
 <g id="figure_1">
  <g id="patch_1">
   <path d="M 0 1728 
L 1728 1728 
L 1728 0 
L 0 0 
z
" style="fill:#ffffff;"/>
  </g>
  <g id="axes_1">
   <g id="patch_2">
    <path d="M 216 1555.2 
L 1555.2 1555.2 
L 1555.2 172.8 
L 216 172.8 
z
" style="fill:#ffffff;"/>
   </g>
   <g id="line2d_1">
    <path clip-path="url(#p96bb2bf62b)" d="M 1476.435761 712.02196 
L 1414.925859 963.584591 
L 1316.074848 1272.787841 
L 1317.462625 1361.861505 
L 1070.231722 1401.280089 
L 1033.913701 1323.004588 
L 895.362116 1023.027962 
L 856.785553 946.464438 
L 779.545776 790.803895 
L 740.082564 710.070939 
L 653.63568 560.047762 
L 357.98496 908.770011 
L 390.009006 734.581963 
L 508.098468 633.368037 
L 741.643654 427.736817 
L 959.7553 204.836372 
L 1115.255024 222.408255 
L 1374.972284 412.273918 
L 1287.199345 551.745803 
L 1476.435761 712.02196 
" style="fill:none;stroke:#000000;stroke-linecap:square;"/>
    <defs>
     <path d="M 0 2.5 
C 0.663008 2.5 1.29895 2.236584 1.767767 1.767767 
C 2.236584 1.29895 2.5 0.663008 2.5 0 
C 2.5 -0.663008 2.236584 -1.29895 1.767767 -1.767767 
C 1.29895 -2.236584 0.663008 -2.5 0 -2.5 
C -0.663008 -2.5 -1.29895 -2.236584 -1.767767 -1.767767 
C -2.236584 -1.29895 -2.5 -0.663008 -2.5 0 
C -2.5 0.663008 -2.236584 1.29895 -1.767767 1.767767 
C -1.29895 2.236584 -0.663008 2.5 0 2.5 
z
" id="mdaf39de96d" style="stroke:#000000;stroke-width:0.5;"/>
    </defs>
    <g clip-path="url(#p96bb2bf62b)">
     <use style="fill:#00ff00;stroke:#000000;stroke-width:0.5;" x="1476.43576147" xlink:href="#mdaf39de96d" y="712.021959607"/>
     <use style="fill:#00ff00;stroke:#000000;stroke-width:0.5;" x="1414.92585907" xlink:href="#mdaf39de96d" y="963.584590629"/>
     <use style="fill:#00ff00;stroke:#000000;stroke-width:0.5;" x="1316.07484814" xlink:href="#mdaf39de96d" y="1272.78784117"/>
     <use style="fill:#00ff00;stroke:#000000;stroke-width:0.5;" x="1317.46262539" xlink:href="#mdaf39de96d" y="1361.86150546"/>
     <use style="fill:#00ff00;stroke:#000000;stroke-width:0.5;" x="1070.2317215" xlink:href="#mdaf39de96d" y="1401.2800885"/>
     <use style="fill:#00ff00;stroke:#000000;stroke-width:0.5;" x="1033.91370077" xlink:href="#mdaf39de96d" y="1323.00458759"/>
     <use style="fill:#00ff00;stroke:#000000;stroke-width:0.5;" x="895.362116256" xlink:href="#mdaf39de96d" y="1023.02796244"/>
     <use style="fill:#00ff00;stroke:#000000;stroke-width:0.5;" x="856.785552576" xlink:href="#mdaf39de96d" y="946.464437541"/>
     <use style="fill:#00ff00;stroke:#000000;stroke-width:0.5;" x="779.545776" xlink:href="#mdaf39de96d" y="790.803894857"/>
     <use style="fill:#00ff00;stroke:#000000;stroke-width:0.5;" x="740.082563712" xlink:href="#mdaf39de96d" y="710.07093899"/>
     <use style="fill:#00ff00;stroke:#000000;stroke-width:0.5;" x="653.63568" xlink:href="#mdaf39de96d" y="560.047762286"/>
     <use style="fill:#00ff00;stroke:#000000;stroke-width:0.5;" x="357.98496" xlink:href="#mdaf39de96d" y="908.770011429"/>
     <use style="fill:#00ff00;stroke:#000000;stroke-width:0.5;" x="390.009005568" xlink:href="#mdaf39de96d" y="734.581963337"/>
     <use style="fill:#00ff00;stroke:#000000;stroke-width:0.5;" x="508.098468192" xlink:href="#mdaf39de96d" y="633.368036571"/>
     <use style="fill:#00ff00;stroke:#000000;stroke-width:0.5;" x="741.643654272" xlink:href="#mdaf39de96d" y="427.73681664"/>
     <use style="fill:#00ff00;stroke:#000000;stroke-width:0.5;" x="959.755299888" xlink:href="#mdaf39de96d" y="204.836371529"/>
     <use style="fill:#00ff00;stroke:#000000;stroke-width:0.5;" x="1115.25502435" xlink:href="#mdaf39de96d" y="222.408255415"/>
     <use style="fill:#00ff00;stroke:#000000;stroke-width:0.5;" x="1374.97228382" xlink:href="#mdaf39de96d" y="412.273918245"/>
     <use style="fill:#00ff00;stroke:#000000;stroke-width:0.5;" x="1287.1993451" xlink:href="#mdaf39de96d" y="551.745802533"/>
     <use style="fill:#00ff00;stroke:#000000;stroke-width:0.5;" x="1476.43576147" xlink:href="#mdaf39de96d" y="712.021959607"/>
    </g>
   </g>
   <g id="patch_3">
    <path d="M 216 172.8 
L 1555.2 172.8 
" style="fill:none;stroke:#000000;stroke-linecap:square;stroke-linejoin:miter;"/>
   </g>
   <g id="patch_4">
    <path d="M 1555.2 1555.2 
L 1555.2 172.8 
" style="fill:none;stroke:#000000;stroke-linecap:square;stroke-linejoin:miter;"/>
   </g>
   <g id="patch_5">
    <path d="M 216 1555.2 
L 1555.2 1555.2 
" style="fill:none;stroke:#000000;stroke-linecap:square;stroke-linejoin:miter;"/>
   </g>
   <g id="patch_6">
    <path d="M 216 1555.2 
L 216 172.8 
" style="fill:none;stroke:#000000;stroke-linecap:square;stroke-linejoin:miter;"/>
   </g>
   <g id="matplotlib.axis_1">
    <g id="xtick_1">
     <g id="line2d_2">
      <defs>
       <path d="M 0 0 
L 0 -4 
" id="m6e316386a9" style="stroke:#000000;stroke-width:0.5;"/>
      </defs>
      <g>
       <use style="stroke:#000000;stroke-width:0.5;" x="364.8" xlink:href="#m6e316386a9" y="1555.2"/>
      </g>
     </g>
     <g id="line2d_3">
      <defs>
       <path d="M 0 0 
L 0 4 
" id="ma1b3b94c1a" style="stroke:#000000;stroke-width:0.5;"/>
      </defs>
      <g>
       <use style="stroke:#000000;stroke-width:0.5;" x="364.8" xlink:href="#ma1b3b94c1a" y="172.8"/>
      </g>
     </g>
     <g id="text_1">
      <!-- 76.92 -->
      <defs>
       <path d="M 19.1875 8.296875 
L 53.609375 8.296875 
L 53.609375 0 
L 7.328125 0 
L 7.328125 8.296875 
Q 12.9375 14.109375 22.625 23.890625 
Q 32.328125 33.6875 34.8125 36.53125 
Q 39.546875 41.84375 41.421875 45.53125 
Q 43.3125 49.21875 43.3125 52.78125 
Q 43.3125 58.59375 39.234375 62.25 
Q 35.15625 65.921875 28.609375 65.921875 
Q 23.96875 65.921875 18.8125 64.3125 
Q 13.671875 62.703125 7.8125 59.421875 
L 7.8125 69.390625 
Q 13.765625 71.78125 18.9375 73 
Q 24.125 74.21875 28.421875 74.21875 
Q 39.75 74.21875 46.484375 68.546875 
Q 53.21875 62.890625 53.21875 53.421875 
Q 53.21875 48.921875 51.53125 44.890625 
Q 49.859375 40.875 45.40625 35.40625 
Q 44.1875 33.984375 37.640625 27.21875 
Q 31.109375 20.453125 19.1875 8.296875 
" id="BitstreamVeraSans-Roman-32"/>
       <path d="M 10.6875 12.40625 
L 21 12.40625 
L 21 0 
L 10.6875 0 
z
" id="BitstreamVeraSans-Roman-2e"/>
       <path d="M 10.984375 1.515625 
L 10.984375 10.5 
Q 14.703125 8.734375 18.5 7.8125 
Q 22.3125 6.890625 25.984375 6.890625 
Q 35.75 6.890625 40.890625 13.453125 
Q 46.046875 20.015625 46.78125 33.40625 
Q 43.953125 29.203125 39.59375 26.953125 
Q 35.25 24.703125 29.984375 24.703125 
Q 19.046875 24.703125 12.671875 31.3125 
Q 6.296875 37.9375 6.296875 49.421875 
Q 6.296875 60.640625 12.9375 67.421875 
Q 19.578125 74.21875 30.609375 74.21875 
Q 43.265625 74.21875 49.921875 64.515625 
Q 56.59375 54.828125 56.59375 36.375 
Q 56.59375 19.140625 48.40625 8.859375 
Q 40.234375 -1.421875 26.421875 -1.421875 
Q 22.703125 -1.421875 18.890625 -0.6875 
Q 15.09375 0.046875 10.984375 1.515625 
M 30.609375 32.421875 
Q 37.25 32.421875 41.125 36.953125 
Q 45.015625 41.5 45.015625 49.421875 
Q 45.015625 57.28125 41.125 61.84375 
Q 37.25 66.40625 30.609375 66.40625 
Q 23.96875 66.40625 20.09375 61.84375 
Q 16.21875 57.28125 16.21875 49.421875 
Q 16.21875 41.5 20.09375 36.953125 
Q 23.96875 32.421875 30.609375 32.421875 
" id="BitstreamVeraSans-Roman-39"/>
       <path d="M 33.015625 40.375 
Q 26.375 40.375 22.484375 35.828125 
Q 18.609375 31.296875 18.609375 23.390625 
Q 18.609375 15.53125 22.484375 10.953125 
Q 26.375 6.390625 33.015625 6.390625 
Q 39.65625 6.390625 43.53125 10.953125 
Q 47.40625 15.53125 47.40625 23.390625 
Q 47.40625 31.296875 43.53125 35.828125 
Q 39.65625 40.375 33.015625 40.375 
M 52.59375 71.296875 
L 52.59375 62.3125 
Q 48.875 64.0625 45.09375 64.984375 
Q 41.3125 65.921875 37.59375 65.921875 
Q 27.828125 65.921875 22.671875 59.328125 
Q 17.53125 52.734375 16.796875 39.40625 
Q 19.671875 43.65625 24.015625 45.921875 
Q 28.375 48.1875 33.59375 48.1875 
Q 44.578125 48.1875 50.953125 41.515625 
Q 57.328125 34.859375 57.328125 23.390625 
Q 57.328125 12.15625 50.6875 5.359375 
Q 44.046875 -1.421875 33.015625 -1.421875 
Q 20.359375 -1.421875 13.671875 8.265625 
Q 6.984375 17.96875 6.984375 36.375 
Q 6.984375 53.65625 15.1875 63.9375 
Q 23.390625 74.21875 37.203125 74.21875 
Q 40.921875 74.21875 44.703125 73.484375 
Q 48.484375 72.75 52.59375 71.296875 
" id="BitstreamVeraSans-Roman-36"/>
       <path d="M 8.203125 72.90625 
L 55.078125 72.90625 
L 55.078125 68.703125 
L 28.609375 0 
L 18.3125 0 
L 43.21875 64.59375 
L 8.203125 64.59375 
z
" id="BitstreamVeraSans-Roman-37"/>
      </defs>
      <g transform="translate(347.623125 1568.318125)scale(0.12 -0.12)">
       <use xlink:href="#BitstreamVeraSans-Roman-37"/>
       <use x="63.623046875" xlink:href="#BitstreamVeraSans-Roman-36"/>
       <use x="127.24609375" xlink:href="#BitstreamVeraSans-Roman-2e"/>
       <use x="159.033203125" xlink:href="#BitstreamVeraSans-Roman-39"/>
       <use x="222.65625" xlink:href="#BitstreamVeraSans-Roman-32"/>
      </g>
     </g>
    </g>
    <g id="xtick_2">
     <g id="line2d_4">
      <g>
       <use style="stroke:#000000;stroke-width:0.5;" x="662.4" xlink:href="#m6e316386a9" y="1555.2"/>
      </g>
     </g>
     <g id="line2d_5">
      <g>
       <use style="stroke:#000000;stroke-width:0.5;" x="662.4" xlink:href="#ma1b3b94c1a" y="172.8"/>
      </g>
     </g>
     <g id="text_2">
      <!-- 76.94 -->
      <defs>
       <path d="M 37.796875 64.3125 
L 12.890625 25.390625 
L 37.796875 25.390625 
z
M 35.203125 72.90625 
L 47.609375 72.90625 
L 47.609375 25.390625 
L 58.015625 25.390625 
L 58.015625 17.1875 
L 47.609375 17.1875 
L 47.609375 0 
L 37.796875 0 
L 37.796875 17.1875 
L 4.890625 17.1875 
L 4.890625 26.703125 
z
" id="BitstreamVeraSans-Roman-34"/>
      </defs>
      <g transform="translate(645.223125 1568.318125)scale(0.12 -0.12)">
       <use xlink:href="#BitstreamVeraSans-Roman-37"/>
       <use x="63.623046875" xlink:href="#BitstreamVeraSans-Roman-36"/>
       <use x="127.24609375" xlink:href="#BitstreamVeraSans-Roman-2e"/>
       <use x="159.033203125" xlink:href="#BitstreamVeraSans-Roman-39"/>
       <use x="222.65625" xlink:href="#BitstreamVeraSans-Roman-34"/>
      </g>
     </g>
    </g>
    <g id="xtick_3">
     <g id="line2d_6">
      <g>
       <use style="stroke:#000000;stroke-width:0.5;" x="960.0" xlink:href="#m6e316386a9" y="1555.2"/>
      </g>
     </g>
     <g id="line2d_7">
      <g>
       <use style="stroke:#000000;stroke-width:0.5;" x="960.0" xlink:href="#ma1b3b94c1a" y="172.8"/>
      </g>
     </g>
     <g id="text_3">
      <!-- 76.96 -->
      <g transform="translate(942.823125 1568.318125)scale(0.12 -0.12)">
       <use xlink:href="#BitstreamVeraSans-Roman-37"/>
       <use x="63.623046875" xlink:href="#BitstreamVeraSans-Roman-36"/>
       <use x="127.24609375" xlink:href="#BitstreamVeraSans-Roman-2e"/>
       <use x="159.033203125" xlink:href="#BitstreamVeraSans-Roman-39"/>
       <use x="222.65625" xlink:href="#BitstreamVeraSans-Roman-36"/>
      </g>
     </g>
    </g>
    <g id="xtick_4">
     <g id="line2d_8">
      <g>
       <use style="stroke:#000000;stroke-width:0.5;" x="1257.6" xlink:href="#m6e316386a9" y="1555.2"/>
      </g>
     </g>
     <g id="line2d_9">
      <g>
       <use style="stroke:#000000;stroke-width:0.5;" x="1257.6" xlink:href="#ma1b3b94c1a" y="172.8"/>
      </g>
     </g>
     <g id="text_4">
      <!-- 76.98 -->
      <defs>
       <path d="M 31.78125 34.625 
Q 24.75 34.625 20.71875 30.859375 
Q 16.703125 27.09375 16.703125 20.515625 
Q 16.703125 13.921875 20.71875 10.15625 
Q 24.75 6.390625 31.78125 6.390625 
Q 38.8125 6.390625 42.859375 10.171875 
Q 46.921875 13.96875 46.921875 20.515625 
Q 46.921875 27.09375 42.890625 30.859375 
Q 38.875 34.625 31.78125 34.625 
M 21.921875 38.8125 
Q 15.578125 40.375 12.03125 44.71875 
Q 8.5 49.078125 8.5 55.328125 
Q 8.5 64.0625 14.71875 69.140625 
Q 20.953125 74.21875 31.78125 74.21875 
Q 42.671875 74.21875 48.875 69.140625 
Q 55.078125 64.0625 55.078125 55.328125 
Q 55.078125 49.078125 51.53125 44.71875 
Q 48 40.375 41.703125 38.8125 
Q 48.828125 37.15625 52.796875 32.3125 
Q 56.78125 27.484375 56.78125 20.515625 
Q 56.78125 9.90625 50.3125 4.234375 
Q 43.84375 -1.421875 31.78125 -1.421875 
Q 19.734375 -1.421875 13.25 4.234375 
Q 6.78125 9.90625 6.78125 20.515625 
Q 6.78125 27.484375 10.78125 32.3125 
Q 14.796875 37.15625 21.921875 38.8125 
M 18.3125 54.390625 
Q 18.3125 48.734375 21.84375 45.5625 
Q 25.390625 42.390625 31.78125 42.390625 
Q 38.140625 42.390625 41.71875 45.5625 
Q 45.3125 48.734375 45.3125 54.390625 
Q 45.3125 60.0625 41.71875 63.234375 
Q 38.140625 66.40625 31.78125 66.40625 
Q 25.390625 66.40625 21.84375 63.234375 
Q 18.3125 60.0625 18.3125 54.390625 
" id="BitstreamVeraSans-Roman-38"/>
      </defs>
      <g transform="translate(1240.423125 1568.318125)scale(0.12 -0.12)">
       <use xlink:href="#BitstreamVeraSans-Roman-37"/>
       <use x="63.623046875" xlink:href="#BitstreamVeraSans-Roman-36"/>
       <use x="127.24609375" xlink:href="#BitstreamVeraSans-Roman-2e"/>
       <use x="159.033203125" xlink:href="#BitstreamVeraSans-Roman-39"/>
       <use x="222.65625" xlink:href="#BitstreamVeraSans-Roman-38"/>
      </g>
     </g>
    </g>
    <g id="xtick_5">
     <g id="line2d_10">
      <g>
       <use style="stroke:#000000;stroke-width:0.5;" x="1555.2" xlink:href="#m6e316386a9" y="1555.2"/>
      </g>
     </g>
     <g id="line2d_11">
      <g>
       <use style="stroke:#000000;stroke-width:0.5;" x="1555.2" xlink:href="#ma1b3b94c1a" y="172.8"/>
      </g>
     </g>
     <g id="text_5">
      <!-- 77.00 -->
      <defs>
       <path d="M 31.78125 66.40625 
Q 24.171875 66.40625 20.328125 58.90625 
Q 16.5 51.421875 16.5 36.375 
Q 16.5 21.390625 20.328125 13.890625 
Q 24.171875 6.390625 31.78125 6.390625 
Q 39.453125 6.390625 43.28125 13.890625 
Q 47.125 21.390625 47.125 36.375 
Q 47.125 51.421875 43.28125 58.90625 
Q 39.453125 66.40625 31.78125 66.40625 
M 31.78125 74.21875 
Q 44.046875 74.21875 50.515625 64.515625 
Q 56.984375 54.828125 56.984375 36.375 
Q 56.984375 17.96875 50.515625 8.265625 
Q 44.046875 -1.421875 31.78125 -1.421875 
Q 19.53125 -1.421875 13.0625 8.265625 
Q 6.59375 17.96875 6.59375 36.375 
Q 6.59375 54.828125 13.0625 64.515625 
Q 19.53125 74.21875 31.78125 74.21875 
" id="BitstreamVeraSans-Roman-30"/>
      </defs>
      <g transform="translate(1538.023125 1568.318125)scale(0.12 -0.12)">
       <use xlink:href="#BitstreamVeraSans-Roman-37"/>
       <use x="63.623046875" xlink:href="#BitstreamVeraSans-Roman-37"/>
       <use x="127.24609375" xlink:href="#BitstreamVeraSans-Roman-2e"/>
       <use x="159.033203125" xlink:href="#BitstreamVeraSans-Roman-30"/>
       <use x="222.65625" xlink:href="#BitstreamVeraSans-Roman-30"/>
      </g>
     </g>
    </g>
   </g>
   <g id="matplotlib.axis_2">
    <g id="ytick_1">
     <g id="line2d_12">
      <defs>
       <path d="M 0 0 
L 4 0 
" id="m9c400788de" style="stroke:#000000;stroke-width:0.5;"/>
      </defs>
      <g>
       <use style="stroke:#000000;stroke-width:0.5;" x="216.0" xlink:href="#m9c400788de" y="1555.2"/>
      </g>
     </g>
     <g id="line2d_13">
      <defs>
       <path d="M 0 0 
L -4 0 
" id="mb44ec4f31b" style="stroke:#000000;stroke-width:0.5;"/>
      </defs>
      <g>
       <use style="stroke:#000000;stroke-width:0.5;" x="1555.2" xlink:href="#mb44ec4f31b" y="1555.2"/>
      </g>
     </g>
     <g id="text_6">
      <!-- 28.62 -->
      <g transform="translate(177.64625 1558.51125)scale(0.12 -0.12)">
       <use xlink:href="#BitstreamVeraSans-Roman-32"/>
       <use x="63.623046875" xlink:href="#BitstreamVeraSans-Roman-38"/>
       <use x="127.24609375" xlink:href="#BitstreamVeraSans-Roman-2e"/>
       <use x="159.033203125" xlink:href="#BitstreamVeraSans-Roman-36"/>
       <use x="222.65625" xlink:href="#BitstreamVeraSans-Roman-32"/>
      </g>
     </g>
    </g>
    <g id="ytick_2">
     <g id="line2d_14">
      <g>
       <use style="stroke:#000000;stroke-width:0.5;" x="216.0" xlink:href="#m9c400788de" y="1357.71428571"/>
      </g>
     </g>
     <g id="line2d_15">
      <g>
       <use style="stroke:#000000;stroke-width:0.5;" x="1555.2" xlink:href="#mb44ec4f31b" y="1357.71428571"/>
      </g>
     </g>
     <g id="text_7">
      <!-- 28.63 -->
      <defs>
       <path d="M 40.578125 39.3125 
Q 47.65625 37.796875 51.625 33 
Q 55.609375 28.21875 55.609375 21.1875 
Q 55.609375 10.40625 48.1875 4.484375 
Q 40.765625 -1.421875 27.09375 -1.421875 
Q 22.515625 -1.421875 17.65625 -0.515625 
Q 12.796875 0.390625 7.625 2.203125 
L 7.625 11.71875 
Q 11.71875 9.328125 16.59375 8.109375 
Q 21.484375 6.890625 26.8125 6.890625 
Q 36.078125 6.890625 40.9375 10.546875 
Q 45.796875 14.203125 45.796875 21.1875 
Q 45.796875 27.640625 41.28125 31.265625 
Q 36.765625 34.90625 28.71875 34.90625 
L 20.21875 34.90625 
L 20.21875 43.015625 
L 29.109375 43.015625 
Q 36.375 43.015625 40.234375 45.921875 
Q 44.09375 48.828125 44.09375 54.296875 
Q 44.09375 59.90625 40.109375 62.90625 
Q 36.140625 65.921875 28.71875 65.921875 
Q 24.65625 65.921875 20.015625 65.03125 
Q 15.375 64.15625 9.8125 62.3125 
L 9.8125 71.09375 
Q 15.4375 72.65625 20.34375 73.4375 
Q 25.25 74.21875 29.59375 74.21875 
Q 40.828125 74.21875 47.359375 69.109375 
Q 53.90625 64.015625 53.90625 55.328125 
Q 53.90625 49.265625 50.4375 45.09375 
Q 46.96875 40.921875 40.578125 39.3125 
" id="BitstreamVeraSans-Roman-33"/>
      </defs>
      <g transform="translate(177.64625 1361.02553571)scale(0.12 -0.12)">
       <use xlink:href="#BitstreamVeraSans-Roman-32"/>
       <use x="63.623046875" xlink:href="#BitstreamVeraSans-Roman-38"/>
       <use x="127.24609375" xlink:href="#BitstreamVeraSans-Roman-2e"/>
       <use x="159.033203125" xlink:href="#BitstreamVeraSans-Roman-36"/>
       <use x="222.65625" xlink:href="#BitstreamVeraSans-Roman-33"/>
      </g>
     </g>
    </g>
    <g id="ytick_3">
     <g id="line2d_16">
      <g>
       <use style="stroke:#000000;stroke-width:0.5;" x="216.0" xlink:href="#m9c400788de" y="1160.22857143"/>
      </g>
     </g>
     <g id="line2d_17">
      <g>
       <use style="stroke:#000000;stroke-width:0.5;" x="1555.2" xlink:href="#mb44ec4f31b" y="1160.22857143"/>
      </g>
     </g>
     <g id="text_8">
      <!-- 28.64 -->
      <g transform="translate(177.64625 1163.53982143)scale(0.12 -0.12)">
       <use xlink:href="#BitstreamVeraSans-Roman-32"/>
       <use x="63.623046875" xlink:href="#BitstreamVeraSans-Roman-38"/>
       <use x="127.24609375" xlink:href="#BitstreamVeraSans-Roman-2e"/>
       <use x="159.033203125" xlink:href="#BitstreamVeraSans-Roman-36"/>
       <use x="222.65625" xlink:href="#BitstreamVeraSans-Roman-34"/>
      </g>
     </g>
    </g>
    <g id="ytick_4">
     <g id="line2d_18">
      <g>
       <use style="stroke:#000000;stroke-width:0.5;" x="216.0" xlink:href="#m9c400788de" y="962.742857143"/>
      </g>
     </g>
     <g id="line2d_19">
      <g>
       <use style="stroke:#000000;stroke-width:0.5;" x="1555.2" xlink:href="#mb44ec4f31b" y="962.742857143"/>
      </g>
     </g>
     <g id="text_9">
      <!-- 28.65 -->
      <defs>
       <path d="M 10.796875 72.90625 
L 49.515625 72.90625 
L 49.515625 64.59375 
L 19.828125 64.59375 
L 19.828125 46.734375 
Q 21.96875 47.46875 24.109375 47.828125 
Q 26.265625 48.1875 28.421875 48.1875 
Q 40.625 48.1875 47.75 41.5 
Q 54.890625 34.8125 54.890625 23.390625 
Q 54.890625 11.625 47.5625 5.09375 
Q 40.234375 -1.421875 26.90625 -1.421875 
Q 22.3125 -1.421875 17.546875 -0.640625 
Q 12.796875 0.140625 7.71875 1.703125 
L 7.71875 11.625 
Q 12.109375 9.234375 16.796875 8.0625 
Q 21.484375 6.890625 26.703125 6.890625 
Q 35.15625 6.890625 40.078125 11.328125 
Q 45.015625 15.765625 45.015625 23.390625 
Q 45.015625 31 40.078125 35.4375 
Q 35.15625 39.890625 26.703125 39.890625 
Q 22.75 39.890625 18.8125 39.015625 
Q 14.890625 38.140625 10.796875 36.28125 
z
" id="BitstreamVeraSans-Roman-35"/>
      </defs>
      <g transform="translate(177.64625 966.054107143)scale(0.12 -0.12)">
       <use xlink:href="#BitstreamVeraSans-Roman-32"/>
       <use x="63.623046875" xlink:href="#BitstreamVeraSans-Roman-38"/>
       <use x="127.24609375" xlink:href="#BitstreamVeraSans-Roman-2e"/>
       <use x="159.033203125" xlink:href="#BitstreamVeraSans-Roman-36"/>
       <use x="222.65625" xlink:href="#BitstreamVeraSans-Roman-35"/>
      </g>
     </g>
    </g>
    <g id="ytick_5">
     <g id="line2d_20">
      <g>
       <use style="stroke:#000000;stroke-width:0.5;" x="216.0" xlink:href="#m9c400788de" y="765.257142857"/>
      </g>
     </g>
     <g id="line2d_21">
      <g>
       <use style="stroke:#000000;stroke-width:0.5;" x="1555.2" xlink:href="#mb44ec4f31b" y="765.257142857"/>
      </g>
     </g>
     <g id="text_10">
      <!-- 28.66 -->
      <g transform="translate(177.64625 768.568392857)scale(0.12 -0.12)">
       <use xlink:href="#BitstreamVeraSans-Roman-32"/>
       <use x="63.623046875" xlink:href="#BitstreamVeraSans-Roman-38"/>
       <use x="127.24609375" xlink:href="#BitstreamVeraSans-Roman-2e"/>
       <use x="159.033203125" xlink:href="#BitstreamVeraSans-Roman-36"/>
       <use x="222.65625" xlink:href="#BitstreamVeraSans-Roman-36"/>
      </g>
     </g>
    </g>
    <g id="ytick_6">
     <g id="line2d_22">
      <g>
       <use style="stroke:#000000;stroke-width:0.5;" x="216.0" xlink:href="#m9c400788de" y="567.771428571"/>
      </g>
     </g>
     <g id="line2d_23">
      <g>
       <use style="stroke:#000000;stroke-width:0.5;" x="1555.2" xlink:href="#mb44ec4f31b" y="567.771428571"/>
      </g>
     </g>
     <g id="text_11">
      <!-- 28.67 -->
      <g transform="translate(177.64625 571.082678571)scale(0.12 -0.12)">
       <use xlink:href="#BitstreamVeraSans-Roman-32"/>
       <use x="63.623046875" xlink:href="#BitstreamVeraSans-Roman-38"/>
       <use x="127.24609375" xlink:href="#BitstreamVeraSans-Roman-2e"/>
       <use x="159.033203125" xlink:href="#BitstreamVeraSans-Roman-36"/>
       <use x="222.65625" xlink:href="#BitstreamVeraSans-Roman-37"/>
      </g>
     </g>
    </g>
    <g id="ytick_7">
     <g id="line2d_24">
      <g>
       <use style="stroke:#000000;stroke-width:0.5;" x="216.0" xlink:href="#m9c400788de" y="370.285714286"/>
      </g>
     </g>
     <g id="line2d_25">
      <g>
       <use style="stroke:#000000;stroke-width:0.5;" x="1555.2" xlink:href="#mb44ec4f31b" y="370.285714286"/>
      </g>
     </g>
     <g id="text_12">
      <!-- 28.68 -->
      <g transform="translate(177.64625 373.596964286)scale(0.12 -0.12)">
       <use xlink:href="#BitstreamVeraSans-Roman-32"/>
       <use x="63.623046875" xlink:href="#BitstreamVeraSans-Roman-38"/>
       <use x="127.24609375" xlink:href="#BitstreamVeraSans-Roman-2e"/>
       <use x="159.033203125" xlink:href="#BitstreamVeraSans-Roman-36"/>
       <use x="222.65625" xlink:href="#BitstreamVeraSans-Roman-38"/>
      </g>
     </g>
    </g>
    <g id="ytick_8">
     <g id="line2d_26">
      <g>
       <use style="stroke:#000000;stroke-width:0.5;" x="216.0" xlink:href="#m9c400788de" y="172.8"/>
      </g>
     </g>
     <g id="line2d_27">
      <g>
       <use style="stroke:#000000;stroke-width:0.5;" x="1555.2" xlink:href="#mb44ec4f31b" y="172.8"/>
      </g>
     </g>
     <g id="text_13">
      <!-- 28.69 -->
      <g transform="translate(177.64625 176.11125)scale(0.12 -0.12)">
       <use xlink:href="#BitstreamVeraSans-Roman-32"/>
       <use x="63.623046875" xlink:href="#BitstreamVeraSans-Roman-38"/>
       <use x="127.24609375" xlink:href="#BitstreamVeraSans-Roman-2e"/>
       <use x="159.033203125" xlink:href="#BitstreamVeraSans-Roman-36"/>
       <use x="222.65625" xlink:href="#BitstreamVeraSans-Roman-39"/>
      </g>
     </g>
    </g>
   </g>
   <g id="patch_7">
    <path d="M 1493.351507 698.985104 
Q 1485.685528 704.893225 1478.905102 710.118855 
" style="fill:none;stroke:#ff0000;stroke-linecap:round;"/>
    <path d="M 1481.538581 709.604279 
L 1478.905102 710.118855 
L 1480.073529 707.703326 
" style="fill:none;stroke:#ff0000;stroke-linecap:round;"/>
   </g>
   <g id="text_14">
    <!-- 0 -->
    <g style="fill:#ff0000;" transform="translate(1497.43576147 696.021959607)scale(0.06 -0.06)">
     <use xlink:href="#BitstreamVeraSans-Roman-30"/>
    </g>
   </g>
   <g id="patch_8">
    <path d="M 1428.98778 977.247883 
Q 1422.672618 971.111744 1417.159309 965.754727 
" style="fill:none;stroke:#ff0000;stroke-linecap:round;"/>
    <path d="M 1418.044346 968.287849 
L 1417.159309 965.754727 
L 1419.716829 966.566571 
" style="fill:none;stroke:#ff0000;stroke-linecap:round;"/>
   </g>
   <g id="text_15">
    <!-- 1 -->
    <defs>
     <path d="M 12.40625 8.296875 
L 28.515625 8.296875 
L 28.515625 63.921875 
L 10.984375 60.40625 
L 10.984375 69.390625 
L 28.421875 72.90625 
L 38.28125 72.90625 
L 38.28125 8.296875 
L 54.390625 8.296875 
L 54.390625 0 
L 12.40625 0 
z
" id="BitstreamVeraSans-Roman-31"/>
    </defs>
    <g style="fill:#ff0000;" transform="translate(1432.92585907 984.584590629)scale(0.06 -0.06)">
     <use xlink:href="#BitstreamVeraSans-Roman-31"/>
    </g>
   </g>
   <g id="patch_9">
    <path d="M 1301.051419 1283.005429 
Q 1307.736038 1278.459151 1313.496173 1274.541625 
" style="fill:none;stroke:#ff0000;stroke-linecap:round;"/>
    <path d="M 1310.836804 1274.899058 
L 1313.496173 1274.541625 
L 1312.186498 1276.883579 
" style="fill:none;stroke:#ff0000;stroke-linecap:round;"/>
   </g>
   <g id="text_16">
    <!-- 2 -->
    <g style="fill:#ff0000;" transform="translate(1293.07484814 1288.78784117)scale(0.06 -0.06)">
     <use xlink:href="#BitstreamVeraSans-Roman-32"/>
    </g>
   </g>
   <g id="patch_10">
    <path d="M 1332.705258 1343.158366 
Q 1325.71564 1351.734824 1319.432339 1359.444612 
" style="fill:none;stroke:#ff0000;stroke-linecap:round;"/>
    <path d="M 1321.878743 1358.342294 
L 1319.432339 1359.444612 
L 1320.018327 1356.826097 
" style="fill:none;stroke:#ff0000;stroke-linecap:round;"/>
   </g>
   <g id="text_17">
    <!-- 3 -->
    <g style="fill:#ff0000;" transform="translate(1336.46262539 1337.86150546)scale(0.06 -0.06)">
     <use xlink:href="#BitstreamVeraSans-Roman-33"/>
    </g>
   </g>
   <g id="patch_11">
    <path d="M 1060.070446 1382.77968 
Q 1064.669192 1391.152515 1068.729704 1398.545399 
" style="fill:none;stroke:#ff0000;stroke-linecap:round;"/>
    <path d="M 1068.626111 1395.864118 
L 1068.729704 1398.545399 
L 1066.522523 1397.019505 
" style="fill:none;stroke:#ff0000;stroke-linecap:round;"/>
   </g>
   <g id="text_18">
    <!-- 4 -->
    <g style="fill:#ff0000;" transform="translate(1054.2317215 1377.2800885)scale(0.06 -0.06)">
     <use xlink:href="#BitstreamVeraSans-Roman-34"/>
    </g>
   </g>
   <g id="patch_12">
    <path d="M 1018.627596 1307.309446 
Q 1025.573705 1314.441424 1031.73975 1320.772465 
" style="fill:none;stroke:#ff0000;stroke-linecap:round;"/>
    <path d="M 1030.924902 1318.2159 
L 1031.73975 1320.772465 
L 1029.20559 1319.890405 
" style="fill:none;stroke:#ff0000;stroke-linecap:round;"/>
   </g>
   <g id="text_19">
    <!-- 5 -->
    <g style="fill:#ff0000;" transform="translate(1010.91370077 1303.00458759)scale(0.06 -0.06)">
     <use xlink:href="#BitstreamVeraSans-Roman-35"/>
    </g>
   </g>
   <g id="patch_13">
    <path d="M 880.145244 1008.846862 
Q 887.022743 1015.256228 893.082326 1020.903351 
" style="fill:none;stroke:#ff0000;stroke-linecap:round;"/>
    <path d="M 892.144691 1018.389223 
L 893.082326 1020.903351 
L 890.508442 1020.144981 
" style="fill:none;stroke:#ff0000;stroke-linecap:round;"/>
   </g>
   <g id="text_20">
    <!-- 6 -->
    <g style="fill:#ff0000;" transform="translate(872.362116256 1005.02796244)scale(0.06 -0.06)">
     <use xlink:href="#BitstreamVeraSans-Roman-36"/>
    </g>
   </g>
   <g id="patch_14">
    <path d="M 875.809294 929.161492 
Q 867.037055 937.140236 859.091907 944.366705 
" style="fill:none;stroke:#ff0000;stroke-linecap:round;"/>
    <path d="M 861.67479 943.639576 
L 859.091907 944.366705 
L 860.059934 941.864121 
" style="fill:none;stroke:#ff0000;stroke-linecap:round;"/>
   </g>
   <g id="text_21">
    <!-- 7 -->
    <g style="fill:#ff0000;" transform="translate(879.785552576 925.464437541)scale(0.06 -0.06)">
     <use xlink:href="#BitstreamVeraSans-Roman-37"/>
    </g>
   </g>
   <g id="patch_15">
    <path d="M 768.977307 774.237756 
Q 773.723571 781.677554 777.868523 788.17479 
" style="fill:none;stroke:#ff0000;stroke-linecap:round;"/>
    <path d="M 777.589392 785.506066 
L 777.868523 788.17479 
L 775.566066 786.79686 
" style="fill:none;stroke:#ff0000;stroke-linecap:round;"/>
   </g>
   <g id="text_22">
    <!-- 8 -->
    <g style="fill:#ff0000;" transform="translate(762.545776 768.803894857)scale(0.06 -0.06)">
     <use xlink:href="#BitstreamVeraSans-Roman-38"/>
    </g>
   </g>
   <g id="patch_16">
    <path d="M 729.760862 725.353435 
Q 734.361025 718.542352 738.335427 712.657781 
" style="fill:none;stroke:#ff0000;stroke-linecap:round;"/>
    <path d="M 735.997718 713.975018 
L 738.335427 712.657781 
L 737.986591 715.318291 
" style="fill:none;stroke:#ff0000;stroke-linecap:round;"/>
   </g>
   <g id="text_23">
    <!-- 9 -->
    <g style="fill:#ff0000;" transform="translate(723.082563712 734.07093899)scale(0.06 -0.06)">
     <use xlink:href="#BitstreamVeraSans-Roman-39"/>
    </g>
   </g>
   <g id="patch_17">
    <path d="M 644.28538 542.559616 
Q 648.489134 550.422023 652.165733 557.298476 
" style="fill:none;stroke:#ff0000;stroke-linecap:round;"/>
    <path d="M 652.092365 554.616198 
L 652.165733 557.298476 
L 649.97589 555.747803 
" style="fill:none;stroke:#ff0000;stroke-linecap:round;"/>
   </g>
   <g id="text_24">
    <!-- 10 -->
    <g style="fill:#ff0000;" transform="translate(636.63568 537.047762286)scale(0.06 -0.06)">
     <use xlink:href="#BitstreamVeraSans-Roman-31"/>
     <use x="63.623046875" xlink:href="#BitstreamVeraSans-Roman-30"/>
    </g>
   </g>
   <g id="patch_18">
    <path d="M 345.463166 924.157975 
Q 351.092776 917.239778 356.016715 911.188777 
" style="fill:none;stroke:#ff0000;stroke-linecap:round;"/>
    <path d="M 353.571132 912.292915 
L 356.016715 911.188777 
L 355.432676 913.807726 
" style="fill:none;stroke:#ff0000;stroke-linecap:round;"/>
   </g>
   <g id="text_25">
    <!-- 11 -->
    <g style="fill:#ff0000;" transform="translate(335.98496 932.770011429)scale(0.06 -0.06)">
     <use xlink:href="#BitstreamVeraSans-Roman-31"/>
     <use x="63.623046875" xlink:href="#BitstreamVeraSans-Roman-31"/>
    </g>
   </g>
   <g id="patch_19">
    <path d="M 408.166596 718.648137 
Q 399.840303 725.954707 392.354363 732.523842 
" style="fill:none;stroke:#ff0000;stroke-linecap:round;"/>
    <path d="M 394.949781 731.842809 
L 392.354363 732.523842 
L 393.366786 730.038888 
" style="fill:none;stroke:#ff0000;stroke-linecap:round;"/>
   </g>
   <g id="text_26">
    <!-- 12 -->
    <g style="fill:#ff0000;" transform="translate(412.009005568 713.581963337)scale(0.06 -0.06)">
     <use xlink:href="#BitstreamVeraSans-Roman-31"/>
     <use x="63.623046875" xlink:href="#BitstreamVeraSans-Roman-32"/>
    </g>
   </g>
   <g id="patch_20">
    <path d="M 500.320861 620.819403 
Q 503.682739 626.243562 506.45562 630.717415 
" style="fill:none;stroke:#ff0000;stroke-linecap:round;"/>
    <path d="M 506.21124 628.045285 
L 506.45562 630.717415 
L 504.171288 629.309641 
" style="fill:none;stroke:#ff0000;stroke-linecap:round;"/>
   </g>
   <g id="text_27">
    <!-- 13 -->
    <g style="fill:#ff0000;" transform="translate(492.098468192 615.368036571)scale(0.06 -0.06)">
     <use xlink:href="#BitstreamVeraSans-Roman-31"/>
     <use x="63.623046875" xlink:href="#BitstreamVeraSans-Roman-33"/>
    </g>
   </g>
   <g id="patch_21">
    <path d="M 734.781164 435.204151 
Q 737.537218 432.205185 739.536745 430.029424 
" style="fill:none;stroke:#ff0000;stroke-linecap:round;"/>
    <path d="M 737.029208 430.984548 
L 739.536745 430.029424 
L 738.796322 432.608528 
" style="fill:none;stroke:#ff0000;stroke-linecap:round;"/>
   </g>
   <g id="text_28">
    <!-- 14 -->
    <g style="fill:#ff0000;" transform="translate(724.643654272 443.73681664)scale(0.06 -0.06)">
     <use xlink:href="#BitstreamVeraSans-Roman-31"/>
     <use x="63.623046875" xlink:href="#BitstreamVeraSans-Roman-34"/>
    </g>
   </g>
   <g id="patch_22">
    <path d="M 950.523267 194.100504 
Q 954.486775 198.709641 957.721318 202.471068 
" style="fill:none;stroke:#ff0000;stroke-linecap:round;"/>
    <path d="M 957.06636 199.868948 
L 957.721318 202.471068 
L 955.246647 201.433763 
" style="fill:none;stroke:#ff0000;stroke-linecap:round;"/>
   </g>
   <g id="text_29">
    <!-- 15 -->
    <g style="fill:#ff0000;" transform="translate(940.755299888 188.836371529)scale(0.06 -0.06)">
     <use xlink:href="#BitstreamVeraSans-Roman-31"/>
     <use x="63.623046875" xlink:href="#BitstreamVeraSans-Roman-35"/>
    </g>
   </g>
   <g id="patch_23">
    <path d="M 1101.554404 236.897599 
Q 1107.717342 230.379871 1113.11213 224.674513 
" style="fill:none;stroke:#ff0000;stroke-linecap:round;"/>
    <path d="M 1110.591273 225.593904 
L 1113.11213 224.674513 
L 1112.335128 227.242833 
" style="fill:none;stroke:#ff0000;stroke-linecap:round;"/>
   </g>
   <g id="text_30">
    <!-- 16 -->
    <g style="fill:#ff0000;" transform="translate(1091.25502435 245.408255415)scale(0.06 -0.06)">
     <use xlink:href="#BitstreamVeraSans-Roman-31"/>
     <use x="63.623046875" xlink:href="#BitstreamVeraSans-Roman-36"/>
    </g>
   </g>
   <g id="patch_24">
    <path d="M 1394.908955 428.288027 
Q 1385.720613 420.907501 1377.403925 414.227131 
" style="fill:none;stroke:#ff0000;stroke-linecap:round;"/>
    <path d="M 1378.523555 416.665661 
L 1377.403925 414.227131 
L 1380.026527 414.794545 
" style="fill:none;stroke:#ff0000;stroke-linecap:round;"/>
   </g>
   <g id="text_31">
    <!-- 17 -->
    <g style="fill:#ff0000;" transform="translate(1398.97228382 436.273918245)scale(0.06 -0.06)">
     <use xlink:href="#BitstreamVeraSans-Roman-31"/>
     <use x="63.623046875" xlink:href="#BitstreamVeraSans-Roman-37"/>
    </g>
   </g>
   <g id="patch_25">
    <path d="M 1277.173664 538.105973 
Q 1281.595391 544.121684 1285.354959 549.236536 
" style="fill:none;stroke:#ff0000;stroke-linecap:round;"/>
    <path d="M 1284.900457 546.592027 
L 1285.354959 549.236536 
L 1282.966651 548.013432 
" style="fill:none;stroke:#ff0000;stroke-linecap:round;"/>
   </g>
   <g id="text_32">
    <!-- 18 -->
    <g style="fill:#ff0000;" transform="translate(1268.1993451 532.745802533)scale(0.06 -0.06)">
     <use xlink:href="#BitstreamVeraSans-Roman-31"/>
     <use x="63.623046875" xlink:href="#BitstreamVeraSans-Roman-38"/>
    </g>
   </g>
   <g id="patch_26">
    <path d="M 1489.967884 724.596498 
Q 1483.933601 718.989224 1478.718335 714.14301 
" style="fill:none;stroke:#ff0000;stroke-linecap:round;"/>
    <path d="M 1479.659602 716.655781 
L 1478.718335 714.14301 
L 1481.293312 714.897659 
" style="fill:none;stroke:#ff0000;stroke-linecap:round;"/>
   </g>
   <g id="text_33">
    <!-- 19 -->
    <g style="fill:#ff0000;" transform="translate(1493.43576147 733.021959607)scale(0.06 -0.06)">
     <use xlink:href="#BitstreamVeraSans-Roman-31"/>
     <use x="63.623046875" xlink:href="#BitstreamVeraSans-Roman-39"/>
    </g>
   </g>
   <g id="text_34">
    <!-- TSP: 20, Cost: 25, N: 19 -->
    <defs>
     <path id="BitstreamVeraSans-Roman-20"/>
     <path d="M 9.8125 72.90625 
L 23.09375 72.90625 
L 55.421875 11.921875 
L 55.421875 72.90625 
L 64.984375 72.90625 
L 64.984375 0 
L 51.703125 0 
L 19.390625 60.984375 
L 19.390625 0 
L 9.8125 0 
z
" id="BitstreamVeraSans-Roman-4e"/>
     <path d="M 30.609375 48.390625 
Q 23.390625 48.390625 19.1875 42.75 
Q 14.984375 37.109375 14.984375 27.296875 
Q 14.984375 17.484375 19.15625 11.84375 
Q 23.34375 6.203125 30.609375 6.203125 
Q 37.796875 6.203125 41.984375 11.859375 
Q 46.1875 17.53125 46.1875 27.296875 
Q 46.1875 37.015625 41.984375 42.703125 
Q 37.796875 48.390625 30.609375 48.390625 
M 30.609375 56 
Q 42.328125 56 49.015625 48.375 
Q 55.71875 40.765625 55.71875 27.296875 
Q 55.71875 13.875 49.015625 6.21875 
Q 42.328125 -1.421875 30.609375 -1.421875 
Q 18.84375 -1.421875 12.171875 6.21875 
Q 5.515625 13.875 5.515625 27.296875 
Q 5.515625 40.765625 12.171875 48.375 
Q 18.84375 56 30.609375 56 
" id="BitstreamVeraSans-Roman-6f"/>
     <path d="M 19.671875 64.796875 
L 19.671875 37.40625 
L 32.078125 37.40625 
Q 38.96875 37.40625 42.71875 40.96875 
Q 46.484375 44.53125 46.484375 51.125 
Q 46.484375 57.671875 42.71875 61.234375 
Q 38.96875 64.796875 32.078125 64.796875 
z
M 9.8125 72.90625 
L 32.078125 72.90625 
Q 44.34375 72.90625 50.609375 67.359375 
Q 56.890625 61.8125 56.890625 51.125 
Q 56.890625 40.328125 50.609375 34.8125 
Q 44.34375 29.296875 32.078125 29.296875 
L 19.671875 29.296875 
L 19.671875 0 
L 9.8125 0 
z
" id="BitstreamVeraSans-Roman-50"/>
     <path d="M 11.71875 12.40625 
L 22.015625 12.40625 
L 22.015625 4 
L 14.015625 -11.625 
L 7.71875 -11.625 
L 11.71875 4 
z
" id="BitstreamVeraSans-Roman-2c"/>
     <path d="M 53.515625 70.515625 
L 53.515625 60.890625 
Q 47.90625 63.578125 42.921875 64.890625 
Q 37.9375 66.21875 33.296875 66.21875 
Q 25.25 66.21875 20.875 63.09375 
Q 16.5 59.96875 16.5 54.203125 
Q 16.5 49.359375 19.40625 46.890625 
Q 22.3125 44.4375 30.421875 42.921875 
L 36.375 41.703125 
Q 47.40625 39.59375 52.65625 34.296875 
Q 57.90625 29 57.90625 20.125 
Q 57.90625 9.515625 50.796875 4.046875 
Q 43.703125 -1.421875 29.984375 -1.421875 
Q 24.8125 -1.421875 18.96875 -0.25 
Q 13.140625 0.921875 6.890625 3.21875 
L 6.890625 13.375 
Q 12.890625 10.015625 18.65625 8.296875 
Q 24.421875 6.59375 29.984375 6.59375 
Q 38.421875 6.59375 43.015625 9.90625 
Q 47.609375 13.234375 47.609375 19.390625 
Q 47.609375 24.75 44.3125 27.78125 
Q 41.015625 30.8125 33.5 32.328125 
L 27.484375 33.5 
Q 16.453125 35.6875 11.515625 40.375 
Q 6.59375 45.0625 6.59375 53.421875 
Q 6.59375 63.09375 13.40625 68.65625 
Q 20.21875 74.21875 32.171875 74.21875 
Q 37.3125 74.21875 42.625 73.28125 
Q 47.953125 72.359375 53.515625 70.515625 
" id="BitstreamVeraSans-Roman-53"/>
     <path d="M -0.296875 72.90625 
L 61.375 72.90625 
L 61.375 64.59375 
L 35.5 64.59375 
L 35.5 0 
L 25.59375 0 
L 25.59375 64.59375 
L -0.296875 64.59375 
z
" id="BitstreamVeraSans-Roman-54"/>
     <path d="M 64.40625 67.28125 
L 64.40625 56.890625 
Q 59.421875 61.53125 53.78125 63.8125 
Q 48.140625 66.109375 41.796875 66.109375 
Q 29.296875 66.109375 22.65625 58.46875 
Q 16.015625 50.828125 16.015625 36.375 
Q 16.015625 21.96875 22.65625 14.328125 
Q 29.296875 6.6875 41.796875 6.6875 
Q 48.140625 6.6875 53.78125 8.984375 
Q 59.421875 11.28125 64.40625 15.921875 
L 64.40625 5.609375 
Q 59.234375 2.09375 53.4375 0.328125 
Q 47.65625 -1.421875 41.21875 -1.421875 
Q 24.65625 -1.421875 15.125 8.703125 
Q 5.609375 18.84375 5.609375 36.375 
Q 5.609375 53.953125 15.125 64.078125 
Q 24.65625 74.21875 41.21875 74.21875 
Q 47.75 74.21875 53.53125 72.484375 
Q 59.328125 70.75 64.40625 67.28125 
" id="BitstreamVeraSans-Roman-43"/>
     <path d="M 18.3125 70.21875 
L 18.3125 54.6875 
L 36.8125 54.6875 
L 36.8125 47.703125 
L 18.3125 47.703125 
L 18.3125 18.015625 
Q 18.3125 11.328125 20.140625 9.421875 
Q 21.96875 7.515625 27.59375 7.515625 
L 36.8125 7.515625 
L 36.8125 0 
L 27.59375 0 
Q 17.1875 0 13.234375 3.875 
Q 9.28125 7.765625 9.28125 18.015625 
L 9.28125 47.703125 
L 2.6875 47.703125 
L 2.6875 54.6875 
L 9.28125 54.6875 
L 9.28125 70.21875 
z
" id="BitstreamVeraSans-Roman-74"/>
     <path d="M 11.71875 12.40625 
L 22.015625 12.40625 
L 22.015625 0 
L 11.71875 0 
z
M 11.71875 51.703125 
L 22.015625 51.703125 
L 22.015625 39.3125 
L 11.71875 39.3125 
z
" id="BitstreamVeraSans-Roman-3a"/>
     <path d="M 44.28125 53.078125 
L 44.28125 44.578125 
Q 40.484375 46.53125 36.375 47.5 
Q 32.28125 48.484375 27.875 48.484375 
Q 21.1875 48.484375 17.84375 46.4375 
Q 14.5 44.390625 14.5 40.28125 
Q 14.5 37.15625 16.890625 35.375 
Q 19.28125 33.59375 26.515625 31.984375 
L 29.59375 31.296875 
Q 39.15625 29.25 43.1875 25.515625 
Q 47.21875 21.78125 47.21875 15.09375 
Q 47.21875 7.46875 41.1875 3.015625 
Q 35.15625 -1.421875 24.609375 -1.421875 
Q 20.21875 -1.421875 15.453125 -0.5625 
Q 10.6875 0.296875 5.421875 2 
L 5.421875 11.28125 
Q 10.40625 8.6875 15.234375 7.390625 
Q 20.0625 6.109375 24.8125 6.109375 
Q 31.15625 6.109375 34.5625 8.28125 
Q 37.984375 10.453125 37.984375 14.40625 
Q 37.984375 18.0625 35.515625 20.015625 
Q 33.0625 21.96875 24.703125 23.78125 
L 21.578125 24.515625 
Q 13.234375 26.265625 9.515625 29.90625 
Q 5.8125 33.546875 5.8125 39.890625 
Q 5.8125 47.609375 11.28125 51.796875 
Q 16.75 56 26.8125 56 
Q 31.78125 56 36.171875 55.265625 
Q 40.578125 54.546875 44.28125 53.078125 
" id="BitstreamVeraSans-Roman-73"/>
    </defs>
    <g transform="translate(800.116875 167.8)scale(0.144 -0.144)">
     <use xlink:href="#BitstreamVeraSans-Roman-54"/>
     <use x="61.083984375" xlink:href="#BitstreamVeraSans-Roman-53"/>
     <use x="124.560546875" xlink:href="#BitstreamVeraSans-Roman-50"/>
     <use x="184.86328125" xlink:href="#BitstreamVeraSans-Roman-3a"/>
     <use x="218.5546875" xlink:href="#BitstreamVeraSans-Roman-20"/>
     <use x="250.341796875" xlink:href="#BitstreamVeraSans-Roman-32"/>
     <use x="313.96484375" xlink:href="#BitstreamVeraSans-Roman-30"/>
     <use x="377.587890625" xlink:href="#BitstreamVeraSans-Roman-2c"/>
     <use x="409.375" xlink:href="#BitstreamVeraSans-Roman-20"/>
     <use x="441.162109375" xlink:href="#BitstreamVeraSans-Roman-43"/>
     <use x="510.986328125" xlink:href="#BitstreamVeraSans-Roman-6f"/>
     <use x="572.16796875" xlink:href="#BitstreamVeraSans-Roman-73"/>
     <use x="624.267578125" xlink:href="#BitstreamVeraSans-Roman-74"/>
     <use x="663.4765625" xlink:href="#BitstreamVeraSans-Roman-3a"/>
     <use x="697.16796875" xlink:href="#BitstreamVeraSans-Roman-20"/>
     <use x="728.955078125" xlink:href="#BitstreamVeraSans-Roman-32"/>
     <use x="792.578125" xlink:href="#BitstreamVeraSans-Roman-35"/>
     <use x="856.201171875" xlink:href="#BitstreamVeraSans-Roman-2c"/>
     <use x="887.98828125" xlink:href="#BitstreamVeraSans-Roman-20"/>
     <use x="919.775390625" xlink:href="#BitstreamVeraSans-Roman-4e"/>
     <use x="994.580078125" xlink:href="#BitstreamVeraSans-Roman-3a"/>
     <use x="1028.27148438" xlink:href="#BitstreamVeraSans-Roman-20"/>
     <use x="1060.05859375" xlink:href="#BitstreamVeraSans-Roman-31"/>
     <use x="1123.68164062" xlink:href="#BitstreamVeraSans-Roman-39"/>
    </g>
   </g>
  </g>
 </g>
 <defs>
  <clipPath id="p96bb2bf62b">
   <rect height="1382.4" width="1339.2" x="216.0" y="172.8"/>
  </clipPath>
 </defs>
</svg>
